<svg xmlns="http://www.w3.org/2000/svg"  viewBox="0 0 100 100" width="100px" height="100px"><path fill="#c7ede6" d="M87.215,55.71C88.35,53.555,89,51.105,89,48.5c0-6.621-4.159-12.257-10.001-14.478 C78.999,34.015,79,34.008,79,34c0-11.598-9.402-21-21-21c-9.784,0-17.981,6.701-20.313,15.757C36.211,28.272,34.638,28,33,28 c-7.692,0-14.023,5.793-14.89,13.252C12.906,42.353,9,46.969,9,52.5C9,58.851,14.149,64,20.5,64c0.177,0,0.352-0.012,0.526-0.022 C21.022,64.153,21,64.324,21,64.5C21,75.822,30.178,85,41.5,85c6.437,0,12.175-2.972,15.934-7.614C59.612,79.611,62.64,81,66,81 c4.65,0,8.674-2.65,10.666-6.518C77.718,74.817,78.837,75,80,75c6.075,0,11-4.925,11-11C91,60.689,89.53,57.727,87.215,55.71z"/><path fill="#fdfcef" d="M74.5,34.5V35h-3v-0.5c0,0-4.242,0-5.5,0c-2.485,0-4.5-2.015-4.5-4.5 c0-2.333,1.782-4.229,4.055-4.455C65.533,25.364,65.5,25.187,65.5,25c0-2.485,2.015-4.5,4.5-4.5c1.438,0,2.703,0.686,3.527,1.736 C73.667,19.6,75.829,17.5,78.5,17.5c2.761,0,5,2.239,5,5c0,0.446-0.077,0.87-0.187,1.282c0.642-0.777,1.6-1.282,2.687-1.282 c1.781,0,3.234,1.335,3.455,3.055C89.636,25.533,89.813,25.5,90,25.5c2.485,0,4.5,2.015,4.5,4.5s-2.015,4.5-4.5,4.5s-9.5,0-9.5,0 H74.5z"/><path fill="#472b29" d="M78.5,17c3.033,0,5.5,2.467,5.5,5.5c0,0.016,0,0.031,0,0.047C84.602,22.192,85.29,22,86,22 c1.831,0,3.411,1.261,3.858,3.005C89.905,25.002,89.952,25,90,25c2.757,0,5,2.243,5,5s-2.243,5-5,5H74.5 c-0.276,0-0.5-0.224-0.5-0.5s0.224-0.5,0.5-0.5H90c2.206,0,4-1.794,4-4s-1.794-4-4-4c-0.117,0-0.23,0.017-0.343,0.032 l-0.141,0.019c-0.021,0.003-0.041,0.004-0.062,0.004c-0.246,0-0.462-0.185-0.495-0.437C88.768,24.125,87.496,23,86,23 c-0.885,0-1.723,0.401-2.301,1.1c-0.098,0.118-0.241,0.182-0.386,0.182c-0.078,0-0.156-0.018-0.228-0.056 c-0.209-0.107-0.314-0.346-0.254-0.573C82.946,23.218,83,22.852,83,22.5c0-2.481-2.019-4.5-4.5-4.5 c-2.381,0-4.347,1.872-4.474,4.263c-0.011,0.208-0.15,0.387-0.349,0.45c-0.05,0.016-0.101,0.024-0.152,0.024 c-0.15,0-0.296-0.069-0.392-0.192C72.362,21.563,71.221,21,70,21c-2.206,0-4,1.794-4,4c0,0.117,0.017,0.23,0.032,0.343 l0.019,0.141c0.016,0.134-0.022,0.268-0.106,0.373c-0.084,0.105-0.207,0.172-0.34,0.185C63.549,26.247,62,27.949,62,30 c0,2.206,1.794,4,4,4h5.5c0.276,0,0.5,0.224,0.5,0.5S71.776,35,71.5,35H66c-2.757,0-5-2.243-5-5c0-2.397,1.689-4.413,4.003-4.877 C65.001,25.082,65,25.041,65,25c0-2.757,2.243-5,5-5c1.176,0,2.293,0.416,3.183,1.164C73.781,18.76,75.945,17,78.5,17L78.5,17z"/><path fill="#472b29" d="M80,24c1.403,0,2.609,0.999,2.913,2.341C83.28,26.119,83.699,26,84.125,26 c1.202,0,2.198,0.897,2.353,2.068C86.681,28.022,86.874,28,87.063,28c1.529,0,2.811,1.2,2.918,2.732 C89.99,30.87,89.886,30.99,89.749,31c-0.006,0-0.012,0-0.018,0c-0.13,0-0.24-0.101-0.249-0.232 c-0.089-1.271-1.151-2.268-2.419-2.268c-0.229,0-0.47,0.042-0.738,0.127c-0.022,0.007-0.045,0.01-0.067,0.01 c-0.055,0-0.11-0.02-0.156-0.054C86.038,28.537,86,28.455,86,28.375c0-1.034-0.841-1.875-1.875-1.875 c-0.447,0-0.885,0.168-1.231,0.473c-0.047,0.041-0.106,0.063-0.165,0.063c-0.032,0-0.063-0.006-0.093-0.019 c-0.088-0.035-0.148-0.117-0.155-0.212C82.377,25.512,81.288,24.5,80,24.5c-0.208,0-0.425,0.034-0.682,0.107 c-0.023,0.007-0.047,0.01-0.07,0.01c-0.109,0-0.207-0.073-0.239-0.182c-0.038-0.133,0.039-0.271,0.172-0.309 C79.483,24.04,79.744,24,80,24L80,24z"/><path fill="#472b29" d="M66.117,25.5c1.326,0,2.508,0.897,2.874,2.182c0.038,0.133-0.039,0.271-0.172,0.309 C68.795,27.997,68.772,28,68.75,28c-0.109,0-0.209-0.072-0.24-0.182C68.205,26.748,67.221,26,66.117,26 c-0.117,0-0.23,0.014-0.342,0.029c-0.012,0.002-0.023,0.003-0.035,0.003c-0.121,0-0.229-0.092-0.246-0.217 c-0.019-0.137,0.077-0.263,0.214-0.281C65.842,25.516,65.978,25.5,66.117,25.5L66.117,25.5z"/><path fill="#836f61" d="M64.542,47.375c0.208-0.917,0.25-4.375-1.333-3.75c-1.583,0.625,0.167,3.833,0.167,3.833 L64.542,47.375z"/><path fill="#836f61" d="M53.061,48.677l0.073-0.027c0.354-0.133,0.766-0.283,1.143-0.368 c0.386-0.082,0.76-0.147,1.125-0.117c0.365-0.004,0.717,0.068,1.061,0.205c0.357,0.108,0.684,0.326,1.058,0.526l0.063,0.034 c0.165,0.088,0.373,0.081,0.535-0.037c0.225-0.164,0.274-0.479,0.11-0.704c-0.304-0.417-0.691-0.802-1.184-1.061 c-0.481-0.271-1.048-0.414-1.602-0.43c-0.555,0.004-1.102,0.091-1.59,0.297c-0.495,0.208-0.921,0.46-1.321,0.856 c-0.136,0.135-0.188,0.342-0.117,0.533C52.513,48.643,52.802,48.774,53.061,48.677z"/><path fill="#836f61" d="M56.977,49.102c-0.296-0.082-0.612-0.132-0.912-0.09c-0.297,0.045-0.591,0.102-0.85,0.233 c-0.267,0.124-0.497,0.265-0.725,0.486c-0.1,0.098-0.143,0.247-0.097,0.389c0.064,0.201,0.279,0.312,0.479,0.248l0.053-0.017 l0.633-0.202c0.216-0.049,0.417-0.12,0.625-0.139c0.205-0.026,0.403-0.045,0.604-0.028c0.207-0.007,0.404,0.048,0.643,0.082 l0.053,0.007c0.079,0.011,0.162-0.012,0.226-0.069c0.117-0.104,0.128-0.283,0.024-0.401 C57.538,49.379,57.274,49.2,56.977,49.102z"/><path fill="#836f61" d="M61.286,51.357c0.422,0.259,0.925,0.206,1.123-0.118c0.198-0.324,0.018-0.796-0.404-1.055 c-0.422-0.258-0.924-0.206-1.123,0.118S60.865,51.098,61.286,51.357z"/><path fill="#836f61" d="M63.623,49.591c-0.115,0.481,0.092,0.943,0.462,1.031s0.762-0.231,0.876-0.712 c0.115-0.481-0.092-0.943-0.462-1.031S63.737,49.109,63.623,49.591z"/><path fill="#836f61" d="M38.701,58.575c0.067-0.041,0.116-0.111,0.124-0.195c0.014-0.142-0.089-0.268-0.23-0.283 l-0.046-0.004c-0.226-0.023-0.44-0.033-0.576-0.109c-0.141-0.072-0.184-0.151-0.217-0.244c-0.072-0.187-0.071-0.556,0.009-0.898 c0.038-0.17,0.106-0.3,0.2-0.608c0.082-0.264,0.136-0.53,0.176-0.804c0.073-0.543,0.085-1.133-0.15-1.753 c-0.126-0.308-0.321-0.614-0.598-0.854c-0.282-0.225-0.608-0.388-0.932-0.441c-0.599-0.092-1.159-0.096-1.747,0.115 c-0.58,0.202-1.07,0.642-1.353,1.139c-0.289,0.504-0.429,1.012-0.449,1.579c-0.006,0.169,0.102,0.328,0.272,0.378 c0.201,0.06,0.413-0.055,0.472-0.256l0.015-0.05c0.111-0.374,0.291-0.791,0.536-1.077c0.252-0.29,0.543-0.479,0.876-0.561 c0.324-0.078,0.746-0.056,1.077,0.024c0.289,0.092,0.431,0.222,0.534,0.496c0.091,0.281,0.113,0.672,0.057,1.069 c-0.028,0.197-0.068,0.399-0.127,0.591c-0.045,0.146-0.161,0.46-0.205,0.76c-0.082,0.579-0.054,1.253,0.451,1.844 c0.256,0.289,0.668,0.442,0.999,0.422C38.21,58.851,38.469,58.714,38.701,58.575z"/><path fill="#836f61" d="M73.75,56.083c0.02,0.056,0.029,0.124,0.047,0.182c-0.013-0.004-0.025-0.012-0.038-0.016 c-0.172-0.969-0.634-2.249-0.909-2.961c0.32-0.492,0.591-1.074,0.674-1.738l0.037-0.539c0.005-0.179-0.053-0.358-0.082-0.538 c-0.049-0.372-0.221-0.678-0.381-0.992c-0.719-1.208-1.814-1.809-2.842-2.326c-0.831-0.388-1.679-0.679-2.559-0.891 c0.048-0.761,0.085-1.522,0.059-2.294c-0.027-1.018-0.14-2.046-0.376-3.068c-0.243-1.019-0.648-2.041-1.315-2.94 c-0.308-0.419-0.701-0.789-1.14-1.102c7.043-5.404,6.762-17.26-9.691-10.256l-2.932-2.876c-1.104-0.91-3.164-1.709-6.693-0.352 c-8.09,3.11-18.558,15.021-19.65,22.359c-0.442,2.972,0.712,4.569,1.693,5.33l1.938,1.805c-0.556,1.664-0.669,3.514-0.213,5.005 c1.069,3.5,3.815,5.652,7.155,5.652c0.146,0,0.296-0.014,0.445-0.022C38.793,68.984,44.274,73.538,51.667,75 c17,2.167,22.583-8.5,23.583-12.833C76.25,57.833,75.333,56.416,73.75,56.083z M31.29,57.291 c-0.434-1.42-0.197-3.855,1.097-5.572c0.819-1.086,1.888-1.637,3.174-1.637c0.027,0,0.055,0,0.083,0.001 c1.74,0.039,3.039,0.576,3.86,1.597c1.664,2.068,1.047,5.539,1.016,5.704c-0.037,0.164-0.872,3.743-3.451,4.122 C33.853,61.82,31.944,59.431,31.29,57.291z M34.703,48.153c-1.548,0.218-2.896,1.014-3.912,2.362 c-0.109,0.145-0.202,0.306-0.302,0.461l-1.54-1.431c-0.925-0.722-1.256-1.872-1.012-3.516 c0.972-6.526,11.111-17.988,18.39-20.786c1.454-0.559,3.448-1.006,4.639-0.03l2.358,2.315 C40.252,34.489,35.874,44.631,34.703,48.153z M51.333,32.25C51,33,50.75,33.833,50.75,33.833s3.583-2.167,6.083-2 c-0.417,0.667-1,1.083-1,1.083s2.833,0,4.917,1.5c-2.5-0.333-8.667-1.333-16.417,3.5C44.333,37.916,48.25,33.166,51.333,32.25z M60.5,70.083c-13.013-0.303-12.838-11.939-8.829-15.702c0.584-0.548,0.606-1.439,0.023-1.987 c-6.634-6.227-0.569-11.719,1.556-11.561c3.748,0.407,5.904,1.44,8.88-1.706c1.08-0.403,2.914-0.584,3.763,2.228 c0.174,0.857,0.261,1.748,0.268,2.649c0.015,0.938-0.065,1.883-0.147,2.828c-0.034,0.42,0.252,0.813,0.676,0.895 c0.971,0.188,1.961,0.5,2.855,0.923c0.875,0.423,1.742,0.983,2.114,1.665c0.838,1.267-0.756,3.068-2.342,4.161 c-3.35,2.289-7.697,2.955-11.833,2.57l-0.779-0.084l-0.388-0.052l-0.194-0.026l-0.265-0.027 c-0.723-0.053-1.469,0.196-2.015,0.643c-1.1,0.874-1.547,2.458-0.965,3.772c0.278,0.651,0.78,1.159,1.32,1.506 c0.559,0.355,1.11,0.531,1.653,0.703c1.096,0.328,2.213,0.504,3.332,0.569c4.481,0.25,8.965-1.53,11.983-4.632 c-1.747,1.278-3.68,2.222-5.692,2.828c-2.029,0.555-4.138,0.746-6.199,0.553c-1.028-0.104-2.047-0.295-3.004-0.62 c-0.984-0.324-1.795-0.746-2.076-1.471c-0.046-0.103-0.055-0.216-0.076-0.327c1.259,0.419,2.565,0.688,3.884,0.762 c0.786,0.053,1.575,0.034,2.358-0.04c0.789-0.077,1.55-0.198,2.341-0.432c0.206-0.061,0.327-0.276,0.271-0.484 c-0.057-0.211-0.275-0.337-0.487-0.279l-0.024,0.006c-0.68,0.184-1.438,0.294-2.173,0.346c-0.74,0.052-1.486,0.054-2.224-0.013 c-1.313-0.103-2.601-0.412-3.829-0.871c0.119-0.279,0.286-0.539,0.523-0.718c0.294-0.228,0.64-0.333,0.994-0.305l0.342,0.046 l0.412,0.061l0.826,0.102c2.205,0.233,4.451,0.189,6.662-0.209c2.201-0.419,4.385-1.177,6.279-2.5 c0.549-0.387,1.066-0.821,1.546-1.311c0.291,0.825,0.586,1.788,0.604,2.316c0.013,0.363,0.303,0.657,0.667,0.674 c0.055,0.003,0.544,0.041,0.851,0.56c0.044,0.074,0.086,0.169,0.124,0.278C74.004,63.076,70.1,70.013,60.5,70.083z"/><g><path fill="#472b29" d="M63.375,47.708c-0.091,0-0.175-0.05-0.219-0.13c-0.049-0.09-1.2-2.224-0.757-3.447 c0.128-0.353,0.37-0.602,0.718-0.739c0.511-0.201,0.859-0.037,1.062,0.137c0.874,0.75,0.762,3.219,0.606,3.9 c-0.024,0.107-0.116,0.186-0.226,0.194l-1.167,0.083C63.387,47.708,63.381,47.708,63.375,47.708z M64.542,47.375h0.006H64.542z M63.565,43.8c-0.073,0-0.161,0.016-0.265,0.057c-0.212,0.084-0.354,0.229-0.432,0.444c-0.282,0.777,0.319,2.239,0.652,2.896 l0.811-0.058c0.135-0.866,0.102-2.732-0.479-3.23C63.792,43.857,63.704,43.8,63.565,43.8z"/><path fill="#472b29" d="M52.886,48.959c-0.304,0-0.591-0.186-0.705-0.487c-0.104-0.277-0.036-0.59,0.174-0.799 c0.392-0.386,0.823-0.667,1.401-0.909c0.484-0.205,1.051-0.312,1.684-0.317c0.62,0.018,1.23,0.182,1.727,0.462 c0.468,0.246,0.895,0.627,1.262,1.131c0.082,0.112,0.057,0.268-0.054,0.349c-0.112,0.081-0.268,0.057-0.349-0.054 c-0.323-0.441-0.692-0.773-1.098-0.987c-0.434-0.245-0.962-0.386-1.493-0.402c-0.558,0.004-1.06,0.098-1.484,0.278 c-0.517,0.217-0.9,0.465-1.243,0.804c-0.07,0.07-0.093,0.175-0.059,0.267c0.049,0.129,0.194,0.196,0.324,0.147l0.073-0.027 c0.128-0.048,0.273,0.017,0.322,0.146c0.049,0.129-0.017,0.273-0.146,0.322l-0.073,0.027 C53.063,48.943,52.974,48.959,52.886,48.959z"/><path fill="#472b29" d="M54.491,49.982c-0.065,0-0.13-0.025-0.179-0.075c-0.096-0.099-0.094-0.257,0.005-0.354 c0.226-0.22,0.47-0.385,0.794-0.534c0.267-0.135,0.561-0.2,0.917-0.254c0.3-0.041,0.631-0.009,1.016,0.096 c0.345,0.113,0.644,0.311,0.878,0.575c0.092,0.103,0.082,0.261-0.021,0.353c-0.104,0.091-0.262,0.082-0.353-0.021 c-0.173-0.195-0.403-0.347-0.648-0.428c-0.308-0.084-0.574-0.111-0.8-0.08c-0.306,0.046-0.556,0.1-0.771,0.209 c-0.281,0.131-0.478,0.262-0.663,0.442C54.617,49.958,54.554,49.982,54.491,49.982z"/><path fill="#472b29" d="M61.838,51.769c-0.225,0-0.463-0.065-0.683-0.199l0,0c-0.539-0.331-0.756-0.958-0.486-1.399 c0.27-0.44,0.929-0.53,1.466-0.2c0.539,0.33,0.757,0.958,0.487,1.398C62.462,51.631,62.166,51.769,61.838,51.769z M61.417,51.144c0.299,0.184,0.656,0.167,0.78-0.035c0.124-0.202-0.024-0.528-0.322-0.711c-0.297-0.182-0.655-0.167-0.779,0.035 C60.971,50.635,61.119,50.961,61.417,51.144L61.417,51.144z"/><path fill="#472b29" d="M64.207,50.886c-0.061,0-0.121-0.007-0.18-0.021c-0.252-0.06-0.464-0.245-0.583-0.509 c-0.109-0.245-0.132-0.537-0.064-0.823l0,0c0.068-0.286,0.22-0.537,0.428-0.706c0.225-0.183,0.5-0.252,0.749-0.192 c0.252,0.06,0.465,0.245,0.583,0.509c0.11,0.245,0.133,0.537,0.064,0.823c-0.068,0.286-0.22,0.537-0.428,0.706 C64.604,50.812,64.404,50.886,64.207,50.886z M64.375,49.114c-0.109,0-0.201,0.061-0.251,0.101 c-0.121,0.099-0.215,0.257-0.257,0.433c0,0,0,0,0,0c-0.042,0.177-0.03,0.36,0.034,0.503c0.032,0.071,0.105,0.194,0.242,0.227 c0.14,0.033,0.258-0.044,0.318-0.094c0.121-0.099,0.215-0.257,0.257-0.433c0.042-0.177,0.03-0.361-0.034-0.503 c-0.032-0.071-0.105-0.194-0.242-0.227C64.418,49.116,64.396,49.114,64.375,49.114z M63.623,49.591h0.006H63.623z"/><path fill="#472b29" d="M37.802,59.107c-0.399,0-0.845-0.198-1.12-0.509c-0.463-0.542-0.629-1.21-0.511-2.045 c0.039-0.265,0.125-0.528,0.183-0.702l0.031-0.096c0.049-0.159,0.088-0.34,0.119-0.553c0.05-0.353,0.032-0.711-0.047-0.957 c-0.072-0.191-0.153-0.265-0.373-0.335c-0.306-0.073-0.682-0.082-0.942-0.02c-0.279,0.068-0.523,0.226-0.746,0.481 c-0.19,0.222-0.363,0.572-0.485,0.984c-0.063,0.212-0.17,0.345-0.318,0.425c-0.148,0.081-0.319,0.099-0.479,0.051 c-0.275-0.082-0.461-0.339-0.451-0.626c0.022-0.622,0.176-1.16,0.482-1.695c0.324-0.571,0.88-1.039,1.487-1.25 c0.556-0.2,1.133-0.239,1.867-0.126c0.357,0.058,0.719,0.228,1.05,0.493c0.288,0.248,0.518,0.576,0.673,0.954 c0.275,0.725,0.233,1.386,0.167,1.881c-0.045,0.313-0.105,0.588-0.185,0.844c-0.045,0.148-0.084,0.256-0.118,0.348 c-0.033,0.09-0.059,0.16-0.077,0.241c-0.074,0.314-0.068,0.629-0.02,0.754c0.02,0.055,0.027,0.075,0.097,0.111 c0.079,0.044,0.235,0.059,0.387,0.074l0.102,0.01c0.181,0.018,0.302,0.084,0.388,0.189c0.086,0.105,0.125,0.238,0.111,0.373 c-0.015,0.157-0.106,0.301-0.243,0.384c0,0,0,0-0.001,0.001c-0.251,0.15-0.553,0.311-0.958,0.316 C37.849,59.107,37.825,59.107,37.802,59.107z M35.541,53.35c0.224,0,0.46,0.027,0.678,0.08c0.38,0.121,0.581,0.308,0.709,0.651 c0.107,0.33,0.132,0.76,0.071,1.192c-0.035,0.24-0.079,0.446-0.136,0.631l-0.034,0.105c-0.052,0.158-0.13,0.396-0.162,0.617 c-0.098,0.693,0.027,1.216,0.393,1.645c0.188,0.212,0.508,0.348,0.794,0.335c0.292-0.004,0.506-0.118,0.718-0.245l0,0 c0.001-0.001,0.004-0.004,0.004-0.006l-0.15-0.023c-0.212-0.02-0.413-0.039-0.575-0.131c-0.209-0.106-0.285-0.251-0.33-0.379 c-0.089-0.232-0.089-0.652,0.002-1.039c0.022-0.099,0.053-0.187,0.094-0.3c0.031-0.085,0.068-0.186,0.11-0.324 c0.072-0.232,0.126-0.482,0.167-0.767c0.059-0.434,0.096-1.015-0.137-1.628c-0.123-0.3-0.306-0.562-0.527-0.753 c-0.253-0.202-0.543-0.34-0.809-0.384c-0.654-0.101-1.139-0.07-1.623,0.104c-0.498,0.173-0.953,0.557-1.22,1.027 c-0.265,0.462-0.397,0.927-0.417,1.465c-0.002,0.059,0.036,0.112,0.093,0.129c0.058,0.016,0.144-0.029,0.162-0.088 c0.097-0.327,0.282-0.847,0.601-1.219c0.29-0.334,0.628-0.549,1.007-0.641C35.177,53.368,35.355,53.35,35.541,53.35z M38.701,58.575h0.006H38.701z"/><path fill="#472b29" d="M56.059,75.541c-1.378,0-2.849-0.092-4.424-0.293c-0.137-0.018-0.234-0.143-0.216-0.28 c0.017-0.137,0.142-0.233,0.28-0.217C71.277,77.25,74.864,62.73,75.006,62.11c0.553-2.394,0.544-4.061-0.026-4.953 c-0.227-0.356-0.549-0.602-0.979-0.747c-0.009,0.012-0.019,0.024-0.03,0.035c-0.068,0.066-0.167,0.088-0.255,0.057 c-0.09-0.028-0.187-0.116-0.203-0.209c-0.168-0.953-0.634-2.236-0.896-2.915c-0.029-0.075-0.02-0.159,0.024-0.227 c0.359-0.552,0.567-1.086,0.635-1.632l0.035-0.525c0.002-0.084-0.021-0.191-0.044-0.304c-0.013-0.059-0.025-0.117-0.035-0.176 c-0.039-0.3-0.17-0.555-0.308-0.824l-0.049-0.095c-0.661-1.109-1.669-1.681-2.731-2.216c-0.796-0.371-1.618-0.657-2.506-0.872 c-0.118-0.028-0.199-0.137-0.191-0.259c0.053-0.839,0.083-1.547,0.059-2.27c-0.027-1.062-0.151-2.077-0.369-3.02 c-0.265-1.107-0.693-2.066-1.272-2.847c-0.281-0.383-0.645-0.734-1.084-1.047c-0.064-0.046-0.104-0.12-0.105-0.199 c-0.001-0.079,0.035-0.155,0.098-0.203c3.538-2.714,5.235-7.218,3.707-9.835c-1.661-2.845-6.454-2.842-13.147,0.008 c-0.094,0.04-0.201,0.02-0.273-0.052l-2.933-2.876c-1.037-0.853-3.01-1.612-6.428-0.297 c-8.027,3.086-18.411,14.892-19.493,22.162c-0.447,3.007,0.81,4.483,1.599,5.096l1.955,1.819 c0.072,0.067,0.098,0.169,0.067,0.262c-0.563,1.683-0.64,3.452-0.211,4.853c1.032,3.377,3.682,5.475,6.916,5.475 c0.1,0,0.201-0.007,0.303-0.014l0.128-0.008c0.128-0.001,0.216,0.064,0.251,0.171c0.73,2.202,2.095,4.3,3.947,6.069 c0.1,0.095,0.104,0.254,0.008,0.354c-0.094,0.1-0.252,0.104-0.354,0.008c-1.859-1.776-3.244-3.878-4.014-6.09 c-0.09,0.006-0.181,0.01-0.27,0.01c-3.462,0-6.296-2.234-7.395-5.829c-0.445-1.455-0.384-3.271,0.165-5.004l-1.821-1.696 c-0.858-0.665-2.255-2.291-1.77-5.55c1.102-7.405,11.653-19.42,19.807-22.555c3.644-1.401,5.786-0.561,6.942,0.392l2.83,2.774 c9.751-4.109,12.772-1.187,13.621,0.265c1.639,2.807,0.034,7.361-3.577,10.281c0.366,0.292,0.679,0.614,0.932,0.958 c0.619,0.835,1.075,1.855,1.356,3.03c0.226,0.977,0.354,2.026,0.382,3.119c0.023,0.68-0.001,1.344-0.047,2.108 c0.844,0.216,1.632,0.497,2.403,0.857c1.137,0.573,2.213,1.186,2.951,2.425l0.056,0.108c0.152,0.296,0.309,0.602,0.358,0.98 c0.007,0.042,0.018,0.094,0.029,0.145c0.029,0.137,0.059,0.278,0.055,0.432l-0.037,0.549c-0.074,0.6-0.285,1.169-0.645,1.749 c0.243,0.637,0.612,1.673,0.809,2.555c0.653,0.165,1.132,0.499,1.463,1.018c0.654,1.024,0.685,2.769,0.092,5.335 C75.358,62.81,72.217,75.541,56.059,75.541z M49.195,74.626c-0.024,0-0.049-0.004-0.074-0.011 c-2.337-0.723-4.465-1.771-6.326-3.114c-0.112-0.081-0.137-0.237-0.056-0.349c0.081-0.113,0.238-0.137,0.349-0.056 c1.816,1.312,3.896,2.335,6.18,3.042c0.132,0.041,0.206,0.181,0.165,0.313C49.4,74.557,49.302,74.626,49.195,74.626z M60.5,70.333c-0.137,0-0.249-0.111-0.25-0.248c-0.001-0.138,0.11-0.251,0.248-0.252c9.559-0.071,13.235-7.023,13.318-11.422 c-0.028-0.074-0.058-0.139-0.089-0.192c-0.239-0.404-0.608-0.435-0.649-0.437c-0.488-0.023-0.885-0.425-0.903-0.915 c-0.012-0.355-0.175-1.011-0.462-1.868c-0.399,0.378-0.833,0.733-1.294,1.058c-1.733,1.21-3.878,2.065-6.376,2.541 c-2.146,0.386-4.41,0.458-6.735,0.212l-1.587-0.21c-0.28-0.021-0.563,0.065-0.807,0.254c-0.124,0.093-0.232,0.221-0.327,0.381 c1.171,0.415,2.348,0.671,3.5,0.761c0.138,0.011,0.241,0.131,0.229,0.269c-0.011,0.138-0.127,0.239-0.269,0.23 c-1.284-0.101-2.595-0.399-3.897-0.886c-0.063-0.024-0.115-0.073-0.142-0.136s-0.027-0.134,0-0.197 c0.152-0.357,0.355-0.633,0.602-0.819c0.341-0.265,0.743-0.388,1.165-0.354l1.59,0.21c2.275,0.24,4.492,0.171,6.587-0.207 c2.426-0.462,4.506-1.29,6.18-2.459c0.548-0.386,1.057-0.817,1.51-1.28c0.061-0.062,0.148-0.088,0.233-0.069 c0.084,0.019,0.153,0.08,0.182,0.161c0.394,1.118,0.602,1.923,0.619,2.39c0.008,0.232,0.196,0.422,0.428,0.433 c0.114,0.006,0.69,0.067,1.055,0.682c0.051,0.086,0.101,0.196,0.145,0.323c0.01,0.028,0.015,0.057,0.014,0.086 c-0.062,4.585-3.866,11.887-13.815,11.96C60.501,70.333,60.5,70.333,60.5,70.333z M58.411,70.176 c-0.011,0-0.022-0.001-0.033-0.002c-5.025-0.665-8.371-3.44-9.18-7.615c-0.026-0.135,0.063-0.267,0.198-0.293 c0.128-0.026,0.266,0.062,0.293,0.198c0.45,2.322,2.185,6.346,8.754,7.215c0.137,0.018,0.233,0.144,0.215,0.281 C58.642,70.084,58.534,70.176,58.411,70.176z M60.024,64.322c-0.285,0-0.57-0.008-0.855-0.024 c-1.196-0.069-2.336-0.264-3.389-0.579c-0.528-0.167-1.122-0.354-1.715-0.731c-0.457-0.293-1.072-0.812-1.417-1.619 c-0.614-1.387-0.178-3.098,1.039-4.066c0.601-0.491,1.42-0.752,2.189-0.696l1.635,0.191c4.515,0.42,8.663-0.477,11.665-2.528 c1.587-1.094,2.977-2.756,2.274-3.817c-0.301-0.551-0.975-1.075-2.015-1.578c-0.843-0.399-1.81-0.711-2.794-0.903 c-0.545-0.105-0.923-0.604-0.877-1.161c0.076-0.873,0.161-1.86,0.146-2.804c-0.007-0.902-0.096-1.777-0.264-2.604 c-0.313-1.035-0.801-1.734-1.444-2.052c-0.672-0.333-1.413-0.195-1.933-0.01c-2.549,2.67-4.546,2.378-7.306,1.972 c-0.544-0.08-1.121-0.165-1.742-0.232c-0.93-0.065-2.913,1.203-3.822,3.274c-0.644,1.466-1.18,4.436,2.464,7.856 c0.326,0.306,0.505,0.717,0.505,1.155c0,0.452-0.188,0.877-0.528,1.197c-0.279,0.262-0.543,0.569-0.785,0.91 c-0.079,0.113-0.235,0.139-0.348,0.06c-0.113-0.08-0.14-0.236-0.06-0.348c0.26-0.369,0.546-0.701,0.851-0.987 c0.238-0.224,0.37-0.52,0.37-0.832c0-0.299-0.124-0.58-0.348-0.791c-3.869-3.631-3.277-6.835-2.58-8.422 c0.948-2.157,3.076-3.658,4.326-3.571c0.636,0.069,1.219,0.155,1.769,0.235c2.721,0.399,4.52,0.664,6.911-1.864 c0.026-0.028,0.059-0.049,0.094-0.062c0.614-0.229,1.525-0.414,2.383,0.011c0.772,0.383,1.346,1.183,1.707,2.378 c0.18,0.881,0.271,1.788,0.279,2.72c0.016,0.967-0.071,1.969-0.148,2.852c-0.024,0.296,0.185,0.572,0.475,0.628 c1.024,0.199,2.032,0.525,2.915,0.942c1.137,0.55,1.886,1.146,2.227,1.771c0.881,1.331-0.578,3.216-2.419,4.487 c-3.099,2.117-7.365,3.045-11.998,2.613l-1.629-0.19c-0.64-0.048-1.324,0.173-1.831,0.587c-1.044,0.83-1.419,2.292-0.895,3.477 c0.296,0.694,0.831,1.142,1.227,1.397c0.537,0.341,1.074,0.51,1.593,0.675c1.013,0.303,2.114,0.491,3.271,0.558 c3.196,0.179,6.409-0.684,9.083-2.371c-0.878,0.418-1.791,0.771-2.734,1.055c-2.084,0.57-4.2,0.758-6.294,0.562 c-1.153-0.117-2.154-0.324-3.062-0.632c-0.854-0.281-1.88-0.72-2.228-1.617c-0.043-0.095-0.061-0.202-0.076-0.296l-0.013-0.074 c-0.017-0.087,0.014-0.177,0.081-0.235c0.067-0.058,0.16-0.077,0.244-0.049c1.283,0.427,2.568,0.679,3.819,0.75 c0.737,0.049,1.518,0.036,2.321-0.039c0.888-0.086,1.596-0.217,2.294-0.422c0.076-0.022,0.121-0.103,0.101-0.179 c-0.036-0.133,0.042-0.271,0.176-0.307c0.135-0.037,0.271,0.043,0.307,0.176c0.091,0.336-0.106,0.69-0.441,0.79 c-0.72,0.212-1.479,0.352-2.388,0.441c-0.832,0.078-1.638,0.091-2.399,0.04c-1.144-0.064-2.317-0.276-3.49-0.63 c0.263,0.481,0.844,0.846,1.853,1.178c0.874,0.296,1.838,0.495,2.952,0.608c2.033,0.191,4.088,0.008,6.107-0.545 c2.029-0.611,3.918-1.55,5.611-2.788c0.103-0.076,0.251-0.061,0.336,0.038c0.085,0.098,0.082,0.245-0.009,0.338 C68.431,62.588,64.251,64.322,60.024,64.322z M36.504,61.782c-3.017,0-4.813-2.322-5.453-4.418 c-0.452-1.479-0.208-4.013,1.137-5.795c0.869-1.152,2.004-1.737,3.374-1.737l0.087,0.001c1.818,0.04,3.181,0.609,4.05,1.69 c1.742,2.165,1.095,5.755,1.067,5.906c-0.037,0.168-0.908,3.919-3.66,4.323C36.9,61.772,36.699,61.782,36.504,61.782z M35.562,50.332c-1.205,0-2.205,0.517-2.975,1.538c-1.245,1.65-1.474,3.987-1.058,5.348l0,0c0.626,2.051,2.449,4.34,5.516,4.038 c2.404-0.354,3.199-3.782,3.231-3.927c0.025-0.134,0.632-3.504-0.967-5.492c-0.773-0.961-2.008-1.467-3.67-1.503L35.562,50.332z M49.272,60.624c-0.002,0-0.005,0-0.007,0c-0.138-0.004-0.247-0.119-0.243-0.257c0.028-0.981,0.193-1.943,0.489-2.86 c0.042-0.131,0.181-0.203,0.315-0.161c0.131,0.042,0.203,0.183,0.161,0.315c-0.282,0.872-0.438,1.787-0.465,2.72 C49.519,60.517,49.407,60.624,49.272,60.624z M30.489,51.226c-0.063,0-0.124-0.024-0.17-0.067l-1.54-1.431 c-0.987-0.768-1.348-1.995-1.089-3.736c0.981-6.591,11.208-18.161,18.547-20.983c1.515-0.582,3.591-1.052,4.888,0.01l2.375,2.33 c0.057,0.056,0.083,0.135,0.072,0.214c-0.012,0.079-0.06,0.148-0.13,0.185C40.622,34.575,36.232,44.347,34.94,48.232 c-0.03,0.09-0.108,0.156-0.203,0.169c-1.493,0.21-2.789,0.994-3.748,2.265c-0.074,0.098-0.141,0.205-0.207,0.312l-0.084,0.133 c-0.04,0.062-0.105,0.104-0.179,0.113C30.51,51.225,30.499,51.226,30.489,51.226z M49.119,24.888 c-0.969,0-2.011,0.323-2.703,0.589c-7.217,2.775-17.27,14.128-18.232,20.59c-0.23,1.547,0.07,2.62,0.918,3.282l1.335,1.239 c0.049-0.076,0.099-0.152,0.153-0.223c1.008-1.336,2.362-2.175,3.924-2.435c1.36-4.003,5.799-13.641,18.392-20.46l-2.116-2.077 C50.339,25.022,49.744,24.888,49.119,24.888z M34.703,48.153h0.006H34.703z M44.333,38.167c-0.07,0-0.139-0.029-0.188-0.085 c-0.081-0.092-0.083-0.229-0.005-0.324c0.162-0.197,4.001-4.82,7.122-5.747c0.091-0.028,0.194,0.001,0.259,0.075 c0.064,0.073,0.08,0.177,0.041,0.267c-0.144,0.323-0.272,0.665-0.372,0.946c1.126-0.608,3.693-1.843,5.66-1.713 c0.088,0.006,0.166,0.057,0.206,0.136s0.036,0.172-0.011,0.246c-0.185,0.296-0.399,0.544-0.587,0.734 c0.972,0.087,2.89,0.399,4.438,1.513c0.093,0.067,0.129,0.189,0.086,0.295c-0.042,0.106-0.15,0.171-0.266,0.156l-0.216-0.029 c-2.566-0.346-8.576-1.158-16.035,3.493C44.425,38.154,44.379,38.167,44.333,38.167z M50.886,32.677 c-1.91,0.804-4.061,2.888-5.308,4.219c6.137-3.38,11.182-3.203,13.978-2.885c-1.79-0.833-3.699-0.845-3.722-0.845 c-0.108,0-0.205-0.07-0.238-0.174c-0.033-0.103,0.004-0.216,0.092-0.28c0.004-0.003,0.333-0.241,0.659-0.635 c-2.355,0.104-5.435,1.949-5.467,1.969c-0.088,0.054-0.201,0.047-0.283-0.016c-0.082-0.063-0.116-0.17-0.086-0.269 C50.519,33.735,50.667,33.245,50.886,32.677z"/></g><g><path fill="#fff" d="M14.5,49h-10C4.224,49,4,48.776,4,48.5S4.224,48,4.5,48h10c0.276,0,0.5,0.224,0.5,0.5 S14.777,49,14.5,49z"/><path fill="#fff" d="M17.5,49h-1c-0.276,0-0.5-0.224-0.5-0.5s0.224-0.5,0.5-0.5h1c0.276,0,0.5,0.224,0.5,0.5 S17.777,49,17.5,49z"/><path fill="#fff" d="M22.491,51H13.5c-0.276,0-0.5-0.224-0.5-0.5s0.224-0.5,0.5-0.5h8.991c0.276,0,0.5,0.224,0.5,0.5 S22.767,51,22.491,51z"/><path fill="#fff" d="M11.5,51h-1c-0.276,0-0.5-0.224-0.5-0.5s0.224-0.5,0.5-0.5h1c0.276,0,0.5,0.224,0.5,0.5 S11.777,51,11.5,51z"/><path fill="#fff" d="M8.5,51h-2C6.224,51,6,50.776,6,50.5S6.224,50,6.5,50h2C8.776,50,9,50.224,9,50.5S8.777,51,8.5,51 z"/><path fill="#fff" d="M14.5,53h-2c-0.276,0-0.5-0.224-0.5-0.5s0.224-0.5,0.5-0.5h2c0.276,0,0.5,0.224,0.5,0.5 S14.776,53,14.5,53z"/><path fill="#fff" d="M17.5,44c-0.177,0-0.823,0-1,0c-0.276,0-0.5,0.224-0.5,0.5c0,0.276,0.224,0.5,0.5,0.5 c0.177,0,0.823,0,1,0c0.276,0,0.5-0.224,0.5-0.5C18,44.224,17.776,44,17.5,44z"/><path fill="#fff" d="M17.5,46c-0.177,0-4.823,0-5,0c-0.276,0-0.5,0.224-0.5,0.5c0,0.276,0.224,0.5,0.5,0.5 c0.177,0,4.823,0,5,0c0.276,0,0.5-0.224,0.5-0.5C18,46.224,17.776,46,17.5,46z"/><path fill="#fff" d="M22.5,48c-0.177,0-2.823,0-3,0c-0.276,0-0.5,0.224-0.5,0.5c0,0.276,0.224,0.5,0.5,0.5 c0.177,0,2.823,0,3,0c0.276,0,0.5-0.224,0.5-0.5C23,48.224,22.776,48,22.5,48z"/></g><g><path fill="#fff" d="M87.5,67h-10c-0.276,0-0.5-0.224-0.5-0.5s0.224-0.5,0.5-0.5h10c0.276,0,0.5,0.224,0.5,0.5 S87.776,67,87.5,67z"/><path fill="#fff" d="M91.5,67h-2c-0.276,0-0.5-0.224-0.5-0.5s0.224-0.5,0.5-0.5h2c0.276,0,0.5,0.224,0.5,0.5 S91.776,67,91.5,67z"/><path fill="#fff" d="M96.5,69h-10c-0.276,0-0.5-0.224-0.5-0.5s0.224-0.5,0.5-0.5h10c0.276,0,0.5,0.224,0.5,0.5 S96.777,69,96.5,69z"/><path fill="#fff" d="M84.5,69h-1c-0.276,0-0.5-0.224-0.5-0.5s0.224-0.5,0.5-0.5h1c0.276,0,0.5,0.224,0.5,0.5 S84.776,69,84.5,69z"/><path fill="#fff" d="M81.47,69H79.5c-0.276,0-0.5-0.224-0.5-0.5s0.224-0.5,0.5-0.5h1.97c0.276,0,0.5,0.224,0.5,0.5 S81.746,69,81.47,69z"/><path fill="#fff" d="M90.5,65h-5c-0.276,0-0.5-0.224-0.5-0.5s0.224-0.5,0.5-0.5h5c0.276,0,0.5,0.224,0.5,0.5 S90.777,65,90.5,65z"/><path fill="#fff" d="M87.5,71h-2c-0.276,0-0.5-0.224-0.5-0.5s0.224-0.5,0.5-0.5h2c0.276,0,0.5,0.224,0.5,0.5 S87.776,71,87.5,71z"/></g><g><path fill="#fdfcef" d="M19.5,77.5c0,0-1.567,0-3.5,0s-3.5-1.567-3.5-3.5c0-1.781,1.335-3.234,3.055-3.455 C15.527,70.366,15.5,70.187,15.5,70c0-1.933,1.567-3.5,3.5-3.5c1.032,0,1.95,0.455,2.59,1.165 c0.384-1.808,1.987-3.165,3.91-3.165c2.209,0,4,1.791,4,4c0,0.191-0.03,0.374-0.056,0.558C29.872,68.714,30.408,68.5,31,68.5 c1.228,0,2.245,0.887,2.455,2.055C33.634,70.527,33.813,70.5,34,70.5c1.933,0,3.5,1.567,3.5,3.5s-1.567,3.5-3.5,3.5s-7.5,0-7.5,0 V78h-7V77.5z"/><path fill="#472b29" d="M17.75,73c0.138,0,0.25-0.112,0.25-0.25c0-1.223-0.995-2.218-2.218-2.218 c-0.034,0.009-0.737-0.001-1.244,0.136c-0.133,0.036-0.212,0.173-0.176,0.306c0.036,0.134,0.173,0.213,0.306,0.176 c0.444-0.12,1.1-0.12,1.113-0.118c0.948,0,1.719,0.771,1.719,1.718C17.5,72.888,17.612,73,17.75,73z"/><circle cx="24.5" cy="77.5" r=".5" fill="#472b29"/><path fill="#472b29" d="M16,78h3.5c0.276,0,0.5-0.224,0.5-0.5S19.776,77,19.5,77H16c-1.654,0-3-1.346-3-3 c0-1.496,1.125-2.768,2.618-2.959c0.134-0.018,0.255-0.088,0.336-0.196s0.115-0.244,0.094-0.377C16.025,70.314,16,70.16,16,70 c0-1.654,1.346-3,3-3c0.85,0,1.638,0.355,2.219,1c0.125,0.139,0.321,0.198,0.5,0.148c0.182-0.049,0.321-0.195,0.36-0.379 C22.42,66.165,23.859,65,25.5,65c1.93,0,3.5,1.57,3.5,3.5c0,0.143-0.021,0.28-0.041,0.418c-0.029,0.203,0.063,0.438,0.242,0.54 c0.179,0.102,0.396,0.118,0.556-0.01C30.122,69.155,30.551,69,31,69c0.966,0,1.792,0.691,1.963,1.644 c0.048,0.267,0.296,0.446,0.569,0.405C33.686,71.025,33.84,71,34,71c1.654,0,3,1.346,3,3s-1.346,3-3,3h-7.5 c-0.276,0-0.5,0.224-0.5,0.5s0.224,0.5,0.5,0.5H34c2.206,0,4-1.794,4-4s-1.794-4-4-4c-0.059,0-0.116,0.002-0.174,0.006 C33.412,68.82,32.289,68,31,68c-0.349,0-0.689,0.061-1.011,0.18C29.824,65.847,27.874,64,25.5,64 c-1.831,0-3.466,1.127-4.153,2.774C20.667,66.276,19.845,66,19,66c-2.206,0-4,1.794-4,4c0,0.048,0.001,0.095,0.004,0.142 C13.261,70.59,12,72.169,12,74C12,76.206,13.794,78,16,78z"/><path fill="#472b29" d="M21.5,77c0.159,0,0.841,0,1,0c0.276,0,0.5,0.224,0.5,0.5c0,0.276-0.224,0.5-0.5,0.5 c-0.159,0-0.841,0-1,0c-0.276,0-0.5-0.224-0.5-0.5C21,77.224,21.224,77,21.5,77z"/></g></svg>