<svg version="1.1" id="CARD" xmlns="http://www.w3.org/2000/svg" xmlns:xlink="http://www.w3.org/1999/xlink" x="0px" y="0px" viewBox="0 0 72 42" style="enable-background:new 0 0 72 42;" xml:space="preserve">
 <style type="text/css">
  .st0{fill:#6428B4;}
 </style>
 <g>
  <g id="LOGO_7_">
   <path class="st0" d="M57,6c-5.2,0-9.8,2.7-12.5,6.7l-11,16.6c-2.7,4-7.3,6.7-12.5,6.7c-8.3,0-15-6.7-15-15S12.7,6,21,6
			c5.2,0,9.7,2.6,12.4,6.6l2,3l3.6-5.4l-0.5-0.8C34.7,3.7,28.3,0,21,0C9.4,0,0,9.4,0,21s9.4,21,21,21c7.3,0,13.8-3.7,17.5-9.4
			l4.1-6.2l1.9,2.9c2.7,4,7.3,6.7,12.5,6.7c8.3,0,15-6.7,15-15S65.3,6,57,6z M57,30c-3.1,0-5.9-1.6-7.5-4.1L46.2,21l3.3-5
			c1.6-2.4,4.4-4,7.5-4c5,0,9,4,9,9S62,30,57,30z">
   </path>
  </g>
 </g>
</svg>