<svg xmlns="http://www.w3.org/2000/svg"  viewBox="0 0 100 100" width="100px" height="100px"><path fill="#c7ede6" d="M87.215,56.71C88.35,54.555,89,52.105,89,49.5c0-6.621-4.159-12.257-10.001-14.478 C78.999,35.015,79,35.008,79,35c0-11.598-9.402-21-21-21c-9.784,0-17.981,6.701-20.313,15.757C36.211,29.272,34.638,29,33,29 c-7.692,0-14.023,5.793-14.89,13.252C12.906,43.353,9,47.969,9,53.5C9,59.851,14.149,65,20.5,65c0.177,0,0.352-0.012,0.526-0.022 C21.022,65.153,21,65.324,21,65.5C21,76.822,30.178,86,41.5,86c6.437,0,12.175-2.972,15.934-7.614C59.612,80.611,62.64,82,66,82 c4.65,0,8.674-2.65,10.666-6.518C77.718,75.817,78.837,76,80,76c6.075,0,11-4.925,11-11C91,61.689,89.53,58.727,87.215,56.71z"/><path fill="#fff" d="M16,50.5c0,0.28-0.22,0.5-0.5,0.5H9.28c0.07-0.34,0.16-0.67,0.26-1h5.96C15.78,50,16,50.22,16,50.5z"/><path fill="#fff" d="M19,50.5c0,0.28-0.22,0.5-0.5,0.5h-1c-0.28,0-0.5-0.22-0.5-0.5s0.22-0.5,0.5-0.5h1 C18.78,50,19,50.22,19,50.5z"/><path fill="#fff" d="M23.99,52.5c0,0.28-0.22,0.5-0.5,0.5H14.5c-0.28,0-0.5-0.22-0.5-0.5s0.22-0.5,0.5-0.5h8.99 C23.77,52,23.99,52.22,23.99,52.5z"/><path fill="#fff" d="M13,52.5c0,0.28-0.22,0.5-0.5,0.5h-1c-0.28,0-0.5-0.22-0.5-0.5s0.22-0.5,0.5-0.5h1 C12.78,52,13,52.22,13,52.5z"/><path fill="#fff" d="M10,52.5c0,0.28-0.22,0.5-0.5,0.5H9.01c0.02-0.34,0.04-0.67,0.09-1h0.4C9.78,52,10,52.22,10,52.5z"/><path fill="#fff" d="M16,54.5c0,0.28-0.22,0.5-0.5,0.5h-2c-0.28,0-0.5-0.22-0.5-0.5s0.22-0.5,0.5-0.5h2 C15.78,54,16,54.22,16,54.5z"/><path fill="#fff" d="M19,46.5c0,0.28-0.22,0.5-0.5,0.5h-1c-0.28,0-0.5-0.22-0.5-0.5s0.22-0.5,0.5-0.5h1 C18.78,46,19,46.22,19,46.5z"/><path fill="#fff" d="M19,48.5c0,0.28-0.22,0.5-0.5,0.5h-5c-0.28,0-0.5-0.22-0.5-0.5s0.22-0.5,0.5-0.5h5 C18.78,48,19,48.22,19,48.5z"/><path fill="#fff" d="M24,50.5c0,0.28-0.22,0.5-0.5,0.5h-3c-0.28,0-0.5-0.22-0.5-0.5s0.22-0.5,0.5-0.5h3 C23.78,50,24,50.22,24,50.5z"/><path fill="#fff" d="M88,63.5c0,0.28-0.22,0.5-0.5,0.5h-10c-0.28,0-0.5-0.22-0.5-0.5s0.22-0.5,0.5-0.5h10 C87.78,63,88,63.22,88,63.5z"/><path fill="#fff" d="M90.95,64H89.5c-0.28,0-0.5-0.22-0.5-0.5s0.22-0.5,0.5-0.5h1.31C90.88,63.33,90.92,63.66,90.95,64z"/><path fill="#fff" d="M91,65c0,0.34-0.02,0.67-0.05,1H86.5c-0.28,0-0.5-0.22-0.5-0.5s0.22-0.5,0.5-0.5H91z"/><path fill="#fff" d="M85,65.5c0,0.28-0.22,0.5-0.5,0.5h-1c-0.28,0-0.5-0.22-0.5-0.5s0.22-0.5,0.5-0.5h1 C84.78,65,85,65.22,85,65.5z"/><path fill="#fff" d="M81.97,65.5c0,0.28-0.22,0.5-0.5,0.5H79.5c-0.28,0-0.5-0.22-0.5-0.5s0.22-0.5,0.5-0.5h1.97 C81.75,65,81.97,65.22,81.97,65.5z"/><path fill="#fff" d="M90.58,61.99C90.56,62,90.53,62,90.5,62h-5c-0.28,0-0.5-0.22-0.5-0.5s0.22-0.5,0.5-0.5h4.74 C90.37,61.32,90.48,61.65,90.58,61.99z"/><path fill="#fff" d="M88,67.5c0,0.28-0.22,0.5-0.5,0.5h-2c-0.28,0-0.5-0.22-0.5-0.5s0.22-0.5,0.5-0.5h2 C87.78,67,88,67.22,88,67.5z"/><path fill="#fdfcef" d="M36.5,36.5V37h3v-0.5c0,0,4.242,0,5.5,0c2.485,0,4.5-2.015,4.5-4.5c0-2.333-1.782-4.229-4.055-4.455 C45.467,27.364,45.5,27.187,45.5,27c0-2.485-2.015-4.5-4.5-4.5c-1.438,0-2.703,0.686-3.527,1.736 C37.333,21.6,35.171,19.5,32.5,19.5c-2.761,0-5,2.239-5,5c0,0.446,0.077,0.87,0.187,1.282C27.045,25.005,26.086,24.5,25,24.5 c-1.781,0-3.234,1.335-3.455,3.055C21.364,27.533,21.187,27.5,21,27.5c-2.485,0-4.5,2.015-4.5,4.5s2.015,4.5,4.5,4.5s9.5,0,9.5,0 H36.5z"/><path fill="#472b29" d="M32.5,19c-3.033,0-5.5,2.467-5.5,5.5c0,0.016,0,0.031,0,0.047C26.398,24.192,25.71,24,25,24 c-1.831,0-3.411,1.261-3.858,3.005C21.095,27.002,21.048,27,21,27c-2.757,0-5,2.243-5,5s2.243,5,5,5h15.5 c0.276,0,0.5-0.224,0.5-0.5S36.776,36,36.5,36H21c-2.206,0-4-1.794-4-4s1.794-4,4-4c0.117,0,0.23,0.017,0.343,0.032l0.141,0.019 c0.021,0.003,0.041,0.004,0.062,0.004c0.246,0,0.462-0.185,0.495-0.437C22.232,26.125,23.504,25,25,25 c0.885,0,1.723,0.401,2.301,1.1c0.098,0.118,0.241,0.182,0.386,0.182c0.078,0,0.156-0.018,0.228-0.056 c0.209-0.107,0.314-0.346,0.254-0.573C28.054,25.218,28,24.852,28,24.5c0-2.481,2.019-4.5,4.5-4.5c2.381,0,4.347,1.872,4.474,4.263 c0.011,0.208,0.15,0.387,0.349,0.45c0.05,0.016,0.101,0.024,0.152,0.024c0.15,0,0.296-0.069,0.392-0.192 C38.638,23.563,39.779,23,41,23c2.206,0,4,1.794,4,4c0,0.117-0.017,0.23-0.032,0.343l-0.019,0.141 c-0.016,0.134,0.022,0.268,0.106,0.373c0.084,0.105,0.207,0.172,0.34,0.185C47.451,28.247,49,29.949,49,32c0,2.206-1.794,4-4,4 h-5.5c-0.276,0-0.5,0.224-0.5,0.5s0.224,0.5,0.5,0.5H45c2.757,0,5-2.243,5-5c0-2.397-1.689-4.413-4.003-4.877 C45.999,27.082,46,27.041,46,27c0-2.757-2.243-5-5-5c-1.176,0-2.293,0.416-3.183,1.164C37.219,20.76,35.055,19,32.5,19L32.5,19z"/><path fill="#472b29" d="M31,26c-1.403,0-2.609,0.999-2.913,2.341C27.72,28.119,27.301,28,26.875,28 c-1.202,0-2.198,0.897-2.353,2.068C24.319,30.022,24.126,30,23.937,30c-1.529,0-2.811,1.2-2.918,2.732 C21.01,32.87,21.114,32.99,21.251,33c0.006,0,0.012,0,0.018,0c0.13,0,0.24-0.101,0.249-0.232c0.089-1.271,1.151-2.268,2.419-2.268 c0.229,0,0.47,0.042,0.738,0.127c0.022,0.007,0.045,0.01,0.067,0.01c0.055,0,0.11-0.02,0.156-0.054 C24.962,30.537,25,30.455,25,30.375c0-1.034,0.841-1.875,1.875-1.875c0.447,0,0.885,0.168,1.231,0.473 c0.047,0.041,0.106,0.063,0.165,0.063c0.032,0,0.063-0.006,0.093-0.019c0.088-0.035,0.148-0.117,0.155-0.212 C28.623,27.512,29.712,26.5,31,26.5c0.208,0,0.425,0.034,0.682,0.107c0.023,0.007,0.047,0.01,0.07,0.01 c0.109,0,0.207-0.073,0.239-0.182c0.038-0.133-0.039-0.271-0.172-0.309C31.517,26.04,31.256,26,31,26L31,26z"/><path fill="#472b29" d="M44.883,27.5c-1.326,0-2.508,0.897-2.874,2.182c-0.038,0.133,0.039,0.271,0.172,0.309 C42.205,29.997,42.228,30,42.25,30c0.109,0,0.209-0.072,0.24-0.182C42.795,28.748,43.779,28,44.883,28 c0.117,0,0.23,0.014,0.342,0.029c0.012,0.002,0.023,0.003,0.035,0.003c0.121,0,0.229-0.092,0.246-0.217 c0.019-0.137-0.077-0.263-0.214-0.281C45.158,27.516,45.022,27.5,44.883,27.5L44.883,27.5z"/><path fill="#1a82e2" d="M72.5,42.5h-15v-15h13c1.105,0,2,0.895,2,2V42.5z"/><path fill="#1a82e2" d="M42.5,72.4h-13c-1.105,0-2-0.895-2-2v-13h15V72.4z"/><rect width="15" height="15" x="42.5" y="42.5" fill="#009dd9"/><path fill="#99e1f4" d="M42.5,57.5H27.7v-13c0-1.105,0.895-2,2-2h12.8V57.5z"/><path fill="#99e1f4" d="M55.5,72.5h-13v-15h15v13C57.5,71.605,56.605,72.5,55.5,72.5z"/><path fill="#00b2e3" d="M57.5,42.5H42.7v-13c0-1.105,0.895-2,2-2h12.8V42.5z"/><path fill="#00b2e3" d="M70.5,57.5h-13v-15h15v13C72.5,56.605,71.605,57.5,70.5,57.5z"/><path fill="#472b29" d="M71,28.4c0.331,0,0.6,0.269,0.6,0.6v27c0,0.331-0.269,0.6-0.6,0.6H58.1c-0.827,0-1.5,0.673-1.5,1.5 V71c0,0.331-0.269,0.6-0.6,0.6H29c-0.331,0-0.6-0.269-0.6-0.6V44c0-0.331,0.269-0.6,0.6-0.6h12.9c0.827,0,1.5-0.673,1.5-1.5V29 c0-0.331,0.269-0.6,0.6-0.6H71 M71,27H44c-1.105,0-2,0.895-2,2v12.9c0,0.055-0.045,0.1-0.1,0.1H29c-1.105,0-2,0.895-2,2v27 c0,1.105,0.895,2,2,2h27c1.105,0,2-0.895,2-2V58.1c0-0.055,0.045-0.1,0.1-0.1H71c1.105,0,2-0.895,2-2V29C73,27.895,72.105,27,71,27 L71,27z"/><path fill="#472b29" d="M57.5,57.5c-0.276,0-0.5-0.224-0.5-0.5V34.5c0-0.276,0.224-0.5,0.5-0.5s0.5,0.224,0.5,0.5V57 C58,57.276,57.776,57.5,57.5,57.5z"/><path fill="#472b29" d="M57.5,33c-0.276,0-0.5-0.224-0.5-0.5v-3c0-0.276,0.224-0.5,0.5-0.5s0.5,0.224,0.5,0.5v3 C58,32.776,57.776,33,57.5,33z"/><path fill="#472b29" d="M60.5,43H43c-0.276,0-0.5-0.224-0.5-0.5S42.724,42,43,42h17.5c0.276,0,0.5,0.224,0.5,0.5 S60.776,43,60.5,43z"/><path fill="#472b29" d="M68.5,43h-6c-0.276,0-0.5-0.224-0.5-0.5s0.224-0.5,0.5-0.5h6c0.276,0,0.5,0.224,0.5,0.5 S68.776,43,68.5,43z"/><path fill="#472b29" d="M72.5,43h-2c-0.276,0-0.5-0.224-0.5-0.5s0.224-0.5,0.5-0.5h2c0.276,0,0.5,0.224,0.5,0.5 S72.776,43,72.5,43z"/><path fill="#472b29" d="M42.5,63c-0.276,0-0.5-0.224-0.5-0.5V43c0-0.276,0.224-0.5,0.5-0.5S43,42.724,43,43v19.5 C43,62.776,42.776,63,42.5,63z"/><path fill="#472b29" d="M42.5,73c-0.276,0-0.5-0.224-0.5-0.5v-7c0-0.276,0.224-0.5,0.5-0.5s0.5,0.224,0.5,0.5v7 C43,72.776,42.776,73,42.5,73z"/><path fill="#472b29" d="M51.5,58h-14c-0.276,0-0.5-0.224-0.5-0.5s0.224-0.5,0.5-0.5h14c0.276,0,0.5,0.224,0.5,0.5 S51.776,58,51.5,58z"/><path fill="#472b29" d="M57.5,58h-4c-0.276,0-0.5-0.224-0.5-0.5s0.224-0.5,0.5-0.5h4c0.276,0,0.5,0.224,0.5,0.5 S57.776,58,57.5,58z"/><path fill="#472b29" d="M30.5,58h-3c-0.276,0-0.5-0.224-0.5-0.5s0.224-0.5,0.5-0.5h3c0.276,0,0.5,0.224,0.5,0.5 S30.776,58,30.5,58z"/><path fill="#472b29" d="M35.5,58h-3c-0.276,0-0.5-0.224-0.5-0.5s0.224-0.5,0.5-0.5h3c0.276,0,0.5,0.224,0.5,0.5 S35.776,58,35.5,58z"/><path fill="#fdfcef" d="M65.5,75.5c0,0,1.567,0,3.5,0s3.5-1.567,3.5-3.5c0-1.781-1.335-3.234-3.055-3.455 C69.473,68.366,69.5,68.187,69.5,68c0-1.933-1.567-3.5-3.5-3.5c-1.032,0-1.95,0.455-2.59,1.165 c-0.384-1.808-1.987-3.165-3.91-3.165c-2.209,0-4,1.791-4,4c0,0.191,0.03,0.374,0.056,0.558C55.128,66.714,54.592,66.5,54,66.5 c-1.228,0-2.245,0.887-2.455,2.055C51.366,68.527,51.187,68.5,51,68.5c-1.933,0-3.5,1.567-3.5,3.5s1.567,3.5,3.5,3.5s7.5,0,7.5,0 V76h7V75.5z"/><path fill="#472b29" d="M67.25,71C67.112,71,67,70.888,67,70.75c0-1.223,0.995-2.218,2.218-2.218 c0.034,0.009,0.737-0.001,1.244,0.136c0.133,0.036,0.212,0.173,0.176,0.306c-0.036,0.134-0.173,0.213-0.306,0.176 c-0.444-0.12-1.1-0.12-1.113-0.118c-0.948,0-1.719,0.771-1.719,1.718C67.5,70.888,67.388,71,67.25,71z"/><circle cx="60.5" cy="75.5" r=".5" fill="#472b29"/><path fill="#472b29" d="M69,76h-3.5c-0.276,0-0.5-0.224-0.5-0.5s0.224-0.5,0.5-0.5H69c1.654,0,3-1.346,3-3 c0-1.496-1.125-2.768-2.618-2.959c-0.134-0.018-0.255-0.088-0.336-0.196s-0.115-0.244-0.094-0.377C68.975,68.314,69,68.16,69,68 c0-1.654-1.346-3-3-3c-0.85,0-1.638,0.355-2.219,1c-0.125,0.139-0.321,0.198-0.5,0.148c-0.182-0.049-0.321-0.195-0.36-0.379 C62.58,64.165,61.141,63,59.5,63c-1.93,0-3.5,1.57-3.5,3.5c0,0.143,0.021,0.28,0.041,0.418c0.029,0.203-0.063,0.438-0.242,0.54 c-0.179,0.102-0.396,0.118-0.556-0.01C54.878,67.155,54.449,67,54,67c-0.966,0-1.792,0.691-1.963,1.644 c-0.048,0.267-0.296,0.446-0.569,0.405C51.314,69.025,51.16,69,51,69c-1.654,0-3,1.346-3,3s1.346,3,3,3h7.5 c0.276,0,0.5,0.224,0.5,0.5S58.776,76,58.5,76H51c-2.206,0-4-1.794-4-4s1.794-4,4-4c0.059,0,0.116,0.002,0.174,0.006 C51.588,66.82,52.711,66,54,66c0.349,0,0.689,0.061,1.011,0.18C55.176,63.847,57.126,62,59.5,62c1.831,0,3.466,1.127,4.153,2.774 C64.333,64.276,65.155,64,66,64c2.206,0,4,1.794,4,4c0,0.048-0.001,0.095-0.004,0.142C71.739,68.59,73,70.169,73,72 C73,74.206,71.206,76,69,76z"/><path fill="#472b29" d="M63.5,75c-0.159,0-0.841,0-1,0c-0.276,0-0.5,0.224-0.5,0.5c0,0.276,0.224,0.5,0.5,0.5 c0.159,0,0.841,0,1,0c0.276,0,0.5-0.224,0.5-0.5C64,75.224,63.776,75,63.5,75z"/></svg>