<svg width="1355" height="443" viewBox="0 0 1355 443" fill="none" xmlns="http://www.w3.org/2000/svg">
<path d="M1.67991 1.32004C2.15991 1.32004 2.79991 1.32004 3.59991 1.32004C4.42658 1.32004 5.27991 1.32004 6.15991 1.32004C7.06658 1.32004 7.91991 1.32004 8.71991 1.32004C9.51991 1.32004 10.1466 1.33338 10.5999 1.36004C14.1999 1.44004 17.1599 2.09338 19.4799 3.32004C21.7999 4.54671 23.5066 6.24004 24.5999 8.40005C25.7199 10.5334 26.2799 13.08 26.2799 16.04C26.2799 19.08 25.6932 21.7334 24.5199 24C23.3732 26.24 21.6132 27.9734 19.2399 29.2C16.8932 30.4 13.9466 31 10.3999 31H1.71991C1.10658 31 0.799913 30.68 0.799913 30.04V2.16004C0.799913 1.84004 0.866579 1.62671 0.999913 1.52004C1.13325 1.38671 1.35991 1.32004 1.67991 1.32004ZM8.19991 6.28004C7.93325 6.28004 7.79991 6.46671 7.79991 6.84004V25.52C7.79991 25.8934 7.97325 26.08 8.31991 26.08H9.07991C11.2666 26.08 13.0932 25.76 14.5599 25.12C16.0266 24.4534 17.1199 23.3867 17.8399 21.92C18.5866 20.4534 18.9599 18.5067 18.9599 16.08C18.9599 13.7334 18.6132 11.8534 17.9199 10.44C17.2532 9.00004 16.2132 7.94671 14.7999 7.28004C13.4132 6.61338 11.6399 6.28004 9.47991 6.28004H8.19991Z" fill="black"/>
<path d="M40.439 28.96C39.6123 29.7067 38.679 30.3067 37.639 30.76C36.6256 31.1867 35.4523 31.4 34.119 31.4C32.0923 31.4 30.4923 30.8534 29.319 29.76C28.1723 28.6667 27.599 27.2667 27.599 25.56C27.599 24.0667 28.0656 22.76 28.999 21.64C29.9323 20.52 31.2656 19.6534 32.999 19.04C34.7323 18.4 36.799 18.0534 39.199 18L40.599 17.88C40.759 17.88 40.9056 17.84 41.039 17.76C41.1723 17.68 41.239 17.5334 41.239 17.32V16.48C41.239 15.4667 40.9456 14.68 40.359 14.12C39.7723 13.5334 38.9323 13.24 37.839 13.24C37.039 13.24 36.2656 13.4267 35.519 13.8C34.799 14.1467 34.1856 14.76 33.679 15.64C33.599 15.8267 33.5056 15.9467 33.399 16C33.2923 16.0534 33.0923 16.0534 32.799 16L28.799 15.08C28.639 15.0267 28.519 14.9467 28.439 14.84C28.3856 14.7067 28.439 14.44 28.599 14.04C29.2656 12.4667 30.4123 11.3067 32.039 10.56C33.6923 9.78671 35.719 9.40004 38.119 9.40004C40.3323 9.40004 42.0923 9.68004 43.399 10.24C44.7056 10.8 45.6523 11.5867 46.239 12.6C46.8256 13.5867 47.119 14.7467 47.119 16.08V30.12C47.119 30.44 47.0656 30.6667 46.959 30.8C46.8523 30.9334 46.6523 31 46.359 31H42.239C41.9456 31 41.7323 30.8934 41.599 30.68C41.4923 30.4667 41.4256 30.2 41.399 29.88L41.319 29C41.2656 28.52 40.9723 28.5067 40.439 28.96ZM41.239 21.56C41.239 21.1067 41.039 20.88 40.639 20.88L39.519 20.96C38.8256 20.9867 38.1323 21.0934 37.439 21.28C36.7456 21.44 36.119 21.68 35.559 22C34.999 22.2934 34.5323 22.68 34.159 23.16C33.8123 23.6134 33.639 24.1467 33.639 24.76C33.639 25.56 33.919 26.2 34.479 26.68C35.039 27.1334 35.8123 27.36 36.799 27.36C37.4656 27.36 38.0523 27.2534 38.559 27.04C39.0923 26.8267 39.5456 26.5734 39.919 26.28C40.319 25.9334 40.639 25.5867 40.879 25.24C41.119 24.8934 41.239 24.5334 41.239 24.16V21.56Z" fill="black"/>
<path d="M51.218 31C50.9247 31 50.7114 30.9334 50.578 30.8C50.4447 30.6667 50.378 30.4667 50.378 30.2V10.56C50.378 10.0534 50.5914 9.80004 51.018 9.80004H55.698C56.1247 9.80004 56.338 10.0267 56.338 10.48V12.84C56.338 13 56.3914 13.1067 56.498 13.16C56.6314 13.1867 56.7647 13.12 56.898 12.96C57.4314 12.24 58.0314 11.6134 58.698 11.08C59.3914 10.5467 60.098 10.1334 60.818 9.84004C61.538 9.54671 62.218 9.40004 62.858 9.40004C63.818 9.40004 64.298 9.62671 64.298 10.08V14.72C64.298 15.1467 64.098 15.32 63.698 15.24C63.218 15.1067 62.7247 15.0267 62.218 15C61.7114 14.9467 61.2714 14.92 60.898 14.92C60.418 14.92 59.9114 15.0134 59.378 15.2C58.8714 15.3867 58.4047 15.6534 57.978 16C57.5514 16.3467 57.2047 16.72 56.938 17.12C56.6714 17.52 56.538 17.9467 56.538 18.4V30.08C56.538 30.6934 56.1914 31 55.498 31H51.218Z" fill="black"/>
<path d="M67.0493 31C66.756 31 66.5426 30.9334 66.4093 30.8C66.276 30.6667 66.2093 30.4667 66.2093 30.2V10.56C66.2093 10.0534 66.4226 9.80004 66.8493 9.80004H71.5293C71.956 9.80004 72.1693 10.0267 72.1693 10.48V12.84C72.1693 13 72.2226 13.1067 72.3293 13.16C72.4626 13.1867 72.596 13.12 72.7293 12.96C73.2626 12.24 73.8626 11.6134 74.5293 11.08C75.2226 10.5467 75.9293 10.1334 76.6493 9.84004C77.3693 9.54671 78.0493 9.40004 78.6893 9.40004C79.6493 9.40004 80.1293 9.62671 80.1293 10.08V14.72C80.1293 15.1467 79.9293 15.32 79.5293 15.24C79.0493 15.1067 78.556 15.0267 78.0493 15C77.5426 14.9467 77.1026 14.92 76.7293 14.92C76.2493 14.92 75.7426 15.0134 75.2093 15.2C74.7026 15.3867 74.236 15.6534 73.8093 16C73.3826 16.3467 73.036 16.72 72.7693 17.12C72.5026 17.52 72.3693 17.9467 72.3693 18.4V30.08C72.3693 30.6934 72.0226 31 71.3293 31H67.0493Z" fill="black"/>
<path d="M84.0005 37.6C83.1739 37.6 82.5739 37.56 82.2005 37.48C81.8272 37.4 81.6405 37.1867 81.6405 36.84V33.76C81.6405 33.6 81.7205 33.4534 81.8805 33.32C82.0405 33.1867 82.3472 33.12 82.8005 33.12H85.5205C86.0272 33.12 86.4805 33 86.8805 32.76C87.3072 32.52 87.6405 32.2267 87.8805 31.88C88.1472 31.5334 88.3339 31.16 88.4405 30.76C88.5472 30.36 88.5205 30 88.3605 29.68L80.6805 10.76C80.5739 10.52 80.5739 10.3067 80.6805 10.12C80.8139 9.90671 81.0272 9.80004 81.3205 9.80004H86.3605C86.5739 9.80004 86.7605 9.86671 86.9205 10C87.0805 10.1067 87.1872 10.2667 87.2405 10.48L91.6805 22.4C91.7605 22.64 91.8672 22.7734 92.0005 22.8C92.1339 22.8 92.2539 22.6534 92.3605 22.36L96.7605 10.44C96.8672 10.2534 96.9872 10.1067 97.1205 10C97.2539 9.86671 97.4272 9.80004 97.6405 9.80004H101.081C101.347 9.80004 101.534 9.90671 101.641 10.12C101.747 10.3067 101.747 10.5067 101.641 10.72L93.4405 31C92.8805 32.3867 92.2939 33.5067 91.6805 34.36C91.0939 35.24 90.4405 35.9067 89.7205 36.36C89.0005 36.84 88.1739 37.16 87.2405 37.32C86.3339 37.5067 85.2539 37.6 84.0005 37.6Z" fill="black"/>
<path d="M109.697 30.04C109.697 30.3867 109.617 30.64 109.457 30.8C109.297 30.9334 109.017 31 108.617 31H104.377C103.79 31 103.497 30.72 103.497 30.16L103.617 2.08004C103.617 1.57338 103.83 1.32004 104.257 1.32004H109.097C109.497 1.32004 109.697 1.56004 109.697 2.04004V30.04Z" fill="black"/>
<path d="M133.284 31.4C130.457 31.4 128.017 30.8 125.964 29.6C123.911 28.3734 122.324 26.6267 121.204 24.36C120.111 22.0934 119.564 19.4 119.564 16.28C119.564 13.1067 120.124 10.3734 121.244 8.08004C122.391 5.78671 123.991 4.02671 126.044 2.80004C128.097 1.54671 130.511 0.920044 133.284 0.920044C136.057 0.920044 138.457 1.54671 140.484 2.80004C142.537 4.02671 144.124 5.78671 145.244 8.08004C146.364 10.3467 146.924 13.0667 146.924 16.24C146.924 19.36 146.364 22.0534 145.244 24.32C144.151 26.5867 142.577 28.3334 140.524 29.56C138.471 30.7867 136.057 31.4 133.284 31.4ZM133.284 26.48C135.471 26.48 137.071 25.6934 138.084 24.12C139.097 22.52 139.604 19.92 139.604 16.32C139.604 12.64 139.084 9.97338 138.044 8.32004C137.031 6.64004 135.444 5.80004 133.284 5.80004C131.097 5.80004 129.484 6.64004 128.444 8.32004C127.404 10 126.884 12.6667 126.884 16.32C126.884 19.8934 127.391 22.48 128.404 24.08C129.444 25.68 131.071 26.48 133.284 26.48Z" fill="black"/>
<path d="M159.421 9.40004C161.154 9.40004 162.621 9.70671 163.821 10.32C165.047 10.9067 166.047 11.6667 166.821 12.6C167.594 13.5334 168.141 14.4934 168.461 15.48C168.647 16.0134 168.487 16.2934 167.981 16.32L163.781 16.72C163.487 16.7467 163.287 16.6 163.181 16.28C162.941 15.7734 162.674 15.3067 162.381 14.88C162.087 14.4534 161.727 14.1067 161.301 13.84C160.874 13.5734 160.314 13.44 159.621 13.44C158.714 13.44 157.914 13.6934 157.221 14.2C156.527 14.7067 155.981 15.48 155.581 16.52C155.207 17.5334 155.021 18.8267 155.021 20.4C155.021 22 155.221 23.32 155.621 24.36C156.021 25.4 156.581 26.1734 157.301 26.68C158.047 27.1867 158.927 27.44 159.941 27.44C161.114 27.44 162.034 27.1334 162.701 26.52C163.394 25.9067 164.047 25.08 164.661 24.04C164.741 23.9067 164.821 23.8267 164.901 23.8C164.981 23.7734 165.127 23.7867 165.341 23.84L168.301 24.52C168.594 24.6 168.687 24.8534 168.581 25.28C168.367 25.8667 168.034 26.52 167.581 27.24C167.127 27.96 166.527 28.6267 165.781 29.24C165.061 29.8534 164.167 30.3734 163.101 30.8C162.061 31.2 160.834 31.4 159.421 31.4C157.367 31.4 155.541 30.9467 153.941 30.04C152.341 29.1067 151.074 27.8267 150.141 26.2C149.234 24.5467 148.781 22.64 148.781 20.48C148.781 18.2934 149.247 16.3734 150.181 14.72C151.114 13.04 152.381 11.7334 153.981 10.8C155.581 9.86671 157.394 9.40004 159.421 9.40004Z" fill="black"/>
<path d="M178.828 14.04C178.534 14.04 178.388 14.2 178.388 14.52V24.16C178.388 25.0667 178.601 25.72 179.028 26.12C179.454 26.4934 180.134 26.68 181.068 26.68H183.228C183.414 26.68 183.561 26.7467 183.668 26.88C183.774 27.0134 183.828 27.1734 183.828 27.36L183.788 29.8C183.788 30.3067 183.494 30.6267 182.908 30.76C182.428 30.8134 181.908 30.8667 181.348 30.92C180.814 30.9467 180.268 30.9734 179.708 31C179.174 31 178.654 31 178.148 31C176.334 31 174.894 30.5734 173.828 29.72C172.761 28.84 172.228 27.5467 172.228 25.84V14.64C172.228 14.24 172.054 14.04 171.708 14.04H169.268C168.761 14.04 168.508 13.8134 168.508 13.36V10.4C168.508 10 168.748 9.80004 169.228 9.80004H171.988C172.228 9.80004 172.361 9.65338 172.388 9.36004L172.948 3.28004C172.974 2.82671 173.174 2.60004 173.548 2.60004H177.908C178.334 2.60004 178.548 2.85338 178.548 3.36004V9.36004C178.548 9.62671 178.681 9.76004 178.948 9.76004H183.148C183.628 9.76004 183.868 9.97338 183.868 10.4V13.36C183.868 13.8134 183.601 14.04 183.068 14.04H178.828Z" fill="black"/>
<path d="M195.069 31.4C192.963 31.4 191.096 30.9334 189.469 30C187.869 29.0667 186.616 27.7867 185.709 26.16C184.803 24.5067 184.349 22.6267 184.349 20.52C184.349 18.3067 184.816 16.3734 185.749 14.72C186.683 13.04 187.963 11.7334 189.589 10.8C191.216 9.86671 193.056 9.40004 195.109 9.40004C197.269 9.40004 199.149 9.88004 200.749 10.84C202.349 11.7734 203.589 13.08 204.469 14.76C205.376 16.4134 205.829 18.32 205.829 20.48C205.829 22.6134 205.376 24.5067 204.469 26.16C203.563 27.7867 202.296 29.0667 200.669 30C199.069 30.9334 197.203 31.4 195.069 31.4ZM195.109 27.32C196.096 27.32 196.923 27.0667 197.589 26.56C198.256 26.0267 198.749 25.24 199.069 24.2C199.416 23.16 199.589 21.8934 199.589 20.4C199.589 18.8267 199.416 17.5334 199.069 16.52C198.749 15.48 198.256 14.6934 197.589 14.16C196.923 13.6267 196.096 13.36 195.109 13.36C194.149 13.36 193.323 13.6267 192.629 14.16C191.963 14.6934 191.456 15.48 191.109 16.52C190.763 17.5334 190.589 18.8267 190.589 20.4C190.589 21.92 190.763 23.2 191.109 24.24C191.456 25.2534 191.963 26.0267 192.629 26.56C193.323 27.0667 194.149 27.32 195.109 27.32Z" fill="black"/>
<path d="M208.975 31C208.628 31 208.388 30.9334 208.255 30.8C208.121 30.6667 208.055 30.44 208.055 30.12V2.08004C208.055 1.57338 208.268 1.32004 208.695 1.32004H213.615C214.015 1.32004 214.215 1.56004 214.215 2.04004V11.36C214.215 11.68 214.281 11.8534 214.415 11.88C214.575 11.88 214.748 11.8 214.935 11.64C215.361 11.24 215.841 10.88 216.375 10.56C216.935 10.2134 217.561 9.93338 218.255 9.72005C218.948 9.50671 219.708 9.40004 220.535 9.40004C222.348 9.40004 223.868 9.85338 225.095 10.76C226.348 11.6667 227.295 12.9334 227.935 14.56C228.575 16.1867 228.895 18.0934 228.895 20.28C228.895 23.6667 228.108 26.3734 226.535 28.4C224.961 30.4 222.708 31.4 219.775 31.4C218.815 31.4 217.921 31.2534 217.095 30.96C216.295 30.64 215.588 30.2267 214.975 29.72C214.388 29.2134 213.881 28.6934 213.455 28.16C213.348 28.0267 213.241 27.9734 213.135 28C213.055 28 213.001 28.0934 212.975 28.28L212.495 30.2C212.361 30.7334 212.055 31 211.575 31H208.975ZM214.215 23.68C214.215 24.48 214.401 25.1734 214.775 25.76C215.148 26.3467 215.628 26.8134 216.215 27.16C216.828 27.48 217.495 27.64 218.215 27.64C219.095 27.64 219.868 27.4 220.535 26.92C221.201 26.44 221.708 25.6667 222.055 24.6C222.428 23.5067 222.615 22.0934 222.615 20.36C222.615 17.9067 222.255 16.12 221.535 15C220.815 13.88 219.761 13.32 218.375 13.32C217.521 13.32 216.748 13.52 216.055 13.92C215.361 14.2934 214.748 14.8 214.215 15.44V23.68Z" fill="black"/>
<path d="M236.63 22.2C236.63 23.1867 236.856 24.0667 237.31 24.84C237.79 25.5867 238.416 26.1734 239.19 26.6C239.99 27 240.883 27.2 241.87 27.2C242.83 27.2 243.71 27 244.51 26.6C245.336 26.1734 246.163 25.48 246.99 24.52C247.096 24.4134 247.19 24.36 247.27 24.36C247.35 24.3334 247.496 24.3734 247.71 24.48L250.59 25.68C250.963 25.84 251.003 26.1067 250.71 26.48C249.856 27.7067 248.963 28.68 248.03 29.4C247.096 30.12 246.056 30.64 244.91 30.96C243.79 31.2534 242.523 31.4 241.11 31.4C239.03 31.4 237.176 30.9467 235.55 30.04C233.923 29.1334 232.63 27.88 231.67 26.28C230.736 24.6534 230.27 22.8 230.27 20.72C230.27 18.4267 230.75 16.44 231.71 14.76C232.696 13.0534 234.003 11.7334 235.63 10.8C237.256 9.86671 239.043 9.40004 240.99 9.40004C243.043 9.40004 244.843 9.85338 246.39 10.76C247.936 11.64 249.15 12.9067 250.03 14.56C250.936 16.2134 251.39 18.2267 251.39 20.6C251.39 20.8934 251.363 21.12 251.31 21.28C251.256 21.44 251.056 21.5334 250.71 21.56H237.11C236.95 21.56 236.83 21.6134 236.75 21.72C236.67 21.8267 236.63 21.9867 236.63 22.2ZM244.67 18.2C244.963 18.2 245.15 18.1734 245.23 18.12C245.31 18.04 245.35 17.88 245.35 17.64C245.35 16.9734 245.19 16.2934 244.87 15.6C244.576 14.9067 244.123 14.3334 243.51 13.88C242.923 13.4 242.163 13.16 241.23 13.16C240.35 13.16 239.563 13.3734 238.87 13.8C238.176 14.2267 237.643 14.8267 237.27 15.6C236.896 16.3467 236.71 17.2 236.71 18.16L244.67 18.2Z" fill="black"/>
<path d="M254.307 31C254.014 31 253.8 30.9334 253.667 30.8C253.534 30.6667 253.467 30.4667 253.467 30.2V10.56C253.467 10.0534 253.68 9.80004 254.107 9.80004H258.787C259.214 9.80004 259.427 10.0267 259.427 10.48V12.84C259.427 13 259.48 13.1067 259.587 13.16C259.72 13.1867 259.854 13.12 259.987 12.96C260.52 12.24 261.12 11.6134 261.787 11.08C262.48 10.5467 263.187 10.1334 263.907 9.84004C264.627 9.54671 265.307 9.40004 265.947 9.40004C266.907 9.40004 267.387 9.62671 267.387 10.08V14.72C267.387 15.1467 267.187 15.32 266.787 15.24C266.307 15.1067 265.814 15.0267 265.307 15C264.8 14.9467 264.36 14.92 263.987 14.92C263.507 14.92 263 15.0134 262.467 15.2C261.96 15.3867 261.494 15.6534 261.067 16C260.64 16.3467 260.294 16.72 260.027 17.12C259.76 17.52 259.627 17.9467 259.627 18.4V30.08C259.627 30.6934 259.28 31 258.587 31H254.307Z" fill="black"/>
<path d="M0.711914 62.152C0.711914 59.912 1.75725 58.792 3.84791 58.792H106.216C108.008 58.792 108.904 59.7627 108.904 61.704L108.68 75.816C108.68 78.056 107.56 79.176 105.32 79.176H31.1759C28.9359 79.176 27.8159 80.1467 27.8159 82.088V130.92C27.8159 132.712 28.7866 133.608 30.7279 133.608H86.9519C88.7439 133.608 89.6399 134.504 89.6399 136.296V151.08C89.6399 152.723 88.7439 153.544 86.9519 153.544H30.5039C28.7119 153.544 27.8159 154.44 27.8159 156.232V221.416C27.8159 223.805 26.4719 225 23.7839 225H4.51991C3.02658 225 1.98125 224.776 1.38391 224.328C0.935914 223.731 0.711914 222.76 0.711914 221.416V62.152Z" fill="black"/>
<path d="M259.281 220.296C259.729 221.491 259.655 222.611 259.057 223.656C258.609 224.552 257.788 225 256.593 225H234.865C233.073 225 231.729 223.955 230.833 221.864L203.505 153.768C202.759 151.976 200.892 151.08 197.905 151.08H165.201C164.156 151.08 163.409 151.379 162.961 151.976C162.663 152.424 162.513 152.947 162.513 153.544V220.968C162.513 223.656 161.095 225 158.257 225H139.217C137.724 225 136.679 224.701 136.081 224.104C135.633 223.507 135.409 222.611 135.409 221.416V62.152C135.409 59.912 136.455 58.792 138.545 58.792H203.281C221.649 58.792 235.911 62.5254 246.065 69.992C256.369 77.4587 261.521 88.36 261.521 102.696C261.521 110.909 259.953 118.003 256.817 123.976C253.681 129.8 249.649 134.579 244.721 138.312C239.943 141.896 234.791 144.509 229.265 146.152C228.22 146.6 227.921 147.496 228.369 148.84L259.281 220.296ZM197.905 132.04C209.553 132.04 218.364 129.875 224.337 125.544C230.46 121.064 233.521 114.12 233.521 104.712C233.521 95.752 230.759 89.032 225.233 84.552C219.708 80.072 211.868 77.832 201.713 77.832H166.097C163.708 77.832 162.513 78.728 162.513 80.52V128.904C162.513 130.995 163.335 132.04 164.977 132.04H197.905Z" fill="black"/>
<path d="M355.005 227.24C339.922 227.24 326.93 223.955 316.029 217.384C305.127 210.664 296.765 201.032 290.941 188.488C285.117 175.795 282.205 160.488 282.205 142.568C282.205 124.499 285.191 109.043 291.165 96.2C297.138 83.3574 305.575 73.576 316.477 66.856C327.378 59.9867 340.295 56.552 355.229 56.552C370.013 56.552 382.781 59.9867 393.533 66.856C404.434 73.576 412.797 83.3574 418.621 96.2C424.594 108.893 427.581 124.275 427.581 142.344C427.581 160.264 424.669 175.571 418.845 188.264C413.021 200.808 404.658 210.44 393.757 217.16C382.855 223.88 369.938 227.24 355.005 227.24ZM355.229 207.304C370.162 207.304 381.213 202.152 388.381 191.848C395.698 181.395 399.357 164.968 399.357 142.568C399.357 119.869 395.623 103.144 388.157 92.392C380.839 81.64 369.863 76.264 355.229 76.264C340.295 76.264 329.095 81.7147 321.629 92.616C314.162 103.368 310.429 120.019 310.429 142.568C310.429 164.819 314.162 181.171 321.629 191.624C329.095 202.077 340.295 207.304 355.229 207.304Z" fill="black"/>
<path d="M585.859 58.792C587.502 58.792 588.323 59.7627 588.323 61.704V222.088C588.323 222.984 588.025 223.731 587.427 224.328C586.83 224.776 586.009 225 584.963 225H570.403C569.358 225 568.462 224.925 567.715 224.776C566.969 224.477 566.222 223.805 565.475 222.76L483.715 105.384C482.969 104.339 482.371 103.891 481.923 104.04C481.475 104.189 481.251 104.712 481.251 105.608V221.864C481.251 223.955 480.057 225 477.667 225H461.763C459.374 225 458.179 223.955 458.179 221.864V62.152C458.179 59.912 459.299 58.792 461.539 58.792H479.011C480.206 58.792 481.102 58.9414 481.699 59.24C482.446 59.5387 483.193 60.2854 483.939 61.48L562.339 175.048C563.235 176.243 563.982 176.765 564.579 176.616C565.326 176.317 565.699 175.645 565.699 174.6V61.928C565.699 59.8374 566.745 58.792 568.835 58.792H585.859Z" fill="black"/>
<path d="M614.495 61.928C614.495 60.8827 614.719 60.136 615.167 59.688C615.764 59.0907 616.66 58.792 617.855 58.792H740.831C742.025 58.792 742.847 59.0907 743.295 59.688C743.743 60.136 743.967 60.8827 743.967 61.928V76.264C743.967 78.056 742.921 78.952 740.831 78.952H696.479C694.836 78.952 694.015 79.624 694.015 80.968V221.64C694.015 223.88 693.044 225 691.103 225H670.047C668.105 225 667.135 223.955 667.135 221.864V81.416C667.135 79.7734 666.313 78.952 664.671 78.952H617.631C615.54 78.952 614.495 78.056 614.495 76.264V61.928Z" fill="black"/>
<path d="M925.371 62.152C925.371 59.912 926.416 58.792 928.507 58.792H1032.89C1034.68 58.792 1035.58 59.7627 1035.58 61.704L1035.35 75.816C1035.35 78.056 1034.23 79.176 1031.99 79.176H955.835C953.595 79.176 952.475 80.1467 952.475 82.088V128.232C952.475 130.173 953.445 131.144 955.387 131.144H1010.04C1011.98 131.144 1012.95 132.04 1012.95 133.832V148.84C1012.95 149.587 1012.73 150.184 1012.28 150.632C1011.98 151.08 1011.24 151.304 1010.04 151.304H955.163C953.371 151.304 952.475 152.125 952.475 153.768V202.152C952.475 203.795 953.221 204.616 954.715 204.616H1035.13C1037.22 204.616 1038.27 205.512 1038.27 207.304V222.088C1038.27 222.984 1038.04 223.731 1037.59 224.328C1037.15 224.776 1036.33 225 1035.13 225H929.179C926.64 225 925.371 223.805 925.371 221.416V62.152Z" fill="black"/>
<path d="M1188.74 58.792C1190.38 58.792 1191.2 59.7627 1191.2 61.704V222.088C1191.2 222.984 1190.9 223.731 1190.3 224.328C1189.71 224.776 1188.89 225 1187.84 225H1173.28C1172.24 225 1171.34 224.925 1170.59 224.776C1169.85 224.477 1169.1 223.805 1168.35 222.76L1086.59 105.384C1085.85 104.339 1085.25 103.891 1084.8 104.04C1084.35 104.189 1084.13 104.712 1084.13 105.608V221.864C1084.13 223.955 1082.93 225 1080.54 225H1064.64C1062.25 225 1061.06 223.955 1061.06 221.864V62.152C1061.06 59.912 1062.18 58.792 1064.42 58.792H1081.89C1083.08 58.792 1083.98 58.9414 1084.58 59.24C1085.32 59.5387 1086.07 60.2854 1086.82 61.48L1165.22 175.048C1166.11 176.243 1166.86 176.765 1167.46 176.616C1168.2 176.317 1168.58 175.645 1168.58 174.6V61.928C1168.58 59.8374 1169.62 58.792 1171.71 58.792H1188.74Z" fill="black"/>
<path d="M1227.68 58.792C1229.32 58.792 1231.93 58.792 1235.52 58.792C1239.25 58.792 1243.21 58.8667 1247.39 59.016C1251.72 59.016 1255.68 59.016 1259.26 59.016C1262.99 59.016 1265.76 59.016 1267.55 59.016C1288.01 59.3147 1304.66 62.7494 1317.5 69.32C1330.34 75.7414 1339.75 84.9254 1345.72 96.872C1351.85 108.819 1354.91 123.453 1354.91 140.776C1354.91 158.995 1351.62 174.376 1345.05 186.92C1338.63 199.464 1328.77 208.947 1315.48 215.368C1302.34 221.789 1285.69 225 1265.53 225H1227.9C1225.21 225 1223.87 223.656 1223.87 220.968V62.376C1223.87 61.032 1224.17 60.136 1224.76 59.688C1225.36 59.0907 1226.33 58.792 1227.68 58.792ZM1253.21 78.728C1251.72 78.728 1250.97 79.7734 1250.97 81.864V202.6C1250.97 204.392 1251.87 205.288 1253.66 205.288H1261.05C1276.13 205.288 1288.53 203.197 1298.24 199.016C1307.94 194.835 1315.11 188.115 1319.74 178.856C1324.37 169.448 1326.68 157.053 1326.68 141.672C1326.68 125.843 1324.37 113.373 1319.74 104.264C1315.11 95.1547 1308.02 88.6587 1298.46 84.776C1289.05 80.744 1277.03 78.728 1262.4 78.728H1253.21Z" fill="black"/>
<path d="M0.711914 280.152C0.711914 277.912 1.75725 276.792 3.84791 276.792H108.232C110.024 276.792 110.92 277.763 110.92 279.704L110.696 293.816C110.696 296.056 109.576 297.176 107.336 297.176H31.1759C28.9359 297.176 27.8159 298.147 27.8159 300.088V346.232C27.8159 348.173 28.7866 349.144 30.7279 349.144H85.3839C87.3253 349.144 88.2959 350.04 88.2959 351.832V366.84C88.2959 367.587 88.0719 368.184 87.6239 368.632C87.3253 369.08 86.5786 369.304 85.3839 369.304H30.5039C28.7119 369.304 27.8159 370.125 27.8159 371.768V420.152C27.8159 421.795 28.5626 422.616 30.0559 422.616H110.472C112.563 422.616 113.608 423.512 113.608 425.304V440.088C113.608 440.984 113.384 441.731 112.936 442.328C112.488 442.776 111.667 443 110.472 443H4.51991C1.98125 443 0.711914 441.805 0.711914 439.416V280.152Z" fill="black"/>
<path d="M262.958 436.952C264.601 439.341 265.123 440.984 264.526 441.88C264.078 442.627 262.958 443 261.166 443H239.886C237.646 443 236.003 442.179 234.958 440.536L195.982 380.728C194.937 379.235 194.041 378.488 193.294 378.488C192.697 378.339 191.801 379.16 190.606 380.952L152.078 440.536C151.63 441.432 150.958 442.104 150.062 442.552C149.166 442.851 148.121 443 146.926 443H129.23C127.587 443 126.467 442.627 125.87 441.88C125.422 440.984 125.945 439.341 127.438 436.952L177.614 361.464C178.361 360.269 178.659 359.299 178.51 358.552C178.51 357.656 178.137 356.611 177.39 355.416L128.334 281.048C127.737 280.152 127.513 279.256 127.662 278.36C127.961 277.315 128.782 276.792 130.126 276.792H152.75C154.243 276.792 155.289 277.016 155.886 277.464C156.633 277.763 157.23 278.36 157.678 279.256L193.294 334.584C194.041 335.629 194.713 336.152 195.31 336.152C196.057 336.152 196.804 335.629 197.55 334.584L233.166 279.256C233.764 278.36 234.361 277.763 234.958 277.464C235.555 277.016 236.526 276.792 237.87 276.792H257.582C258.926 276.792 259.673 277.24 259.822 278.136C259.972 278.883 259.673 279.704 258.926 280.6L210.766 352.952C210.019 353.997 209.646 354.893 209.646 355.64C209.795 356.387 210.169 357.283 210.766 358.328L262.958 436.952Z" fill="black"/>
<path d="M412.405 326.296C412.405 337.347 409.866 346.531 404.789 353.848C399.711 361.016 392.693 366.392 383.733 369.976C374.773 373.56 364.469 375.352 352.821 375.352H316.085C314.591 375.352 313.845 376.099 313.845 377.592V439.192C313.845 441.731 312.501 443 309.813 443H290.325C288.981 443 288.01 442.776 287.413 442.328C286.965 441.731 286.741 440.835 286.741 439.64V280.152C286.741 277.912 287.786 276.792 289.877 276.792H349.685C361.482 276.792 372.085 278.509 381.493 281.944C391.05 285.379 398.591 290.755 404.117 298.072C409.642 305.389 412.405 314.797 412.405 326.296ZM384.629 325.624C384.629 318.755 383.135 313.229 380.149 309.048C377.162 304.717 372.906 301.581 367.381 299.64C362.005 297.699 355.583 296.728 348.117 296.728H317.205C314.965 296.728 313.845 297.773 313.845 299.864V352.056C313.845 354.296 314.666 355.416 316.309 355.416H349.685C360.287 355.416 368.725 352.952 374.997 348.024C381.418 343.096 384.629 335.629 384.629 325.624Z" fill="black"/>
<path d="M436.427 280.152C436.427 277.912 437.472 276.792 439.563 276.792H543.947C545.739 276.792 546.635 277.763 546.635 279.704L546.411 293.816C546.411 296.056 545.291 297.176 543.051 297.176H466.891C464.651 297.176 463.531 298.147 463.531 300.088V346.232C463.531 348.173 464.502 349.144 466.443 349.144H521.099C523.04 349.144 524.011 350.04 524.011 351.832V366.84C524.011 367.587 523.787 368.184 523.339 368.632C523.04 369.08 522.294 369.304 521.099 369.304H466.219C464.427 369.304 463.531 370.125 463.531 371.768V420.152C463.531 421.795 464.278 422.616 465.771 422.616H546.187C548.278 422.616 549.323 423.512 549.323 425.304V440.088C549.323 440.984 549.099 441.731 548.651 442.328C548.203 442.776 547.382 443 546.187 443H440.235C437.696 443 436.427 441.805 436.427 439.416V280.152Z" fill="black"/>
<path d="M695.985 438.296C696.433 439.491 696.359 440.611 695.761 441.656C695.313 442.552 694.492 443 693.297 443H671.569C669.777 443 668.433 441.955 667.537 439.864L640.209 371.768C639.463 369.976 637.596 369.08 634.609 369.08H601.905C600.86 369.08 600.113 369.379 599.665 369.976C599.366 370.424 599.217 370.947 599.217 371.544V438.968C599.217 441.656 597.799 443 594.961 443H575.921C574.428 443 573.382 442.701 572.785 442.104C572.337 441.507 572.113 440.611 572.113 439.416V280.152C572.113 277.912 573.158 276.792 575.249 276.792H639.985C658.353 276.792 672.614 280.525 682.769 287.992C693.073 295.459 698.225 306.36 698.225 320.696C698.225 328.909 696.657 336.003 693.521 341.976C690.385 347.8 686.353 352.579 681.425 356.312C676.647 359.896 671.495 362.509 665.969 364.152C664.924 364.6 664.625 365.496 665.073 366.84L695.985 438.296ZM634.609 350.04C646.257 350.04 655.068 347.875 661.041 343.544C667.164 339.064 670.225 332.12 670.225 322.712C670.225 313.752 667.462 307.032 661.937 302.552C656.412 298.072 648.572 295.832 638.417 295.832H602.801C600.412 295.832 599.217 296.728 599.217 298.52V346.904C599.217 348.995 600.038 350.04 601.681 350.04H634.609Z" fill="black"/>
<path d="M709.948 279.928C709.948 278.883 710.172 278.136 710.62 277.688C711.218 277.091 712.114 276.792 713.308 276.792H836.284C837.479 276.792 838.3 277.091 838.748 277.688C839.196 278.136 839.42 278.883 839.42 279.928V294.264C839.42 296.056 838.375 296.952 836.284 296.952H791.932C790.29 296.952 789.468 297.624 789.468 298.968V439.64C789.468 441.88 788.498 443 786.556 443H765.5C763.559 443 762.588 441.955 762.588 439.864V299.416C762.588 297.773 761.767 296.952 760.124 296.952H713.084C710.994 296.952 709.948 296.056 709.948 294.264V279.928Z" fill="black"/>
<line x1="785" y1="141" x2="873" y2="141" stroke="#0038FF" stroke-width="6"/>
</svg>
