<svg width="1356" height="442" viewBox="0 0 1356 442" fill="none" xmlns="http://www.w3.org/2000/svg">
<path d="M0.968413 0.399927C1.4487 0.399927 2.08908 0.399927 2.88955 0.399927C3.71671 0.399927 4.57055 0.399927 5.45107 0.399927C6.35827 0.399927 7.21211 0.399927 8.01259 0.399927C8.81306 0.399927 9.4401 0.413258 9.8937 0.439919C13.4958 0.519906 16.4576 1.17312 18.779 2.39957C21.1003 3.62601 22.808 5.31904 23.902 7.47865C25.0227 9.61159 25.583 12.1578 25.583 15.1173C25.583 18.1567 24.996 20.8096 23.822 23.0758C22.6746 25.3154 20.9136 27.0484 18.5388 28.2749C16.1908 29.4747 13.2424 30.0746 9.69358 30.0746H1.00844C0.394739 30.0746 0.0878906 29.7546 0.0878906 29.1147V1.23978C0.0878906 0.919834 0.154597 0.706538 0.288009 0.599891C0.421422 0.466582 0.648223 0.399927 0.968413 0.399927ZM7.49228 5.35903C7.22545 5.35903 7.09204 5.54566 7.09204 5.91893V24.5955C7.09204 24.9688 7.26548 25.1554 7.61235 25.1554H8.3728C10.5608 25.1554 12.3885 24.8355 13.8561 24.1956C15.3236 23.5291 16.4176 22.4626 17.138 20.9962C17.8851 19.5298 18.2587 17.5835 18.2587 15.1573C18.2587 12.811 17.9118 10.9314 17.218 9.51828C16.551 8.07854 15.5104 7.0254 14.0962 6.35885C12.7087 5.6923 10.9343 5.35903 8.77304 5.35903H7.49228Z" fill="#FAFAFA"/>
<path d="M39.7505 28.0349C38.9233 28.7815 37.9894 29.3814 36.9488 29.8346C35.9349 30.2612 34.7608 30.4745 33.4267 30.4745C31.3988 30.4745 29.7979 29.9279 28.6239 28.8348C27.4765 27.7416 26.9028 26.3419 26.9028 24.6355C26.9028 23.1425 27.3698 21.836 28.3037 20.7163C29.2376 19.5965 30.5717 18.7299 32.306 18.1167C34.0404 17.4768 36.1083 17.1302 38.5097 17.0769L39.9106 16.9569C40.0707 16.9569 40.2174 16.9169 40.3508 16.837C40.4842 16.757 40.5509 16.6103 40.5509 16.397V15.5572C40.5509 14.544 40.2574 13.7575 39.6704 13.1976C39.0834 12.6111 38.2429 12.3178 37.1489 12.3178C36.3484 12.3178 35.5747 12.5044 34.8275 12.8777C34.1071 13.2243 33.4934 13.8375 32.9865 14.7173C32.9064 14.904 32.813 15.0239 32.7063 15.0773C32.5996 15.1306 32.3994 15.1306 32.1059 15.0773L28.1036 14.1574C27.9435 14.1041 27.8234 14.0241 27.7433 13.9175C27.69 13.7842 27.7433 13.5176 27.9034 13.1176C28.5705 11.5446 29.7178 10.3848 31.3455 9.63826C32.9998 8.86506 35.0277 8.47847 37.4291 8.47847C39.6437 8.47847 41.4048 8.75842 42.7122 9.31831C44.0197 9.87821 44.9669 10.6647 45.5539 11.6779C46.1409 12.6644 46.4344 13.8242 46.4344 15.1573V29.1947C46.4344 29.5147 46.3811 29.7413 46.2743 29.8746C46.1676 30.0079 45.9675 30.0746 45.674 30.0746H41.5515C41.258 30.0746 41.0446 29.9679 40.9112 29.7546C40.8044 29.5413 40.7377 29.2747 40.711 28.9548L40.631 28.0749C40.5776 27.595 40.2841 27.5817 39.7505 28.0349ZM40.5509 20.6363C40.5509 20.183 40.3508 19.9564 39.9506 19.9564L38.8299 20.0364C38.1362 20.063 37.4424 20.1697 36.7487 20.3563C36.0549 20.5163 35.4279 20.7562 34.8676 21.0762C34.3072 21.3695 33.8403 21.7561 33.4667 22.236C33.1199 22.6892 32.9464 23.2225 32.9464 23.8357C32.9464 24.6355 33.2266 25.2754 33.7869 25.7553C34.3473 26.2086 35.121 26.4352 36.1083 26.4352C36.7754 26.4352 37.3624 26.3286 37.8693 26.1153C38.403 25.902 38.8566 25.6487 39.2302 25.3554C39.6304 25.0088 39.9506 24.6622 40.1907 24.3156C40.4309 23.969 40.5509 23.6091 40.5509 23.2358V20.6363Z" fill="#FAFAFA"/>
<path d="M50.5359 30.0746C50.2424 30.0746 50.029 30.0079 49.8955 29.8746C49.7621 29.7413 49.6954 29.5413 49.6954 29.2747V9.63826C49.6954 9.13168 49.9089 8.87839 50.3358 8.87839H55.0186C55.4455 8.87839 55.659 9.10502 55.659 9.55827V11.9178C55.659 12.0778 55.7123 12.1845 55.819 12.2378C55.9525 12.2644 56.0859 12.1978 56.2193 12.0378C56.7529 11.318 57.3533 10.6914 58.0204 10.1582C58.7141 9.62492 59.4212 9.21167 60.1416 8.91839C60.862 8.62511 61.5424 8.47847 62.1828 8.47847C63.1434 8.47847 63.6237 8.70509 63.6237 9.15834V13.7975C63.6237 14.2241 63.4236 14.3974 63.0233 14.3174C62.543 14.1841 62.0494 14.1041 61.5424 14.0775C61.0355 14.0241 60.5952 13.9975 60.2217 13.9975C59.7414 13.9975 59.2344 14.0908 58.7008 14.2774C58.1938 14.464 57.7268 14.7307 57.2999 15.0773C56.873 15.4239 56.5261 15.7971 56.2593 16.1971C55.9925 16.597 55.8591 17.0236 55.8591 17.4768V29.1547C55.8591 29.7679 55.5122 30.0746 54.8185 30.0746H50.5359Z" fill="#FAFAFA"/>
<path d="M66.3766 30.0746C66.083 30.0746 65.8696 30.0079 65.7362 29.8746C65.6028 29.7413 65.5361 29.5413 65.5361 29.2747V9.63826C65.5361 9.13168 65.7495 8.87839 66.1764 8.87839H70.8592C71.2861 8.87839 71.4996 9.10502 71.4996 9.55827V11.9178C71.4996 12.0778 71.553 12.1845 71.6597 12.2378C71.7931 12.2644 71.9265 12.1978 72.0599 12.0378C72.5936 11.318 73.1939 10.6914 73.861 10.1582C74.5547 9.62492 75.2618 9.21167 75.9823 8.91839C76.7027 8.62511 77.3831 8.47847 78.0235 8.47847C78.984 8.47847 79.4643 8.70509 79.4643 9.15834V13.7975C79.4643 14.2241 79.2642 14.3974 78.864 14.3174C78.3837 14.1841 77.89 14.1041 77.3831 14.0775C76.8761 14.0241 76.4358 13.9975 76.0623 13.9975C75.582 13.9975 75.075 14.0908 74.5414 14.2774C74.0344 14.464 73.5675 14.7307 73.1406 15.0773C72.7136 15.4239 72.3668 15.7971 72.0999 16.1971C71.8331 16.597 71.6997 17.0236 71.6997 17.4768V29.1547C71.6997 29.7679 71.3528 30.0746 70.6591 30.0746H66.3766Z" fill="#FAFAFA"/>
<path d="M83.3379 36.6734C82.5107 36.6734 81.9103 36.6334 81.5368 36.5534C81.1632 36.4734 80.9765 36.2601 80.9765 35.9135V32.8341C80.9765 32.6741 81.0565 32.5274 81.2166 32.3941C81.3767 32.2608 81.6835 32.1942 82.1371 32.1942H84.8588C85.3657 32.1942 85.8193 32.0742 86.2196 31.8342C86.6465 31.5943 86.98 31.301 87.2202 30.9544C87.487 30.6078 87.6738 30.2345 87.7805 29.8346C87.8872 29.4347 87.8605 29.0747 87.7004 28.7548L80.0159 9.83822C79.9092 9.59826 79.9092 9.38497 80.0159 9.19834C80.1493 8.98504 80.3628 8.87839 80.6563 8.87839H85.6993C85.9127 8.87839 86.0995 8.94505 86.2596 9.07836C86.4197 9.185 86.5264 9.34498 86.5798 9.55827L91.0224 21.4761C91.1025 21.7161 91.2092 21.8494 91.3426 21.876C91.476 21.876 91.5961 21.7294 91.7028 21.4361L96.1054 9.51828C96.2122 9.33165 96.3322 9.185 96.4656 9.07836C96.599 8.94505 96.7725 8.87839 96.9859 8.87839H100.428C100.695 8.87839 100.882 8.98504 100.988 9.19834C101.095 9.38497 101.095 9.58493 100.988 9.79823L92.7835 30.0746C92.2231 31.461 91.6361 32.5808 91.0224 33.434C90.4354 34.3138 89.7817 34.9803 89.0612 35.4336C88.3408 35.9135 87.5137 36.2334 86.5798 36.3934C85.6726 36.58 84.5919 36.6734 83.3379 36.6734Z" fill="#FAFAFA"/>
<path d="M109.049 29.1147C109.049 29.4613 108.969 29.7146 108.809 29.8746C108.649 30.0079 108.369 30.0746 107.969 30.0746H103.726C103.139 30.0746 102.846 29.7946 102.846 29.2347L102.966 1.15979C102.966 0.653215 103.179 0.399927 103.606 0.399927H108.449C108.849 0.399927 109.049 0.639884 109.049 1.1198V29.1147Z" fill="#FAFAFA"/>
<path d="M132.651 30.4745C129.822 30.4745 127.381 29.8746 125.326 28.6748C123.272 27.4484 121.684 25.702 120.563 23.4358C119.469 21.1695 118.922 18.4767 118.922 15.3572C118.922 12.1845 119.483 9.45162 120.603 7.15871C121.751 4.86579 123.352 3.1061 125.406 1.87966C127.461 0.626553 129.876 0 132.651 0C135.426 0 137.827 0.626553 139.855 1.87966C141.909 3.1061 143.497 4.86579 144.618 7.15871C145.738 9.42496 146.299 12.1445 146.299 15.3172C146.299 18.4367 145.738 21.1295 144.618 23.3958C143.524 25.662 141.949 27.4084 139.895 28.6348C137.84 29.8613 135.426 30.4745 132.651 30.4745ZM132.651 25.5554C134.839 25.5554 136.439 24.7689 137.453 23.1958C138.467 21.5961 138.974 18.9966 138.974 15.3972C138.974 11.7179 138.454 9.0517 137.413 7.39866C136.399 5.71896 134.812 4.87912 132.651 4.87912C130.463 4.87912 128.848 5.71896 127.808 7.39866C126.767 9.07836 126.247 11.7445 126.247 15.3972C126.247 18.9699 126.754 21.5561 127.768 23.1558C128.808 24.7555 130.436 25.5554 132.651 25.5554Z" fill="#FAFAFA"/>
<path d="M158.803 8.47847C160.537 8.47847 162.004 8.78508 163.205 9.3983C164.433 9.98486 165.433 10.7447 166.207 11.6779C166.981 12.6111 167.528 13.5709 167.848 14.5574C168.035 15.0906 167.875 15.3706 167.368 15.3972L163.165 15.7971C162.872 15.8238 162.672 15.6772 162.565 15.3572C162.325 14.8506 162.058 14.3841 161.764 13.9575C161.471 13.5309 161.111 13.1843 160.684 12.9177C160.257 12.651 159.696 12.5177 159.003 12.5177C158.095 12.5177 157.295 12.771 156.601 13.2776C155.908 13.7842 155.361 14.5574 154.96 15.5972C154.587 16.6103 154.4 17.9034 154.4 19.4765C154.4 21.0762 154.6 22.3959 155 23.4358C155.401 24.4756 155.961 25.2488 156.681 25.7553C157.428 26.2619 158.309 26.5152 159.323 26.5152C160.497 26.5152 161.417 26.2086 162.085 25.5954C162.778 24.9821 163.432 24.1556 164.046 23.1158C164.126 22.9825 164.206 22.9025 164.286 22.8759C164.366 22.8492 164.513 22.8625 164.726 22.9159L167.688 23.5957C167.981 23.6757 168.075 23.929 167.968 24.3556C167.755 24.9422 167.421 25.5954 166.967 26.3152C166.514 27.0351 165.913 27.7017 165.166 28.3149C164.446 28.9281 163.552 29.448 162.485 29.8746C161.444 30.2745 160.217 30.4745 158.803 30.4745C156.748 30.4745 154.92 30.0212 153.319 29.1147C151.718 28.1816 150.451 26.9018 149.517 25.2754C148.61 23.6224 148.156 21.7161 148.156 19.5565C148.156 17.3702 148.623 15.4505 149.557 13.7975C150.491 12.1178 151.758 10.8114 153.359 9.87821C154.96 8.94505 156.775 8.47847 158.803 8.47847Z" fill="#FAFAFA"/>
<path d="M178.221 13.1176C177.928 13.1176 177.781 13.2776 177.781 13.5975V23.2358C177.781 24.1423 177.994 24.7955 178.421 25.1954C178.848 25.5687 179.529 25.7553 180.463 25.7553H182.624C182.811 25.7553 182.957 25.822 183.064 25.9553C183.171 26.0886 183.224 26.2486 183.224 26.4352L183.184 28.8748C183.184 29.3813 182.891 29.7013 182.304 29.8346C181.823 29.8879 181.303 29.9412 180.743 29.9946C180.209 30.0212 179.662 30.0479 179.102 30.0746C178.568 30.0746 178.048 30.0746 177.541 30.0746C175.726 30.0746 174.286 29.648 173.218 28.7948C172.151 27.9149 171.617 26.6219 171.617 24.9155V13.7175C171.617 13.3176 171.444 13.1176 171.097 13.1176H168.656C168.149 13.1176 167.895 12.891 167.895 12.4377V9.47828C167.895 9.07836 168.135 8.87839 168.616 8.87839H171.377C171.617 8.87839 171.751 8.73175 171.777 8.43847L172.338 2.35957C172.364 1.90632 172.565 1.6797 172.938 1.6797H177.301C177.728 1.6797 177.941 1.93298 177.941 2.43956V8.43847C177.941 8.70509 178.075 8.8384 178.341 8.8384H182.544C183.024 8.8384 183.264 9.0517 183.264 9.47828V12.4377C183.264 12.891 182.997 13.1176 182.464 13.1176H178.221Z" fill="#FAFAFA"/>
<path d="M194.472 30.4745C192.365 30.4745 190.497 30.0079 188.869 29.0747C187.268 28.1416 186.014 26.8618 185.107 25.2354C184.2 23.5824 183.746 21.7027 183.746 19.5965C183.746 17.3835 184.213 15.4505 185.147 13.7975C186.081 12.1178 187.362 10.8114 188.989 9.87821C190.617 8.94505 192.458 8.47847 194.513 8.47847C196.674 8.47847 198.555 8.95838 200.156 9.91821C201.757 10.8514 202.998 12.1578 203.878 13.8375C204.785 15.4905 205.239 17.3969 205.239 19.5565C205.239 21.6894 204.785 23.5824 203.878 25.2354C202.971 26.8618 201.703 28.1416 200.076 29.0747C198.475 30.0079 196.607 30.4745 194.472 30.4745ZM194.513 26.3952C195.5 26.3952 196.327 26.1419 196.994 25.6354C197.661 25.1021 198.155 24.3156 198.475 23.2758C198.822 22.236 198.995 20.9695 198.995 19.4765C198.995 17.9034 198.822 16.6103 198.475 15.5972C198.155 14.5574 197.661 13.7708 196.994 13.2376C196.327 12.7044 195.5 12.4377 194.513 12.4377C193.552 12.4377 192.725 12.7044 192.031 13.2376C191.364 13.7708 190.857 14.5574 190.51 15.5972C190.163 16.6103 189.99 17.9034 189.99 19.4765C189.99 20.9962 190.163 22.276 190.51 23.3158C190.857 24.3289 191.364 25.1021 192.031 25.6354C192.725 26.1419 193.552 26.3952 194.513 26.3952Z" fill="#FAFAFA"/>
<path d="M208.386 30.0746C208.039 30.0746 207.799 30.0079 207.666 29.8746C207.532 29.7413 207.465 29.5147 207.465 29.1947V1.15979C207.465 0.653215 207.679 0.399927 208.106 0.399927H213.029C213.429 0.399927 213.629 0.639884 213.629 1.1198V10.4381C213.629 10.7581 213.696 10.9314 213.829 10.958C213.989 10.958 214.163 10.878 214.35 10.7181C214.776 10.3181 215.257 9.9582 215.79 9.63826C216.351 9.29165 216.978 9.0117 217.672 8.79841C218.365 8.58511 219.126 8.47847 219.953 8.47847C221.767 8.47847 223.288 8.93172 224.516 9.83822C225.77 10.7447 226.717 12.0112 227.357 13.6375C227.998 15.2639 228.318 17.1702 228.318 19.3565C228.318 22.7426 227.531 25.4487 225.956 27.475C224.382 29.4747 222.128 30.4745 219.192 30.4745C218.232 30.4745 217.338 30.3278 216.511 30.0346C215.71 29.7146 215.003 29.3014 214.39 28.7948C213.803 28.2882 213.296 27.7683 212.869 27.2351C212.762 27.1018 212.655 27.0484 212.549 27.0751C212.468 27.0751 212.415 27.1684 212.388 27.355L211.908 29.2747C211.775 29.8079 211.468 30.0746 210.988 30.0746H208.386ZM213.629 22.7559C213.629 23.5557 213.816 24.2489 214.189 24.8355C214.563 25.4221 215.043 25.8886 215.63 26.2353C216.244 26.5552 216.911 26.7152 217.632 26.7152C218.512 26.7152 219.286 26.4752 219.953 25.9953C220.62 25.5154 221.127 24.7422 221.474 23.6757C221.847 22.5826 222.034 21.1695 222.034 19.4365C222.034 16.9836 221.674 15.1972 220.954 14.0775C220.233 12.9577 219.179 12.3978 217.792 12.3978C216.938 12.3978 216.164 12.5977 215.47 12.9976C214.777 13.3709 214.163 13.8775 213.629 14.5174V22.7559Z" fill="#FAFAFA"/>
<path d="M236.057 21.2761C236.057 22.2626 236.284 23.1425 236.738 23.9157C237.218 24.6622 237.845 25.2488 238.619 25.6754C239.419 26.0753 240.313 26.2752 241.301 26.2752C242.261 26.2752 243.142 26.0753 243.942 25.6754C244.769 25.2488 245.596 24.5556 246.424 23.5957C246.53 23.4891 246.624 23.4358 246.704 23.4358C246.784 23.4091 246.931 23.4491 247.144 23.5557L250.026 24.7555C250.399 24.9155 250.439 25.1821 250.146 25.5554C249.292 26.7818 248.398 27.755 247.464 28.4748C246.53 29.1947 245.49 29.7146 244.342 30.0346C243.222 30.3278 241.954 30.4745 240.54 30.4745C238.459 30.4745 236.604 30.0212 234.977 29.1147C233.349 28.2082 232.055 26.9551 231.095 25.3554C230.161 23.729 229.694 21.876 229.694 19.7964C229.694 17.5035 230.174 15.5172 231.135 13.8375C232.122 12.1311 233.429 10.8114 235.057 9.87821C236.685 8.94505 238.472 8.47847 240.42 8.47847C242.475 8.47847 244.276 8.93172 245.823 9.83822C247.371 10.7181 248.585 11.9845 249.465 13.6375C250.373 15.2906 250.826 17.3035 250.826 19.6764C250.826 19.9697 250.8 20.1963 250.746 20.3563C250.693 20.5163 250.493 20.6096 250.146 20.6363H236.538C236.378 20.6363 236.258 20.6896 236.178 20.7962C236.097 20.9029 236.057 21.0629 236.057 21.2761ZM244.102 17.2769C244.396 17.2769 244.583 17.2502 244.663 17.1969C244.743 17.1169 244.783 16.9569 244.783 16.717C244.783 16.0504 244.623 15.3706 244.302 14.6773C244.009 13.9841 243.555 13.4109 242.942 12.9577C242.355 12.4777 241.594 12.2378 240.66 12.2378C239.78 12.2378 238.993 12.4511 238.299 12.8777C237.605 13.3043 237.071 13.9041 236.698 14.6773C236.324 15.4239 236.138 16.2771 236.138 17.2369L244.102 17.2769Z" fill="#FAFAFA"/>
<path d="M253.745 30.0746C253.452 30.0746 253.238 30.0079 253.105 29.8746C252.972 29.7413 252.905 29.5413 252.905 29.2747V9.63826C252.905 9.13168 253.118 8.87839 253.545 8.87839H258.228C258.655 8.87839 258.868 9.10502 258.868 9.55827V11.9178C258.868 12.0778 258.922 12.1845 259.029 12.2378C259.162 12.2644 259.295 12.1978 259.429 12.0378C259.962 11.318 260.563 10.6914 261.23 10.1582C261.924 9.62492 262.631 9.21167 263.351 8.91839C264.072 8.62511 264.752 8.47847 265.392 8.47847C266.353 8.47847 266.833 8.70509 266.833 9.15834V13.7975C266.833 14.2241 266.633 14.3974 266.233 14.3174C265.753 14.1841 265.259 14.1041 264.752 14.0775C264.245 14.0241 263.805 13.9975 263.431 13.9975C262.951 13.9975 262.444 14.0908 261.91 14.2774C261.403 14.464 260.936 14.7307 260.509 15.0773C260.083 15.4239 259.736 15.7971 259.469 16.1971C259.202 16.597 259.069 17.0236 259.069 17.4768V29.1547C259.069 29.7679 258.722 30.0746 258.028 30.0746H253.745Z" fill="#FAFAFA"/>
<path d="M909.537 61.2209C909.537 58.9813 910.583 57.8615 912.675 57.8615H1017.12C1018.91 57.8615 1019.81 58.832 1019.81 60.773L1019.59 74.8824C1019.59 77.122 1018.47 78.2418 1016.22 78.2418H940.019C937.777 78.2418 936.657 79.2123 936.657 81.1533V127.289C936.657 129.23 937.628 130.2 939.571 130.2H994.259C996.201 130.2 997.173 131.096 997.173 132.888V147.893C997.173 148.64 996.949 149.237 996.5 149.685C996.201 150.133 995.454 150.357 994.259 150.357H939.346C937.553 150.357 936.657 151.178 936.657 152.82V201.196C936.657 202.838 937.404 203.659 938.898 203.659H1019.36C1021.45 203.659 1022.5 204.555 1022.5 206.347V221.128C1022.5 222.024 1022.28 222.77 1021.83 223.368C1021.38 223.816 1020.56 224.039 1019.36 224.039H913.347C910.807 224.039 909.537 222.845 909.537 220.456V61.2209Z" fill="#FAFAFA"/>
<path d="M1186.76 57.8615C1188.4 57.8615 1189.22 58.832 1189.22 60.773V221.128C1189.22 222.024 1188.92 222.77 1188.32 223.368C1187.73 223.816 1186.91 224.039 1185.86 224.039H1171.29C1170.24 224.039 1169.35 223.965 1168.6 223.815C1167.85 223.517 1167.11 222.845 1166.36 221.8L1084.55 104.445C1083.8 103.4 1083.21 102.952 1082.76 103.101C1082.31 103.251 1082.09 103.773 1082.09 104.669V220.904C1082.09 222.994 1080.89 224.039 1078.5 224.039H1062.59C1060.2 224.039 1059 222.994 1059 220.904V61.2209C1059 58.9813 1060.12 57.8615 1062.36 57.8615H1079.84C1081.04 57.8615 1081.94 58.0108 1082.53 58.3094C1083.28 58.6081 1084.03 59.3546 1084.78 60.549L1163.22 174.096C1164.12 175.291 1164.87 175.814 1165.46 175.664C1166.21 175.366 1166.58 174.694 1166.58 173.649V60.997C1166.58 58.9067 1167.63 57.8615 1169.72 57.8615H1186.76Z" fill="#FAFAFA"/>
<path d="M1228.69 57.8615C1230.34 57.8615 1232.95 57.8615 1236.54 57.8615C1240.27 57.8615 1244.23 57.9362 1248.42 58.0855C1252.75 58.0855 1256.71 58.0855 1260.3 58.0855C1264.03 58.0855 1266.8 58.0855 1268.59 58.0855C1289.06 58.3841 1305.72 61.8181 1318.57 68.3876C1331.42 74.8078 1340.83 83.9901 1346.81 95.9346C1352.94 107.879 1356 122.511 1356 139.831C1356 158.046 1352.71 173.425 1346.14 185.966C1339.71 198.508 1329.85 207.989 1316.55 214.409C1303.4 220.829 1286.74 224.039 1266.57 224.039H1228.92C1226.23 224.039 1224.88 222.696 1224.88 220.008V61.4449C1224.88 60.1011 1225.18 59.2053 1225.78 58.7574C1226.38 58.1601 1227.35 57.8615 1228.69 57.8615ZM1254.24 77.7939C1252.75 77.7939 1252 78.839 1252 80.9293V201.644C1252 203.435 1252.9 204.331 1254.69 204.331H1262.09C1277.18 204.331 1289.58 202.241 1299.29 198.06C1309.01 193.88 1316.18 187.161 1320.81 177.904C1325.44 168.498 1327.76 156.105 1327.76 140.727C1327.76 124.9 1325.44 112.433 1320.81 103.325C1316.18 94.2176 1309.08 87.7228 1299.52 83.8408C1290.1 79.8095 1278.08 77.7939 1263.43 77.7939H1254.24Z" fill="#FAFAFA"/>
<path d="M0 61.2209C0 58.9813 1.04595 57.8615 3.13786 57.8615H105.567C107.36 57.8615 108.256 58.832 108.256 60.773L108.032 74.8824C108.032 77.122 106.911 78.2418 104.67 78.2418H30.4821C28.2407 78.2418 27.1201 79.2123 27.1201 81.1533V129.976C27.1201 131.768 28.0913 132.664 30.0338 132.664H86.2912C88.0842 132.664 88.9807 133.56 88.9807 135.352V150.133C88.9807 151.775 88.0842 152.596 86.2912 152.596H29.8097C28.0166 152.596 27.1201 153.492 27.1201 155.284V220.456C27.1201 222.845 25.7753 224.039 23.0857 224.039H3.81026C2.31604 224.039 1.27009 223.816 0.672398 223.368C0.224133 222.77 0 221.8 0 220.456V61.2209Z" fill="#FAFAFA"/>
<path d="M258.945 219.336C259.394 220.531 259.319 221.651 258.721 222.696C258.273 223.592 257.451 224.039 256.256 224.039H234.515C232.722 224.039 231.377 222.994 230.481 220.904L203.136 152.82C202.389 151.029 200.522 150.133 197.533 150.133H164.81C163.764 150.133 163.017 150.431 162.568 151.029C162.269 151.477 162.12 151.999 162.12 152.596V220.008C162.12 222.696 160.701 224.039 157.862 224.039H138.81C137.316 224.039 136.27 223.741 135.672 223.144C135.224 222.546 135 221.651 135 220.456V61.2209C135 58.9813 136.046 57.8615 138.138 57.8615H202.912C221.291 57.8615 235.561 61.5942 245.722 69.0595C256.032 76.5248 261.187 87.4242 261.187 101.758C261.187 109.969 259.618 117.061 256.48 123.034C253.342 128.857 249.308 133.634 244.377 137.367C239.595 140.95 234.44 143.563 228.912 145.206C227.866 145.654 227.567 146.549 228.015 147.893L258.945 219.336ZM197.533 131.096C209.188 131.096 218.004 128.931 223.981 124.601C230.107 120.122 233.17 113.18 233.17 103.773C233.17 94.8148 230.406 88.0961 224.877 83.6169C219.349 79.1377 211.504 76.8981 201.343 76.8981H165.706C163.315 76.8981 162.12 77.7939 162.12 79.5856V127.961C162.12 130.051 162.942 131.096 164.586 131.096H197.533Z" fill="#FAFAFA"/>
<path d="M360.843 226.279C345.752 226.279 332.752 222.994 321.844 216.425C310.936 209.706 302.569 200.076 296.741 187.534C290.914 174.843 288 159.539 288 141.622C288 123.556 290.988 108.103 296.965 95.2627C302.942 82.4224 311.385 72.6429 322.292 65.9241C333.2 59.056 346.125 55.6219 361.067 55.6219C375.86 55.6219 388.636 59.056 399.394 65.9241C410.302 72.6429 418.669 82.4224 424.497 95.2627C430.474 107.954 433.462 123.332 433.462 141.398C433.462 159.315 430.549 174.619 424.721 187.31C418.894 199.852 410.526 209.482 399.618 216.201C388.71 222.92 375.785 226.279 360.843 226.279ZM361.067 206.347C376.01 206.347 387.067 201.196 394.239 190.893C401.561 180.442 405.221 164.018 405.221 141.622C405.221 118.928 401.486 102.205 394.015 91.4554C386.693 80.7054 375.711 75.3304 361.067 75.3304C346.125 75.3304 334.919 80.78 327.447 91.6794C319.976 102.429 316.241 119.077 316.241 141.622C316.241 163.869 319.976 180.218 327.447 190.669C334.919 201.121 346.125 206.347 361.067 206.347Z" fill="#FAFAFA"/>
<path d="M588.756 57.8615C590.399 57.8615 591.221 58.832 591.221 60.773V221.128C591.221 222.024 590.922 222.77 590.325 223.368C589.727 223.816 588.905 224.039 587.859 224.039H573.291C572.245 224.039 571.348 223.965 570.601 223.815C569.854 223.517 569.107 222.845 568.36 221.8L486.551 104.445C485.804 103.4 485.206 102.952 484.758 103.101C484.31 103.251 484.086 103.773 484.086 104.669V220.904C484.086 222.994 482.89 224.039 480.5 224.039H464.586C462.195 224.039 461 222.994 461 220.904V61.2209C461 58.9813 462.121 57.8615 464.362 57.8615H481.844C483.04 57.8615 483.936 58.0108 484.534 58.3094C485.281 58.6081 486.028 59.3546 486.775 60.549L565.222 174.096C566.118 175.291 566.865 175.814 567.463 175.664C568.21 175.366 568.584 174.694 568.584 173.649V60.997C568.584 58.9067 569.63 57.8615 571.722 57.8615H588.756Z" fill="#FAFAFA"/>
<path d="M618 60.997C618 59.9518 618.224 59.2053 618.672 58.7574C619.27 58.1601 620.167 57.8615 621.362 57.8615H744.411C745.606 57.8615 746.428 58.1601 746.876 58.7574C747.325 59.2053 747.549 59.9518 747.549 60.997V75.3304C747.549 77.122 746.503 78.0179 744.411 78.0179H700.033C698.389 78.0179 697.567 78.6898 697.567 80.0335V220.68C697.567 222.92 696.596 224.039 694.653 224.039H673.585C671.642 224.039 670.671 222.994 670.671 220.904V80.4814C670.671 78.8391 669.849 78.0179 668.206 78.0179H621.138C619.046 78.0179 618 77.122 618 75.3304V60.997Z" fill="#FAFAFA"/>
<path d="M0 279.181C0 276.942 1.04595 275.822 3.13786 275.822H107.584C109.377 275.822 110.273 276.793 110.273 278.734L110.049 292.843C110.049 295.083 108.929 296.202 106.687 296.202H30.4821C28.2407 296.202 27.1201 297.173 27.1201 299.114V345.25C27.1201 347.19 28.0913 348.161 30.0338 348.161H84.7222C86.6647 348.161 87.6359 349.057 87.6359 350.848V365.854C87.6359 366.6 87.4118 367.198 86.9635 367.645C86.6647 368.093 85.9176 368.317 84.7222 368.317H29.8097C28.0166 368.317 27.1201 369.139 27.1201 370.781V419.156C27.1201 420.798 27.8672 421.62 29.3614 421.62H109.825C111.917 421.62 112.963 422.516 112.963 424.307V439.089C112.963 439.984 112.739 440.731 112.291 441.328C111.842 441.776 111.02 442 109.825 442H3.81026C1.27009 442 0 440.806 0 438.417V279.181Z" fill="#FAFAFA"/>
<path d="M271.324 435.953C272.968 438.342 273.491 439.984 272.893 440.88C272.445 441.627 271.324 442 269.531 442H248.239C245.997 442 244.354 441.179 243.308 439.536L204.309 379.739C203.263 378.246 202.366 377.5 201.619 377.5C201.021 377.35 200.125 378.172 198.93 379.963L160.379 439.536C159.93 440.432 159.258 441.104 158.362 441.552C157.465 441.851 156.419 442 155.224 442H137.517C135.874 442 134.753 441.627 134.155 440.88C133.707 439.984 134.23 438.342 135.724 435.953L185.93 360.479C186.677 359.284 186.976 358.314 186.826 357.567C186.826 356.671 186.453 355.626 185.706 354.432L136.621 280.077C136.023 279.181 135.799 278.286 135.948 277.39C136.247 276.345 137.069 275.822 138.414 275.822H161.051C162.545 275.822 163.591 276.046 164.189 276.494C164.936 276.793 165.534 277.39 165.982 278.286L201.619 333.604C202.366 334.649 203.039 335.171 203.636 335.171C204.383 335.171 205.131 334.649 205.878 333.604L241.515 278.286C242.112 277.39 242.71 276.793 243.308 276.494C243.906 276.046 244.877 275.822 246.222 275.822H265.945C267.29 275.822 268.037 276.27 268.187 277.166C268.336 277.912 268.037 278.734 267.29 279.629L219.102 351.968C218.354 353.013 217.981 353.909 217.981 354.656C218.13 355.402 218.504 356.298 219.102 357.343L271.324 435.953Z" fill="#FAFAFA"/>
<path d="M422.739 325.317C422.739 336.366 420.198 345.548 415.118 352.864C410.038 360.031 403.015 365.406 394.049 368.989C385.084 372.573 374.774 374.364 363.119 374.364H326.361C324.867 374.364 324.12 375.111 324.12 376.604V438.193C324.12 440.731 322.775 442 320.086 442H300.586C299.241 442 298.27 441.776 297.672 441.328C297.224 440.731 297 439.835 297 438.641V279.181C297 276.942 298.046 275.822 300.138 275.822H359.981C371.786 275.822 382.395 277.539 391.808 280.973C401.371 284.407 408.917 289.782 414.446 297.098C419.974 304.414 422.739 313.821 422.739 325.317ZM394.946 324.645C394.946 317.777 393.452 312.253 390.463 308.072C387.475 303.742 383.216 300.607 377.688 298.666C372.309 296.725 365.883 295.754 358.412 295.754H327.482C325.241 295.754 324.12 296.8 324.12 298.89V351.072C324.12 353.312 324.942 354.432 326.586 354.432H359.981C370.59 354.432 379.033 351.968 385.308 347.041C391.733 342.114 394.946 334.649 394.946 324.645Z" fill="#FAFAFA"/>
<path d="M447 279.181C447 276.942 448.046 275.822 450.138 275.822H554.584C556.377 275.822 557.273 276.793 557.273 278.734L557.049 292.843C557.049 295.083 555.929 296.202 553.687 296.202H477.482C475.241 296.202 474.12 297.173 474.12 299.114V345.25C474.12 347.19 475.091 348.161 477.034 348.161H531.722C533.665 348.161 534.636 349.057 534.636 350.848V365.854C534.636 366.6 534.412 367.198 533.964 367.645C533.665 368.093 532.918 368.317 531.722 368.317H476.81C475.017 368.317 474.12 369.139 474.12 370.781V419.156C474.12 420.798 474.867 421.62 476.361 421.62H556.825C558.917 421.62 559.963 422.516 559.963 424.307V439.089C559.963 439.984 559.739 440.731 559.291 441.328C558.842 441.776 558.02 442 556.825 442H450.81C448.27 442 447 440.806 447 438.417V279.181Z" fill="#FAFAFA"/>
<path d="M713.945 437.297C714.394 438.491 714.319 439.611 713.721 440.656C713.273 441.552 712.451 442 711.256 442H689.515C687.722 442 686.377 440.955 685.481 438.865L658.136 370.781C657.389 368.989 655.521 368.093 652.533 368.093H619.81C618.764 368.093 618.017 368.392 617.568 368.989C617.27 369.437 617.12 369.96 617.12 370.557V437.969C617.12 440.656 615.701 442 612.862 442H593.81C592.316 442 591.27 441.701 590.672 441.104C590.224 440.507 590 439.611 590 438.417V279.181C590 276.942 591.046 275.822 593.138 275.822H657.912C676.291 275.822 690.561 279.555 700.722 287.02C711.032 294.485 716.187 305.385 716.187 319.718C716.187 327.93 714.618 335.022 711.48 340.994C708.342 346.817 704.308 351.595 699.377 355.328C694.595 358.911 689.44 361.524 683.912 363.166C682.866 363.614 682.567 364.51 683.015 365.854L713.945 437.297ZM652.533 349.057C664.188 349.057 673.004 346.892 678.981 342.562C685.107 338.083 688.17 331.14 688.17 321.734C688.17 312.775 685.406 306.057 679.877 301.577C674.349 297.098 666.504 294.859 656.343 294.859H620.706C618.315 294.859 617.12 295.754 617.12 297.546V345.921C617.12 348.012 617.942 349.057 619.586 349.057H652.533Z" fill="#FAFAFA"/>
<path d="M742 278.958C742 277.912 742.224 277.166 742.672 276.718C743.27 276.121 744.167 275.822 745.362 275.822H868.411C869.606 275.822 870.428 276.121 870.876 276.718C871.325 277.166 871.549 277.912 871.549 278.958V293.291C871.549 295.083 870.503 295.978 868.411 295.978H824.033C822.389 295.978 821.567 296.65 821.567 297.994V438.641C821.567 440.88 820.596 442 818.653 442H797.585C795.642 442 794.671 440.955 794.671 438.865V298.442C794.671 296.8 793.849 295.978 792.206 295.978H745.138C743.046 295.978 742 295.083 742 293.291V278.958Z" fill="#FAFAFA"/>
<path fill-rule="evenodd" clip-rule="evenodd" d="M872.805 143.054H784.753V137.054H872.805V143.054Z" fill="#F8CB01"/>
</svg>
