<svg width="1512" height="490" viewBox="0 0 1512 490" fill="none" xmlns="http://www.w3.org/2000/svg">
<path d="M88.68 6.32C89.16 6.32 89.8 6.32 90.6 6.32C91.4267 6.32 92.28 6.32 93.16 6.32C94.0667 6.32 94.92 6.32 95.72 6.32C96.52 6.32 97.1467 6.33333 97.6 6.36C101.2 6.44 104.16 7.09333 106.48 8.32C108.8 9.54667 110.507 11.24 111.6 13.4C112.72 15.5333 113.28 18.08 113.28 21.04C113.28 24.08 112.693 26.7333 111.52 29C110.373 31.24 108.613 32.9733 106.24 34.2C103.893 35.4 100.947 36 97.4 36H88.72C88.1067 36 87.8 35.68 87.8 35.04V7.16C87.8 6.84 87.8667 6.62666 88 6.52C88.1333 6.38666 88.36 6.32 88.68 6.32ZM95.2 11.28C94.9333 11.28 94.8 11.4667 94.8 11.84V30.52C94.8 30.8933 94.9733 31.08 95.32 31.08H96.08C98.2667 31.08 100.093 30.76 101.56 30.12C103.027 29.4533 104.12 28.3867 104.84 26.92C105.587 25.4533 105.96 23.5067 105.96 21.08C105.96 18.7333 105.613 16.8533 104.92 15.44C104.253 14 103.213 12.9467 101.8 12.28C100.413 11.6133 98.64 11.28 96.48 11.28H95.2ZM127.439 33.96C126.612 34.7067 125.679 35.3067 124.639 35.76C123.626 36.1867 122.452 36.4 121.119 36.4C119.092 36.4 117.492 35.8533 116.319 34.76C115.172 33.6667 114.599 32.2667 114.599 30.56C114.599 29.0667 115.066 27.76 115.999 26.64C116.932 25.52 118.266 24.6533 119.999 24.04C121.732 23.4 123.799 23.0533 126.199 23L127.599 22.88C127.759 22.88 127.906 22.84 128.039 22.76C128.172 22.68 128.239 22.5333 128.239 22.32V21.48C128.239 20.4667 127.946 19.68 127.359 19.12C126.772 18.5333 125.932 18.24 124.839 18.24C124.039 18.24 123.266 18.4267 122.519 18.8C121.799 19.1467 121.186 19.76 120.679 20.64C120.599 20.8267 120.506 20.9467 120.399 21C120.292 21.0533 120.092 21.0533 119.799 21L115.799 20.08C115.639 20.0267 115.519 19.9467 115.439 19.84C115.386 19.7067 115.439 19.44 115.599 19.04C116.266 17.4667 117.412 16.3067 119.039 15.56C120.692 14.7867 122.719 14.4 125.119 14.4C127.332 14.4 129.092 14.68 130.399 15.24C131.706 15.8 132.652 16.5867 133.239 17.6C133.826 18.5867 134.119 19.7467 134.119 21.08V35.12C134.119 35.44 134.066 35.6667 133.959 35.8C133.852 35.9333 133.652 36 133.359 36H129.239C128.946 36 128.732 35.8933 128.599 35.68C128.492 35.4667 128.426 35.2 128.399 34.88L128.319 34C128.266 33.52 127.972 33.5067 127.439 33.96ZM128.239 26.56C128.239 26.1067 128.039 25.88 127.639 25.88L126.519 25.96C125.826 25.9867 125.132 26.0933 124.439 26.28C123.746 26.44 123.119 26.68 122.559 27C121.999 27.2933 121.532 27.68 121.159 28.16C120.812 28.6133 120.639 29.1467 120.639 29.76C120.639 30.56 120.919 31.2 121.479 31.68C122.039 32.1333 122.812 32.36 123.799 32.36C124.466 32.36 125.052 32.2533 125.559 32.04C126.092 31.8267 126.546 31.5733 126.919 31.28C127.319 30.9333 127.639 30.5867 127.879 30.24C128.119 29.8933 128.239 29.5333 128.239 29.16V26.56ZM138.218 36C137.925 36 137.711 35.9333 137.578 35.8C137.445 35.6667 137.378 35.4667 137.378 35.2V15.56C137.378 15.0533 137.591 14.8 138.018 14.8H142.698C143.125 14.8 143.338 15.0267 143.338 15.48V17.84C143.338 18 143.391 18.1067 143.498 18.16C143.631 18.1867 143.765 18.12 143.898 17.96C144.431 17.24 145.031 16.6133 145.698 16.08C146.391 15.5467 147.098 15.1333 147.818 14.84C148.538 14.5467 149.218 14.4 149.858 14.4C150.818 14.4 151.298 14.6267 151.298 15.08V19.72C151.298 20.1467 151.098 20.32 150.698 20.24C150.218 20.1067 149.725 20.0267 149.218 20C148.711 19.9467 148.271 19.92 147.898 19.92C147.418 19.92 146.911 20.0133 146.378 20.2C145.871 20.3867 145.405 20.6533 144.978 21C144.551 21.3467 144.205 21.72 143.938 22.12C143.671 22.52 143.538 22.9467 143.538 23.4V35.08C143.538 35.6933 143.191 36 142.498 36H138.218ZM154.049 36C153.756 36 153.543 35.9333 153.409 35.8C153.276 35.6667 153.209 35.4667 153.209 35.2V15.56C153.209 15.0533 153.423 14.8 153.849 14.8H158.529C158.956 14.8 159.169 15.0267 159.169 15.48V17.84C159.169 18 159.223 18.1067 159.329 18.16C159.463 18.1867 159.596 18.12 159.729 17.96C160.263 17.24 160.863 16.6133 161.529 16.08C162.223 15.5467 162.929 15.1333 163.649 14.84C164.369 14.5467 165.049 14.4 165.689 14.4C166.649 14.4 167.129 14.6267 167.129 15.08V19.72C167.129 20.1467 166.929 20.32 166.529 20.24C166.049 20.1067 165.556 20.0267 165.049 20C164.543 19.9467 164.103 19.92 163.729 19.92C163.249 19.92 162.743 20.0133 162.209 20.2C161.703 20.3867 161.236 20.6533 160.809 21C160.383 21.3467 160.036 21.72 159.769 22.12C159.503 22.52 159.369 22.9467 159.369 23.4V35.08C159.369 35.6933 159.023 36 158.329 36H154.049ZM171.001 42.6C170.174 42.6 169.574 42.56 169.201 42.48C168.827 42.4 168.641 42.1867 168.641 41.84V38.76C168.641 38.6 168.721 38.4533 168.881 38.32C169.041 38.1867 169.347 38.12 169.801 38.12H172.521C173.027 38.12 173.481 38 173.881 37.76C174.307 37.52 174.641 37.2267 174.881 36.88C175.147 36.5333 175.334 36.16 175.441 35.76C175.547 35.36 175.521 35 175.361 34.68L167.681 15.76C167.574 15.52 167.574 15.3067 167.681 15.12C167.814 14.9067 168.027 14.8 168.321 14.8H173.361C173.574 14.8 173.761 14.8667 173.921 15C174.081 15.1067 174.187 15.2667 174.241 15.48L178.681 27.4C178.761 27.64 178.867 27.7733 179.001 27.8C179.134 27.8 179.254 27.6533 179.361 27.36L183.761 15.44C183.867 15.2533 183.987 15.1067 184.121 15C184.254 14.8667 184.427 14.8 184.641 14.8H188.081C188.347 14.8 188.534 14.9067 188.641 15.12C188.747 15.3067 188.747 15.5067 188.641 15.72L180.441 36C179.881 37.3867 179.294 38.5067 178.681 39.36C178.094 40.24 177.441 40.9067 176.721 41.36C176.001 41.84 175.174 42.16 174.241 42.32C173.334 42.5067 172.254 42.6 171.001 42.6ZM196.697 35.04C196.697 35.3867 196.617 35.64 196.457 35.8C196.297 35.9333 196.017 36 195.617 36H191.377C190.79 36 190.497 35.72 190.497 35.16L190.617 7.08C190.617 6.57333 190.83 6.32 191.257 6.32H196.097C196.497 6.32 196.697 6.56 196.697 7.04V35.04ZM220.284 36.4C217.457 36.4 215.017 35.8 212.964 34.6C210.911 33.3733 209.324 31.6267 208.204 29.36C207.111 27.0933 206.564 24.4 206.564 21.28C206.564 18.1067 207.124 15.3733 208.244 13.08C209.391 10.7867 210.991 9.02667 213.044 7.8C215.097 6.54667 217.511 5.92 220.284 5.92C223.057 5.92 225.457 6.54667 227.484 7.8C229.537 9.02667 231.124 10.7867 232.244 13.08C233.364 15.3467 233.924 18.0667 233.924 21.24C233.924 24.36 233.364 27.0533 232.244 29.32C231.151 31.5867 229.577 33.3333 227.524 34.56C225.471 35.7867 223.057 36.4 220.284 36.4ZM220.284 31.48C222.471 31.48 224.071 30.6933 225.084 29.12C226.097 27.52 226.604 24.92 226.604 21.32C226.604 17.64 226.084 14.9733 225.044 13.32C224.031 11.64 222.444 10.8 220.284 10.8C218.097 10.8 216.484 11.64 215.444 13.32C214.404 15 213.884 17.6667 213.884 21.32C213.884 24.8933 214.391 27.48 215.404 29.08C216.444 30.68 218.071 31.48 220.284 31.48ZM246.421 14.4C248.154 14.4 249.621 14.7067 250.821 15.32C252.047 15.9067 253.047 16.6667 253.821 17.6C254.594 18.5333 255.141 19.4933 255.461 20.48C255.647 21.0133 255.487 21.2933 254.981 21.32L250.781 21.72C250.487 21.7467 250.287 21.6 250.181 21.28C249.941 20.7733 249.674 20.3067 249.381 19.88C249.087 19.4533 248.727 19.1067 248.301 18.84C247.874 18.5733 247.314 18.44 246.621 18.44C245.714 18.44 244.914 18.6933 244.221 19.2C243.527 19.7067 242.981 20.48 242.581 21.52C242.207 22.5333 242.021 23.8267 242.021 25.4C242.021 27 242.221 28.32 242.621 29.36C243.021 30.4 243.581 31.1733 244.301 31.68C245.047 32.1867 245.927 32.44 246.941 32.44C248.114 32.44 249.034 32.1333 249.701 31.52C250.394 30.9067 251.047 30.08 251.661 29.04C251.741 28.9067 251.821 28.8267 251.901 28.8C251.981 28.7733 252.127 28.7867 252.341 28.84L255.301 29.52C255.594 29.6 255.687 29.8533 255.581 30.28C255.367 30.8667 255.034 31.52 254.581 32.24C254.127 32.96 253.527 33.6267 252.781 34.24C252.061 34.8533 251.167 35.3733 250.101 35.8C249.061 36.2 247.834 36.4 246.421 36.4C244.367 36.4 242.541 35.9467 240.941 35.04C239.341 34.1067 238.074 32.8267 237.141 31.2C236.234 29.5467 235.781 27.64 235.781 25.48C235.781 23.2933 236.247 21.3733 237.181 19.72C238.114 18.04 239.381 16.7333 240.981 15.8C242.581 14.8667 244.394 14.4 246.421 14.4ZM265.828 19.04C265.534 19.04 265.388 19.2 265.388 19.52V29.16C265.388 30.0667 265.601 30.72 266.028 31.12C266.454 31.4933 267.134 31.68 268.068 31.68H270.228C270.414 31.68 270.561 31.7467 270.668 31.88C270.774 32.0133 270.828 32.1733 270.828 32.36L270.788 34.8C270.788 35.3067 270.494 35.6267 269.908 35.76C269.428 35.8133 268.908 35.8667 268.348 35.92C267.814 35.9467 267.268 35.9733 266.708 36C266.174 36 265.654 36 265.148 36C263.334 36 261.894 35.5733 260.828 34.72C259.761 33.84 259.228 32.5467 259.228 30.84V19.64C259.228 19.24 259.054 19.04 258.708 19.04H256.268C255.761 19.04 255.508 18.8133 255.508 18.36V15.4C255.508 15 255.748 14.8 256.228 14.8H258.988C259.228 14.8 259.361 14.6533 259.388 14.36L259.948 8.28C259.974 7.82667 260.174 7.6 260.548 7.6H264.908C265.334 7.6 265.548 7.85333 265.548 8.36V14.36C265.548 14.6267 265.681 14.76 265.948 14.76H270.148C270.628 14.76 270.868 14.9733 270.868 15.4V18.36C270.868 18.8133 270.601 19.04 270.068 19.04H265.828ZM282.069 36.4C279.963 36.4 278.096 35.9333 276.469 35C274.869 34.0667 273.616 32.7867 272.709 31.16C271.803 29.5067 271.349 27.6267 271.349 25.52C271.349 23.3067 271.816 21.3733 272.749 19.72C273.683 18.04 274.963 16.7333 276.589 15.8C278.216 14.8667 280.056 14.4 282.109 14.4C284.269 14.4 286.149 14.88 287.749 15.84C289.349 16.7733 290.589 18.08 291.469 19.76C292.376 21.4133 292.829 23.32 292.829 25.48C292.829 27.6133 292.376 29.5067 291.469 31.16C290.563 32.7867 289.296 34.0667 287.669 35C286.069 35.9333 284.203 36.4 282.069 36.4ZM282.109 32.32C283.096 32.32 283.923 32.0667 284.589 31.56C285.256 31.0267 285.749 30.24 286.069 29.2C286.416 28.16 286.589 26.8933 286.589 25.4C286.589 23.8267 286.416 22.5333 286.069 21.52C285.749 20.48 285.256 19.6933 284.589 19.16C283.923 18.6267 283.096 18.36 282.109 18.36C281.149 18.36 280.323 18.6267 279.629 19.16C278.963 19.6933 278.456 20.48 278.109 21.52C277.763 22.5333 277.589 23.8267 277.589 25.4C277.589 26.92 277.763 28.2 278.109 29.24C278.456 30.2533 278.963 31.0267 279.629 31.56C280.323 32.0667 281.149 32.32 282.109 32.32ZM295.975 36C295.628 36 295.388 35.9333 295.255 35.8C295.121 35.6667 295.055 35.44 295.055 35.12V7.08C295.055 6.57333 295.268 6.32 295.695 6.32H300.615C301.015 6.32 301.215 6.56 301.215 7.04V16.36C301.215 16.68 301.281 16.8533 301.415 16.88C301.575 16.88 301.748 16.8 301.935 16.64C302.361 16.24 302.841 15.88 303.375 15.56C303.935 15.2133 304.561 14.9333 305.255 14.72C305.948 14.5067 306.708 14.4 307.535 14.4C309.348 14.4 310.868 14.8533 312.095 15.76C313.348 16.6667 314.295 17.9333 314.935 19.56C315.575 21.1867 315.895 23.0933 315.895 25.28C315.895 28.6667 315.108 31.3733 313.535 33.4C311.961 35.4 309.708 36.4 306.775 36.4C305.815 36.4 304.921 36.2533 304.095 35.96C303.295 35.64 302.588 35.2267 301.975 34.72C301.388 34.2133 300.881 33.6933 300.455 33.16C300.348 33.0267 300.241 32.9733 300.135 33C300.055 33 300.001 33.0933 299.975 33.28L299.495 35.2C299.361 35.7333 299.055 36 298.575 36H295.975ZM301.215 28.68C301.215 29.48 301.401 30.1733 301.775 30.76C302.148 31.3467 302.628 31.8133 303.215 32.16C303.828 32.48 304.495 32.64 305.215 32.64C306.095 32.64 306.868 32.4 307.535 31.92C308.201 31.44 308.708 30.6667 309.055 29.6C309.428 28.5067 309.615 27.0933 309.615 25.36C309.615 22.9067 309.255 21.12 308.535 20C307.815 18.88 306.761 18.32 305.375 18.32C304.521 18.32 303.748 18.52 303.055 18.92C302.361 19.2933 301.748 19.8 301.215 20.44V28.68ZM323.63 27.2C323.63 28.1867 323.856 29.0667 324.31 29.84C324.79 30.5867 325.416 31.1733 326.19 31.6C326.99 32 327.883 32.2 328.87 32.2C329.83 32.2 330.71 32 331.51 31.6C332.336 31.1733 333.163 30.48 333.99 29.52C334.096 29.4133 334.19 29.36 334.27 29.36C334.35 29.3333 334.496 29.3733 334.71 29.48L337.59 30.68C337.963 30.84 338.003 31.1067 337.71 31.48C336.856 32.7067 335.963 33.68 335.03 34.4C334.096 35.12 333.056 35.64 331.91 35.96C330.79 36.2533 329.523 36.4 328.11 36.4C326.03 36.4 324.176 35.9467 322.55 35.04C320.923 34.1333 319.63 32.88 318.67 31.28C317.736 29.6533 317.27 27.8 317.27 25.72C317.27 23.4267 317.75 21.44 318.71 19.76C319.696 18.0533 321.003 16.7333 322.63 15.8C324.256 14.8667 326.043 14.4 327.99 14.4C330.043 14.4 331.843 14.8533 333.39 15.76C334.936 16.64 336.15 17.9067 337.03 19.56C337.936 21.2133 338.39 23.2267 338.39 25.6C338.39 25.8933 338.363 26.12 338.31 26.28C338.256 26.44 338.056 26.5333 337.71 26.56H324.11C323.95 26.56 323.83 26.6133 323.75 26.72C323.67 26.8267 323.63 26.9867 323.63 27.2ZM331.67 23.2C331.963 23.2 332.15 23.1733 332.23 23.12C332.31 23.04 332.35 22.88 332.35 22.64C332.35 21.9733 332.19 21.2933 331.87 20.6C331.576 19.9067 331.123 19.3333 330.51 18.88C329.923 18.4 329.163 18.16 328.23 18.16C327.35 18.16 326.563 18.3733 325.87 18.8C325.176 19.2267 324.643 19.8267 324.27 20.6C323.896 21.3467 323.71 22.2 323.71 23.16L331.67 23.2ZM341.307 36C341.014 36 340.801 35.9333 340.667 35.8C340.534 35.6667 340.467 35.4667 340.467 35.2V15.56C340.467 15.0533 340.681 14.8 341.107 14.8H345.787C346.214 14.8 346.427 15.0267 346.427 15.48V17.84C346.427 18 346.481 18.1067 346.587 18.16C346.721 18.1867 346.854 18.12 346.987 17.96C347.521 17.24 348.121 16.6133 348.787 16.08C349.481 15.5467 350.187 15.1333 350.907 14.84C351.627 14.5467 352.307 14.4 352.947 14.4C353.907 14.4 354.387 14.6267 354.387 15.08V19.72C354.387 20.1467 354.187 20.32 353.787 20.24C353.307 20.1067 352.814 20.0267 352.307 20C351.801 19.9467 351.361 19.92 350.987 19.92C350.507 19.92 350.001 20.0133 349.467 20.2C348.961 20.3867 348.494 20.6533 348.067 21C347.641 21.3467 347.294 21.72 347.027 22.12C346.761 22.52 346.627 22.9467 346.627 23.4V35.08C346.627 35.6933 346.281 36 345.587 36H341.307Z" fill="black"/>
<path d="M87.712 67.152C87.712 64.912 88.7573 63.792 90.848 63.792H193.216C195.008 63.792 195.904 64.7627 195.904 66.704L195.68 80.816C195.68 83.056 194.56 84.176 192.32 84.176H118.176C115.936 84.176 114.816 85.1467 114.816 87.088V135.92C114.816 137.712 115.787 138.608 117.728 138.608H173.952C175.744 138.608 176.64 139.504 176.64 141.296V156.08C176.64 157.723 175.744 158.544 173.952 158.544H117.504C115.712 158.544 114.816 159.44 114.816 161.232V226.416C114.816 228.805 113.472 230 110.784 230H91.52C90.0267 230 88.9813 229.776 88.384 229.328C87.936 228.731 87.712 227.76 87.712 226.416V67.152ZM346.282 225.296C346.73 226.491 346.655 227.611 346.058 228.656C345.61 229.552 344.788 230 343.593 230H321.865C320.074 230 318.73 228.955 317.833 226.864L290.505 158.768C289.759 156.976 287.892 156.08 284.905 156.08H252.201C251.156 156.08 250.409 156.379 249.961 156.976C249.663 157.424 249.513 157.947 249.513 158.544V225.968C249.513 228.656 248.095 230 245.257 230H226.217C224.724 230 223.679 229.701 223.081 229.104C222.633 228.507 222.409 227.611 222.409 226.416V67.152C222.409 64.912 223.455 63.792 225.545 63.792H290.282C308.649 63.792 322.911 67.5253 333.065 74.992C343.369 82.4587 348.521 93.36 348.521 107.696C348.521 115.909 346.954 123.003 343.818 128.976C340.682 134.8 336.65 139.579 331.722 143.312C326.943 146.896 321.791 149.509 316.266 151.152C315.22 151.6 314.921 152.496 315.369 153.84L346.282 225.296ZM284.905 137.04C296.553 137.04 305.364 134.875 311.337 130.544C317.46 126.064 320.521 119.12 320.521 109.712C320.521 100.752 317.759 94.032 312.233 89.552C306.708 85.072 298.868 82.832 288.713 82.832H253.097C250.708 82.832 249.513 83.728 249.513 85.52V133.904C249.513 135.995 250.335 137.04 251.977 137.04H284.905ZM442.005 232.24C426.922 232.24 413.93 228.955 403.029 222.384C392.127 215.664 383.765 206.032 377.941 193.488C372.117 180.795 369.205 165.488 369.205 147.568C369.205 129.499 372.191 114.043 378.165 101.2C384.138 88.3573 392.575 78.576 403.477 71.856C414.378 64.9867 427.295 61.552 442.229 61.552C457.013 61.552 469.781 64.9867 480.533 71.856C491.434 78.576 499.797 88.3573 505.621 101.2C511.594 113.893 514.581 129.275 514.581 147.344C514.581 165.264 511.669 180.571 505.845 193.264C500.021 205.808 491.658 215.44 480.757 222.16C469.855 228.88 456.938 232.24 442.005 232.24ZM442.229 212.304C457.162 212.304 468.213 207.152 475.381 196.848C482.698 186.395 486.357 169.968 486.357 147.568C486.357 124.869 482.623 108.144 475.157 97.392C467.839 86.64 456.863 81.264 442.229 81.264C427.295 81.264 416.095 86.7147 408.629 97.616C401.162 108.368 397.429 125.019 397.429 147.568C397.429 169.819 401.162 186.171 408.629 196.624C416.095 207.077 427.295 212.304 442.229 212.304ZM672.86 63.792C674.502 63.792 675.324 64.7627 675.324 66.704V227.088C675.324 227.984 675.025 228.731 674.428 229.328C673.83 229.776 673.009 230 671.964 230H657.404C656.358 230 655.462 229.925 654.716 229.776C653.969 229.477 653.222 228.805 652.476 227.76L570.716 110.384C569.969 109.339 569.372 108.891 568.924 109.04C568.476 109.189 568.252 109.712 568.252 110.608V226.864C568.252 228.955 567.057 230 564.668 230H548.763C546.374 230 545.18 228.955 545.18 226.864V67.152C545.18 64.912 546.3 63.792 548.54 63.792H566.012C567.206 63.792 568.102 63.9413 568.699 64.24C569.446 64.5387 570.193 65.2853 570.94 66.48L649.34 180.048C650.236 181.243 650.982 181.765 651.58 181.616C652.326 181.317 652.7 180.645 652.7 179.6V66.928C652.7 64.8373 653.745 63.792 655.836 63.792H672.86ZM701.495 66.928C701.495 65.8827 701.719 65.136 702.167 64.688C702.764 64.0907 703.66 63.792 704.855 63.792H827.831C829.025 63.792 829.847 64.0907 830.295 64.688C830.743 65.136 830.967 65.8827 830.967 66.928V81.264C830.967 83.056 829.921 83.952 827.831 83.952H783.479C781.836 83.952 781.015 84.624 781.015 85.968V226.64C781.015 228.88 780.044 230 778.103 230H757.047C755.105 230 754.135 228.955 754.135 226.864V86.416C754.135 84.7733 753.313 83.952 751.671 83.952H704.631C702.54 83.952 701.495 83.056 701.495 81.264V66.928Z" fill="black"/>
<line x1="872" y1="146" x2="960" y2="146" stroke="#F0C502" stroke-width="6"/>
<path d="M1012.37 67.152C1012.37 64.912 1013.42 63.792 1015.51 63.792H1119.89C1121.68 63.792 1122.58 64.7627 1122.58 66.704L1122.35 80.816C1122.35 83.056 1121.23 84.176 1118.99 84.176H1042.83C1040.59 84.176 1039.47 85.1467 1039.47 87.088V133.232C1039.47 135.173 1040.45 136.144 1042.39 136.144H1097.04C1098.98 136.144 1099.95 137.04 1099.95 138.832V153.84C1099.95 154.587 1099.73 155.184 1099.28 155.632C1098.98 156.08 1098.24 156.304 1097.04 156.304H1042.16C1040.37 156.304 1039.47 157.125 1039.47 158.768V207.152C1039.47 208.795 1040.22 209.616 1041.71 209.616H1122.13C1124.22 209.616 1125.27 210.512 1125.27 212.304V227.088C1125.27 227.984 1125.04 228.731 1124.59 229.328C1124.15 229.776 1123.33 230 1122.13 230H1016.18C1013.64 230 1012.37 228.805 1012.37 226.416V67.152ZM1275.74 63.792C1277.38 63.792 1278.2 64.7627 1278.2 66.704V227.088C1278.2 227.984 1277.9 228.731 1277.31 229.328C1276.71 229.776 1275.89 230 1274.84 230H1260.28C1259.24 230 1258.34 229.925 1257.59 229.776C1256.85 229.477 1256.1 228.805 1255.35 227.76L1173.59 110.384C1172.85 109.339 1172.25 108.891 1171.8 109.04C1171.35 109.189 1171.13 109.712 1171.13 110.608V226.864C1171.13 228.955 1169.93 230 1167.55 230H1151.64C1149.25 230 1148.06 228.955 1148.06 226.864V67.152C1148.06 64.912 1149.18 63.792 1151.42 63.792H1168.89C1170.08 63.792 1170.98 63.9413 1171.58 64.24C1172.32 64.5387 1173.07 65.2853 1173.82 66.48L1252.22 180.048C1253.11 181.243 1253.86 181.765 1254.46 181.616C1255.2 181.317 1255.58 180.645 1255.58 179.6V66.928C1255.58 64.8373 1256.62 63.792 1258.71 63.792H1275.74ZM1314.68 63.792C1316.32 63.792 1318.93 63.792 1322.52 63.792C1326.25 63.792 1330.21 63.8667 1334.39 64.016C1338.72 64.016 1342.68 64.016 1346.26 64.016C1349.99 64.016 1352.76 64.016 1354.55 64.016C1375.01 64.3147 1391.66 67.7493 1404.5 74.32C1417.34 80.7413 1426.75 89.9253 1432.72 101.872C1438.85 113.819 1441.91 128.453 1441.91 145.776C1441.91 163.995 1438.62 179.376 1432.05 191.92C1425.63 204.464 1415.77 213.947 1402.48 220.368C1389.34 226.789 1372.69 230 1352.53 230H1314.9C1312.21 230 1310.87 228.656 1310.87 225.968V67.376C1310.87 66.032 1311.17 65.136 1311.76 64.688C1312.36 64.0907 1313.33 63.792 1314.68 63.792ZM1340.21 83.728C1338.72 83.728 1337.97 84.7733 1337.97 86.864V207.6C1337.97 209.392 1338.87 210.288 1340.66 210.288H1348.05C1363.13 210.288 1375.53 208.197 1385.24 204.016C1394.94 199.835 1402.11 193.115 1406.74 183.856C1411.37 174.448 1413.68 162.053 1413.68 146.672C1413.68 130.843 1411.37 118.373 1406.74 109.264C1402.11 100.155 1395.02 93.6587 1385.46 89.776C1376.05 85.744 1364.03 83.728 1349.4 83.728H1340.21Z" fill="black"/>
<path d="M87.712 285.152C87.712 282.912 88.7573 281.792 90.848 281.792H195.232C197.024 281.792 197.92 282.763 197.92 284.704L197.696 298.816C197.696 301.056 196.576 302.176 194.336 302.176H118.176C115.936 302.176 114.816 303.147 114.816 305.088V351.232C114.816 353.173 115.787 354.144 117.728 354.144H172.384C174.325 354.144 175.296 355.04 175.296 356.832V371.84C175.296 372.587 175.072 373.184 174.624 373.632C174.325 374.08 173.579 374.304 172.384 374.304H117.504C115.712 374.304 114.816 375.125 114.816 376.768V425.152C114.816 426.795 115.563 427.616 117.056 427.616H197.472C199.563 427.616 200.608 428.512 200.608 430.304V445.088C200.608 445.984 200.384 446.731 199.936 447.328C199.488 447.776 198.667 448 197.472 448H91.52C88.9813 448 87.712 446.805 87.712 444.416V285.152ZM349.958 441.952C351.601 444.341 352.124 445.984 351.526 446.88C351.078 447.627 349.958 448 348.166 448H326.886C324.646 448 323.004 447.179 321.958 445.536L282.982 385.728C281.937 384.235 281.041 383.488 280.294 383.488C279.697 383.339 278.801 384.16 277.606 385.952L239.078 445.536C238.63 446.432 237.958 447.104 237.062 447.552C236.166 447.851 235.121 448 233.926 448H216.23C214.588 448 213.468 447.627 212.87 446.88C212.422 445.984 212.945 444.341 214.438 441.952L264.614 366.464C265.361 365.269 265.66 364.299 265.51 363.552C265.51 362.656 265.137 361.611 264.39 360.416L215.334 286.048C214.737 285.152 214.513 284.256 214.662 283.36C214.961 282.315 215.782 281.792 217.126 281.792H239.75C241.244 281.792 242.289 282.016 242.886 282.464C243.633 282.763 244.23 283.36 244.678 284.256L280.294 339.584C281.041 340.629 281.713 341.152 282.31 341.152C283.057 341.152 283.804 340.629 284.55 339.584L320.166 284.256C320.764 283.36 321.361 282.763 321.958 282.464C322.556 282.016 323.526 281.792 324.87 281.792H344.582C345.926 281.792 346.673 282.24 346.822 283.136C346.972 283.883 346.673 284.704 345.926 285.6L297.766 357.952C297.02 358.997 296.646 359.893 296.646 360.64C296.796 361.387 297.169 362.283 297.766 363.328L349.958 441.952ZM499.405 331.296C499.405 342.347 496.866 351.531 491.789 358.848C486.711 366.016 479.693 371.392 470.733 374.976C461.773 378.56 451.469 380.352 439.821 380.352H403.085C401.591 380.352 400.845 381.099 400.845 382.592V444.192C400.845 446.731 399.501 448 396.813 448H377.325C375.981 448 375.01 447.776 374.413 447.328C373.965 446.731 373.741 445.835 373.741 444.64V285.152C373.741 282.912 374.786 281.792 376.877 281.792H436.685C448.482 281.792 459.085 283.509 468.493 286.944C478.05 290.379 485.591 295.755 491.117 303.072C496.642 310.389 499.405 319.797 499.405 331.296ZM471.629 330.624C471.629 323.755 470.135 318.229 467.149 314.048C464.162 309.717 459.906 306.581 454.381 304.64C449.005 302.699 442.583 301.728 435.117 301.728H404.205C401.965 301.728 400.845 302.773 400.845 304.864V357.056C400.845 359.296 401.666 360.416 403.309 360.416H436.685C447.287 360.416 455.725 357.952 461.997 353.024C468.418 348.096 471.629 340.629 471.629 330.624ZM523.427 285.152C523.427 282.912 524.472 281.792 526.563 281.792H630.947C632.739 281.792 633.635 282.763 633.635 284.704L633.411 298.816C633.411 301.056 632.291 302.176 630.051 302.176H553.891C551.651 302.176 550.531 303.147 550.531 305.088V351.232C550.531 353.173 551.502 354.144 553.443 354.144H608.099C610.04 354.144 611.011 355.04 611.011 356.832V371.84C611.011 372.587 610.787 373.184 610.339 373.632C610.04 374.08 609.294 374.304 608.099 374.304H553.219C551.427 374.304 550.531 375.125 550.531 376.768V425.152C550.531 426.795 551.278 427.616 552.771 427.616H633.187C635.278 427.616 636.323 428.512 636.323 430.304V445.088C636.323 445.984 636.099 446.731 635.651 447.328C635.203 447.776 634.382 448 633.187 448H527.235C524.696 448 523.427 446.805 523.427 444.416V285.152ZM782.985 443.296C783.433 444.491 783.359 445.611 782.761 446.656C782.313 447.552 781.492 448 780.297 448H758.569C756.777 448 755.433 446.955 754.537 444.864L727.209 376.768C726.463 374.976 724.596 374.08 721.609 374.08H688.905C687.86 374.08 687.113 374.379 686.665 374.976C686.367 375.424 686.217 375.947 686.217 376.544V443.968C686.217 446.656 684.799 448 681.961 448H662.921C661.428 448 660.383 447.701 659.785 447.104C659.337 446.507 659.113 445.611 659.113 444.416V285.152C659.113 282.912 660.159 281.792 662.249 281.792H726.985C745.353 281.792 759.615 285.525 769.769 292.992C780.073 300.459 785.225 311.36 785.225 325.696C785.225 333.909 783.657 341.003 780.521 346.976C777.385 352.8 773.353 357.579 768.425 361.312C763.647 364.896 758.495 367.509 752.969 369.152C751.924 369.6 751.625 370.496 752.073 371.84L782.985 443.296ZM721.609 355.04C733.257 355.04 742.068 352.875 748.041 348.544C754.164 344.064 757.225 337.12 757.225 327.712C757.225 318.752 754.463 312.032 748.937 307.552C743.412 303.072 735.572 300.832 725.417 300.832H689.801C687.412 300.832 686.217 301.728 686.217 303.52V351.904C686.217 353.995 687.039 355.04 688.681 355.04H721.609ZM796.949 284.928C796.949 283.883 797.173 283.136 797.621 282.688C798.218 282.091 799.114 281.792 800.309 281.792H923.285C924.479 281.792 925.301 282.091 925.749 282.688C926.197 283.136 926.421 283.883 926.421 284.928V299.264C926.421 301.056 925.375 301.952 923.285 301.952H878.933C877.29 301.952 876.469 302.624 876.469 303.968V444.64C876.469 446.88 875.498 448 873.557 448H852.501C850.559 448 849.589 446.955 849.589 444.864V304.416C849.589 302.773 848.767 301.952 847.125 301.952H800.085C797.994 301.952 796.949 301.056 796.949 299.264V284.928Z" fill="black"/>
</svg>
