<svg width="1356" height="455" viewBox="0 0 1356 455" fill="none" xmlns="http://www.w3.org/2000/svg">
<path d="M909.537 74.221C909.537 71.9814 910.583 70.8616 912.675 70.8616H1017.12C1018.91 70.8616 1019.81 71.8321 1019.81 73.773L1019.59 87.8825C1019.59 90.1221 1018.47 91.2419 1016.22 91.2419H940.019C937.777 91.2419 936.657 92.2124 936.657 94.1534V140.289C936.657 142.23 937.628 143.2 939.57 143.2H994.259C996.201 143.2 997.173 144.096 997.173 145.888V160.893C997.173 161.64 996.949 162.237 996.5 162.685C996.201 163.133 995.454 163.357 994.259 163.357H939.346C937.553 163.357 936.657 164.178 936.657 165.82V214.196C936.657 215.838 937.404 216.659 938.898 216.659H1019.36C1021.45 216.659 1022.5 217.555 1022.5 219.347V234.128C1022.5 235.024 1022.28 235.77 1021.83 236.368C1021.38 236.816 1020.56 237.04 1019.36 237.04H913.347C910.807 237.04 909.537 235.845 909.537 233.456V74.221Z" fill="black"/>
<path d="M1186.76 70.8616C1188.4 70.8616 1189.22 71.8321 1189.22 73.773V234.128C1189.22 235.024 1188.92 235.77 1188.32 236.368C1187.73 236.816 1186.91 237.04 1185.86 237.04H1171.29C1170.24 237.04 1169.35 236.965 1168.6 236.816C1167.85 236.517 1167.11 235.845 1166.36 234.8L1084.55 117.445C1083.8 116.4 1083.21 115.952 1082.76 116.101C1082.31 116.251 1082.09 116.773 1082.09 117.669V233.904C1082.09 235.994 1080.89 237.04 1078.5 237.04H1062.59C1060.2 237.04 1059 235.994 1059 233.904V74.221C1059 71.9814 1060.12 70.8616 1062.36 70.8616H1079.84C1081.04 70.8616 1081.94 71.0109 1082.53 71.3095C1083.28 71.6081 1084.03 72.3546 1084.78 73.5491L1163.22 187.097C1164.12 188.291 1164.87 188.814 1165.46 188.664C1166.21 188.366 1166.58 187.694 1166.58 186.649V73.997C1166.58 71.9067 1167.63 70.8616 1169.72 70.8616H1186.76Z" fill="black"/>
<path d="M1228.69 70.8616C1230.34 70.8616 1232.95 70.8616 1236.54 70.8616C1240.27 70.8616 1244.23 70.9362 1248.42 71.0855C1252.75 71.0855 1256.71 71.0855 1260.29 71.0855C1264.03 71.0855 1266.8 71.0855 1268.59 71.0855C1289.06 71.3841 1305.72 74.8182 1318.57 81.3877C1331.42 87.8078 1340.83 96.9902 1346.81 108.935C1352.94 120.879 1356 135.511 1356 152.831C1356 171.046 1352.71 186.425 1346.14 198.966C1339.71 211.508 1329.85 220.989 1316.55 227.409C1303.4 233.829 1286.74 237.04 1266.57 237.04H1228.92C1226.23 237.04 1224.88 235.696 1224.88 233.008V74.4449C1224.88 73.1012 1225.18 72.2053 1225.78 71.7574C1226.38 71.1602 1227.35 70.8616 1228.69 70.8616ZM1254.24 90.794C1252.75 90.794 1252 91.8391 1252 93.9294V214.644C1252 216.435 1252.9 217.331 1254.69 217.331H1262.09C1277.18 217.331 1289.58 215.241 1299.29 211.06C1309.01 206.88 1316.18 200.161 1320.81 190.904C1325.44 181.498 1327.76 169.105 1327.76 153.727C1327.76 137.9 1325.44 125.433 1320.81 116.325C1316.18 107.218 1309.08 100.723 1299.52 96.8409C1290.1 92.8096 1278.08 90.794 1263.43 90.794H1254.24Z" fill="black"/>
<path d="M1.28054 0.541694C1.93108 0.541694 2.79846 0.541694 3.88269 0.541694C5.00305 0.541694 6.15956 0.541694 7.35221 0.541694C8.581 0.541694 9.73751 0.541694 10.8217 0.541694C11.906 0.541694 12.7553 0.55975 13.3697 0.595862C18.2487 0.704202 22.2603 1.58897 25.4046 3.25017C28.5489 4.91136 30.8619 7.20453 32.3437 10.1297C33.8616 13.0187 34.6205 16.4675 34.6205 20.476C34.6205 24.5929 33.8254 28.1862 32.2352 31.2558C30.6812 34.2892 28.2959 36.6366 25.0793 38.2978C21.8989 39.9229 17.9054 40.7354 13.0986 40.7354H1.33475C0.503511 40.7354 0.0878906 40.3021 0.0878906 39.4353V1.67925C0.0878906 1.2459 0.178243 0.956993 0.358948 0.812541C0.539652 0.631976 0.84685 0.541694 1.28054 0.541694ZM10.117 7.2587C9.75558 7.2587 9.57488 7.51149 9.57488 8.01707V33.3142C9.57488 33.8198 9.80979 34.0726 10.2796 34.0726H11.3096C14.2732 34.0726 16.7489 33.6392 18.7366 32.7725C20.7243 31.8697 22.2061 30.4252 23.1819 28.4389C24.1939 26.4527 24.6999 23.8165 24.6999 20.5302C24.6999 17.3523 24.23 14.8063 23.2904 12.8923C22.3868 10.9422 20.9773 9.51576 19.0619 8.61294C17.1825 7.71011 14.7792 7.2587 11.8518 7.2587H10.117Z" fill="black"/>
<path d="M53.8101 37.9728C52.6897 38.9839 51.4248 39.7965 50.0153 40.4104C48.6419 40.9882 47.0517 41.2771 45.2447 41.2771C42.498 41.2771 40.3295 40.5368 38.7393 39.0562C37.1853 37.5755 36.4082 35.6796 36.4082 33.3684C36.4082 31.346 37.0407 29.5765 38.3056 28.0598C39.5706 26.543 41.3776 25.3693 43.7268 24.5388C46.0759 23.672 48.8768 23.2026 52.1295 23.1303L54.0269 22.9678C54.2438 22.9678 54.4425 22.9137 54.6233 22.8053C54.804 22.697 54.8943 22.4984 54.8943 22.2095V21.0719C54.8943 19.6996 54.4968 18.6343 53.7017 17.8759C52.9066 17.0814 51.7681 16.6842 50.2863 16.6842C49.2021 16.6842 48.154 16.937 47.1421 17.4426C46.1663 17.912 45.335 18.7426 44.6484 19.9344C44.5399 20.1871 44.4134 20.3496 44.2689 20.4219C44.1243 20.4941 43.8533 20.4941 43.4557 20.4219L38.0346 19.176C37.8177 19.1038 37.6551 18.9954 37.5467 18.851C37.4744 18.6704 37.5467 18.3093 37.7635 17.7676C38.667 15.6369 40.2211 14.066 42.4257 13.0548C44.6664 12.0076 47.4131 11.4839 50.6658 11.4839C53.6655 11.4839 56.0508 11.8631 57.8217 12.6215C59.5926 13.3798 60.8756 14.4452 61.6707 15.8175C62.4658 17.1537 62.8634 18.7246 62.8634 20.5302V39.5437C62.8634 39.977 62.7911 40.284 62.6465 40.4646C62.502 40.6451 62.2309 40.7354 61.8334 40.7354H56.2496C55.852 40.7354 55.5629 40.591 55.3822 40.3021C55.2376 40.0132 55.1473 39.652 55.1112 39.2187L55.0027 38.0269C54.9304 37.3769 54.5329 37.3588 53.8101 37.9728ZM54.8943 27.9514C54.8943 27.3375 54.6232 27.0305 54.0811 27.0305L52.5632 27.1389C51.6236 27.175 50.6839 27.3194 49.7442 27.5722C48.8046 27.7889 47.9553 28.1139 47.1963 28.5473C46.4373 28.9445 45.8049 29.4682 45.2989 30.1182C44.8291 30.7321 44.5941 31.4544 44.5941 32.285C44.5941 33.3684 44.9736 34.2351 45.7326 34.8851C46.4915 35.499 47.5396 35.806 48.8768 35.806C49.7804 35.806 50.5755 35.6615 51.2621 35.3726C51.985 35.0837 52.5994 34.7407 53.1053 34.3434C53.6474 33.8739 54.0811 33.4045 54.4064 32.935C54.7317 32.4655 54.8943 31.978 54.8943 31.4724V27.9514Z" fill="black"/>
<path d="M68.4188 40.7354C68.0212 40.7354 67.7321 40.6451 67.5514 40.4646C67.3707 40.284 67.2803 40.0131 67.2803 39.652V13.0548C67.2803 12.3687 67.5695 12.0256 68.1477 12.0256H74.4904C75.0687 12.0256 75.3578 12.3326 75.3578 12.9465V16.1425C75.3578 16.3592 75.4301 16.5036 75.5747 16.5758C75.7554 16.612 75.9361 16.5217 76.1168 16.305C76.8396 15.3299 77.6528 14.4813 78.5563 13.759C79.496 13.0368 80.4537 12.477 81.4295 12.0798C82.4053 11.6825 83.3269 11.4839 84.1943 11.4839C85.4953 11.4839 86.1459 11.7909 86.1459 12.4048V18.6885C86.1459 19.2663 85.8748 19.501 85.3327 19.3927C84.6822 19.2121 84.0136 19.1038 83.3269 19.0676C82.6402 18.9954 82.0439 18.9593 81.5379 18.9593C80.8874 18.9593 80.2007 19.0857 79.4779 19.3385C78.7912 19.5913 78.1587 19.9524 77.5805 20.4219C77.0022 20.8913 76.5324 21.3969 76.171 21.9386C75.8096 22.4803 75.6289 23.0581 75.6289 23.672V39.4895C75.6289 40.3201 75.159 40.7354 74.2194 40.7354H68.4188Z" fill="black"/>
<path d="M89.8746 40.7354C89.4771 40.7354 89.1879 40.6451 89.0072 40.4646C88.8265 40.284 88.7362 40.0131 88.7362 39.652V13.0548C88.7362 12.3687 89.0253 12.0256 89.6036 12.0256H95.9463C96.5245 12.0256 96.8137 12.3326 96.8137 12.9465V16.1425C96.8137 16.3592 96.886 16.5036 97.0305 16.5758C97.2112 16.612 97.3919 16.5217 97.5726 16.305C98.2954 15.3299 99.1086 14.4813 100.012 13.759C100.952 13.0368 101.91 12.477 102.885 12.0798C103.861 11.6825 104.783 11.4839 105.65 11.4839C106.951 11.4839 107.602 11.7909 107.602 12.4048V18.6885C107.602 19.2663 107.331 19.501 106.789 19.3927C106.138 19.2121 105.469 19.1038 104.783 19.0676C104.096 18.9954 103.5 18.9593 102.994 18.9593C102.343 18.9593 101.657 19.0857 100.934 19.3385C100.247 19.5913 99.6146 19.9524 99.0363 20.4219C98.4581 20.8913 97.9882 21.3969 97.6268 21.9386C97.2654 22.4803 97.0847 23.0581 97.0847 23.672V39.4895C97.0847 40.3201 96.6149 40.7354 95.6752 40.7354H89.8746Z" fill="black"/>
<path d="M112.848 49.6734C111.728 49.6734 110.915 49.6192 110.409 49.5109C109.903 49.4025 109.65 49.1136 109.65 48.6441V44.4731C109.65 44.2564 109.758 44.0578 109.975 43.8772C110.192 43.6967 110.608 43.6064 111.222 43.6064H114.908C115.595 43.6064 116.209 43.4439 116.752 43.1189C117.33 42.7938 117.782 42.3966 118.107 41.9271C118.468 41.4577 118.721 40.9521 118.866 40.4104C119.01 39.8687 118.974 39.3812 118.757 38.9478L108.349 13.3257C108.204 13.0007 108.204 12.7118 108.349 12.459C108.53 12.1701 108.819 12.0256 109.216 12.0256H116.047C116.336 12.0256 116.589 12.1159 116.806 12.2965C117.023 12.4409 117.167 12.6576 117.239 12.9465L123.257 29.089C123.365 29.414 123.51 29.5946 123.691 29.6307C123.871 29.6307 124.034 29.4321 124.179 29.0348L130.142 12.8923C130.286 12.6395 130.449 12.4409 130.63 12.2965C130.81 12.1159 131.045 12.0256 131.334 12.0256H135.997C136.358 12.0256 136.611 12.1701 136.756 12.459C136.9 12.7118 136.9 12.9826 136.756 13.2715L125.642 40.7354C124.883 42.6133 124.088 44.13 123.257 45.2856C122.462 46.4774 121.576 47.3802 120.601 47.9941C119.625 48.6441 118.504 49.0775 117.239 49.2942C116.011 49.547 114.547 49.6734 112.848 49.6734Z" fill="black"/>
<path d="M147.674 39.4353C147.674 39.9048 147.566 40.2479 147.349 40.4646C147.132 40.6451 146.752 40.7354 146.21 40.7354H140.464C139.669 40.7354 139.271 40.3562 139.271 39.5979L139.434 1.57091C139.434 0.884767 139.723 0.541694 140.301 0.541694H146.861C147.403 0.541694 147.674 0.86671 147.674 1.51674V39.4353Z" fill="black"/>
<path d="M179.641 41.2771C175.811 41.2771 172.504 40.4646 169.721 38.8395C166.938 37.1783 164.788 34.8129 163.27 31.7433C161.788 28.6737 161.047 25.0263 161.047 20.8011C161.047 16.5036 161.806 12.802 163.324 9.69633C164.878 6.59061 167.046 4.20716 169.829 2.54596C172.612 0.848654 175.883 0 179.641 0C183.4 0 186.653 0.848654 189.399 2.54596C192.182 4.20716 194.333 6.59061 195.851 9.69633C197.369 12.7659 198.128 16.4494 198.128 20.7469C198.128 24.9721 197.369 28.6195 195.851 31.6891C194.369 34.7587 192.237 37.1241 189.454 38.7853C186.671 40.4465 183.4 41.2771 179.641 41.2771ZM179.641 34.6143C182.605 34.6143 184.773 33.5489 186.147 31.4183C187.52 29.2515 188.207 25.7305 188.207 20.8552C188.207 15.8716 187.502 12.2603 186.093 10.0213C184.719 7.74623 182.569 6.60867 179.641 6.60867C176.678 6.60867 174.491 7.74623 173.082 10.0213C171.672 12.2965 170.968 15.9078 170.968 20.8552C170.968 25.6944 171.654 29.1973 173.028 31.3641C174.437 33.5309 176.642 34.6143 179.641 34.6143Z" fill="black"/>
<path d="M215.064 11.4839C217.413 11.4839 219.401 11.8992 221.027 12.7298C222.69 13.5243 224.045 14.5535 225.093 15.8175C226.141 17.0814 226.882 18.3815 227.316 19.7177C227.569 20.4399 227.352 20.8191 226.665 20.8552L220.973 21.3969C220.575 21.433 220.304 21.2344 220.16 20.8011C219.834 20.1149 219.473 19.4829 219.076 18.9051C218.678 18.3273 218.19 17.8579 217.612 17.4967C217.034 17.1356 216.275 16.955 215.335 16.955C214.106 16.955 213.022 17.2981 212.082 17.9843C211.143 18.6704 210.402 19.7177 209.86 21.1261C209.354 22.4984 209.101 24.2498 209.101 26.3805C209.101 28.5473 209.372 30.3349 209.914 31.7433C210.456 33.1517 211.215 34.199 212.191 34.8851C213.203 35.5713 214.395 35.9143 215.769 35.9143C217.359 35.9143 218.606 35.499 219.509 34.6684C220.449 33.8378 221.334 32.7183 222.166 31.3099C222.274 31.1294 222.382 31.021 222.491 30.9849C222.599 30.9488 222.798 30.9669 223.087 31.0391L227.099 31.96C227.496 32.0683 227.623 32.4114 227.478 32.9892C227.189 33.7837 226.737 34.6684 226.123 35.6435C225.509 36.6185 224.695 37.5214 223.684 38.352C222.708 39.1826 221.497 39.8868 220.051 40.4646C218.642 41.0063 216.979 41.2771 215.064 41.2771C212.281 41.2771 209.805 40.6632 207.637 39.4353C205.468 38.1714 203.752 36.438 202.487 34.2351C201.258 31.9961 200.644 29.414 200.644 26.4889C200.644 23.5276 201.276 20.9275 202.541 18.6885C203.806 16.4133 205.523 14.6438 207.691 13.3798C209.86 12.1159 212.317 11.4839 215.064 11.4839Z" fill="black"/>
<path d="M241.366 17.7676C240.969 17.7676 240.77 17.9842 240.77 18.4176V31.4724C240.77 32.7003 241.059 33.585 241.637 34.1267C242.215 34.6323 243.137 34.8851 244.402 34.8851H247.329C247.582 34.8851 247.781 34.9754 247.926 35.156C248.07 35.3365 248.143 35.5532 248.143 35.806L248.088 39.1103C248.088 39.7965 247.691 40.2298 246.896 40.4104C246.245 40.4826 245.54 40.5548 244.781 40.6271C244.059 40.6632 243.318 40.6993 242.559 40.7354C241.836 40.7354 241.131 40.7354 240.445 40.7354C237.987 40.7354 236.035 40.1576 234.59 39.002C233.144 37.8103 232.421 36.0588 232.421 33.7476V18.5801C232.421 18.0384 232.186 17.7676 231.717 17.7676H228.41C227.723 17.7676 227.38 17.4606 227.38 16.8467V12.8382C227.38 12.2965 227.705 12.0256 228.355 12.0256H232.096C232.421 12.0256 232.602 11.827 232.638 11.4298L233.397 3.196C233.433 2.58208 233.704 2.27512 234.21 2.27512H240.119C240.698 2.27512 240.987 2.61819 240.987 3.30433V11.4298C240.987 11.7909 241.167 11.9714 241.529 11.9714H247.221C247.872 11.9714 248.197 12.2603 248.197 12.8382V16.8467C248.197 17.4606 247.835 17.7676 247.113 17.7676H241.366Z" fill="black"/>
<path d="M263.378 41.2771C260.523 41.2771 257.993 40.6451 255.788 39.3812C253.62 38.1172 251.921 36.3838 250.693 34.1809C249.464 31.9419 248.849 29.3959 248.849 26.543C248.849 23.5456 249.482 20.9275 250.747 18.6885C252.012 16.4133 253.747 14.6438 255.951 13.3798C258.156 12.1159 260.649 11.4839 263.432 11.4839C266.36 11.4839 268.908 12.134 271.076 13.434C273.245 14.698 274.925 16.4675 276.118 18.7426C277.347 20.9816 277.961 23.5637 277.961 26.4889C277.961 29.3779 277.347 31.9419 276.118 34.1809C274.889 36.3838 273.172 38.1172 270.968 39.3812C268.799 40.6451 266.269 41.2771 263.378 41.2771ZM263.432 35.7518C264.77 35.7518 265.89 35.4087 266.793 34.7226C267.697 34.0003 268.366 32.935 268.799 31.5266C269.269 30.1182 269.504 28.4028 269.504 26.3805C269.504 24.2498 269.269 22.4984 268.799 21.1261C268.366 19.7177 267.697 18.6523 266.793 17.9301C265.89 17.2078 264.77 16.8467 263.432 16.8467C262.131 16.8467 261.011 17.2078 260.071 17.9301C259.168 18.6523 258.481 19.7177 258.011 21.1261C257.541 22.4984 257.306 24.2498 257.306 26.3805C257.306 28.439 257.541 30.1724 258.011 31.5808C258.481 32.9531 259.168 34.0003 260.071 34.7226C261.011 35.4087 262.131 35.7518 263.432 35.7518Z" fill="black"/>
<path d="M282.224 40.7354C281.754 40.7354 281.429 40.6451 281.248 40.4646C281.067 40.284 280.977 39.977 280.977 39.5437V1.57091C280.977 0.884767 281.266 0.541694 281.844 0.541694H288.512C289.054 0.541694 289.325 0.86671 289.325 1.51674V14.1382C289.325 14.5716 289.416 14.8063 289.596 14.8424C289.813 14.8424 290.048 14.7341 290.301 14.5174C290.879 13.9757 291.53 13.4882 292.253 13.0548C293.012 12.5854 293.861 12.2062 294.801 11.9173C295.74 11.6284 296.77 11.4839 297.891 11.4839C300.348 11.4839 302.408 12.0978 304.071 13.3257C305.77 14.5535 307.053 16.2689 307.92 18.4718C308.787 20.6747 309.221 23.2567 309.221 26.218C309.221 30.8043 308.155 34.4698 306.023 37.2144C303.89 39.9229 300.836 41.2771 296.861 41.2771C295.56 41.2771 294.349 41.0785 293.229 40.6812C292.144 40.2479 291.187 39.6881 290.355 39.002C289.56 38.3158 288.874 37.6116 288.295 36.8894C288.151 36.7088 288.006 36.6366 287.862 36.6727C287.753 36.6727 287.681 36.7991 287.645 37.0519L286.994 39.652C286.814 40.3743 286.398 40.7354 285.747 40.7354H282.224ZM289.325 30.8224C289.325 31.9058 289.578 32.8447 290.084 33.6392C290.59 34.4337 291.241 35.0657 292.036 35.5351C292.867 35.9685 293.771 36.1852 294.747 36.1852C295.939 36.1852 296.987 35.8602 297.891 35.2101C298.794 34.5601 299.481 33.5128 299.951 32.0683C300.457 30.5877 300.71 28.6737 300.71 26.3263C300.71 23.004 300.222 20.5844 299.246 19.0676C298.27 17.5509 296.843 16.7925 294.963 16.7925C293.807 16.7925 292.759 17.0634 291.819 17.6051C290.879 18.1106 290.048 18.7968 289.325 19.6635V30.8224Z" fill="black"/>
<path d="M319.704 28.8181C319.704 30.1543 320.011 31.346 320.626 32.3933C321.276 33.4045 322.126 34.199 323.174 34.7768C324.258 35.3185 325.469 35.5893 326.806 35.5893C328.107 35.5893 329.3 35.3185 330.384 34.7768C331.504 34.199 332.624 33.26 333.745 31.96C333.889 31.8155 334.016 31.7433 334.124 31.7433C334.233 31.7072 334.432 31.7613 334.721 31.9058L338.624 33.5309C339.13 33.7476 339.184 34.1087 338.787 34.6143C337.63 36.2755 336.419 37.5936 335.154 38.5686C333.889 39.5437 332.48 40.2479 330.926 40.6812C329.408 41.0785 327.691 41.2771 325.776 41.2771C322.957 41.2771 320.445 40.6632 318.24 39.4353C316.036 38.2075 314.283 36.5102 312.982 34.3434C311.717 32.1405 311.085 29.6307 311.085 26.8139C311.085 23.7082 311.735 21.0177 313.036 18.7426C314.373 16.4314 316.144 14.6438 318.349 13.3798C320.553 12.1159 322.975 11.4839 325.613 11.4839C328.396 11.4839 330.836 12.0978 332.932 13.3257C335.028 14.5174 336.672 16.2328 337.865 18.4718C339.094 20.7108 339.708 23.4373 339.708 26.6514C339.708 27.0486 339.672 27.3556 339.6 27.5722C339.527 27.7889 339.256 27.9153 338.787 27.9514H320.355C320.138 27.9514 319.975 28.0237 319.867 28.1681C319.758 28.3126 319.704 28.5292 319.704 28.8181ZM330.601 23.4012C330.998 23.4012 331.251 23.3651 331.36 23.2929C331.468 23.1845 331.522 22.9678 331.522 22.6428C331.522 21.74 331.305 20.8191 330.872 19.8802C330.474 18.9412 329.86 18.1648 329.028 17.5509C328.233 16.9009 327.203 16.5758 325.938 16.5758C324.746 16.5758 323.68 16.8647 322.74 17.4426C321.8 18.0204 321.077 18.8329 320.571 19.8802C320.066 20.8913 319.813 22.047 319.813 23.347L330.601 23.4012Z" fill="black"/>
<path d="M343.662 40.7354C343.265 40.7354 342.975 40.6451 342.795 40.4646C342.614 40.284 342.524 40.0131 342.524 39.652V13.0548C342.524 12.3687 342.813 12.0256 343.391 12.0256H349.734C350.312 12.0256 350.601 12.3326 350.601 12.9465V16.1425C350.601 16.3592 350.673 16.5036 350.818 16.5758C350.999 16.612 351.179 16.5217 351.36 16.305C352.083 15.3299 352.896 14.4813 353.8 13.759C354.739 13.0368 355.697 12.477 356.673 12.0798C357.649 11.6825 358.57 11.4839 359.438 11.4839C360.739 11.4839 361.389 11.7909 361.389 12.4048V18.6885C361.389 19.2663 361.118 19.501 360.576 19.3927C359.926 19.2121 359.257 19.1038 358.57 19.0676C357.884 18.9954 357.287 18.9593 356.781 18.9593C356.131 18.9593 355.444 19.0857 354.721 19.3385C354.035 19.5913 353.402 19.9524 352.824 20.4219C352.246 20.8913 351.776 21.3969 351.414 21.9386C351.053 22.4803 350.872 23.0581 350.872 23.672V39.4895C350.872 40.3201 350.402 40.7354 349.463 40.7354H343.662Z" fill="black"/>
<path d="M0 74.221C0 71.9814 1.04595 70.8616 3.13786 70.8616H105.567C107.36 70.8616 108.256 71.8321 108.256 73.773L108.032 87.8825C108.032 90.1221 106.911 91.2419 104.67 91.2419H30.4821C28.2407 91.2419 27.1201 92.2124 27.1201 94.1534V142.977C27.1201 144.768 28.0913 145.664 30.0338 145.664H86.2912C88.0842 145.664 88.9807 146.56 88.9807 148.352V163.133C88.9807 164.775 88.0842 165.596 86.2912 165.596H29.8097C28.0166 165.596 27.1201 166.492 27.1201 168.284V233.456C27.1201 235.845 25.7753 237.04 23.0857 237.04H3.81026C2.31604 237.04 1.27009 236.816 0.672398 236.368C0.224133 235.77 0 234.8 0 233.456V74.221Z" fill="black"/>
<path d="M258.945 232.336C259.394 233.531 259.319 234.651 258.721 235.696C258.273 236.592 257.451 237.04 256.256 237.04H234.515C232.722 237.04 231.377 235.994 230.481 233.904L203.136 165.82C202.389 164.029 200.522 163.133 197.533 163.133H164.81C163.764 163.133 163.017 163.431 162.568 164.029C162.269 164.477 162.12 164.999 162.12 165.596V233.008C162.12 235.696 160.701 237.04 157.862 237.04H138.81C137.316 237.04 136.27 236.741 135.672 236.144C135.224 235.546 135 234.651 135 233.456V74.221C135 71.9814 136.046 70.8616 138.138 70.8616H202.912C221.291 70.8616 235.561 74.5942 245.722 82.0595C256.032 89.5249 261.187 100.424 261.187 114.758C261.187 122.969 259.618 130.062 256.48 136.034C253.342 141.857 249.308 146.635 244.377 150.367C239.595 153.951 234.44 156.563 228.912 158.206C227.866 158.654 227.567 159.55 228.015 160.893L258.945 232.336ZM197.533 144.096C209.188 144.096 218.004 141.931 223.981 137.601C230.107 133.122 233.17 126.18 233.17 116.773C233.17 107.815 230.406 101.096 224.877 96.6169C219.349 92.1377 211.504 89.8981 201.343 89.8981H165.706C163.315 89.8981 162.12 90.794 162.12 92.5856V140.961C162.12 143.051 162.942 144.096 164.586 144.096H197.533Z" fill="black"/>
<path d="M360.843 239.279C345.752 239.279 332.752 235.994 321.844 229.425C310.936 222.706 302.569 213.076 296.741 200.534C290.914 187.843 288 172.539 288 154.622C288 136.556 290.988 121.103 296.965 108.263C302.942 95.4224 311.385 85.6429 322.292 78.9241C333.2 72.056 346.125 68.6219 361.067 68.6219C375.86 68.6219 388.636 72.056 399.394 78.9241C410.302 85.6429 418.669 95.4224 424.497 108.263C430.474 120.954 433.462 136.332 433.462 154.398C433.462 172.315 430.549 187.619 424.721 200.31C418.894 212.852 410.526 222.482 399.618 229.201C388.71 235.92 375.785 239.279 360.843 239.279ZM361.067 219.347C376.01 219.347 387.067 214.196 394.239 203.893C401.561 193.442 405.221 177.018 405.221 154.622C405.221 131.928 401.486 115.206 394.015 104.455C386.693 93.7054 375.711 88.3304 361.067 88.3304C346.125 88.3304 334.919 93.7801 327.447 104.679C319.976 115.429 316.241 132.077 316.241 154.622C316.241 176.869 319.976 193.218 327.447 203.669C334.919 214.121 346.125 219.347 361.067 219.347Z" fill="black"/>
<path d="M588.756 70.8616C590.399 70.8616 591.221 71.8321 591.221 73.773V234.128C591.221 235.024 590.922 235.77 590.325 236.368C589.727 236.816 588.905 237.04 587.859 237.04H573.291C572.245 237.04 571.348 236.965 570.601 236.816C569.854 236.517 569.107 235.845 568.36 234.8L486.551 117.445C485.804 116.4 485.206 115.952 484.758 116.101C484.31 116.251 484.086 116.773 484.086 117.669V233.904C484.086 235.994 482.89 237.04 480.5 237.04H464.586C462.195 237.04 461 235.994 461 233.904V74.221C461 71.9814 462.121 70.8616 464.362 70.8616H481.844C483.04 70.8616 483.936 71.0109 484.534 71.3095C485.281 71.6081 486.028 72.3546 486.775 73.5491L565.222 187.097C566.118 188.291 566.865 188.814 567.463 188.664C568.21 188.366 568.584 187.694 568.584 186.649V73.997C568.584 71.9067 569.63 70.8616 571.722 70.8616H588.756Z" fill="black"/>
<path d="M618 73.997C618 72.9519 618.224 72.2053 618.672 71.7574C619.27 71.1602 620.167 70.8616 621.362 70.8616H744.411C745.606 70.8616 746.428 71.1602 746.876 71.7574C747.325 72.2053 747.549 72.9519 747.549 73.997V88.3304C747.549 90.1221 746.503 91.0179 744.411 91.0179H700.033C698.389 91.0179 697.567 91.6898 697.567 93.0336V233.68C697.567 235.92 696.596 237.04 694.653 237.04H673.585C671.642 237.04 670.671 235.994 670.671 233.904V93.4815C670.671 91.8391 669.849 91.0179 668.206 91.0179H621.138C619.046 91.0179 618 90.1221 618 88.3304V73.997Z" fill="black"/>
<path d="M0 292.181C0 289.942 1.04595 288.822 3.13786 288.822H107.584C109.377 288.822 110.273 289.793 110.273 291.734L110.049 305.843C110.049 308.083 108.929 309.202 106.687 309.202H30.4821C28.2407 309.202 27.1201 310.173 27.1201 312.114V358.249C27.1201 360.19 28.0913 361.161 30.0338 361.161H84.7222C86.6647 361.161 87.6359 362.057 87.6359 363.848V378.854C87.6359 379.6 87.4118 380.198 86.9635 380.645C86.6647 381.093 85.9176 381.317 84.7222 381.317H29.8097C28.0166 381.317 27.1201 382.138 27.1201 383.781V432.156C27.1201 433.798 27.8672 434.62 29.3614 434.62H109.825C111.917 434.62 112.963 435.516 112.963 437.307V452.089C112.963 452.984 112.739 453.731 112.291 454.328C111.842 454.776 111.02 455 109.825 455H3.81026C1.27009 455 0 453.806 0 451.417V292.181Z" fill="black"/>
<path d="M271.324 448.953C272.968 451.342 273.491 452.984 272.893 453.88C272.445 454.627 271.324 455 269.531 455H248.239C245.997 455 244.354 454.179 243.308 452.536L204.309 392.739C203.263 391.246 202.366 390.5 201.619 390.5C201.021 390.35 200.125 391.172 198.93 392.963L160.379 452.536C159.93 453.432 159.258 454.104 158.362 454.552C157.465 454.851 156.419 455 155.224 455H137.517C135.874 455 134.753 454.627 134.155 453.88C133.707 452.984 134.23 451.342 135.724 448.953L185.93 373.479C186.677 372.284 186.976 371.314 186.826 370.567C186.826 369.671 186.453 368.626 185.706 367.432L136.621 293.077C136.023 292.181 135.799 291.286 135.948 290.39C136.247 289.345 137.069 288.822 138.414 288.822H161.051C162.545 288.822 163.591 289.046 164.189 289.494C164.936 289.793 165.534 290.39 165.982 291.286L201.619 346.604C202.366 347.649 203.039 348.171 203.636 348.171C204.383 348.171 205.131 347.649 205.878 346.604L241.515 291.286C242.112 290.39 242.71 289.793 243.308 289.494C243.906 289.046 244.877 288.822 246.222 288.822H265.945C267.29 288.822 268.037 289.27 268.187 290.166C268.336 290.912 268.037 291.734 267.29 292.629L219.102 364.968C218.354 366.013 217.981 366.909 217.981 367.656C218.13 368.402 218.504 369.298 219.102 370.343L271.324 448.953Z" fill="black"/>
<path d="M422.739 338.317C422.739 349.366 420.198 358.548 415.118 365.864C410.038 373.031 403.015 378.406 394.049 381.989C385.084 385.573 374.774 387.364 363.119 387.364H326.361C324.867 387.364 324.12 388.111 324.12 389.604V451.193C324.12 453.731 322.775 455 320.086 455H300.586C299.241 455 298.27 454.776 297.672 454.328C297.224 453.731 297 452.835 297 451.641V292.181C297 289.942 298.046 288.822 300.138 288.822H359.981C371.786 288.822 382.395 290.539 391.808 293.973C401.371 297.407 408.917 302.782 414.446 310.098C419.974 317.414 422.739 326.821 422.739 338.317ZM394.946 337.645C394.946 330.777 393.452 325.253 390.463 321.072C387.475 316.742 383.216 313.607 377.688 311.666C372.309 309.725 365.883 308.754 358.412 308.754H327.482C325.241 308.754 324.12 309.8 324.12 311.89V364.072C324.12 366.312 324.942 367.432 326.586 367.432H359.981C370.59 367.432 379.033 364.968 385.308 360.041C391.733 355.114 394.946 347.649 394.946 337.645Z" fill="black"/>
<path d="M447 292.181C447 289.942 448.046 288.822 450.138 288.822H554.584C556.377 288.822 557.273 289.793 557.273 291.734L557.049 305.843C557.049 308.083 555.929 309.202 553.687 309.202H477.482C475.241 309.202 474.12 310.173 474.12 312.114V358.249C474.12 360.19 475.091 361.161 477.034 361.161H531.722C533.665 361.161 534.636 362.057 534.636 363.848V378.854C534.636 379.6 534.412 380.198 533.964 380.645C533.665 381.093 532.918 381.317 531.722 381.317H476.81C475.017 381.317 474.12 382.138 474.12 383.781V432.156C474.12 433.798 474.867 434.62 476.361 434.62H556.825C558.917 434.62 559.963 435.516 559.963 437.307V452.089C559.963 452.984 559.739 453.731 559.291 454.328C558.842 454.776 558.02 455 556.825 455H450.81C448.27 455 447 453.806 447 451.417V292.181Z" fill="black"/>
<path d="M713.945 450.297C714.394 451.491 714.319 452.611 713.721 453.656C713.273 454.552 712.451 455 711.256 455H689.515C687.722 455 686.377 453.955 685.481 451.865L658.136 383.781C657.389 381.989 655.521 381.093 652.533 381.093H619.81C618.764 381.093 618.017 381.392 617.568 381.989C617.27 382.437 617.12 382.96 617.12 383.557V450.969C617.12 453.656 615.701 455 612.862 455H593.81C592.316 455 591.27 454.701 590.672 454.104C590.224 453.507 590 452.611 590 451.417V292.181C590 289.942 591.046 288.822 593.138 288.822H657.912C676.291 288.822 690.561 292.555 700.722 300.02C711.032 307.485 716.187 318.385 716.187 332.718C716.187 340.93 714.618 348.022 711.48 353.994C708.342 359.817 704.308 364.595 699.377 368.328C694.595 371.911 689.44 374.524 683.912 376.166C682.866 376.614 682.567 377.51 683.015 378.854L713.945 450.297ZM652.533 362.057C664.188 362.057 673.004 359.892 678.981 355.562C685.107 351.083 688.17 344.14 688.17 334.734C688.17 325.775 685.406 319.057 679.877 314.577C674.349 310.098 666.504 307.859 656.343 307.859H620.706C618.315 307.859 617.12 308.754 617.12 310.546V358.921C617.12 361.012 617.942 362.057 619.586 362.057H652.533Z" fill="black"/>
<path d="M742 291.957C742 290.912 742.224 290.166 742.672 289.718C743.27 289.121 744.167 288.822 745.362 288.822H868.411C869.606 288.822 870.428 289.121 870.876 289.718C871.325 290.166 871.549 290.912 871.549 291.957V306.291C871.549 308.083 870.503 308.978 868.411 308.978H824.033C822.389 308.978 821.567 309.65 821.567 310.994V451.641C821.567 453.88 820.596 455 818.653 455H797.585C795.642 455 794.671 453.955 794.671 451.865V311.442C794.671 309.8 793.849 308.978 792.206 308.978H745.138C743.046 308.978 742 308.083 742 306.291V291.957Z" fill="black"/>
<path fill-rule="evenodd" clip-rule="evenodd" d="M872.805 156.054H784.753V150.054H872.805V156.054Z" fill="#0038FF"/>
</svg>
