<svg width="128" height="128" viewBox="0 0 128 128" fill="none" xmlns="http://www.w3.org/2000/svg">
<rect width="128" height="128" fill="#171717"/>
<path d="M90.7267 118C85.5293 118 81.0429 116.898 77.2675 114.693C73.4921 112.439 70.5747 109.23 68.5154 105.066C66.5051 100.901 65.5 95.9528 65.5 90.2205C65.5 84.3902 66.5296 79.3683 68.589 75.1549C70.6973 70.9414 73.6392 67.7078 77.4146 65.4541C81.19 63.1514 85.6274 62 90.7267 62C95.8259 62 100.239 63.1514 103.965 65.4541C107.741 67.7078 110.658 70.9414 112.717 75.1549C114.777 79.3193 115.806 84.3167 115.806 90.147C115.806 95.8793 114.777 100.828 112.717 104.992C110.707 109.157 107.814 112.366 104.039 114.619C100.263 116.873 95.8259 118 90.7267 118ZM90.7267 108.961C94.7472 108.961 97.6891 107.515 99.5522 104.625C101.415 101.685 102.347 96.9081 102.347 90.294C102.347 83.5328 101.391 78.6334 99.4787 75.5958C97.6155 72.5092 94.6982 70.9659 90.7267 70.9659C86.7061 70.9659 83.7397 72.5092 81.8274 75.5958C79.9152 78.6824 78.9591 83.5818 78.9591 90.294C78.9591 96.8591 79.8907 101.612 81.7539 104.551C83.6661 107.491 86.6571 108.961 90.7267 108.961Z" fill="#FAFAFA"/>
<path d="M13.6617 10C14.568 10 15.7765 10 17.2871 10C18.8481 10 20.4594 10 22.121 10C23.8331 10 25.4444 10 26.955 10C28.4656 10 29.6489 10.0252 30.5049 10.0755C37.3026 10.2264 42.8918 11.4591 47.2726 13.7736C51.6533 16.0881 54.876 19.283 56.9405 23.3585C59.0553 27.3836 60.1127 32.1887 60.1127 37.7736C60.1127 43.5094 59.0049 48.5157 56.7894 52.7925C54.6242 57.0189 51.3009 60.2893 46.8194 62.6038C42.3883 64.8679 36.8243 66 30.1272 66H13.7372C12.5791 66 12 65.3962 12 64.1887V11.5849C12 10.9811 12.1259 10.5786 12.3777 10.3774C12.6294 10.1258 13.0574 10 13.6617 10ZM25.9731 19.3585C25.4695 19.3585 25.2178 19.7107 25.2178 20.4151V55.6604C25.2178 56.3648 25.5451 56.717 26.1997 56.717H27.6347C31.7637 56.717 35.2129 56.1132 37.9824 54.9057C40.7518 53.6478 42.8163 51.6352 44.1759 48.8679C45.5858 46.1006 46.2907 42.4277 46.2907 37.8491C46.2907 33.4214 45.6361 29.8742 44.3269 27.2076C43.0681 24.4906 41.1043 22.5031 38.4356 21.2453C35.8172 19.9874 32.4687 19.3585 28.39 19.3585H25.9731Z" fill="#FAFAFA"/>
<path fill-rule="evenodd" clip-rule="evenodd" d="M90.1447 43.7006L43.7 90.1453L37.5 83.9453L83.9447 37.5006L90.1447 43.7006Z" fill="#F8CB01"/>
</svg>
