<svg width="256" height="256" viewBox="0 0 256 256" fill="none" xmlns="http://www.w3.org/2000/svg">
<rect width="256" height="256" fill="#171717"/>
<path d="M181.453 236C171.059 236 162.086 233.795 154.535 229.386C146.984 224.878 141.149 218.46 137.031 210.131C133.01 201.802 131 191.906 131 180.441C131 168.78 133.059 158.737 137.178 150.31C141.395 141.883 147.278 135.416 154.829 130.908C162.38 126.303 171.255 124 181.453 124C191.652 124 200.477 126.303 207.93 130.908C215.481 135.416 221.316 141.883 225.434 150.31C229.553 158.639 231.612 168.633 231.612 180.294C231.612 191.759 229.553 201.655 225.434 209.984C221.414 218.313 215.628 224.731 208.077 229.239C200.526 233.746 191.652 236 181.453 236ZM181.453 217.921C189.494 217.921 195.378 215.031 199.104 209.249C202.831 203.37 204.694 193.816 204.694 180.588C204.694 167.066 202.782 157.267 198.957 151.192C195.231 145.018 189.396 141.932 181.453 141.932C173.412 141.932 167.479 145.018 163.655 151.192C159.83 157.365 157.918 167.164 157.918 180.588C157.918 193.718 159.781 203.223 163.508 209.102C167.332 214.982 173.314 217.921 181.453 217.921Z" fill="#FAFAFA"/>
<path d="M27.3233 20C29.1361 20 31.553 20 34.5742 20C37.6961 20 40.9188 20 44.2421 20C47.6661 20 50.8887 20 53.9099 20C56.9312 20 59.2978 20.0503 61.0098 20.1509C74.6052 20.4528 85.7837 22.9182 94.5452 27.5472C103.307 32.1761 109.752 38.566 113.881 46.717C118.111 54.7673 120.225 64.3774 120.225 75.5472C120.225 87.0189 118.01 97.0314 113.579 105.585C109.248 114.038 102.602 120.579 93.6388 125.208C84.7766 129.736 73.6485 132 60.2545 132H27.4744C25.1581 132 24 130.792 24 128.377V23.1698C24 21.9623 24.2518 21.1572 24.7553 20.7547C25.2588 20.2516 26.1148 20 27.3233 20ZM51.9462 38.717C50.9391 38.717 50.4356 39.4214 50.4356 40.8302V111.321C50.4356 112.73 51.0902 113.434 52.3993 113.434H55.2695C63.5275 113.434 70.4259 112.226 75.9648 109.811C81.5036 107.296 85.6326 103.27 88.3517 97.7358C91.1715 92.2013 92.5814 84.8553 92.5814 75.6981C92.5814 66.8428 91.2722 59.7484 88.6538 54.4151C86.1362 48.9811 82.2086 45.0063 76.8711 42.4906C71.6344 39.9748 64.9374 38.717 56.7801 38.717H51.9462Z" fill="#FAFAFA"/>
<path fill-rule="evenodd" clip-rule="evenodd" d="M180.289 87.3993L87.4 180.289L75 167.889L167.889 74.9993L180.289 87.3993Z" fill="#F8CB01"/>
</svg>
