<svg width="64" height="64" viewBox="0 0 64 64" fill="none" xmlns="http://www.w3.org/2000/svg">
<path d="M45.3633 59C42.7647 59 40.5215 58.4488 38.6338 57.3465C36.7461 56.2196 35.2874 54.615 34.2577 52.5328C33.2526 50.4506 32.75 47.9764 32.75 45.1102C32.75 42.1951 33.2648 39.6842 34.2945 37.5774C35.3487 35.4707 36.8196 33.8539 38.7073 32.727C40.595 31.5757 42.8137 31 45.3633 31C47.913 31 50.1194 31.5757 51.9826 32.727C53.8703 33.8539 55.3289 35.4707 56.3586 37.5774C57.3883 39.6597 57.9031 42.1584 57.9031 45.0735C57.9031 47.9396 57.3883 50.4138 56.3586 52.4961C55.3535 54.5783 53.907 56.1829 52.0193 57.3097C50.1316 58.4366 47.913 59 45.3633 59ZM45.3633 54.4803C47.3736 54.4803 48.8445 53.7577 49.7761 52.3123C50.7077 50.8425 51.1735 48.4541 51.1735 45.147C51.1735 41.7664 50.6955 39.3167 49.7394 37.7979C48.8078 36.2546 47.3491 35.4829 45.3633 35.4829C43.353 35.4829 41.8698 36.2546 40.9137 37.7979C39.9576 39.3412 39.4795 41.7909 39.4795 45.147C39.4795 48.4296 39.9453 50.8058 40.8769 52.2756C41.8331 53.7454 43.3285 54.4803 45.3633 54.4803Z" fill="#FAFAFA"/>
<path d="M6.83083 5C7.28401 5 7.88825 5 8.64356 5C9.42403 5 10.2297 5 11.0605 5C11.9165 5 12.7222 5 13.4775 5C14.2328 5 14.8244 5.01258 15.2524 5.03774C18.6513 5.11321 21.4459 5.72956 23.6363 6.88679C25.8267 8.04403 27.438 9.64151 28.4702 11.6792C29.5276 13.6918 30.0564 16.0943 30.0564 18.8868C30.0564 21.7547 29.5025 24.2579 28.3947 26.3962C27.3121 28.5094 25.6504 30.1447 23.4097 31.3019C21.1942 32.434 18.4121 33 15.0636 33H6.8686C6.28953 33 6 32.6981 6 32.0943V5.79245C6 5.49057 6.06294 5.28931 6.18883 5.18868C6.31471 5.06289 6.52871 5 6.83083 5ZM12.9865 9.67925C12.7348 9.67925 12.6089 9.85535 12.6089 10.2075V27.8302C12.6089 28.1824 12.7725 28.3585 13.0998 28.3585H13.8174C15.8819 28.3585 17.6065 28.0566 18.9912 27.4528C20.3759 26.8239 21.4082 25.8176 22.0879 24.434C22.7929 23.0503 23.1454 21.2138 23.1454 18.9245C23.1454 16.7107 22.8181 14.9371 22.1635 13.6038C21.534 12.2453 20.5521 11.2516 19.2178 10.6226C17.9086 9.99371 16.2343 9.67925 14.195 9.67925H12.9865Z" fill="#FAFAFA"/>
<path fill-rule="evenodd" clip-rule="evenodd" d="M45.0723 21.8484L21.85 45.0707L18.75 41.9707L41.9723 18.7484L45.0723 21.8484Z" fill="#F8CB01"/>
</svg>
