<?xml version="1.0" encoding="UTF-8"?><svg id="Capa_2" xmlns="http://www.w3.org/2000/svg" viewBox="0 0 192 192"><defs><style>.cls-1{fill:none;}.cls-2{fill:#32de84;}</style></defs><g id="outline"><rect class="cls-1" width="192" height="192"/></g><g id="icons"><g id="layer1"><g id="g80302"><path id="path825" d="M26.92,135.91c-5.52,0-11.2,4.42-11.2,12.17,0,7.08,4.99,12.08,11.2,12.08,5.12,0,7.41-3.44,7.41-3.44v1.5c0,.71,.67,1.5,1.5,1.5h3.7v-23.28h-5.2v2.96s-2.3-3.49-7.41-3.49h0Zm.93,4.76c4.55,0,6.93,4,6.93,7.41,0,3.8-2.83,7.41-6.92,7.41-3.42,0-6.84-2.77-6.84-7.45,0-4.24,2.95-7.36,6.83-7.36Z"/><path id="path829" d="M46.75,159.72c-.8,0-1.5-.57-1.5-1.5v-21.78h5.2v2.88c1.18-1.77,3.48-3.42,7.02-3.42,5.78,0,8.85,4.61,8.85,8.91v14.9h-3.62c-.95,0-1.59-.79-1.59-1.59v-12.17c0-2.39-1.46-5.29-4.85-5.29-3.65,0-5.82,3.45-5.82,6.7v12.34h-3.7Z"/><path id="path833" d="M81.49,135.91c-5.52,0-11.2,4.42-11.2,12.17,0,7.08,4.99,12.08,11.2,12.08,5.12,0,7.41-3.44,7.41-3.44v1.5c0,.71,.67,1.5,1.5,1.5h3.7v-34.92h-5.2v14.59s-2.3-3.48-7.41-3.48h0Zm.93,4.76c4.55,0,6.93,4,6.93,7.41,0,3.8-2.83,7.41-6.92,7.41-3.42,0-6.84-2.77-6.84-7.45,0-4.24,2.95-7.36,6.83-7.36Z"/><path id="path835" d="M101.33,159.72c-.8,0-1.5-.57-1.5-1.5v-21.78h5.2v3.88c.89-2.17,2.83-4.14,6.26-4.14,.96,0,1.85,.17,1.85,.17v5.38s-1.12-.44-2.47-.44c-3.65,0-5.64,3.45-5.64,6.7v11.73h-3.7Z"/><path id="path837" d="M144.71,159.72c-.8,0-1.5-.57-1.5-1.5v-21.78h5.2v23.28h-3.7Z"/><path id="path839" d="M163.67,135.91c-5.52,0-11.2,4.42-11.2,12.17,0,7.08,4.99,12.08,11.2,12.08,5.12,0,7.41-3.44,7.41-3.44v1.5c0,.71,.67,1.5,1.5,1.5h3.7v-34.92h-5.2v14.59s-2.3-3.48-7.41-3.48h0Zm.93,4.76c4.55,0,6.93,4,6.93,7.41,0,3.8-2.83,7.41-6.92,7.41-3.42,0-6.84-2.77-6.84-7.45,0-4.24,2.95-7.36,6.83-7.36Z"/><circle id="path841" cx="145.78" cy="127.97" r="3.44"/><path id="path843" d="M126.87,135.9c-5.78,0-12.14,4.32-12.14,12.14,0,7.12,5.41,12.12,12.12,12.12,8.27,0,12.31-6.65,12.31-12.08,0-6.66-5.2-12.18-12.3-12.18h0Zm.02,4.86c4,0,6.98,3.22,6.98,7.29s-3.17,7.33-6.97,7.33c-3.53,0-6.96-2.87-6.96-7.27,0-4.46,3.26-7.36,6.95-7.36h0Z"/></g><path id="path80319" class="cls-2" d="M135.19,47.11l13.31-23.06c.75-1.29,.3-2.93-.98-3.69-1.27-.75-2.93-.31-3.67,.98l-13.49,23.35c-10.29-4.7-21.87-7.32-34.33-7.32s-24.04,2.62-34.33,7.32l-13.49-23.35c-.75-1.29-2.39-1.73-3.69-.98-1.29,.75-1.73,2.39-.98,3.69l13.31,23.06c-22.94,12.44-38.49,35.67-41.06,62.87H176.27c-2.57-27.2-18.12-50.43-41.09-62.87ZM59.2,87.45c-3.72,0-6.73-3.02-6.73-6.73s3.02-6.73,6.73-6.73,6.73,3.02,6.73,6.73c.02,3.7-3.01,6.73-6.73,6.73Zm73.66,0c-3.72,0-6.73-3.02-6.73-6.73s3.02-6.73,6.73-6.73,6.73,3.02,6.73,6.73c.02,3.7-3.01,6.73-6.73,6.73Z"/></g></g></svg>