<?xml version="1.0" encoding="UTF-8"?><svg id="Capa_2" xmlns="http://www.w3.org/2000/svg" xmlns:xlink="http://www.w3.org/1999/xlink" viewBox="0 0 192 192"><defs><style>.cls-1{fill:none;}.cls-2{fill:#bd202e;}.cls-3{fill:url(#Degradado_sin_nombre_5-2);}.cls-4{fill:url(#Degradado_sin_nombre_10);}.cls-5{fill:url(#Degradado_sin_nombre_6);}.cls-6{fill:url(#Degradado_sin_nombre_5);}.cls-7{fill:url(#Degradado_sin_nombre_10-6);}.cls-8{fill:url(#Degradado_sin_nombre_10-7);}.cls-9{fill:url(#Degradado_sin_nombre_10-4);}.cls-10{fill:url(#Degradado_sin_nombre_10-5);}.cls-11{fill:url(#Degradado_sin_nombre_10-2);}.cls-12{fill:url(#Degradado_sin_nombre_10-3);}</style><linearGradient id="Degradado_sin_nombre_6" x1="3899.25" y1="36412.67" x2="4187.8" y2="36748.51" gradientTransform="translate(-2884.66 -996.08) rotate(-64.89) scale(.09) skewX(.28)" gradientUnits="userSpaceOnUse"><stop offset="0" stop-color="#f59723"/><stop offset=".31" stop-color="#f69822"/><stop offset=".84" stop-color="#e87726"/></linearGradient><linearGradient id="Degradado_sin_nombre_10" x1="1766.25" y1="36373.71" x2="3820.09" y2="36373.71" gradientTransform="translate(-2884.66 -996.08) rotate(-64.89) scale(.09) skewX(.28)" gradientUnits="userSpaceOnUse"><stop offset=".32" stop-color="#9c2063"/><stop offset=".63" stop-color="#c82037"/><stop offset=".75" stop-color="#cc2135"/><stop offset="1" stop-color="#e87726"/></linearGradient><linearGradient id="Degradado_sin_nombre_5" x1="2014.8" y1="36578.09" x2="3238.13" y2="36578.09" gradientTransform="translate(-2884.66 -996.08) rotate(-64.89) scale(.09) skewX(.28)" gradientUnits="userSpaceOnUse"><stop offset="0" stop-color="#282661"/><stop offset=".1" stop-color="#662e8c"/><stop offset=".79" stop-color="#9e2064"/><stop offset=".95" stop-color="#cc2032"/></linearGradient><linearGradient id="Degradado_sin_nombre_10-2" x1="1881.43" y1="36354.81" x2="3935.27" y2="36354.81" xlink:href="#Degradado_sin_nombre_10"/><linearGradient id="Degradado_sin_nombre_5-2" x1="2031.77" y1="36381.59" x2="3110.82" y2="36381.59" xlink:href="#Degradado_sin_nombre_5"/><linearGradient id="Degradado_sin_nombre_10-3" x1="1881.43" y1="36566.24" x2="3935.27" y2="36566.24" xlink:href="#Degradado_sin_nombre_10"/><linearGradient id="Degradado_sin_nombre_10-4" x1="1754.13" y1="36556.13" x2="3807.96" y2="36556.13" xlink:href="#Degradado_sin_nombre_10"/><linearGradient id="Degradado_sin_nombre_10-5" x1="1881.43" y1="36629.53" x2="3935.27" y2="36629.53" xlink:href="#Degradado_sin_nombre_10"/><linearGradient id="Degradado_sin_nombre_10-6" x1="1881.43" y1="36623.58" x2="3935.27" y2="36623.58" xlink:href="#Degradado_sin_nombre_10"/><linearGradient id="Degradado_sin_nombre_10-7" x1="3035.65" y1="36622.08" x2="3489.1" y2="36622.08" xlink:href="#Degradado_sin_nombre_10"/></defs><g id="outline"><rect class="cls-1" width="192" height="192"/><g><path class="cls-5" d="M127.12,9.05c-2.77,1.62-7.38,6.22-12.88,12.9l5.04,9.46c3.55-5.03,7.14-9.57,10.73-13.4,.29-.3,.42-.45,.42-.45-.13,.14-.29,.3-.42,.45-1.18,1.28-4.74,5.42-10.12,13.61,5.18-.25,13.08-1.31,19.62-2.41,1.94-10.76-1.89-15.64-1.89-15.64,0,0-4.86-7.82-10.53-4.48l.02-.04Z"/><path class="cls-1" d="M118.53,63.06s.07-.01,.11-.02l-.73,.08-.12,.06c.24-.05,.49-.09,.74-.12Zm-5.11,16.96c-.41,.09-.83,.16-1.26,.23,.43-.07,.85-.15,1.26-.23Zm-35.05,37.98c.05-.13,.1-.28,.15-.42,1.11-2.91,2.22-5.75,3.3-8.51,1.22-3.1,2.42-6.09,3.63-9,1.26-3.06,2.5-6.02,3.72-8.89,1.28-3,2.54-5.89,3.79-8.67,1.01-2.26,2-4.46,2.98-6.58,.33-.71,.65-1.41,.98-2.1,.64-1.38,1.28-2.72,1.91-4.04,.58-1.21,1.15-2.4,1.74-3.57,.19-.39,.38-.77,.57-1.16,.03-.06,.06-.12,.09-.19l-.62,.06-.49-.96c-.05,.09-.09,.19-.14,.28-.88,1.76-1.77,3.51-2.64,5.29-.5,1.04-1,2.07-1.5,3.1-1.38,2.87-2.73,5.79-4.07,8.69-1.35,2.95-2.67,5.92-3.98,8.9-1.27,2.92-2.52,5.85-3.74,8.76-1.22,2.91-2.41,5.82-3.58,8.69-1.22,3.01-2.39,5.99-3.54,8.94-.27,.67-.51,1.33-.78,1.99-.92,2.38-1.82,4.73-2.69,7.05l.78,1.52,.69-.07c.02-.07,.05-.13,.07-.21,1.13-3.03,2.25-6,3.34-8.9Z"/><path class="cls-2" d="M110.15,88.55c-.64,.11-1.3,.23-1.98,.35,0,0-.01,0-.01,.01,.35-.05,.68-.1,1.02-.15,.32-.07,.64-.13,.97-.2Z"/><path d="M110.15,88.55c-.64,.11-1.3,.23-1.98,.35,0,0-.01,0-.01,.01,.35-.05,.68-.1,1.02-.15,.32-.07,.64-.13,.97-.2Z"/><path class="cls-2" d="M111.89,80.33s-.01,0-.01,.01c.1-.01,.21-.03,.32-.05,.43-.06,.85-.13,1.26-.23-.51,.09-1.02,.18-1.56,.27Z"/><path d="M111.89,80.33s-.01,0-.01,.01c.1-.01,.21-.03,.32-.05,.43-.06,.85-.13,1.26-.23-.51,.09-1.02,.18-1.56,.27Z"/><path class="cls-4" d="M104.43,55.85c1.53-2.85,3.09-5.64,4.65-8.34,1.62-2.82,3.28-5.54,4.95-8.18,.09-.15,.2-.31,.3-.47,1.65-2.59,3.31-5.09,4.98-7.46l-5.04-9.46c-.38,.46-.76,.92-1.14,1.41-1.46,1.81-2.96,3.74-4.52,5.8-1.75,2.32-3.54,4.79-5.37,7.39-1.68,2.4-3.39,4.9-5.11,7.51-1.46,2.21-2.91,4.49-4.36,6.82-.05,.08-.1,.17-.15,.26l6.57,12.9c1.39-2.79,2.82-5.52,4.25-8.18Z"/><path class="cls-6" d="M74.48,128.46c-.87,2.37-1.75,4.79-2.62,7.26-.01,.03-.02,.07-.04,.1-.12,.35-.26,.7-.37,1.05-.59,1.67-1.1,3.17-2.28,6.57,1.93,.87,3.49,3.19,4.96,5.81-.15-2.71-1.28-5.26-3.43-7.23,9.54,.43,17.78-1.97,21.97-8.9,.38-.62,.73-1.26,1.04-1.96-1.93,2.44-4.33,3.46-8.84,3.22-.01,0-.02,.01-.03,.01,.01,0,.02-.01,.03-.01,6.64-2.95,9.96-5.79,12.88-10.46,.69-1.12,1.38-2.33,2.07-3.68-5.81,5.92-12.47,7.61-19.62,6.33l-5.31,.58c-.17,.45-.33,.88-.5,1.33l.09-.02Z"/><path class="cls-11" d="M77.04,116.68c1.14-2.94,2.33-5.93,3.54-8.94,1.17-2.88,2.35-5.79,3.58-8.69s2.47-5.84,3.74-8.76c1.29-2.98,2.62-5.94,3.98-8.9,1.34-2.92,2.69-5.83,4.07-8.69,.49-1.04,1-2.07,1.5-3.1,.87-1.78,1.75-3.54,2.64-5.29,.05-.09,.09-.19,.14-.28l-6.57-12.9c-.1,.17-.21,.36-.33,.52-1.53,2.49-3.06,5.03-4.55,7.62-1.51,2.62-2.99,5.29-4.45,8-1.22,2.28-2.41,4.58-3.59,6.92-.24,.47-.46,.94-.69,1.41-1.43,2.93-2.72,5.75-3.89,8.48-1.33,3.08-2.49,6.02-3.51,8.81-.67,1.84-1.28,3.6-1.84,5.31-.46,1.45-.89,2.91-1.32,4.37-.98,3.41-1.83,6.82-2.52,10.26l6.6,13c.87-2.32,1.77-4.67,2.69-7.05,.28-.68,.52-1.35,.79-2v-.09Z"/><path class="cls-3" d="M66.82,113.23c-.83,4.14-1.42,8.27-1.72,12.39l-.03,.43c-2.06-3.28-7.57-6.48-7.56-6.45,3.96,5.69,6.95,11.37,7.39,16.86-2.12,.43-5.01-.19-8.35-1.41,3.49,3.19,6.1,4.06,7.13,4.31-3.21,.2-6.54,2.39-9.9,4.9,4.92-1.99,8.89-2.78,11.75-2.14-4.52,12.69-9.03,26.71-13.59,41.63,1.39-.41,2.22-1.34,2.68-2.59,.81-2.69,6.15-20.41,14.51-43.56,.25-.66,.48-1.33,.73-1.99,.06-.19,.13-.38,.2-.55,.88-2.44,1.81-4.92,2.75-7.46,.21-.58,.43-1.16,.65-1.74,0-.01,.01-.02,.01-.03l-6.61-13c-.02,.13-.05,.28-.08,.44l.04-.03Z"/><path class="cls-12" d="M101.16,65.09c-.19,.39-.38,.77-.57,1.16-.57,1.17-1.14,2.36-1.74,3.57-.63,1.32-1.27,2.66-1.91,4.04-.33,.69-.65,1.39-.98,2.1-.98,2.12-1.97,4.32-2.98,6.58-1.24,2.77-2.51,5.67-3.79,8.67-1.22,2.86-2.47,5.82-3.72,8.89-1.2,2.9-2.4,5.91-3.63,9-1.09,2.75-2.2,5.6-3.3,8.51-.05,.13-.1,.28-.15,.42-1.1,2.89-2.22,5.87-3.33,8.92-.02,.07-.05,.13-.07,.21l5.31-.58c-.1-.02-.21-.03-.32-.05,6.35-.78,14.82-5.5,20.24-11.37,2.51-2.68,4.79-5.85,6.9-9.56,1.56-2.75,3.05-5.82,4.46-9.2,1.23-2.95,2.4-6.16,3.54-9.63-1.46,.76-3.13,1.33-4.97,1.72-.33,.07-.65,.13-.99,.19s-.67,.11-1.02,.15c0,0,.01,0,.01-.01,5.93-2.26,9.66-6.63,12.37-11.98-1.55,1.06-4.09,2.44-7.12,3.1-.41,.09-.83,.16-1.26,.23-.1,.01-.21,.03-.32,.05h.02c2.06-.85,3.79-1.82,5.29-2.94,.33-.24,.64-.49,.93-.75,.46-.4,.89-.81,1.32-1.24,.27-.28,.52-.57,.78-.86,.59-.7,1.14-1.45,1.66-2.26,.15-.25,.32-.5,.46-.76,.2-.38,.39-.75,.57-1.11,.83-1.65,1.49-3.13,2.01-4.42,.27-.65,.49-1.24,.69-1.81,.08-.22,.15-.44,.22-.65,.21-.62,.38-1.17,.51-1.66,.2-.73,.33-1.31,.39-1.73-.2,.15-.43,.31-.69,.47-1.79,1.07-4.85,2.02-7.33,2.48l4.87-.53-4.87,.53s-.07,.01-.11,.02c-.26,.04-.49,.08-.75,.11l.12-.06-16.66,1.82s-.03,.11-.06,.17l-.02,.05Z"/><path class="cls-9" d="M119.96,31.58c-1.48,2.26-3.1,4.83-4.85,7.75-.09,.14-.19,.31-.28,.46-1.5,2.52-3.1,5.28-4.79,8.32-1.45,2.62-2.96,5.42-4.54,8.44-1.37,2.63-2.78,5.42-4.24,8.38l16.66-1.82c4.86-2.22,7.03-4.22,9.14-7.14,.55-.8,1.12-1.63,1.68-2.51,1.72-2.66,3.39-5.58,4.9-8.5,1.45-2.81,2.73-5.6,3.71-8.11,.62-1.59,1.12-3.08,1.47-4.39,.31-1.15,.54-2.24,.73-3.29-6.47,1.11-14.41,2.16-19.62,2.42h.05Z"/><path id="h" class="cls-2" d="M109.13,88.75c-.34,.06-.67,.11-1.02,.15,.35-.03,.69-.09,1.02-.15Z"/><path id="h-2" class="cls-2" d="M109.13,88.75c-.34,.06-.67,.11-1.02,.15,.35-.03,.69-.09,1.02-.15Z"/><path class="cls-10" d="M109.13,88.75c-.34,.06-.67,.11-1.02,.15,.35-.03,.69-.09,1.02-.15Z"/><path id="j" class="cls-2" d="M111.89,80.33c.1-.01,.21-.03,.32-.05-.1,.01-.2,.04-.32,.05Z"/><path id="j-2" class="cls-2" d="M111.89,80.33c.1-.01,.21-.03,.32-.05-.1,.01-.2,.04-.32,.05Z"/><path class="cls-7" d="M111.89,80.33c.1-.01,.21-.03,.32-.05-.1,.01-.2,.04-.32,.05Z"/><path id="l" class="cls-2" d="M111.89,80.33s.01-.01,0,0c.01-.01,.01,0,0,0Z"/><path id="l-2" class="cls-2" d="M111.89,80.33s.01-.01,0,0c.01-.01,.01,0,0,0Z"/><path class="cls-8" d="M111.89,80.33s.01-.01,0,0c.01-.01,.01,0,0,0Z"/></g></g></svg>