<?xml version="1.0" encoding="UTF-8"?><svg id="icons" xmlns="http://www.w3.org/2000/svg" viewBox="0 0 192 192"><defs><style>.cls-1{fill:#eb5424;}</style></defs><path class="cls-1" d="M135.7,142.66l-15.16-46.66,39.68-28.83h-49.05l-15.16-46.66h0s49.06-.01,49.06-.01l15.16,46.66h0s.01,0,.01,0c8.81,27.07-.26,57.86-24.54,75.5h0Zm-79.38,0h-.01s39.69,28.84,39.69,28.84l39.7-28.84-39.69-28.84-39.69,28.84h0ZM31.79,67.16h0c-9.27,28.54,1.49,58.77,24.52,75.5h0s15.16-46.67,15.16-46.67l-39.67-28.82h49.04l15.16-46.66h0s-49.06-.01-49.06-.01l-15.16,46.66h0Z"/></svg>