<?xml version="1.0" encoding="UTF-8"?><svg id="icons" xmlns="http://www.w3.org/2000/svg" xmlns:xlink="http://www.w3.org/1999/xlink" viewBox="0 0 192 192"><defs><style>.cls-1{fill:url(#Degradado_sin_nombre_9);stroke:#fff;stroke-width:.34px;}.cls-2{fill:url(#Degradado_sin_nombre_11);}</style><linearGradient id="Degradado_sin_nombre_11" x1="25.92" y1="-265.42" x2="179.28" y2="-387.15" gradientTransform="translate(0 -225.05) scale(1 -1)" gradientUnits="userSpaceOnUse"><stop offset="0" stop-color="#9013fe"/><stop offset="1" stop-color="#6610f2"/></linearGradient><linearGradient id="Degradado_sin_nombre_9" x1="73.08" y1="-289.63" x2="107.36" y2="-347.6" gradientTransform="translate(0 -225.05) scale(1 -1)" gradientUnits="userSpaceOnUse"><stop offset="0" stop-color="#fff"/><stop offset="1" stop-color="#f1e5fc"/></linearGradient></defs><path class="cls-2" d="M27.61,44.35c-.33-9.51,7.08-18.28,17.09-18.28h102.61c10.01,0,17.42,8.77,17.09,18.28-.32,9.13,.09,20.97,3.07,30.61,2.99,9.68,8.02,15.79,16.27,16.58v8.91c-8.25,.79-13.29,6.9-16.27,16.58-2.98,9.65-3.39,21.48-3.07,30.61,.33,9.51-7.08,18.28-17.09,18.28H44.7c-10.01,0-17.42-8.77-17.09-18.28,.32-9.13-.1-20.97-3.07-30.61-2.99-9.68-8.04-15.79-16.29-16.58v-8.91c8.25-.79,13.3-6.9,16.29-16.58,2.98-9.65,3.39-21.48,3.07-30.61Z"/><path class="cls-1" d="M99.81,133.18c16.21,0,25.98-7.94,25.98-21.03,0-9.9-6.97-17.06-17.32-18.2v-.41c7.6-1.24,13.57-8.3,13.57-16.19,0-11.24-8.87-18.56-22.39-18.56h-30.42v74.38h30.58Zm-18.75-64.95h15.74c8.55,0,13.41,3.81,13.41,10.72,0,7.37-5.65,11.49-15.9,11.49h-13.26v-22.22Zm0,55.52v-24.48h15.63c11.2,0,17,4.12,17,12.17s-5.65,12.32-16.32,12.32h-16.32Z"/></svg>