<?xml version="1.0" encoding="UTF-8"?><svg id="Capa_2" xmlns="http://www.w3.org/2000/svg" xmlns:xlink="http://www.w3.org/1999/xlink" viewBox="0 0 192 192"><defs><style>.cls-1{fill:none;}.cls-2{fill:#fff;}.cls-3{fill:#69d3a7;}.cls-4{fill:url(#Degradado_sin_nombre_44);}.cls-5{fill:url(#Degradado_sin_nombre_43);}</style><linearGradient id="Degradado_sin_nombre_44" x1="179.44" y1="-1617.31" x2="110.25" y2="-1662.11" gradientTransform="translate(0 -1520.81) scale(1 -1)" gradientUnits="userSpaceOnUse"><stop offset=".08" stop-color="#69d3a7"/><stop offset="1" stop-color="#69d3a7" stop-opacity="0"/></linearGradient><linearGradient id="Degradado_sin_nombre_43" x1="104.43" y1="-1685.76" x2="31.61" y2="-1546" gradientTransform="translate(0 -1520.81) scale(1 -1)" gradientUnits="userSpaceOnUse"><stop offset=".06" stop-color="#fff"/><stop offset=".14" stop-color="#def5ec"/><stop offset=".24" stop-color="#baebd7"/><stop offset=".34" stop-color="#9de2c5"/><stop offset=".45" stop-color="#86dbb8"/><stop offset=".57" stop-color="#76d7ae"/><stop offset=".71" stop-color="#6cd4a9"/><stop offset=".88" stop-color="#69d3a7"/></linearGradient></defs><g id="icons"><rect class="cls-1" width="192" height="192"/><g><path class="cls-2" d="M72.97,80.04c6.26,0,11.35,3.34,13.96,9.15l.2,.46,10.51-3.57-.21-.54c-4.06-9.92-13.44-16.07-24.45-16.07-7.75,0-14.05,2.48-19.25,7.59-5.17,5.07-7.78,11.45-7.78,18.96s2.63,13.8,7.78,18.86c5.2,5.11,11.5,7.59,19.25,7.59,11.01,0,20.38-6.17,24.45-16.07l.21-.54-10.52-3.57-.18,.47c-2.35,5.73-7.57,9.14-13.96,9.14-4.36,0-8.04-1.52-10.95-4.52-2.95-3.03-4.44-6.87-4.44-11.35s1.45-8.27,4.44-11.45c2.92-3,6.59-4.52,10.95-4.52Z"/><path class="cls-4" d="M118.59,170.03l-3.13-10.33c28.26-8.58,47.25-34.18,47.25-63.69,0-8.14-1.45-16.1-4.32-23.64l10.08-3.83c3.34,8.78,5.04,18.01,5.04,27.49-.02,34.28-22.07,64.02-54.91,74Z"/><path class="cls-3" d="M159.78,76.5c-8.63-28.16-34.26-47.07-63.79-47.07-4.01,0-8.03,.36-11.94,1.06l-1.91-10.62c4.54-.82,9.2-1.24,13.85-1.24,34.29,0,64.07,21.98,74.1,54.68l-10.31,3.18Z"/><polygon class="cls-2" points="138.77 70.44 123.81 108.36 108.73 70.44 96.4 70.44 117.54 122.19 102.14 159.55 112.93 161.7 150.42 70.44 138.77 70.44"/><path class="cls-5" d="M104.08,154.85l-2.27,5.5c-.52,1.26-1.71,2.12-3.05,2.17-.93,.03-1.84,.07-2.79,.07-27.86,0-52.86-17.55-62.5-43.28-.15-.39-.29-.78-.42-1.17-.03-.1-.07-.21-.11-.31-.11-.36-.24-.7-.36-1.06-.05-.13-.08-.26-.13-.41-.1-.33-.21-.64-.31-.96-.05-.16-.1-.33-.15-.49-1.81-6.1-2.72-12.45-2.72-18.91,0-34.39,25.83-62.87,60.05-66.25l-1.06-10.73C48.5,22.94,18.5,56.04,18.5,96.01c0,7.28,1.01,14.44,2.99,21.36h0v.02c.13,.47,.28,.93,.42,1.4,.02,.07,.03,.13,.07,.2,.13,.44,.28,.88,.42,1.32,.03,.08,.05,.15,.08,.23,.15,.44,.29,.88,.46,1.32,.02,.07,.05,.11,.07,.18,.15,.42,.31,.85,.46,1.26h0c11.26,29.77,40.21,50.07,72.5,50.08h.02c1.08,0,2.15-.02,3.23-.07,5.53-.23,10.47-3.7,12.59-8.84l3.07-7.46-10.78-2.15Z"/></g></g></svg>