<?xml version="1.0" encoding="UTF-8"?><svg id="icons" xmlns="http://www.w3.org/2000/svg" viewBox="0 0 192 192"><defs><style>.cls-1{fill:#fff;}.cls-2{fill:#512bd4;}</style></defs><rect class="cls-2" x="20" y="20" width="152" height="152"/><path class="cls-1" d="M47.09,117.11c-1.07,0-1.99-.36-2.74-1.07-.75-.73-1.13-1.61-1.13-2.62s.38-1.91,1.13-2.64c.75-.73,1.67-1.1,2.74-1.1s2.02,.37,2.77,1.1c.77,.73,1.16,1.62,1.16,2.64s-.39,1.88-1.16,2.62c-.75,.72-1.67,1.07-2.77,1.07Z"/><path class="cls-1" d="M90.06,116.51h-6.99l-18.4-29.04c-.47-.73-.85-1.5-1.16-2.29h-.16c.14,.84,.21,2.65,.21,5.43v25.9h-6.18v-39.51h7.44l17.79,28.35c.75,1.18,1.24,1.98,1.45,2.42h.11c-.18-1.05-.27-2.82-.27-5.32v-25.46h6.15v39.51Z"/><path class="cls-1" d="M120.15,116.51h-21.63v-39.51h20.77v5.57h-14.37v11.18h13.25v5.54h-13.25v11.68h15.23v5.54Z"/><path class="cls-1" d="M150.89,82.57h-11.07v33.94h-6.39v-33.94h-11.04v-5.57h28.51v5.57Z"/></svg>