<?xml version="1.0" encoding="UTF-8"?><svg id="icons" xmlns="http://www.w3.org/2000/svg" viewBox="0 0 192 192"><defs><style>.cls-1{fill:#3a1ab6;}</style></defs><path class="cls-1" d="M138.88,45.06c-10.64,3.62-15.76,10.12-19.25,20.25-.9,2.7-3.15,5.69-5.68,7.71l8.72,9.55-27.69-19.79L18.56,8.25s5.52,36.58,7.43,50.04c1.35,9.49,3.66,13.75,10.97,18.06l2.93,1.61,12.61,6.79-7.48-3.97,34.55,19.27-.22,.52-37.2-17.6c1.97,6.9,5.8,20.19,7.43,26.06,1.74,6.33,3.71,8.63,9.74,10.87l11.09,4.14,6.87-2.76-8.72,5.92-43.61,56.54c28.98-27.5,53.52-37.27,71.47-45.27,22.9-10.12,36.69-16.62,45.7-39.98,6.42-16.39,11.42-37.39,17.78-45.5l13.56-17.72s-28.08,7.59-34.55,9.78Z"/></svg>