<?xml version="1.0" encoding="UTF-8"?><svg id="Capa_2" xmlns="http://www.w3.org/2000/svg" viewBox="0 0 192 192"><defs><style>.cls-1{fill:none;}.cls-2{fill:#b4f9ba;}</style></defs><g id="icons"><g><path class="cls-2" d="M70.29,33.04l24.66-14.24c.7-.41,1.57-.41,2.28,0l64.98,37.52c.7,.41,1.13,1.15,1.14,1.96l.09,25.8c0,.82-.43,1.57-1.14,1.98l-24.62,14.22c-1.51,.88-3.41-.22-3.42-1.96l-.08-23.16c0-.81-.44-1.56-1.14-1.96l-62.74-36.21c-1.52-.88-1.52-3.07,0-3.94Z"/><path class="cls-2" d="M54.36,149.92l-24.65-14.23c-.71-.41-1.14-1.15-1.14-1.97V58.68c0-.81,.43-1.56,1.13-1.97l22.31-12.98c.71-.41,1.58-.41,2.28,0l24.62,14.22c1.51,.88,1.52,3.06,0,3.94l-20.01,11.65c-.7,.41-1.13,1.15-1.13,1.97v72.45c0,1.76-1.9,2.85-3.42,1.97h0Z"/><path class="cls-2" d="M163.43,105.25v28.46c0,.82-.43,1.57-1.14,1.97l-64.98,37.52c-.7,.41-1.57,.41-2.27,0l-22.39-12.83c-.71-.41-1.15-1.16-1.15-1.98v-28.43c0-1.75,1.89-2.84,3.41-1.98l20.09,11.51c.7,.41,1.57,.4,2.27,0l62.74-36.23c1.52-.88,3.42,.22,3.42,1.97h0Z"/></g><rect class="cls-1" width="192" height="192"/></g></svg>