<svg width="192" height="192" viewBox="0 0 192 192" fill="none" xmlns="http://www.w3.org/2000/svg">
<g clip-path="url(#clip0_468_1894)">
<path fill-rule="evenodd" clip-rule="evenodd" d="M96.06 19.79C53.17 19.79 18.5 54.72 18.5 97.93C18.5 132.47 40.72 161.71 71.54 172.06C75.39 172.84 76.8 170.38 76.8 168.31C76.8 166.5 76.67 160.29 76.67 153.82C55.09 158.48 50.6 144.51 50.6 144.51C47.13 135.45 41.99 133.13 41.99 133.13C34.93 128.34 42.5 128.34 42.5 128.34C50.33 128.86 54.44 136.36 54.44 136.36C61.37 148.26 72.55 144.9 77.04 142.83C77.68 137.78 79.74 134.29 81.92 132.35C64.71 130.54 46.61 123.81 46.61 93.8C46.61 85.26 49.69 78.28 54.57 72.84C53.8 70.9 51.1 62.88 55.34 52.14C55.34 52.14 61.89 50.07 76.66 60.16C82.98 58.45 89.5 57.58 96.05 57.57C102.6 57.57 109.28 58.48 115.44 60.16C130.21 50.07 136.76 52.14 136.76 52.14C141 62.88 138.3 70.9 137.53 72.84C142.54 78.27 145.49 85.26 145.49 93.8C145.49 123.81 127.38 130.41 110.05 132.35C112.88 134.81 115.31 139.46 115.31 146.84C115.31 157.32 115.18 165.73 115.18 168.31C115.18 170.38 116.59 172.84 120.44 172.06C151.26 161.71 173.48 132.47 173.48 97.93C173.61 54.72 138.81 19.79 96.04 19.79H96.06Z" fill="white"/>
</g>
<defs>
<clipPath id="clip0_468_1894">
<rect width="192" height="192" fill="white"/>
</clipPath>
</defs>
</svg>
