<?xml version="1.0" encoding="UTF-8"?><svg id="icons" xmlns="http://www.w3.org/2000/svg" viewBox="0 0 192 192"><defs><style>.cls-1{fill:#da4648;fill-rule:evenodd;}</style></defs><g id="Page-1"><g id="gulp"><g id="Gulp-Logo"><path id="Cup" class="cls-1" d="M95.63,146.74c-10.28,0-18.23-1.54-22.05-2.47-2.61-.63-4.71-1.28-6.3-1.95l5.1,8.71,1.99,27.2c0,3.05,9.69,5.52,21.64,5.52s21.64-2.47,21.64-5.52l1.58-27.5,4.82-8.44c-1.6,.68-3.72,1.34-6.36,1.98-3.82,.92-11.77,2.47-22.05,2.47Zm28.58-88.51c-7.55,1.05-17.56,1.63-28.2,1.63s-20.66-.58-28.2-1.63c-3.74-.52-6.7-1.14-8.79-1.83-.5-.17-1.35-.45-2.16-.9l4.68,43.03c.22-.74,.46-1.48,.73-2.22,.55-1.51,1.18-2.99,1.9-4.43,.72-1.44,1.51-2.81,2.35-4.09,.85-1.28,1.75-2.47,2.71-3.55,.96-1.08,1.94-2.01,2.95-2.79,1.01-.78,2.03-1.39,3.05-1.82,1.03-.44,2.05-.66,3.05-.66,1.16,0,2.28,.32,3.37,.95,1.08,.63,2.1,1.66,3.04,3.08,.22,.32,.35,.64,.41,.96,.06,.33,.09,.63,.09,.92,0,.68-.16,1.22-.49,1.61-.33,.39-.71,.59-1.16,.59-.41,0-.79-.22-1.14-.65-.35-.43-.74-1.05-1.18-1.85-.41-.73-.86-1.25-1.35-1.58-.49-.32-1.02-.49-1.6-.49-.89,0-1.85,.37-2.86,1.11-1.01,.74-2.02,1.72-3.01,2.94-1,1.22-1.95,2.61-2.86,4.17-.91,1.56-1.72,3.17-2.42,4.81-.7,1.64-1.26,3.26-1.67,4.85-.41,1.59-.62,3.03-.62,4.3,0,.42,.03,.86,.09,1.3,.06,.45,.17,.85,.33,1.21,.16,.36,.38,.66,.65,.89,.27,.24,.62,.35,1.04,.35,.47,0,1.01-.16,1.61-.48,.6-.32,1.22-.73,1.87-1.25,.64-.51,1.29-1.1,1.94-1.75,.65-.65,1.26-1.31,1.82-1.97,.56-.66,1.06-1.3,1.49-1.92,.43-.61,.76-1.15,.98-1.6l1.78-5.33c.22-.57,.5-.98,.85-1.22,.35-.24,.71-.36,1.08-.36,.18,0,.36,.03,.54,.09,.18,.06,.34,.16,.48,.28,.14,.13,.25,.29,.33,.5,.08,.2,.12,.44,.12,.71,0,.73-.06,1.41-.19,2.04-.13,.64-.29,1.25-.49,1.86-.2,.6-.42,1.21-.66,1.82-.24,.61-.48,1.25-.71,1.92-.05,.08-.14,.31-.28,.71-.13,.4-.3,.9-.49,1.51-.19,.6-.4,1.28-.62,2.03-.22,.75-.45,1.51-.69,2.29-.24,.78-.46,1.54-.68,2.29-.22,.75-.41,1.42-.58,2.03-.17,.6-.32,1.11-.43,1.52-.11,.41-.18,.65-.21,.73-.06,.24-.17,.51-.31,.8-.14,.29-.31,.57-.5,.84-.19,.26-.4,.48-.63,.66-.23,.17-.47,.26-.71,.26-.41,0-.71-.14-.89-.41-.19-.27-.28-.77-.28-1.5v-.32c0-.11,0-.22,.02-.34,.01-.24,.11-.7,.29-1.36,.18-.66,.39-1.42,.64-2.26,.25-.84,.52-1.71,.8-2.61,.29-.9,.55-1.7,.78-2.41-.68,.76-1.41,1.51-2.2,2.26-.79,.75-1.6,1.42-2.43,2.02-.83,.6-1.67,1.08-2.51,1.46-.84,.38-1.65,.57-2.43,.57-.89,0-1.66-.2-2.31-.59-.12-.07-.23-.15-.34-.23l2.6,27.28c.68,1.7,13.43,5.87,30.24,5.87s29.58-4.18,30.24-5.87l3.74-32.43c-.31,.28-.61,.56-.9,.83-1.07,1-2.08,1.85-3.03,2.57-.95,.72-1.88,1.27-2.78,1.67-.91,.39-1.88,.59-2.91,.59-.97,0-1.72-.21-2.25-.63-.53-.42-.79-1-.79-1.75v-.17c0-.05,0-.12,.02-.19,.05-.45,.25-.98,.59-1.56,.34-.59,.76-1.2,1.24-1.84,.49-.63,1-1.28,1.55-1.93,.55-.65,1.06-1.27,1.52-1.85,.47-.58,.85-1.11,1.16-1.6,.31-.48,.46-.88,.46-1.18,0-.18-.06-.32-.19-.43-.13-.1-.34-.16-.63-.16-.51,0-1.04,.13-1.58,.4-.54,.26-1.08,.62-1.61,1.07-.53,.45-1.05,.96-1.55,1.53-.5,.57-.98,1.17-1.42,1.79-.44,.62-.84,1.24-1.21,1.87-.36,.63-.67,1.21-.93,1.73-.08,.17-.18,.4-.33,.7-.14,.3-.29,.64-.46,1.02-.17,.38-.34,.77-.53,1.17-.18,.4-.35,.78-.51,1.13-.15,.36-.29,.67-.41,.95-.12,.28-.21,.47-.26,.58-.06,.14-.17,.39-.32,.77-.15,.38-.32,.82-.51,1.33-.19,.51-.39,1.04-.6,1.6-.21,.56-.41,1.09-.59,1.59-.19,.5-.35,.94-.49,1.32-.14,.38-.23,.63-.27,.77-.13,.39-.28,.76-.45,1.11-.17,.35-.37,.65-.59,.92-.22,.26-.48,.48-.77,.63-.29,.16-.61,.24-.97,.24-.46,0-.84-.11-1.14-.33-.3-.22-.45-.64-.45-1.26,0-.3,.04-.61,.11-.93,.08-.32,.17-.63,.29-.94,.11-.31,.23-.61,.35-.91,.12-.3,.23-.58,.33-.85,.69-1.51,1.39-3.03,2.11-4.55,.71-1.52,1.4-3.02,2.06-4.51,.14-.31,.26-.61,.4-.92-.04,.04-.08,.08-.12,.12-.83,.8-1.66,1.51-2.48,2.12-.82,.61-1.64,1.1-2.45,1.46-.81,.36-1.6,.54-2.36,.54-.52,0-.96-.08-1.31-.25-.35-.17-.63-.39-.84-.68-.21-.29-.36-.63-.45-1.02-.03-.13-.05-.27-.07-.41-.22,.17-.45,.34-.68,.51-.79,.56-1.57,1.01-2.34,1.35-.77,.34-1.45,.51-2.07,.51s-1.11-.2-1.49-.61c-.38-.41-.57-1.1-.57-2.09,0-.7,.1-1.5,.31-2.43-.33,.59-.75,1.19-1.24,1.79-.5,.6-1.07,1.16-1.7,1.66-.64,.5-1.35,.9-2.14,1.21-.79,.31-1.65,.46-2.58,.46-.42,0-.83-.05-1.22-.16-.39-.11-.73-.29-1.02-.54-.29-.26-.53-.6-.71-1.03-.18-.43-.27-.97-.27-1.62,0-.02,.03-.25,.08-.69,.05-.45,.21-1.15,.49-2.11,.27-.96,.7-2.2,1.27-3.73,.57-1.53,1.39-3.38,2.43-5.55,.27-.57,.58-.99,.93-1.24,.35-.25,.73-.37,1.14-.37,.18,0,.36,.03,.56,.08,.19,.05,.37,.14,.54,.25,.17,.11,.3,.26,.4,.43,.1,.17,.15,.37,.15,.6,0,.15-.02,.3-.06,.43-.06,.26-.2,.59-.41,1.01-.21,.42-.46,.89-.74,1.43-.28,.54-.58,1.11-.89,1.73-.31,.62-.6,1.26-.87,1.93-.27,.67-.5,1.34-.69,2.03-.19,.69-.3,1.36-.33,2.01,0,.27,.06,.52,.19,.75,.13,.23,.34,.34,.63,.34,.83,0,1.62-.27,2.37-.82,.75-.54,1.45-1.22,2.09-2.03,.64-.81,1.22-1.68,1.73-2.61,.52-.93,.95-1.78,1.29-2.55,.24-.51,.46-1.07,.64-1.65,.18-.59,.39-1.13,.6-1.63,.22-.5,.47-.91,.75-1.25,.28-.33,.63-.5,1.05-.5,.46,0,.82,.17,1.09,.52,.27,.35,.4,.76,.4,1.25,0,.27-.09,.65-.26,1.12-.17,.48-.39,1.02-.65,1.63-.26,.61-.55,1.27-.85,1.96-.31,.7-.59,1.4-.85,2.12-.26,.72-.48,1.42-.65,2.11-.17,.69-.26,1.33-.26,1.92,0,.54,.28,.82,.84,.82,.4,0,.89-.14,1.47-.41,.59-.27,1.2-.65,1.85-1.15,.16-.12,.32-.25,.48-.38,.18-.74,.39-1.43,.64-2.05,.45-1.18,.9-2.35,1.36-3.51,.46-1.16,.88-2.23,1.26-3.2l5.8-14.62c.23-.59,.54-1.01,.93-1.25,.39-.24,.78-.36,1.18-.36s.76,.13,1.08,.39c.33,.26,.49,.67,.49,1.25,0,.27-.05,.56-.16,.86-.11,.3-.25,.63-.41,.97-.32,.71-.7,1.58-1.14,2.61-.44,1.03-.91,2.15-1.42,3.36-.5,1.21-1.02,2.47-1.55,3.77-.53,1.31-1.05,2.58-1.55,3.82-.5,1.24-.98,2.41-1.42,3.53-.44,1.11-.82,2.07-1.14,2.89-.14,.35-.28,.75-.41,1.21-.13,.46-.2,.87-.2,1.24,0,.23,.04,.41,.11,.54s.22,.2,.44,.2c.27,0,.6-.09,1-.28,.4-.19,.84-.44,1.3-.75,.47-.31,.95-.66,1.45-1.07,.5-.4,1.01-.82,1.5-1.25,.5-.43,.97-.86,1.43-1.29,.45-.43,.86-.83,1.22-1.19,.08-.09,.18-.15,.29-.19,.22-.64,.41-1.27,.59-1.89,.1-.27,.24-.66,.42-1.16,.18-.5,.38-.99,.61-1.47,.23-.48,.49-.9,.77-1.26,.29-.35,.6-.53,.93-.53,.51,0,.88,.12,1.11,.35,.23,.24,.34,.58,.34,1.03,0,.09-.01,.23-.04,.43-.03,.2-.06,.4-.1,.62-.04,.22-.08,.43-.12,.62-.05,.2-.09,.34-.12,.43,.47-.51,.98-1.02,1.53-1.53,.55-.51,1.12-.96,1.7-1.37,.59-.41,1.19-.74,1.8-1,.61-.26,1.22-.38,1.84-.38,.42,0,.84,.06,1.25,.18,.41,.12,.79,.3,1.11,.53,.33,.24,.59,.53,.79,.88,.2,.35,.31,.77,.31,1.24,0,.62-.16,1.28-.47,1.98-.31,.7-.7,1.41-1.18,2.12-.47,.71-.98,1.4-1.53,2.07-.55,.67-1.06,1.28-1.54,1.84-.48,.55-.88,1.02-1.21,1.41-.32,.39-.49,.65-.51,.78,0,.18,.06,.33,.17,.44,.11,.11,.31,.17,.57,.17,.22,0,.54-.12,.96-.36,.42-.24,1.01-.66,1.77-1.26s1.72-1.4,2.89-2.4c.8-.69,1.74-1.51,2.79-2.44l5.06-46.88c-.82,.45-1.66,.73-2.16,.9-2.09,.69-5.05,1.31-8.79,1.83Zm-28.23-11.12c-21.89,0-39.63,2.45-39.63,5.47s17.74,5.47,39.63,5.47,39.63-2.45,39.63-5.47-17.74-5.47-39.63-5.47Zm15.82,7.06c0,.71-2.11,1.28-4.71,1.28s-4.71-.57-4.71-1.28,2.11-1.28,4.71-1.28,4.71,.57,4.71,1.28Z"/><path id="Straw" class="cls-1" d="M103.33,53.59s-.04,.08-.04,.11c0,.46,1.7,.83,3.79,.83s3.79-.37,3.79-.83l4.95-20.08,19.69-20.79s.01-.01,.02-.02c.42-.47-.43-1.93-1.83-3.18-1.4-1.25-2.92-1.67-3.39-1.2,0,0,0,0-.01,.01l-21.01,22.11-5.97,23.03Z"/></g></g></g></svg>