<?xml version="1.0" encoding="UTF-8"?><svg id="Capa_2" xmlns="http://www.w3.org/2000/svg" viewBox="0 0 192 192"><defs><style>.cls-1{fill:none;}.cls-2{fill:#ebebeb;}.cls-3{fill:#ef652a;}.cls-4{fill:#fff;}.cls-5{fill:#e34f26;}</style></defs><g id="outline"><rect class="cls-1" width="192" height="192"/></g><g id="icons"><g><path class="cls-5" d="M45.54,151.78L34.33,26h123.35l-11.21,125.78-50.6,14.22"/><path class="cls-3" d="M96.14,155.06l40.75-11.21,9.57-107.73h-50.32"/><path class="cls-2" d="M96.14,82.87h-20.51l-1.37-15.86h21.88v-15.31H57.3l.27,4.1,3.83,42.66h34.73v-15.59Zm0,40.2h-.27l-17.23-4.65-1.09-12.3h-15.32l1.91,24.34,31.73,8.75h.27v-16.13Z"/><path class="cls-4" d="M95.86,82.87v15.59h19.14l-1.91,19.96-17.23,4.65v16.13l31.73-8.75,.27-2.73,3.56-40.74,.55-4.1h-36.1Zm0-31.17v15.31h37.47l.27-3.28,.82-7.93,.27-4.1h-38.84Z"/></g></g></svg>