<?xml version="1.0" encoding="UTF-8"?><svg id="icons" xmlns="http://www.w3.org/2000/svg" viewBox="0 0 192 192"><defs><style>.cls-1{fill:#f58219;}.cls-2{fill:#4e7896;}</style></defs><path class="cls-2" d="M73.13,143.93s-6.75,4.1,4.69,5.28c13.77,1.76,21.1,1.46,36.33-1.46,3.06,1.88,6.3,3.45,9.67,4.69-34.28,14.65-77.66-.88-50.7-8.5h0Zm-4.39-19.05s-7.33,5.57,4.1,6.75c14.95,1.46,26.67,1.76,46.89-2.34,1.97,2,4.38,3.5,7.03,4.39-41.32,12.31-87.62,1.17-58.03-8.79h0Zm80.88,33.39s4.98,4.1-5.57,7.33c-19.63,5.87-82.34,7.62-99.93,0-6.15-2.63,5.57-6.44,9.32-7.03,3.81-.88,5.87-.88,5.87-.88-6.75-4.69-44.84,9.67-19.34,13.77,70.04,11.43,127.77-4.98,109.6-13.18h.04Zm-73.32-53.33s-31.94,7.62-11.43,10.26c8.79,1.17,26.08,.88,42.2-.29,13.18-1.17,26.38-3.51,26.38-3.51,0,0-4.69,2.05-7.91,4.1-32.52,8.5-94.95,4.69-77.07-4.1,15.24-7.33,27.84-6.44,27.84-6.44h0Zm57.15,31.93c32.82-17,17.58-33.4,7.03-31.35-2.63,.59-3.81,1.17-3.81,1.17,0,0,.88-1.76,2.93-2.34,20.81-7.33,37.22,21.98-6.75,33.4,0,0,.29-.29,.59-.88h.01Zm-53.91,46.3c31.65,2.05,80-1.17,81.17-16.12,0,0-2.34,5.87-26.08,10.26-26.96,4.98-60.37,4.39-80,1.17,0,0,4.1,3.51,24.91,4.69h0Z"/><path class="cls-1" d="M113.57,8.25s18.17,18.46-17.29,46.3c-28.43,22.56-6.44,35.46,0,50.11-16.71-14.95-28.72-28.14-20.51-40.44,12.01-18.18,45.13-26.91,37.8-55.97Zm-9.32,84.1c8.5,9.67-2.34,18.46-2.34,18.46,0,0,21.69-11.13,11.72-24.91-9.08-13.18-16.12-19.63,21.98-41.61,0,0-60.07,14.95-31.35,48.06Z"/></svg>