<?xml version="1.0" encoding="UTF-8"?><svg id="Capa_2" xmlns="http://www.w3.org/2000/svg" viewBox="0 0 192 192"><defs><style>.cls-1{fill:none;}.cls-2{fill:#f7df1e;}</style></defs><g id="outline"><rect class="cls-1" width="192" height="192"/></g><g id="icons"><g><rect id="rect2" class="cls-2" x="19.97" y="20.08" width="152" height="152" rx="5.15" ry="5.15"/><path id="path4" d="M122.08,138.83c3.06,5,7.05,8.67,14.09,8.67,5.92,0,9.7-2.96,9.7-7.05,0-4.9-3.88-6.63-10.4-9.48l-3.57-1.53c-10.31-4.39-17.15-9.89-17.15-21.52,0-10.71,8.16-18.87,20.92-18.87,9.08,0,15.61,3.16,20.31,11.44l-11.12,7.14c-2.45-4.39-5.09-6.12-9.19-6.12s-6.84,2.65-6.84,6.12c0,4.28,2.65,6.02,8.78,8.67l3.57,1.53c12.14,5.2,18.99,10.51,18.99,22.44,0,12.86-10.1,19.9-23.67,19.9s-21.83-6.32-26.03-14.61l11.61-6.74Zm-50.46,1.24c2.24,3.98,4.28,7.35,9.19,7.35s7.65-1.84,7.65-8.98v-48.57h14.28v48.76c0,14.79-8.67,21.52-21.33,21.52-11.44,0-18.06-5.92-21.43-13.05l11.63-7.04Z"/></g></g></svg>