<?xml version="1.0" encoding="UTF-8"?><svg id="icons" xmlns="http://www.w3.org/2000/svg" viewBox="0 0 192 192"><defs><style>.cls-1{fill:#fff;}.cls-2{fill:#c63d14;}</style></defs><path class="cls-2" d="M157.39,94.82c0-7.97-6.46-14.43-14.43-14.43-.51,0-1.02,.03-1.52,.08l19.82-58.44H77.05l19.79,58.39c-.29-.02-.58-.03-.88-.03-7.97,0-14.43,6.46-14.43,14.43,0,6.44,4.22,11.89,10.05,13.75-3.08,5.33-6.95,10.13-11.34,14.28-5.98,5.64-12.82,9.91-20.22,12.55-8.81-4.53-12.97-14.59-9.22-23.41,.42-1,.86-2.01,1.27-3.01,6.38-1.49,11.14-7.21,11.14-14.05,0-7.97-6.46-14.43-14.43-14.43s-14.43,6.46-14.43,14.43c0,4.89,2.43,9.2,6.15,11.81-3.57,8.13-8.82,16.64-10.46,26.5-1.96,11.82,0,24.37,10.22,31.45,23.81,16.5,49.65-10.23,76.89-16.95,9.87-2.44,20.71-2.04,29.41-7.08,6.53-3.78,10.84-10.05,12.06-17.09,1.21-6.95-.55-13.88-4.6-19.49,2.09-2.5,3.36-5.73,3.36-9.25h0Zm-47,.05s0-.03,0-.05c0-5.23-2.79-9.81-6.95-12.34l15.75-31.85,15.78,32.19c-3.87,2.59-6.43,7-6.43,12.01,0,.11,0,.21,0,.31l-18.15-.26h0Z"/><path class="cls-1" d="M160.91,94.82c0-8.76-6.31-16.08-14.63-17.64l19.89-58.68H72.13l19.92,58.8c-8.03,1.79-14.05,8.96-14.05,17.52,0,6.43,3.4,12.07,8.49,15.24-2.45,3.65-5.35,7.08-8.68,10.22-5.28,4.98-11.15,8.75-17.49,11.24-6.38-4.01-9.08-11.57-6.28-18.16l.22-.52c.14-.32,.27-.65,.41-.97,7.01-2.44,12.06-9.12,12.06-16.95,0-9.9-8.05-17.95-17.95-17.95s-17.95,8.05-17.95,17.95c0,5,2.05,9.52,5.36,12.78-.6,1.28-1.23,2.58-1.88,3.91-3.02,6.21-6.45,13.24-7.74,21.05-2.57,15.51,1.58,27.92,11.68,34.92,6.13,4.25,12.36,5.92,18.63,5.92,11.8,0,23.74-5.93,35.42-11.73,8.41-4.18,17.11-8.5,25.7-10.61,3.2-.79,6.49-1.26,9.97-1.76,6.9-1,14.04-2.03,20.37-5.69,7.33-4.25,12.35-11.37,13.77-19.54,1.22-7.02-.25-14.04-3.82-20,1.67-2.72,2.63-5.92,2.63-9.34h0Zm-7.05,0c0,6.01-4.89,10.9-10.9,10.9s-10.9-4.89-10.9-10.9,4.89-10.9,10.9-10.9,10.9,4.89,10.9,10.9h0Zm2.48-69.27l-17.57,51.82c-.76,.18-1.5,.41-2.22,.69l-17.35-35.4-17.41,35.19c-.75-.26-1.53-.47-2.32-.63l-17.51-51.66h74.38Zm-60.38,58.36c6.01,0,10.9,4.89,10.9,10.9s-4.89,10.9-10.9,10.9-10.9-4.89-10.9-10.9,4.89-10.9,10.9-10.9h0Zm-47.18,.1c6.01,0,10.9,4.89,10.9,10.9s-4.89,10.9-10.9,10.9-10.9-4.89-10.9-10.9,4.89-10.9,10.9-10.9h0Zm106.38,38.94c-1.06,6.11-4.84,11.45-10.36,14.65-5.15,2.98-11.31,3.87-17.84,4.81-3.5,.5-7.11,1.03-10.65,1.9-9.34,2.3-18.39,6.8-27.14,11.15-17.51,8.7-32.64,16.21-46.9,6.33-10.45-7.24-9.96-20.64-8.75-27.98,1.13-6.8,4.18-13.06,7.13-19.12,.51-1.05,1.01-2.08,1.49-3.1,1.46,.58,3.02,.98,4.64,1.16-3,9.91,1.72,20.68,11.63,25.77l1.36,.7,1.44-.51c7.83-2.79,15.05-7.27,21.45-13.31,4.14-3.9,7.69-8.22,10.62-12.84,.88,.13,1.77,.2,2.69,.2,9.9,0,17.95-8.05,17.95-17.95,0-5.32-2.33-10.11-6.02-13.4l11.28-22.81,11.4,23.25c-3.42,3.27-5.56,7.87-5.56,12.97,0,9.9,8.05,17.95,17.95,17.95,3.8,0,7.33-1.19,10.24-3.22,2.02,4.13,2.77,8.78,1.97,13.41h0Z"/></svg>