<?xml version="1.0" encoding="UTF-8"?><svg id="icons" xmlns="http://www.w3.org/2000/svg" viewBox="0 0 192 192"><defs><style>.cls-1{fill:#00ed64;}</style></defs><path class="cls-1" d="M111.29,27.81c-7.39-8.74-13.75-17.61-15.05-19.46-.14-.14-.34-.14-.48,0-1.3,1.84-7.66,10.72-15.05,19.46-63.43,80.63,9.99,135.05,9.99,135.05l.62,.41c.55,8.4,1.92,20.48,1.92,20.48h5.47s1.37-12.02,1.92-20.48l.62-.48c.07,0,73.49-54.35,10.06-134.98Zm-15.33,133.82s-3.28-2.8-4.17-4.23v-.14l3.97-87.8c0-.27,.41-.27,.41,0l3.97,87.8v.14c-.89,1.43-4.17,4.23-4.17,4.23Z"/></svg>