<?xml version="1.0" encoding="UTF-8"?><svg id="outline" xmlns="http://www.w3.org/2000/svg" viewBox="0 0 192 192"><defs><style>.cls-1,.cls-2{fill:#00728f;}.cls-3,.cls-4{fill:#f09000;}.cls-5{fill:#687e91;}.cls-5,.cls-4,.cls-2{fill-rule:evenodd;}</style></defs><path class="cls-5" d="M128.13,48.63c-.83,0-1.41,.1-2,.24v.1h.09c.39,.78,1.08,1.32,1.56,2,.39,.78,.73,1.56,1.12,2.34,.05-.05,.09-.1,.09-.1,.69-.49,1.03-1.27,1.03-2.44-.29-.34-.34-.68-.59-1.02-.29-.49-.93-.73-1.32-1.12"/><path class="cls-1" d="M50.57,144.85h-6.75c-.24-11.4-.9-22.11-1.97-32.15h-.06l-10.28,32.15h-5.14l-10.22-32.15h-.06c-.76,9.64-1.23,20.36-1.43,32.15h-6.16c.4-14.34,1.39-27.79,2.99-40.34h8.37l9.74,29.64h.06l9.8-29.64h8.01c1.75,14.7,2.79,28.15,3.11,40.34"/><path class="cls-1" d="M79.86,115.08c-2.75,14.92-6.38,25.76-10.88,32.53-3.51,5.21-7.35,7.82-11.53,7.82-1.12,0-2.49-.34-4.12-1v-3.6c.8,.12,1.73,.18,2.81,.18,1.95,0,3.53-.54,4.72-1.62,1.43-1.31,2.15-2.79,2.15-4.42,0-1.12-.56-3.41-1.67-6.87l-7.41-23.01h6.63l5.32,17.21c1.2,3.91,1.69,6.64,1.49,8.19,2.91-7.77,4.94-16.24,6.1-25.4h6.39Z"/><polygon class="cls-3" points="169.74 144.85 150.56 144.85 150.56 104.5 157.02 104.5 157.02 139.88 169.74 139.88 169.74 144.85 169.74 144.85"/><path class="cls-4" d="M121.52,136.78c-1.63-2.63-2.45-6.85-2.45-12.67,0-10.16,3.09-15.24,9.26-15.24,3.23,0,5.6,1.22,7.11,3.64,1.63,2.63,2.45,6.81,2.45,12.55,0,10.24-3.09,15.36-9.26,15.36-3.23,0-5.6-1.21-7.11-3.65m24.03,9.04l-7.42-3.66c.66-.54,1.29-1.13,1.85-1.8,3.15-3.7,4.72-9.18,4.72-16.43,0-13.35-5.24-20.02-15.72-20.02-5.14,0-9.15,1.69-12.01,5.08-3.15,3.71-4.72,9.16-4.72,16.38s1.39,12.29,4.18,15.6c2.55,2.99,6.4,4.48,11.54,4.48,1.92,0,3.68-.24,5.28-.71l9.66,5.62,2.63-4.53h0Z"/><path class="cls-3" d="M109.44,133.66c0,3.42-1.26,6.23-3.76,8.43-2.51,2.19-5.88,3.28-10.1,3.28-3.95,0-7.77-1.26-11.48-3.77l1.73-3.47c3.19,1.59,6.07,2.39,8.66,2.39,2.43,0,4.33-.54,5.71-1.61,1.37-1.08,2.2-2.58,2.2-4.48,0-2.4-1.67-4.44-4.74-6.16-2.83-1.55-8.49-4.8-8.49-4.8-3.06-2.24-4.6-4.63-4.6-8.59,0-3.27,1.15-5.91,3.43-7.92,2.29-2.01,5.25-3.02,8.88-3.02s7.15,1,10.22,2.99l-1.56,3.46c-2.62-1.11-5.21-1.67-7.76-1.67-2.07,0-3.67,.5-4.78,1.5-1.12,.99-1.81,2.27-1.81,3.82,0,2.39,1.71,4.46,4.86,6.21,2.87,1.55,8.66,4.86,8.66,4.86,3.15,2.23,4.72,4.61,4.72,8.53"/><path class="cls-2" d="M177.85,90.99c-3.9-.1-6.92,.29-9.46,1.36-.73,.29-1.9,.29-2,1.22,.39,.39,.44,1.02,.78,1.56,.58,.97,1.6,2.29,2.53,2.97,1.02,.78,2.05,1.56,3.12,2.24,1.9,1.17,4.05,1.85,5.89,3.02,1.08,.68,2.14,1.56,3.22,2.29,.53,.39,.87,1.02,1.56,1.27v-.15c-.34-.44-.44-1.07-.78-1.56-.49-.48-.97-.93-1.46-1.41-1.41-1.9-3.17-3.56-5.07-4.92-1.56-1.08-4.98-2.54-5.61-4.34,0,0-.05-.05-.1-.1,1.07-.1,2.34-.49,3.37-.79,1.65-.44,3.17-.34,4.87-.78,.78-.2,1.56-.44,2.34-.68v-.44c-.88-.88-1.51-2.05-2.44-2.88-2.48-2.14-5.22-4.24-8.04-6-1.51-.98-3.46-1.61-5.07-2.44-.58-.29-1.56-.44-1.9-.93-.88-1.07-1.37-2.48-2-3.75-1.41-2.68-2.78-5.65-4-8.48-.88-1.9-1.41-3.8-2.49-5.56-5.02-8.29-10.48-13.31-18.86-18.23-1.8-1.03-3.95-1.46-6.24-2-1.22-.05-2.44-.15-3.66-.19-.78-.34-1.56-1.27-2.24-1.71-2.78-1.75-9.94-5.56-11.99-.54-1.32,3.17,1.95,6.29,3.07,7.9,.83,1.12,1.9,2.39,2.48,3.65,.34,.83,.44,1.71,.78,2.58,.78,2.14,1.51,4.53,2.54,6.53,.53,1.02,1.12,2.1,1.8,3.02,.39,.54,1.07,.78,1.22,1.66-.68,.97-.73,2.44-1.12,3.66-1.75,5.51-1.07,12.33,1.41,16.38,.78,1.22,2.63,3.9,5.12,2.87,2.19-.88,1.71-3.65,2.34-6.09,.15-.59,.05-.98,.34-1.36v.1c.68,1.36,1.37,2.68,2,4.05,1.51,2.39,4.14,4.87,6.34,6.53,1.17,.88,2.09,2.39,3.56,2.93v-.15h-.1c-.29-.44-.73-.63-1.12-.97-.88-.88-1.85-1.95-2.54-2.93-2.05-2.73-3.85-5.75-5.46-8.87-.78-1.51-1.46-3.17-2.1-4.68-.29-.58-.29-1.46-.78-1.75-.73,1.07-1.8,2-2.34,3.31-.93,2.1-1.02,4.68-1.37,7.36-.19,.05-.1,0-.19,.1-1.56-.39-2.09-2-2.68-3.36-1.46-3.47-1.71-9.02-.44-13.02,.34-1.02,1.81-4.24,1.22-5.21-.29-.93-1.27-1.46-1.8-2.2-.63-.93-1.32-2.09-1.75-3.12-1.17-2.73-1.76-5.75-3.02-8.48-.59-1.27-1.61-2.59-2.44-3.75-.93-1.32-1.95-2.24-2.68-3.8-.24-.54-.58-1.42-.19-2,.1-.39,.29-.54,.68-.64,.63-.54,2.44,.15,3.07,.44,1.8,.73,3.32,1.42,4.83,2.44,.68,.49,1.41,1.41,2.29,1.66h1.03c1.56,.34,3.32,.09,4.78,.53,2.58,.83,4.92,2.05,7.02,3.36,6.38,4.05,11.65,9.8,15.2,16.67,.59,1.12,.83,2.14,1.37,3.31,1.02,2.39,2.29,4.83,3.31,7.17,1.02,2.29,2,4.63,3.46,6.53,.73,1.02,3.65,1.56,4.97,2.1,.97,.44,2.49,.83,3.36,1.36,1.66,1.02,3.31,2.19,4.87,3.32,.78,.58,3.22,1.8,3.36,2.78"/><path class="cls-3" d="M174.35,144.84h1.07v-4.1h1.4v-.84h-3.92v.84h1.45v4.1h0Zm8.14,0h1.01v-4.94h-1.52l-1.23,3.37-1.34-3.37h-1.46v4.94h.95v-3.76h.05l1.41,3.76h.73l1.4-3.76v3.76h0Z"/></svg>