<?xml version="1.0" encoding="UTF-8"?><svg id="outline" xmlns="http://www.w3.org/2000/svg" xmlns:xlink="http://www.w3.org/1999/xlink" viewBox="0 0 192 192"><defs><style>.cls-1{fill:none;}.cls-2{clip-path:url(#clippath);}.cls-3{fill:#fff;}.cls-4{fill:#32e6e2;}</style><clipPath id="clippath"><rect class="cls-1" x="8.25" y="18.78" width="175.5" height="154.43"/></clipPath></defs><g class="cls-2"><g><path class="cls-4" d="M55.68,147.74h-1.66l-8.27-8.27v-1.66l12.65-12.65h8.76l1.17,1.17v8.76l-12.65,12.65Z"/><path class="cls-4" d="M45.75,54.18v-1.66l8.27-8.27h1.66l12.65,12.65v8.76l-1.17,1.17h-8.76l-12.65-12.65Z"/><path class="cls-3" d="M118.57,121.07h-12.03l-1.01-1.01v-28.17c0-5.01-1.97-8.9-8.01-9.03-3.11-.08-6.67,0-10.47,.15l-.57,.58v36.46l-1.01,1.01h-12.03l-1.01-1.01v-48.12l1.01-1.01h27.08c10.53,0,19.06,8.53,19.06,19.06v30.09l-1.01,1.01Z"/><path class="cls-4" d="M57.39,103.04H9.26l-1.01-1.01v-12.06l1.01-1.01H57.39l1.01,1.01v12.06l-1.01,1.01Z"/><path class="cls-4" d="M182.76,103.04h-48.14l-1.01-1.01v-12.06l1.01-1.01h48.14l1.01,1.01v12.06l-1.01,1.01Z"/><path class="cls-4" d="M89.07,55.89V19.79l1.01-1.01h12.06l1.01,1.01V55.89l-1.01,1.01h-12.06l-1.01-1.01Z"/><path class="cls-4" d="M89.07,172.21v-36.1l1.01-1.01h12.06l1.01,1.01v36.1l-1.01,1.01h-12.06l-1.01-1.01Z"/></g></g></svg>