<?xml version="1.0" encoding="UTF-8"?><svg id="Capa_2" xmlns="http://www.w3.org/2000/svg" xmlns:xlink="http://www.w3.org/1999/xlink" viewBox="0 0 192 192"><defs><style>.cls-1{fill:none;}.cls-2{clip-path:url(#clippath);}.cls-3{fill:#fff;}.cls-4{fill:#777bb3;}.cls-5{fill:url(#Degradado_sin_nombre_7);}</style><clipPath id="clippath"><path class="cls-1" d="M8.23,96c0,25.5,39.3,46.17,87.77,46.17h0c48.48,0,87.77-20.67,87.77-46.17h0c0-25.5-39.3-46.17-87.77-46.17h0c-48.48,0-87.77,20.67-87.77,46.17"/></clipPath><radialGradient id="Degradado_sin_nombre_7" cx="-3704.39" cy="484.72" fx="-3704.39" fy="484.72" r=".25" gradientTransform="translate(1681196.05 220043.38) scale(453.82 -453.82)" gradientUnits="userSpaceOnUse"><stop offset="0" stop-color="#aeb2d5"/><stop offset=".3" stop-color="#aeb2d5"/><stop offset=".75" stop-color="#484c89"/><stop offset="1" stop-color="#484c89"/></radialGradient></defs><g id="outline"><rect class="cls-1" width="192" height="192"/><g><g id="g3440"><g class="cls-2"><g id="g3442"><g id="g3448"><g id="g3450"><path id="path3462" class="cls-5" d="M8.23,96c0,25.5,39.3,46.17,87.77,46.17h0c48.48,0,87.77-20.67,87.77-46.17h0c0-25.5-39.3-46.17-87.77-46.17h0c-48.48,0-87.77,20.67-87.77,46.17"/></g></g></g></g></g><g id="g3466"><g id="g3472"><path id="path3474" class="cls-4" d="M96,138.74c46.58,0,84.35-19.14,84.35-42.74s-37.76-42.74-84.35-42.74S11.65,72.39,11.65,96s37.76,42.74,84.35,42.74"/></g></g><g id="g3478"><g id="g3484"><path id="path3486" d="M55.91,101.3c3.83,0,6.69-.71,8.5-2.1,1.79-1.38,3.03-3.77,3.67-7.1,.6-3.11,.37-5.29-.68-6.46-1.08-1.2-3.42-1.81-6.95-1.81h-6.12l-3.39,17.46h4.98Zm-20.02,21.51c-.28,0-.55-.13-.73-.35-.18-.22-.25-.51-.2-.79l8.99-46.27c.09-.45,.48-.77,.93-.77h19.38c6.09,0,10.63,1.65,13.48,4.92,2.87,3.28,3.75,7.86,2.63,13.63-.46,2.35-1.24,4.53-2.33,6.48-1.09,1.95-2.53,3.76-4.29,5.37-2.1,1.97-4.48,3.39-7.06,4.23-2.54,.83-5.8,1.25-9.7,1.25h-7.85l-2.24,11.53c-.09,.45-.48,.77-.93,.77h-10.08Z"/></g><g id="g3488"><path id="path3490" class="cls-3" d="M55.12,84.79h5.34c4.26,0,5.74,.93,6.24,1.49,.83,.93,.99,2.88,.46,5.64-.6,3.1-1.72,5.29-3.32,6.52-1.64,1.26-4.3,1.9-7.92,1.9h-3.82l3.02-15.56Zm9.15-11.11h-19.38c-.91,0-1.7,.65-1.87,1.54l-8.99,46.27c-.11,.56,.04,1.14,.4,1.57,.36,.44,.9,.69,1.47,.69h10.08c.91,0,1.7-.65,1.87-1.54l2.09-10.76h7.06c3.99,0,7.36-.44,9.99-1.29,2.71-.88,5.21-2.37,7.41-4.44,1.83-1.68,3.33-3.57,4.47-5.61,1.14-2.04,1.96-4.32,2.43-6.76,1.18-6.06,.22-10.92-2.85-14.43-3.04-3.48-7.81-5.24-14.19-5.24m-14.49,28.57h6.13c4.06,0,7.09-.77,9.08-2.3,1.99-1.53,3.33-4.09,4.03-7.67,.67-3.44,.36-5.87-.91-7.28-1.28-1.41-3.83-2.12-7.66-2.12h-6.91l-3.76,19.37m14.49-26.67c5.83,0,10.08,1.53,12.76,4.59,2.67,3.06,3.48,7.33,2.41,12.82-.44,2.26-1.18,4.33-2.23,6.2-1.05,1.87-2.41,3.59-4.1,5.14-2.01,1.88-4.25,3.23-6.71,4.03-2.46,.8-5.59,1.2-9.4,1.2h-8.63l-2.39,12.3h-10.08l8.99-46.27h19.38"/></g><g id="g3492"><path id="path3494" d="M103.49,110.51c-.28,0-.55-.13-.73-.35-.18-.22-.25-.51-.2-.79l3.98-20.47c.38-1.95,.29-3.34-.26-3.94-.34-.36-1.34-.97-4.32-.97h-7.21l-5,25.74c-.09,.45-.48,.77-.93,.77h-10c-.28,0-.55-.13-.73-.35-.18-.22-.25-.51-.2-.79l8.99-46.27c.09-.45,.48-.77,.93-.77h10c.28,0,.55,.13,.73,.35,.18,.22,.25,.51,.2,.79l-2.17,11.17h7.75c5.91,0,9.91,1.04,12.24,3.18,2.38,2.19,3.12,5.68,2.21,10.39l-4.18,21.53c-.09,.45-.48,.77-.93,.77h-10.16Z"/></g><g id="g3496"><path id="path3498" class="cls-3" d="M97.8,61.38h-10c-.91,0-1.7,.65-1.87,1.54l-8.99,46.27c-.11,.56,.04,1.14,.4,1.57s.9,.69,1.47,.69h10c.91,0,1.7-.65,1.87-1.54l4.85-24.97h6.42c2.97,0,3.6,.63,3.62,.66,.18,.19,.42,1.09,.03,3.11l-3.98,20.47c-.11,.56,.04,1.14,.4,1.57s.9,.69,1.47,.69h10.16c.91,0,1.7-.65,1.87-1.54l4.18-21.53c.98-5.05,.14-8.85-2.5-11.27-2.52-2.31-6.73-3.44-12.89-3.44h-6.6l1.95-10.03c.11-.56-.04-1.14-.4-1.57-.36-.44-.9-.69-1.47-.69m0,1.9l-2.39,12.3h8.91c5.61,0,9.47,.98,11.6,2.93,2.13,1.96,2.77,5.12,1.91,9.5l-4.18,21.53h-10.16l3.98-20.47c.45-2.33,.29-3.92-.5-4.76-.79-.85-2.46-1.27-5.02-1.27h-7.99l-5.15,26.51h-10l8.99-46.27h10"/></g><g id="g3500"><path id="path3502" d="M134.59,101.3c3.83,0,6.69-.71,8.5-2.1,1.79-1.38,3.03-3.77,3.67-7.1,.6-3.11,.37-5.29-.68-6.46-1.08-1.2-3.42-1.81-6.95-1.81h-6.12l-3.39,17.46h4.98Zm-20.02,21.51c-.28,0-.55-.13-.73-.35-.18-.22-.25-.51-.2-.79l8.99-46.27c.09-.45,.48-.77,.94-.77h19.38c6.09,0,10.63,1.65,13.48,4.92,2.87,3.28,3.75,7.86,2.63,13.63-.46,2.35-1.24,4.53-2.33,6.48-1.09,1.95-2.53,3.76-4.29,5.37-2.1,1.97-4.48,3.39-7.06,4.23-2.54,.83-5.8,1.25-9.7,1.25h-7.85l-2.24,11.53c-.09,.45-.48,.77-.94,.77h-10.08Z"/></g><g id="g3504"><path id="path3506" class="cls-3" d="M133.79,84.79h5.34c4.26,0,5.74,.93,6.24,1.49,.83,.93,.99,2.88,.46,5.64-.6,3.1-1.72,5.29-3.32,6.52-1.64,1.26-4.3,1.9-7.92,1.9h-3.82l3.02-15.56Zm9.15-11.11h-19.38c-.91,0-1.7,.65-1.87,1.54l-8.99,46.27c-.11,.56,.04,1.14,.4,1.57,.36,.44,.9,.69,1.47,.69h10.08c.91,0,1.7-.65,1.87-1.54l2.09-10.76h7.06c3.99,0,7.36-.44,9.99-1.29,2.71-.88,5.21-2.38,7.41-4.44,1.83-1.68,3.33-3.57,4.47-5.6,1.14-2.04,1.96-4.32,2.43-6.76,1.18-6.07,.22-10.92-2.85-14.43-3.04-3.48-7.81-5.24-14.19-5.24m-14.49,28.57h6.13c4.06,0,7.09-.77,9.08-2.3,1.99-1.53,3.33-4.09,4.03-7.67,.67-3.44,.36-5.87-.91-7.28-1.28-1.41-3.83-2.12-7.66-2.12h-6.91l-3.76,19.37m14.49-26.67c5.83,0,10.08,1.53,12.76,4.59,2.67,3.06,3.48,7.33,2.41,12.82-.44,2.26-1.18,4.33-2.23,6.2-1.05,1.87-2.41,3.59-4.1,5.14-2.01,1.88-4.25,3.23-6.71,4.03-2.46,.8-5.59,1.2-9.4,1.2h-8.63l-2.39,12.3h-10.08l8.99-46.27h19.38"/></g></g></g></g></svg>