<?xml version="1.0" encoding="UTF-8"?><svg id="outline" xmlns="http://www.w3.org/2000/svg" xmlns:xlink="http://www.w3.org/1999/xlink" viewBox="0 0 192 192"><defs><style>.cls-1{fill:url(#Degradado_sin_nombre_16);isolation:isolate;opacity:.44;}.cls-2{fill:url(#Degradado_sin_nombre_18);}.cls-3{fill:url(#Degradado_sin_nombre_17);}</style><linearGradient id="Degradado_sin_nombre_18" x1="1975.64" y1="-1845.7" x2="2101.12" y2="-1953.65" gradientTransform="translate(-1082.49 -1026.12) scale(.56 -.57)" gradientUnits="userSpaceOnUse"><stop offset="0" stop-color="#5a9fd4"/><stop offset="1" stop-color="#306998"/></linearGradient><linearGradient id="Degradado_sin_nombre_17" x1="2149.63" y1="-2018.99" x2="2104.82" y2="-1955.6" gradientTransform="translate(-1082.49 -1026.12) scale(.56 -.57)" gradientUnits="userSpaceOnUse"><stop offset="0" stop-color="#ffd43b"/><stop offset="1" stop-color="#ffe873"/></linearGradient><radialGradient id="Degradado_sin_nombre_16" cx="-6550.28" cy="-2666.45" fx="-6550.28" fy="-2666.45" r="26.11" gradientTransform="translate(-3503.51 -1846.4) rotate(-90) scale(.31 -1.35)" gradientUnits="userSpaceOnUse"><stop offset="0" stop-color="#b8b8b8" stop-opacity=".5"/><stop offset="1" stop-color="#7f7f7f" stop-opacity="0"/></radialGradient></defs><path id="path1948" class="cls-2" d="M95.24,18.5c-5.28,.02-10.31,.47-14.75,1.26-13.06,2.31-15.43,7.14-15.43,16.04v11.76h30.86v3.92H53.48c-8.97,0-16.82,5.39-19.28,15.65-2.83,11.75-2.96,19.09,0,31.36,2.19,9.14,7.43,15.65,16.4,15.65h10.61v-14.1c0-10.19,8.81-19.17,19.28-19.17h30.82c8.58,0,15.43-7.06,15.43-15.68v-29.39c0-8.36-7.06-14.65-15.43-16.04-5.3-.88-10.8-1.28-16.08-1.26Zm-16.69,9.46c3.19,0,5.79,2.65,5.79,5.9,0,3.24-2.6,5.86-5.79,5.86-3.2,0-5.79-2.62-5.79-5.86s2.59-5.9,5.79-5.9Z"/><path id="path1950" class="cls-3" d="M130.59,51.48v13.7c0,10.62-9.01,19.57-19.28,19.57h-30.82c-8.44,0-15.43,7.23-15.43,15.68v29.39c0,8.36,7.27,13.28,15.43,15.68,9.77,2.87,19.14,3.39,30.82,0,7.77-2.25,15.43-6.78,15.43-15.68v-11.76h-30.82v-3.92h46.25c8.97,0,12.31-6.26,15.43-15.65,3.22-9.67,3.08-18.96,0-31.36-2.22-8.93-6.45-15.65-15.43-15.65h-11.58Zm-17.34,74.42c3.2,0,5.79,2.62,5.79,5.86s-2.59,5.9-5.79,5.9-5.79-2.65-5.79-5.9,2.6-5.86,5.79-5.86Z"/><ellipse id="path1894" class="cls-1" cx="96.27" cy="165.48" rx="41.36" ry="8.02"/></svg>