<?xml version="1.0" encoding="UTF-8"?><svg id="outline" xmlns="http://www.w3.org/2000/svg" viewBox="0 0 192 192"><defs><style>.cls-1{fill:#c00;fill-rule:evenodd;}</style></defs><path class="cls-1" d="M161.01,118.83v8.02h14.5c2.97,0,8.07-2.17,8.25-8.25v-3.1c0-5.19-4.26-8.25-8.25-8.25h-7.23v-3.72h14.32v-8.07h-13.74c-3.55,0-8.29,2.93-8.29,8.38v2.79c0,5.45,4.7,8.25,8.29,8.25,9.97,.04-2.39,0,6.83,0v3.9m-92.34-1.91s7.76-.66,7.76-10.68-9.4-10.95-9.4-10.95h-16.93v31.61h8.51v-7.62l7.36,7.62h12.59l-9.89-9.97Zm-3.28-6.47h-6.78v-7.23h6.83s1.91,.71,1.91,3.59-1.95,3.64-1.95,3.64h0Zm32.05-14.94h-8.64c-6.16,0-8.25,5.59-8.25,8.25v23.14h8.64v-5.54h8.11v5.54h8.38v-23.14c0-6.74-6.12-8.25-8.25-8.25h0Zm-.13,16.89h-8.16v-7.67s0-1.73,2.7-1.73h2.97c2.39,0,2.44,1.73,2.44,1.73v7.67h.04Zm12.32-16.89h9v31.39h-9v-31.39Zm12.68,0v31.39h21.06v-8.11h-12.1v-23.27h-8.95Z"/><path class="cls-1" d="M11.35,126.85H46.37s-6.69-30.54,15.47-42.91c4.83-2.35,20.21-11.13,45.39,7.49,.8-.66,1.55-1.2,1.55-1.2,0,0-23.05-23.01-48.72-20.44-12.9,1.15-28.77,12.9-38.08,28.42s-10.64,28.64-10.64,28.64Z"/><path class="cls-1" d="M11.35,126.85H46.37s-6.69-30.54,15.47-42.91c4.83-2.35,20.21-11.13,45.39,7.49,.8-.66,1.55-1.2,1.55-1.2,0,0-23.05-23.01-48.72-20.44-12.9,1.15-28.77,12.9-38.08,28.42s-10.64,28.64-10.64,28.64Z"/><path class="cls-1" d="M11.35,126.85H46.37s-6.69-30.54,15.47-42.91c4.83-2.35,20.21-11.13,45.39,7.49,.8-.66,1.55-1.2,1.55-1.2,0,0-23.05-23.01-48.72-20.44-12.94,1.15-28.81,12.9-38.12,28.42-9.31,15.52-10.59,28.64-10.59,28.64h0Zm72.97-54.57l.18-2.97c-.4-.22-1.51-.75-4.3-1.55l-.18,2.93c1.46,.49,2.88,1.02,4.3,1.6Z"/><path class="cls-1" d="M80.11,81.68l-.18,2.79c1.46,.04,2.93,.22,4.39,.53l.18-2.75c-1.51-.31-2.97-.49-4.39-.58Zm-16.4-13.83h.44l-.89-2.7c-1.37,0-2.79,.09-4.26,.27l.84,2.62c1.29-.13,2.57-.18,3.86-.18Zm2.13,16.31l1.02,3.06c1.29-.62,2.57-1.15,3.86-1.55l-.98-2.93c-1.51,.44-2.79,.93-3.9,1.42Zm-20.13-11.66l-1.99-3.06c-1.11,.58-2.26,1.2-3.46,1.91l2.04,3.1c1.15-.71,2.26-1.37,3.41-1.95h0Zm9.09,19.95l2.13,3.19c.75-1.11,1.64-2.13,2.62-3.15l-1.99-3.01c-1.02,.93-1.95,1.95-2.75,2.97h0Zm-6.43,14.27l3.59,2.84c.18-1.73,.49-3.46,.93-5.19l-3.19-2.53c-.58,1.64-.98,3.28-1.33,4.88h0Zm-19.42-21.06l-3.15-2.75c-1.15,1.11-2.26,2.22-3.28,3.32l3.41,2.93c.93-1.2,1.95-2.39,3.01-3.5Zm-13.39,19.82l-5.1-1.86c-.84,1.91-1.77,4.12-2.22,5.32l5.1,1.86c.58-1.51,1.51-3.68,2.22-5.32Zm32.14,12.5c.09,2.35,.31,4.26,.53,5.59l5.32,1.91c-.4-1.73-.8-3.68-1.06-5.76l-4.79-1.73Z"/></svg>