<?xml version="1.0" encoding="UTF-8"?><svg id="Capa_2" xmlns="http://www.w3.org/2000/svg" viewBox="0 0 192 192"><defs><style>.cls-1{fill:none;}.cls-2{fill:#61dafb;}</style></defs><g id="outline"><rect class="cls-1" width="192" height="192"/><rect class="cls-1" width="192" height="192"/></g><g id="icons"><circle class="cls-2" cx="96" cy="96" r="15.19"/><g><path class="cls-2" d="M96,128.08c-44.01,0-78.49-14.09-78.49-32.08S51.99,63.92,96,63.92s78.49,14.09,78.49,32.08-34.48,32.08-78.49,32.08Zm0-57.33c-42.23,0-71.67,13.31-71.67,25.26s29.44,25.25,71.67,25.25,71.67-13.31,71.67-25.25-29.44-25.26-71.67-25.26Z"/><path class="cls-2" d="M127.33,166c-6.95,0-15.36-3.82-24.5-11.24-12.1-9.83-24.39-25-34.62-42.72-22.01-38.12-27.04-75.02-11.46-84.02,7.95-4.59,19.44-1.31,32.41,9.22,12.09,9.83,24.39,25,34.61,42.72,10.23,17.72,17.23,35.95,19.7,51.34,2.64,16.48-.28,28.09-8.23,32.67-2.35,1.35-5,2.02-7.91,2.02ZM64.76,32.8c-1.74,0-3.29,.37-4.59,1.13-10.35,5.97-7.15,38.11,13.96,74.69,9.83,17.02,21.56,31.52,33.02,40.84,10.45,8.5,19.46,11.64,24.69,8.6,5.24-3.03,7.03-12.39,4.89-25.68-2.33-14.59-9.03-31.99-18.86-49.01h0c-9.83-17.02-21.55-31.52-33.01-40.84-7.84-6.37-14.86-9.73-20.1-9.73Z"/><path class="cls-2" d="M64.67,166c-2.91,0-5.57-.67-7.91-2.02-15.58-8.99-10.54-45.9,11.46-84.02,10.23-17.72,22.52-32.89,34.62-42.72,12.96-10.53,24.46-13.8,32.41-9.22,7.95,4.59,10.86,16.19,8.23,32.67-2.47,15.39-9.47,33.62-19.7,51.34h0c-10.23,17.72-22.52,32.89-34.61,42.72-9.13,7.42-17.54,11.24-24.5,11.24ZM127.24,32.8c-5.23,0-12.26,3.36-20.1,9.73-11.46,9.32-23.19,23.82-33.02,40.84-21.11,36.58-24.3,68.72-13.96,74.69,5.23,3.03,14.24-.11,24.69-8.6,11.46-9.32,23.19-23.82,33.01-40.84h0c9.83-17.02,16.52-34.42,18.86-49.01,2.13-13.29,.35-22.66-4.89-25.68-1.31-.76-2.85-1.13-4.59-1.13Z"/></g></g></svg>