<?xml version="1.0" encoding="UTF-8"?><svg id="Capa_2" xmlns="http://www.w3.org/2000/svg" viewBox="0 0 192 192"><defs><style>.cls-1{fill:none;}.cls-2{fill:#764abc;fill-rule:evenodd;}</style></defs><g id="outline"><rect class="cls-1" width="192" height="192"/><rect class="cls-1" width="192" height="192"/></g><g id="icons"><path class="cls-2" d="M124.4,123.73c5.43-.56,9.55-5.25,9.37-10.87-.19-5.62-4.87-10.12-10.49-10.12h-.37c-5.81,.19-10.3,5.06-10.12,10.87,.19,2.81,1.31,5.25,3,6.93-6.37,12.55-16.11,21.73-30.72,29.41-9.93,5.25-20.23,7.12-30.53,5.81-8.43-1.12-14.99-4.87-19.11-11.05-5.99-9.18-6.56-19.11-1.5-29.04,3.56-7.12,9.18-12.36,12.74-14.99-.75-2.44-1.87-6.56-2.44-9.55-27.16,19.67-24.35,46.27-16.11,58.82,6.18,9.37,18.73,15.17,32.59,15.17,3.75,0,7.49-.37,11.24-1.31,23.98-4.68,42.15-18.92,52.45-40.09h0Zm32.97-23.23c-14.24-16.67-35.22-25.85-59.2-25.85h-3c-1.69-3.37-5.25-5.62-9.18-5.62h-.37c-5.81,.19-10.3,5.06-10.12,10.87,.19,5.62,4.87,10.12,10.49,10.12h.37c4.12-.19,7.68-2.81,9.18-6.37h3.37c14.24,0,27.72,4.12,39.9,12.18,9.37,6.18,16.11,14.24,19.86,23.98,3.18,7.87,3,15.55-.37,22.11-5.24,9.93-14.05,15.36-25.66,15.36-7.49,0-14.61-2.25-18.36-3.93-2.06,1.87-5.81,4.87-8.43,6.74,8.06,3.75,16.3,5.81,24.17,5.81,17.98,0,31.28-9.93,36.34-19.86,5.43-10.87,5.06-29.6-8.99-45.52h0Zm-95.16,26.41c.19,5.62,4.87,10.12,10.49,10.12h.37c5.81-.19,10.3-5.06,10.12-10.87-.19-5.62-4.87-10.12-10.49-10.12h-.37c-.37,0-.94,0-1.31,.19-7.68-12.74-10.87-26.6-9.74-41.59,.75-11.24,4.5-20.98,11.05-29.04,5.43-6.93,15.92-10.3,23.04-10.49,19.86-.37,28.29,24.35,28.85,34.28,2.44,.56,6.56,1.87,9.37,2.81-2.25-30.35-20.98-46.08-38.96-46.08-16.86,0-32.41,12.18-38.59,30.16-8.62,23.98-3,47.02,7.49,65.19-.94,1.31-1.5,3.37-1.31,5.43h0Z"/></g></svg>