<?xml version="1.0" encoding="UTF-8"?><svg xmlns="http://www.w3.org/2000/svg" xmlns:xlink="http://www.w3.org/1999/xlink" viewBox="0 0 192 192"><defs><style>.cls-1{fill:none;}.cls-2{fill:url(#Degradado_sin_nombre_19);isolation:isolate;opacity:.3;}.cls-3{clip-path:url(#clippath);}.cls-4{mask:url(#mask);}.cls-5{clip-path:url(#clippath-1);}.cls-6{clip-path:url(#clippath-2);}.cls-7{fill:url(#Degradado_sin_nombre_20);}.cls-8{fill:url(#Degradado_sin_nombre_21);}.cls-9{fill:url(#Degradado_sin_nombre_22);}.cls-10{opacity:.5;}.cls-11{fill:url(#Degradado_sin_nombre_2);}.cls-12{fill:url(#Degradado_sin_nombre_3);}.cls-13{fill:url(#Degradado_sin_nombre_21-3);}.cls-14{fill:url(#Degradado_sin_nombre_21-2);}</style><linearGradient id="Degradado_sin_nombre_21" x1="80.2" y1="-1183.37" x2="122.02" y2="-1193.15" gradientTransform="translate(0 -1082.32) scale(1 -1)" gradientUnits="userSpaceOnUse"><stop offset="0" stop-color="#ff6533"/><stop offset=".16" stop-color="#ff5633"/><stop offset=".43" stop-color="#ff4333"/><stop offset=".71" stop-color="#ff3733"/><stop offset="1" stop-color="#f33"/></linearGradient><linearGradient id="Degradado_sin_nombre_22" x1="73.65" y1="-1169.51" x2="148.61" y2="-1227.63" gradientTransform="translate(0 -1082.32) scale(1 -1)" gradientUnits="userSpaceOnUse"><stop offset="0" stop-color="#bf3338"/><stop offset="1" stop-color="#f33"/></linearGradient><linearGradient id="Degradado_sin_nombre_21-2" x1="76.1" y1="-1180.95" x2="86.97" y2="-1192.36" xlink:href="#Degradado_sin_nombre_21"/><linearGradient id="Degradado_sin_nombre_21-3" x1="95.86" y1="-1200.58" x2="92.6" y2="-1153.87" xlink:href="#Degradado_sin_nombre_21"/><linearGradient id="Degradado_sin_nombre_20" x1="81.74" y1="-1180.15" x2="97.17" y2="-1190.64" gradientTransform="translate(0 -1082.32) scale(1 -1)" gradientUnits="userSpaceOnUse"><stop offset="0" stop-color="#fbb040"/><stop offset="1" stop-color="#fb8840"/></linearGradient><linearGradient id="Degradado_sin_nombre_19" x1="97.55" y1="-1120.82" x2="81.79" y2="-1294.09" gradientTransform="translate(0 -1082.32) scale(1 -1)" gradientUnits="userSpaceOnUse"><stop offset="0" stop-color="#fff"/><stop offset="1" stop-color="#fff" stop-opacity="0"/></linearGradient><clipPath id="clippath"><rect class="cls-1" x="-212" y="-214.22" width="192" height="192"/></clipPath><clipPath id="clippath-1"><rect class="cls-1" x="-212" y="-214.22" width="192" height="192"/></clipPath><clipPath id="clippath-2"><rect class="cls-1" x="-192" y="-194.22" width="152" height="152" rx="12" ry="12"/></clipPath><radialGradient id="Degradado_sin_nombre_3" cx="-1585.33" cy="-924.51" fx="-1585.33" fy="-924.51" r="1" gradientTransform="translate(189061.3 324177.4) rotate(90) scale(204.62 -204.62)" gradientUnits="userSpaceOnUse"><stop offset="0" stop-color="#1a1a1a"/><stop offset="1" stop-color="#000"/></radialGradient><mask id="mask" x="-268" y="-270.22" width="304" height="304" maskUnits="userSpaceOnUse"><rect class="cls-12" x="-223.48" y="-225.7" width="214.96" height="214.96" transform="translate(49.62 -116.65) rotate(-45)"/></mask><radialGradient id="Degradado_sin_nombre_2" cx="-1585.33" cy="-924.51" fx="-1585.33" fy="-924.51" r="1" gradientTransform="translate(189061.3 324177.4) rotate(90) scale(204.62 -204.62)" gradientUnits="userSpaceOnUse"><stop offset="0" stop-color="#fff"/><stop offset="1" stop-color="#fff"/></radialGradient></defs><g id="outline"><g><path class="cls-8" d="M155.3,69.53c0-9.13-2.39-17.68-6.6-25.09-11.16-11.49-35.44-14.15-41.47-.05-6.19,14.45,10.4,30.53,17.65,29.25,9.23-1.63-1.63-22.81-1.63-22.81,14.12,26.62,10.86,18.47-14.67,42.91-25.53,24.44-51.6,76.02-55.4,78.19-.16,.11-.33,.19-.52,.27h100.13c1.77,0,2.91-1.87,2.12-3.45l-26.18-51.82c-.57-1.11-.16-2.5,.92-3.12,15.32-8.8,25.64-25.31,25.64-44.27h0Z"/><path class="cls-9" d="M155.3,69.53c0-9.13-2.39-17.68-6.6-25.09-11.16-11.49-35.44-14.15-41.47-.05-6.19,14.45,10.4,30.53,17.65,29.25,9.23-1.63-1.63-22.81-1.63-22.81,14.12,26.62,10.86,18.47-14.67,42.91-25.53,24.44-51.6,76.02-55.4,78.19-.16,.11-.33,.19-.52,.27h100.13c1.77,0,2.91-1.87,2.12-3.45l-26.18-51.82c-.57-1.11-.16-2.5,.92-3.12,15.32-8.8,25.64-25.31,25.64-44.27h0Z"/><path class="cls-14" d="M53.19,171.92c3.8-2.17,29.87-53.77,55.4-78.22,25.53-24.44,28.79-16.3,14.67-42.91,0,0-54.05,75.77-73.6,113.25"/><path class="cls-13" d="M60.79,104.02C97.29,36.91,102.07,30.15,121.08,30.15c9.99,0,20.07,4.51,26.59,12.52-8.88-14.31-24.61-23.9-42.61-24.17H43.06c-1.3,0-2.36,1.06-2.36,2.36v124.98c3.69-9.53,9.97-23.17,20.1-41.82h0Z"/><path class="cls-7" d="M108.59,93.7c-25.53,24.44-51.6,76.04-55.4,78.22-3.8,2.17-10.18,2.44-13.58-1.36-3.61-4.05-9.23-10.59,21.18-66.54C97.29,36.91,102.07,30.15,121.08,30.15c9.99,0,20.07,4.51,26.59,12.52,.35,.57,.71,1.17,1.06,1.77-11.16-11.49-35.44-14.15-41.47-.05-6.19,14.45,10.4,30.53,17.65,29.25,9.23-1.63-1.63-22.81-1.63-22.81,14.1,26.59,10.84,18.44-14.69,42.88h0Z"/><path class="cls-2" d="M63.78,107.01C100.28,39.9,105.06,33.14,124.07,33.14c8.23,0,16.51,3.07,22.81,8.61-6.52-7.44-16.19-11.6-25.8-11.6-19.01,0-23.79,6.76-60.29,73.87-30.42,55.95-24.8,62.49-21.18,66.54,.52,.57,1.11,1.06,1.74,1.47-3.18-4.62-4.59-15.34,22.43-65.02Z"/></g></g><g id="icons"><g class="cls-10"><g class="cls-3"><g class="cls-5"><g class="cls-6"><g class="cls-4"><rect class="cls-11" x="-223.48" y="-225.7" width="214.96" height="214.96" transform="translate(49.62 -116.65) rotate(-45)"/></g></g></g></g></g></g></svg>