<?xml version="1.0" encoding="UTF-8"?><svg id="icons" xmlns="http://www.w3.org/2000/svg" xmlns:xlink="http://www.w3.org/1999/xlink" viewBox="0 0 192 192"><defs><style>.cls-1{fill:none;}.cls-2{clip-path:url(#clippath);}.cls-3{mask:url(#mask);}.cls-4{clip-path:url(#clippath-1);}.cls-5{clip-path:url(#clippath-2);}.cls-6{fill:url(#Degradado_sin_nombre_27);}.cls-6,.cls-7,.cls-8,.cls-9,.cls-10,.cls-11,.cls-12,.cls-13,.cls-14,.cls-15,.cls-16,.cls-17,.cls-18,.cls-19,.cls-20,.cls-21,.cls-22,.cls-23{fill-rule:evenodd;}.cls-7{fill:url(#Degradado_sin_nombre_28);}.cls-8{fill:url(#Degradado_sin_nombre_25);}.cls-9{fill:url(#Degradado_sin_nombre_26);}.cls-10{fill:url(#Degradado_sin_nombre_23);}.cls-11{fill:url(#Degradado_sin_nombre_24);}.cls-12{fill:url(#Degradado_sin_nombre_29);}.cls-13{fill:url(#Degradado_sin_nombre_34);}.cls-14{fill:url(#Degradado_sin_nombre_35);}.cls-15{fill:url(#Degradado_sin_nombre_36);}.cls-16{fill:url(#Degradado_sin_nombre_33);}.cls-17{fill:url(#Degradado_sin_nombre_31);}.cls-18{fill:url(#Degradado_sin_nombre_32);}.cls-19{fill:url(#Degradado_sin_nombre_30);}.cls-20{fill:url(#Degradado_sin_nombre_37);}.cls-21{fill:url(#Degradado_sin_nombre_36-2);}.cls-24{opacity:.5;}.cls-22{fill:#9e1209;}.cls-23{fill:#fff;}.cls-25{fill:url(#Degradado_sin_nombre_2);}.cls-26{fill:url(#Degradado_sin_nombre_3);}</style><linearGradient id="Degradado_sin_nombre_37" x1="153.54" y1="-1267.89" x2="121.48" y2="-1211.28" gradientTransform="translate(0 -1082.32) scale(1 -1)" gradientUnits="userSpaceOnUse"><stop offset="0" stop-color="#fb7655"/><stop offset="0" stop-color="#fb7655"/><stop offset=".41" stop-color="#e42b1e"/><stop offset=".99" stop-color="#900"/><stop offset="1" stop-color="#900"/></linearGradient><linearGradient id="Degradado_sin_nombre_36" x1="169.52" y1="-1220.33" x2="128.19" y2="-1192.6" gradientTransform="translate(0 -1082.32) scale(1 -1)" gradientUnits="userSpaceOnUse"><stop offset="0" stop-color="#871101"/><stop offset="0" stop-color="#871101"/><stop offset=".99" stop-color="#911209"/><stop offset="1" stop-color="#911209"/></linearGradient><linearGradient id="Degradado_sin_nombre_36-2" x1="136.45" y1="-1269.61" x2="95.13" y2="-1241.87" xlink:href="#Degradado_sin_nombre_36"/><linearGradient id="Degradado_sin_nombre_35" x1="49.69" y1="-1200.26" x2="56.09" y2="-1241.89" gradientTransform="translate(0 -1082.32) scale(1 -1)" gradientUnits="userSpaceOnUse"><stop offset="0" stop-color="#fff"/><stop offset="0" stop-color="#fff"/><stop offset=".23" stop-color="#e57252"/><stop offset=".46" stop-color="#de3b20"/><stop offset=".99" stop-color="#a60003"/><stop offset="1" stop-color="#a60003"/></linearGradient><linearGradient id="Degradado_sin_nombre_34" x1="93.75" y1="-1161.38" x2="96.11" y2="-1203.87" gradientTransform="translate(0 -1082.32) scale(1 -1)" gradientUnits="userSpaceOnUse"><stop offset="0" stop-color="#fff"/><stop offset="0" stop-color="#fff"/><stop offset=".23" stop-color="#e4714e"/><stop offset=".56" stop-color="#be1a0d"/><stop offset=".99" stop-color="#a80d00"/><stop offset="1" stop-color="#a80d00"/></linearGradient><linearGradient id="Degradado_sin_nombre_33" x1="132.85" y1="-1122.11" x2="139.92" y2="-1152.56" gradientTransform="translate(0 -1082.32) scale(1 -1)" gradientUnits="userSpaceOnUse"><stop offset="0" stop-color="#fff"/><stop offset="0" stop-color="#fff"/><stop offset=".18" stop-color="#e46342"/><stop offset=".4" stop-color="#c82410"/><stop offset=".99" stop-color="#a80d00"/><stop offset="1" stop-color="#a80d00"/></linearGradient><linearGradient id="Degradado_sin_nombre_32" x1="111.28" y1="-1111.38" x2="141.73" y2="-1096.16" gradientTransform="translate(0 -1082.32) scale(1 -1)" gradientUnits="userSpaceOnUse"><stop offset="0" stop-color="#fff"/><stop offset="0" stop-color="#fff"/><stop offset=".54" stop-color="#c81f11"/><stop offset=".99" stop-color="#bf0905"/><stop offset="1" stop-color="#bf0905"/></linearGradient><linearGradient id="Degradado_sin_nombre_31" x1="22.99" y1="-1189.64" x2="25.5" y2="-1214.74" gradientTransform="translate(0 -1082.32) scale(1 -1)" gradientUnits="userSpaceOnUse"><stop offset="0" stop-color="#fff"/><stop offset="0" stop-color="#fff"/><stop offset=".31" stop-color="#de4024"/><stop offset=".99" stop-color="#bf190b"/><stop offset="1" stop-color="#bf190b"/></linearGradient><linearGradient id="Degradado_sin_nombre_30" x1="5.76" y1="-1221.52" x2="123.58" y2="-1100.37" gradientTransform="translate(0 -1082.32) scale(1 -1)" gradientUnits="userSpaceOnUse"><stop offset="0" stop-color="#bd0012"/><stop offset="0" stop-color="#bd0012"/><stop offset=".07" stop-color="#fff"/><stop offset=".17" stop-color="#fff"/><stop offset=".27" stop-color="#c82f1c"/><stop offset=".33" stop-color="#820c01"/><stop offset=".46" stop-color="#a31601"/><stop offset=".72" stop-color="#b31301"/><stop offset=".99" stop-color="#e82609"/><stop offset="1" stop-color="#e82609"/></linearGradient><linearGradient id="Degradado_sin_nombre_29" x1="96.01" y1="-1233.74" x2="60.52" y2="-1224.98" gradientTransform="translate(0 -1082.32) scale(1 -1)" gradientUnits="userSpaceOnUse"><stop offset="0" stop-color="#8c0c01"/><stop offset="0" stop-color="#8c0c01"/><stop offset=".54" stop-color="#990c00"/><stop offset=".99" stop-color="#a80d0e"/><stop offset="1" stop-color="#a80d0e"/></linearGradient><linearGradient id="Degradado_sin_nombre_28" x1="156.96" y1="-1191.15" x2="125.43" y2="-1162.89" gradientTransform="translate(0 -1082.32) scale(1 -1)" gradientUnits="userSpaceOnUse"><stop offset="0" stop-color="#7e110b"/><stop offset="0" stop-color="#7e110b"/><stop offset=".99" stop-color="#9e0c00"/><stop offset="1" stop-color="#9e0c00"/></linearGradient><linearGradient id="Degradado_sin_nombre_27" x1="168.54" y1="-1139.3" x2="152.84" y2="-1122.51" gradientTransform="translate(0 -1082.32) scale(1 -1)" gradientUnits="userSpaceOnUse"><stop offset="0" stop-color="#79130d"/><stop offset="0" stop-color="#79130d"/><stop offset=".99" stop-color="#9e120b"/><stop offset="1" stop-color="#9e120b"/></linearGradient><radialGradient id="Degradado_sin_nombre_26" cx="163.34" cy="-1163.77" fx="163.34" fy="-1163.77" r="42.14" gradientTransform="translate(-19.38 -985.68) scale(.92 -.92)" gradientUnits="userSpaceOnUse"><stop offset="0" stop-color="#a80d00"/><stop offset="0" stop-color="#a80d00"/><stop offset=".99" stop-color="#7e0e08"/><stop offset="1" stop-color="#7e0e08"/></radialGradient><radialGradient id="Degradado_sin_nombre_25" cx="104.97" cy="-1219.31" fx="104.97" fy="-1219.31" r="56.03" gradientTransform="translate(-19.38 -985.68) scale(.92 -.92)" gradientUnits="userSpaceOnUse"><stop offset="0" stop-color="#a30c00"/><stop offset="0" stop-color="#a30c00"/><stop offset=".99" stop-color="#800e08"/><stop offset="1" stop-color="#800e08"/></radialGradient><linearGradient id="Degradado_sin_nombre_24" x1="40.46" y1="-1253.92" x2="27.66" y2="-1210.5" gradientTransform="translate(0 -1082.32) scale(1 -1)" gradientUnits="userSpaceOnUse"><stop offset="0" stop-color="#8b2114"/><stop offset="0" stop-color="#8b2114"/><stop offset=".43" stop-color="#9e100a"/><stop offset=".99" stop-color="#b3100c"/><stop offset="1" stop-color="#b3100c"/></linearGradient><linearGradient id="Degradado_sin_nombre_23" x1="138.64" y1="-1110.04" x2="167.33" y2="-1122.71" gradientTransform="translate(0 -1082.32) scale(1 -1)" gradientUnits="userSpaceOnUse"><stop offset="0" stop-color="#b31000"/><stop offset="0" stop-color="#b31000"/><stop offset=".44" stop-color="#910f08"/><stop offset=".99" stop-color="#791c12"/><stop offset="1" stop-color="#791c12"/></linearGradient><clipPath id="clippath"><rect class="cls-1" x="0" y="-214.22" width="192" height="192"/></clipPath><clipPath id="clippath-1"><rect class="cls-1" x="0" y="-214.22" width="192" height="192"/></clipPath><clipPath id="clippath-2"><rect class="cls-1" x="20" y="-194.22" width="152" height="152" rx="12" ry="12"/></clipPath><radialGradient id="Degradado_sin_nombre_3" cx="-1373.33" cy="-924.51" fx="-1373.33" fy="-924.51" r="1" gradientTransform="translate(189273.3 280796.93) rotate(90) scale(204.62 -204.62)" gradientUnits="userSpaceOnUse"><stop offset="0" stop-color="#1a1a1a"/><stop offset="1" stop-color="#000"/></radialGradient><mask id="mask" x="-56" y="-270.22" width="304" height="304" maskUnits="userSpaceOnUse"><rect class="cls-26" x="-11.48" y="-225.7" width="214.96" height="214.96" transform="translate(111.72 33.26) rotate(-45)"/></mask><radialGradient id="Degradado_sin_nombre_2" cx="-1373.33" cy="-924.51" fx="-1373.33" fy="-924.51" r="1" gradientTransform="translate(189273.3 280796.93) rotate(90) scale(204.62 -204.62)" gradientUnits="userSpaceOnUse"><stop offset="0" stop-color="#fff"/><stop offset="1" stop-color="#fff"/></radialGradient></defs><g><polygon id="polygon3282" class="cls-20" points="137.76 120.26 50.98 171.79 163.35 164.16 172 50.86 137.76 120.26"/><polygon id="polygon3293" class="cls-15" points="163.53 164.09 153.87 97.43 127.56 132.16 163.53 164.09"/><polygon id="polygon3304" class="cls-21" points="163.66 164.09 92.9 158.53 51.35 171.64 163.66 164.09"/><polygon id="polygon3319" class="cls-14" points="51.45 171.66 69.13 113.75 30.23 122.07 51.45 171.66"/><polygon id="polygon3334" class="cls-13" points="127.56 132.36 111.29 68.65 64.75 112.28 127.56 132.36"/><polygon id="polygon3349" class="cls-16" points="168.31 69.55 124.31 33.61 112.06 73.22 168.31 69.55"/><polygon id="polygon3362" class="cls-18" points="147.73 20.8 121.86 35.1 105.53 20.61 147.73 20.8"/><polygon id="polygon3375" class="cls-17" points="20 141.49 30.84 121.72 22.07 98.17 20 141.49"/><path id="path3377" class="cls-23" d="M21.49,97.43l8.82,25.03,38.34-8.6,43.77-40.68,12.35-39.23-19.45-13.73-33.07,12.37c-10.42,9.69-30.63,28.86-31.36,29.22-.72,.37-13.35,24.23-19.4,35.62Z"/><path id="path3400" class="cls-19" d="M52.47,52.47c22.58-22.39,51.68-35.61,62.85-24.34,11.16,11.27-.68,38.66-23.25,61.04-22.58,22.38-51.32,36.33-62.49,25.06-11.17-11.26,.31-39.38,22.88-61.76Z"/><path id="path3413" class="cls-12" d="M51.45,171.64l17.54-58.09,58.24,18.71c-21.06,19.75-44.48,36.44-75.78,39.38Z"/><path id="path3424" class="cls-7" d="M112.49,73.06l14.95,59.23c17.59-18.5,33.38-38.38,41.11-62.98,0,0-56.06,3.75-56.06,3.75Z"/><path id="path3435" class="cls-6" d="M168.4,69.61c5.98-18.06,7.36-43.97-20.85-48.78l-23.15,12.79,44.01,35.99Z"/><path id="path3437" class="cls-22" d="M20,141.23c.83,29.81,22.33,30.25,31.49,30.51l-21.16-49.41-10.33,18.9Z"/><path id="path3448" class="cls-9" d="M112.57,73.15c13.52,8.31,40.76,24.99,41.31,25.3,.86,.48,11.75-18.36,14.22-29.01,0,0-55.53,3.71-55.53,3.71Z"/><path id="path3459" class="cls-8" d="M68.97,113.55l23.44,45.23c13.86-7.52,24.72-16.68,34.66-26.49l-58.11-18.74Z"/><path id="path3472" class="cls-11" d="M30.24,122.39l-3.32,39.56c6.27,8.56,14.89,9.31,23.94,8.64-6.54-16.29-19.62-48.85-20.61-48.19Z"/><path id="path3485" class="cls-10" d="M124.26,33.72l46.58,6.54c-2.49-10.53-10.12-17.33-23.13-19.46l-23.44,12.92Z"/></g><g class="cls-24"><g class="cls-2"><g class="cls-4"><g class="cls-5"><g class="cls-3"><rect class="cls-25" x="-11.48" y="-225.7" width="214.96" height="214.96" transform="translate(111.72 33.26) rotate(-45)"/></g></g></g></g></g></svg>