<?xml version="1.0" encoding="UTF-8"?><svg id="Capa_2" xmlns="http://www.w3.org/2000/svg" viewBox="0 0 192 192"><defs><style>.cls-1{fill:none;}.cls-2{fill:#cf649a;}</style></defs><g id="outline"><rect class="cls-1" width="192" height="192"/></g><g id="icons"><path class="cls-2" d="M159.33,105.76c-6.14,.03-11.45,1.51-15.91,3.7-1.65-3.26-3.29-6.1-3.57-8.23-.31-2.47-.69-3.98-.31-6.92s2.09-7.13,2.09-7.47c-.03-.31-.38-1.82-3.91-1.85-3.53-.03-6.58,.69-6.92,1.61s-1.03,3.05-1.47,5.24c-.62,3.22-7.06,14.64-10.73,20.64-1.2-2.33-2.23-4.39-2.43-6.03-.31-2.47-.69-3.98-.31-6.92s2.09-7.13,2.09-7.47c-.03-.31-.38-1.82-3.91-1.85-3.53-.03-6.58,.69-6.92,1.61s-.72,3.12-1.47,5.24c-.72,2.13-9.29,21.19-11.52,26.16-1.13,2.54-2.13,4.56-2.85,5.93s-.03,.1-.1,.24c-.62,1.17-.96,1.82-.96,1.82v.03c-.48,.86-.99,1.68-1.23,1.68-.17,0-.51-2.3,.07-5.45,1.27-6.62,4.35-16.93,4.32-17.31,0-.17,.58-1.99-1.99-2.91-2.5-.93-3.39,.62-3.6,.62s-.38,.55-.38,.55c0,0,2.78-11.62-5.31-11.62-5.07,0-12.07,5.52-15.53,10.56-2.19,1.2-6.86,3.74-11.79,6.44-1.89,1.03-3.84,2.13-5.69,3.12l-.38-.41c-9.8-10.46-27.94-17.86-27.18-31.91,.27-5.11,2.06-18.58,34.83-34.9,26.84-13.37,48.34-9.7,52.07-1.54,5.31,11.66-11.48,33.32-39.39,36.44-10.63,1.2-16.21-2.91-17.62-4.46-1.47-1.61-1.68-1.68-2.23-1.37-.89,.48-.34,1.92,0,2.78,.82,2.16,4.25,6,10.08,7.92,5.11,1.68,17.59,2.61,32.67-3.22,16.9-6.55,30.1-24.72,26.22-39.9-3.94-15.46-29.58-20.53-53.82-11.93-14.43,5.14-30.06,13.16-41.31,23.69-13.37,12.48-15.49,23.38-14.6,27.9,3.12,16.15,25.37,26.67,34.28,34.45-.45,.24-.86,.48-1.23,.69-4.46,2.19-21.43,11.07-25.68,20.47-4.8,10.63,.75,18.27,4.46,19.3,11.45,3.19,23.17-2.54,29.52-11.96,6.31-9.43,5.55-21.67,2.64-27.25l-.1-.21,3.5-2.06c2.26-1.34,4.49-2.57,6.44-3.63-1.1,2.98-1.89,6.51-2.3,11.66-.48,6.03,1.99,13.85,5.24,16.93,1.44,1.34,3.15,1.37,4.22,1.37,3.77,0,5.48-3.12,7.37-6.86,2.33-4.56,4.39-9.84,4.39-9.84,0,0-2.57,14.29,4.46,14.29,2.57,0,5.14-3.33,6.31-5.04v.03s.07-.1,.21-.34c.27-.41,.41-.65,.41-.65v-.07c1.03-1.78,3.33-5.86,6.75-12.62,4.42-8.71,8.67-19.61,8.67-19.61,0,0,.41,2.67,1.68,7.06,.75,2.61,2.4,5.45,3.67,8.23-1.03,1.44-1.65,2.26-1.65,2.26l.03,.03c-.82,1.1-1.75,2.26-2.71,3.43-3.5,4.18-7.68,8.95-8.23,10.32-.65,1.61-.51,2.81,.75,3.77,.93,.69,2.57,.82,4.32,.69,3.15-.21,5.35-.99,6.44-1.47,1.71-.62,3.67-1.54,5.55-2.91,3.43-2.54,5.52-6.14,5.31-10.94-.1-2.64-.96-5.24-2.02-7.71,.31-.45,.62-.89,.93-1.37,5.42-7.92,9.6-16.63,9.6-16.63,0,0,.41,2.67,1.68,7.06,.65,2.23,1.95,4.66,3.12,7.06-5.07,4.15-8.26,8.95-9.36,12.1-2.02,5.83-.45,8.47,2.54,9.08,1.34,.27,3.26-.34,4.7-.96,1.78-.58,3.94-1.58,5.93-3.05,3.43-2.54,6.72-6.07,6.55-10.83-.1-2.19-.69-4.35-1.47-6.41,4.32-1.78,9.91-2.81,17-1.95,15.25,1.78,18.27,11.31,17.69,15.29-.58,3.98-3.77,6.17-4.83,6.86-1.06,.65-1.41,.89-1.3,1.37,.14,.72,.62,.69,1.54,.55,1.27-.21,8.02-3.26,8.3-10.59,.41-9.43-8.54-19.71-24.41-19.61h0Zm-117.65,39.66c-5.04,5.52-12.14,7.61-15.15,5.83-3.26-1.89-1.99-10.01,4.22-15.87,3.77-3.57,8.67-6.86,11.9-8.88,.72-.45,1.82-1.1,3.12-1.89,.21-.14,.34-.21,.34-.21,.24-.14,.51-.31,.79-.48,2.3,8.36,.1,15.7-5.21,21.49h0Zm36.85-25.06c-1.75,4.29-5.45,15.29-7.68,14.67-1.92-.51-3.09-8.84-.38-17.07,1.37-4.15,4.29-9.08,6-11,2.78-3.09,5.79-4.11,6.55-2.85,.89,1.65-3.39,13.58-4.49,16.25Zm30.41,14.53c-.75,.38-1.44,.65-1.75,.45-.24-.14,.31-.65,.31-.65,0,0,3.81-4.08,5.31-5.96,.86-1.1,1.89-2.37,2.98-3.81v.41c0,4.94-4.73,8.23-6.86,9.56Zm23.45-5.35c-.55-.41-.48-1.68,1.37-5.66,.72-1.58,2.37-4.22,5.21-6.72,.34,1.03,.55,2.02,.51,2.95-.03,6.17-4.42,8.47-7.1,9.43Z"/></g></svg>