<?xml version="1.0" encoding="UTF-8"?><svg id="icons" xmlns="http://www.w3.org/2000/svg" xmlns:xlink="http://www.w3.org/1999/xlink" viewBox="0 0 192 192"><defs><style>.cls-1{fill:none;}.cls-2{clip-path:url(#clippath);}.cls-3{mask:url(#mask);}.cls-4{fill:#fff;}.cls-5{fill:#95bf47;}.cls-6{fill:#5e8e3e;}.cls-7{clip-path:url(#clippath-1);}.cls-8{clip-path:url(#clippath-2);}.cls-9{opacity:.5;}.cls-10{fill:url(#Degradado_sin_nombre_2);}.cls-11{fill:url(#Degradado_sin_nombre_3);}</style><clipPath id="clippath"><rect class="cls-1" x="212" y="-214.22" width="192" height="192"/></clipPath><clipPath id="clippath-1"><rect class="cls-1" x="212" y="-214.22" width="192" height="192"/></clipPath><clipPath id="clippath-2"><rect class="cls-1" x="232" y="-194.22" width="152" height="152" rx="12" ry="12"/></clipPath><radialGradient id="Degradado_sin_nombre_3" cx="-1161.33" cy="-924.51" fx="-1161.33" fy="-924.51" r="1" gradientTransform="translate(189485.3 237416.45) rotate(90) scale(204.62 -204.62)" gradientUnits="userSpaceOnUse"><stop offset="0" stop-color="#1a1a1a"/><stop offset="1" stop-color="#000"/></radialGradient><mask id="mask" x="156" y="-270.22" width="304" height="304" maskUnits="userSpaceOnUse"><rect class="cls-11" x="200.52" y="-225.7" width="214.96" height="214.96" transform="translate(173.81 183.16) rotate(-45)"/></mask><radialGradient id="Degradado_sin_nombre_2" cx="-1161.33" cy="-924.51" fx="-1161.33" fy="-924.51" r="1" gradientTransform="translate(189485.3 237416.45) rotate(90) scale(204.62 -204.62)" gradientUnits="userSpaceOnUse"><stop offset="0" stop-color="#fff"/><stop offset="1" stop-color="#fff"/></radialGradient></defs><g><path class="cls-5" d="M147.41,48.35c-.11-.78-.79-1.22-1.36-1.26-.56-.05-11.6-.21-11.6-.21,0,0-9.23-8.96-10.14-9.87-.91-.91-2.69-.64-3.38-.43,0,0-1.73,.54-4.64,1.44-.49-1.57-1.2-3.51-2.22-5.45-3.29-6.27-8.1-9.59-13.91-9.59h-.02c-.4,0-.8,.04-1.21,.07-.17-.21-.34-.41-.52-.61-2.53-2.71-5.78-4.03-9.67-3.91-7.51,.22-14.99,5.64-21.05,15.27-4.27,6.78-7.51,15.29-8.43,21.88-8.62,2.67-14.65,4.54-14.78,4.58-4.35,1.37-4.49,1.5-5.06,5.6-.42,3.1-11.81,91.15-11.81,91.15l95.43,16.5,41.36-10.28s-16.87-114.09-16.98-114.87Zm-35.89-8.87c-2.2,.68-4.7,1.45-7.41,2.29-.06-3.8-.51-9.09-2.28-13.66,5.7,1.08,8.5,7.53,9.68,11.37Zm-12.4,3.84c-5,1.55-10.46,3.24-15.93,4.93,1.54-5.9,4.46-11.77,8.05-15.61,1.33-1.43,3.2-3.03,5.41-3.94,2.08,4.33,2.53,10.47,2.48,14.62Zm-10.23-19.82c1.76-.04,3.25,.35,4.52,1.18-2.03,1.05-3.99,2.57-5.83,4.54-4.77,5.12-8.42,13.06-9.88,20.72-4.55,1.41-8.99,2.79-13.09,4.05,2.58-12.06,12.69-30.16,24.28-30.5Z"/><path class="cls-6" d="M146.05,47.09c-.56-.05-11.6-.21-11.6-.21,0,0-9.23-8.96-10.14-9.87-.34-.34-.8-.52-1.28-.59V173.5s41.36-10.28,41.36-10.28c0,0-16.87-114.08-16.98-114.87-.11-.78-.8-1.22-1.36-1.26Z"/><path class="cls-4" d="M100.11,68.35l-4.8,17.97s-5.36-2.44-11.71-2.04c-9.31,.59-9.41,6.46-9.32,7.94,.51,8.04,21.65,9.79,22.84,28.62,.93,14.81-7.86,24.94-20.52,25.74-15.2,.96-23.57-8.01-23.57-8.01l3.22-13.7s8.42,6.36,15.17,5.93c4.4-.28,5.98-3.86,5.82-6.39-.66-10.48-17.88-9.86-18.97-27.09-.92-14.5,8.6-29.19,29.61-30.51,8.09-.52,12.23,1.54,12.23,1.54Z"/></g><g class="cls-9"><g class="cls-2"><g class="cls-7"><g class="cls-8"><g class="cls-3"><rect class="cls-10" x="200.52" y="-225.7" width="214.96" height="214.96" transform="translate(173.81 183.16) rotate(-45)"/></g></g></g></g></g></svg>