<?xml version="1.0" encoding="UTF-8"?><svg id="icons" xmlns="http://www.w3.org/2000/svg" viewBox="0 0 192 192"><defs><style>.cls-1,.cls-2{fill:#635bff;}.cls-2{fill-rule:evenodd;}</style></defs><path class="cls-2" d="M183.75,97.22c0-12.48-6.04-22.33-17.6-22.33s-18.62,9.85-18.62,22.23c0,14.67,8.29,22.08,20.18,22.08,5.8,0,10.19-1.32,13.5-3.17v-9.75c-3.31,1.66-7.12,2.68-11.94,2.68s-8.92-1.66-9.46-7.41h23.84c0-.63,.1-3.17,.1-4.34Zm-24.08-4.63c0-5.51,3.36-7.8,6.44-7.8s6.14,2.29,6.14,7.8h-12.58Z"/><path class="cls-2" d="M128.71,74.89c-4.78,0-7.85,2.24-9.56,3.8l-.63-3.02h-10.73v56.84l12.19-2.58,.05-13.8c1.76,1.27,4.34,3.07,8.63,3.07,8.73,0,16.67-7.02,16.67-22.47-.05-14.14-8.09-21.84-16.62-21.84Zm-2.92,33.59c-2.88,0-4.58-1.02-5.75-2.29l-.05-18.09c1.27-1.41,3.02-2.39,5.8-2.39,4.44,0,7.51,4.97,7.51,11.36s-3.02,11.41-7.51,11.41Z"/><polygon class="cls-2" points="91.03 72.01 103.26 69.38 103.26 59.49 91.03 62.07 91.03 72.01"/><rect class="cls-1" x="91.03" y="75.72" width="12.24" height="42.66"/><path class="cls-2" d="M77.91,79.33l-.78-3.61h-10.53v42.66h12.19v-28.91c2.88-3.75,7.75-3.07,9.26-2.53v-11.21c-1.56-.59-7.26-1.66-10.14,3.61Z"/><path class="cls-2" d="M53.54,65.14l-11.9,2.54-.05,39.05c0,7.22,5.41,12.53,12.63,12.53,4,0,6.92-.73,8.53-1.61v-9.9c-1.56,.63-9.26,2.88-9.26-4.34v-17.31h9.26v-10.38h-9.26l.05-10.58Z"/><path class="cls-2" d="M20.58,88.1c0-1.9,1.56-2.63,4.14-2.63,3.7,0,8.38,1.12,12.09,3.12v-11.46c-4.05-1.61-8.04-2.24-12.09-2.24-9.9,0-16.48,5.17-16.48,13.8,0,13.45,18.52,11.31,18.52,17.11,0,2.24-1.95,2.97-4.68,2.97-4.05,0-9.21-1.66-13.31-3.9v11.6c4.53,1.95,9.12,2.78,13.31,2.78,10.14,0,17.11-5.02,17.11-13.75-.05-14.53-18.62-11.94-18.62-17.4Z"/></svg>