<?xml version="1.0" encoding="UTF-8"?><svg id="icons" xmlns="http://www.w3.org/2000/svg" viewBox="0 0 192 192"><defs><style>.cls-1{fill:#fff;}.cls-2{fill:#1a171b;}</style></defs><circle class="cls-2" cx="96" cy="96" r="77.5"/><path class="cls-1" d="M129.73,47.14c-7.86,.27-14.72,4.61-19.83,10.6-5.66,6.57-9.42,14.37-12.13,22.32-4.85-3.98-8.59-9.12-16.37-11.37-6.01-1.73-12.33-1.01-18.14,3.31-2.75,2.06-4.65,5.16-5.55,8.08-2.33,7.59,2.45,14.35,4.63,16.77l4.75,5.1c.98,1,3.34,3.61,2.19,7.34-1.25,4.06-6.15,6.69-11.17,5.14-2.24-.68-5.47-2.36-4.75-4.71,.3-.96,.99-1.68,1.36-2.52,.34-.72,.5-1.25,.6-1.57,.92-3-.34-6.9-3.55-7.89-3-.92-6.06-.19-7.25,3.67-1.35,4.38,.75,12.33,11.98,15.79,13.16,4.04,24.28-3.12,25.86-12.46,.99-5.85-1.65-10.2-6.49-15.79l-3.94-4.36c-2.39-2.39-3.21-6.46-.74-9.58,2.09-2.64,5.06-3.76,9.92-2.44,7.1,1.93,10.27,6.86,15.55,10.83-2.18,7.16-3.61,14.34-4.9,20.78l-.79,4.8c-3.78,19.81-6.66,30.69-14.15,36.94-1.51,1.07-3.67,2.68-6.92,2.79-1.71,.05-2.26-1.12-2.28-1.63-.04-1.2,.97-1.75,1.64-2.28,1-.55,2.52-1.45,2.41-4.35-.11-3.43-2.95-6.4-7.06-6.27-3.08,.1-7.76,3-7.59,8.3,.18,5.47,5.28,9.57,12.97,9.31,4.11-.14,13.29-1.81,22.34-12.57,10.53-12.33,13.48-26.46,15.69-36.81l2.47-13.66c1.37,.16,2.84,.27,4.44,.31,13.12,.28,19.68-6.52,19.77-11.46,.06-2.99-1.96-5.93-4.8-5.87-2.03,.06-4.58,1.41-5.2,4.22-.6,2.76,4.17,5.24,.44,7.66-2.65,1.71-7.4,2.92-14.09,1.94l1.22-6.72c2.48-12.75,5.54-28.43,17.16-28.81,.85-.04,3.94,.04,4.02,2.09,.02,.68-.15,.86-.95,2.43-.82,1.22-1.12,2.26-1.08,3.46,.11,3.25,2.59,5.39,6.17,5.27,4.79-.16,6.17-4.82,6.09-7.22-.19-5.63-6.13-9.19-13.99-8.93h0Z"/></svg>