<?xml version="1.0" encoding="UTF-8"?><svg id="icons" xmlns="http://www.w3.org/2000/svg" xmlns:xlink="http://www.w3.org/1999/xlink" viewBox="0 0 192 192"><defs><style>.cls-1{fill:none;}.cls-2{clip-path:url(#clippath);}.cls-3{fill:#38bdf8;fill-rule:evenodd;}</style><clipPath id="clippath"><rect class="cls-1" x="8.25" y="43.35" width="175.5" height="105.3"/></clipPath></defs><g class="cls-2"><path class="cls-3" d="M96,43.35c-23.4,0-38.02,11.7-43.88,35.1,8.78-11.7,19.01-16.09,30.71-13.16,6.68,1.67,11.45,6.51,16.73,11.87,8.6,8.73,18.56,18.84,40.31,18.84,23.4,0,38.03-11.7,43.88-35.1-8.78,11.7-19.01,16.09-30.71,13.16-6.68-1.67-11.45-6.51-16.73-11.87-8.6-8.73-18.56-18.84-40.31-18.84Zm-43.88,52.65c-23.4,0-38.03,11.7-43.88,35.1,8.78-11.7,19.01-16.09,30.71-13.16,6.68,1.67,11.45,6.51,16.73,11.87,8.6,8.73,18.56,18.84,40.31,18.84,23.4,0,38.03-11.7,43.88-35.1-8.78,11.7-19.01,16.09-30.71,13.16-6.68-1.67-11.45-6.51-16.73-11.87-8.6-8.73-18.56-18.84-40.31-18.84Z"/></g></svg>