<?xml version="1.0" encoding="UTF-8"?><svg id="Capa_2" xmlns="http://www.w3.org/2000/svg" xmlns:xlink="http://www.w3.org/1999/xlink" viewBox="0 0 192 192"><defs><style>.cls-1{fill:none;}.cls-2{fill:url(#Degradado_sin_nombre_38);fill-rule:evenodd;}</style><linearGradient id="Degradado_sin_nombre_38" x1="96" y1="-1694.31" x2="96" y2="-1539.31" gradientTransform="translate(0 -1520.81) scale(1 -1)" gradientUnits="userSpaceOnUse"><stop offset="0" stop-color="#fff" stop-opacity=".4"/><stop offset=".11" stop-color="#fff" stop-opacity=".54"/><stop offset=".25" stop-color="#fff" stop-opacity=".71"/><stop offset=".39" stop-color="#fff" stop-opacity=".83"/><stop offset=".52" stop-color="#fff" stop-opacity=".93"/><stop offset=".64" stop-color="#fff" stop-opacity=".98"/><stop offset=".75" stop-color="#fff"/></linearGradient></defs><g id="icons"><g id="Logos"><path class="cls-2" d="M155.06,18.5H36.92c-10.18,.01-18.42,8.27-18.42,18.44v118.14c0,10.17,8.25,18.42,18.42,18.42h118.14c10.18,0,18.43-8.24,18.44-18.42V36.94c-.01-10.18-8.26-18.43-18.44-18.44Zm-69.8,111.65c.01,3.37-2.71,6.12-6.08,6.13,0,0-.02,0-.03,0h-25.92c-3.37,0-6.11-2.73-6.11-6.11,0,0,0-.02,0-.03V53.25c-.01-3.37,2.71-6.12,6.08-6.13,0,0,.02,0,.03,0h25.92c3.37,0,6.11,2.73,6.11,6.11,0,0,0,.02,0,.03v76.9Zm59.63-35.31c0,3.39-2.74,6.13-6.13,6.13h-25.9c-3.39,0-6.13-2.74-6.13-6.13V53.25c0-3.39,2.74-6.13,6.13-6.13h25.9c3.39,0,6.13,2.74,6.13,6.13v41.59Z"/></g><rect class="cls-1" width="192" height="192"/></g></svg>