<svg width="192" height="192" viewBox="0 0 192 192" fill="none" xmlns="http://www.w3.org/2000/svg">
<g clip-path="url(#clip0_468_2285)">
<g clip-path="url(#clip1_468_2285)">
<path fill-rule="evenodd" clip-rule="evenodd" d="M155.06 18.5H36.92C26.74 18.51 18.5 26.77 18.5 36.94V155.08C18.5 165.25 26.75 173.5 36.92 173.5H155.06C165.24 173.5 173.49 165.26 173.5 155.08V36.94C173.49 26.76 165.24 18.51 155.06 18.5ZM85.26 130.15C85.27 133.52 82.55 136.27 79.18 136.28C79.18 136.28 79.16 136.28 79.15 136.28H53.23C49.86 136.28 47.12 133.55 47.12 130.17C47.12 130.17 47.12 130.15 47.12 130.14V53.25C47.11 49.88 49.83 47.13 53.2 47.12C53.2 47.12 53.22 47.12 53.23 47.12H79.15C82.52 47.12 85.26 49.85 85.26 53.23C85.26 53.23 85.26 53.25 85.26 53.26V130.16V130.15ZM144.89 94.84C144.89 98.23 142.15 100.97 138.76 100.97H112.86C109.47 100.97 106.73 98.23 106.73 94.84V53.25C106.73 49.86 109.47 47.12 112.86 47.12H138.76C142.15 47.12 144.89 49.86 144.89 53.25V94.84Z" fill="url(#paint0_linear_468_2285)"/>
</g>
</g>
<defs>
<linearGradient id="paint0_linear_468_2285" x1="96" y1="173.5" x2="96" y2="18.5" gradientUnits="userSpaceOnUse">
<stop stop-color="white" stop-opacity="0.4"/>
<stop offset="0.11" stop-color="white" stop-opacity="0.54"/>
<stop offset="0.25" stop-color="white" stop-opacity="0.71"/>
<stop offset="0.39" stop-color="white" stop-opacity="0.83"/>
<stop offset="0.52" stop-color="white" stop-opacity="0.93"/>
<stop offset="0.64" stop-color="white" stop-opacity="0.98"/>
<stop offset="0.75" stop-color="white"/>
</linearGradient>
<clipPath id="clip0_468_2285">
<rect width="192" height="192" fill="white"/>
</clipPath>
<clipPath id="clip1_468_2285">
<rect width="192" height="192" fill="white"/>
</clipPath>
</defs>
</svg>
