<?xml version="1.0" encoding="UTF-8"?><svg id="icons" xmlns="http://www.w3.org/2000/svg" xmlns:xlink="http://www.w3.org/1999/xlink" viewBox="0 0 192 192"><defs><style>.cls-1{stroke:url(#Degradado_sin_nombre_41);stroke-opacity:.15;}.cls-1,.cls-2{fill:none;stroke-width:1.49px;}.cls-2{stroke:url(#Degradado_sin_nombre_19);stroke-opacity:.5;}.cls-3{fill:url(#Degradado_sin_nombre_40);}.cls-3,.cls-4{fill-rule:evenodd;}.cls-5{fill:url(#Degradado_sin_nombre_42);fill-opacity:.15;}.cls-4{fill:#fff;}</style><linearGradient id="Degradado_sin_nombre_42" x1="18.5" y1="-1539.31" x2="173.5" y2="-1694.31" gradientTransform="translate(0 -1520.81) scale(1 -1)" gradientUnits="userSpaceOnUse"><stop offset="0" stop-color="#3286f1"/><stop offset="1" stop-color="#c43ac4"/></linearGradient><radialGradient id="Degradado_sin_nombre_41" cx="-1793.1" cy="-373.93" fx="-1793.1" fy="-373.93" r="1.49" gradientTransform="translate(289187.46 189392.12) rotate(45) scale(188.71 -188.71)" gradientUnits="userSpaceOnUse"><stop offset="0" stop-color="#fff"/><stop offset="1" stop-color="#fff"/></radialGradient><linearGradient id="Degradado_sin_nombre_19" x1="-46.2" y1="-1574.15" x2="50.67" y2="-1603.21" gradientTransform="translate(0 -1520.81) scale(1 -1)" gradientUnits="userSpaceOnUse"><stop offset="0" stop-color="#fff"/><stop offset="1" stop-color="#fff" stop-opacity="0"/></linearGradient><linearGradient id="Degradado_sin_nombre_40" x1="119.98" y1="-1607.32" x2="85.43" y2="-1641.63" gradientTransform="translate(0 -1520.81) scale(1 -1)" gradientUnits="userSpaceOnUse"><stop offset="0" stop-color="#0096ff"/><stop offset="1" stop-color="#ff1e56"/></linearGradient></defs><path d="M18.5,36.42c0-9.9,8.02-17.92,17.92-17.92h119.16c9.9,0,17.92,8.02,17.92,17.92v119.16c0,9.9-8.02,17.92-17.92,17.92H36.42c-9.9,0-17.92-8.02-17.92-17.92V36.42Z"/><path class="cls-5" d="M18.5,36.42c0-9.9,8.02-17.92,17.92-17.92h119.16c9.9,0,17.92,8.02,17.92,17.92v119.16c0,9.9-8.02,17.92-17.92,17.92H36.42c-9.9,0-17.92-8.02-17.92-17.92V36.42Z"/><path d="M18.5,36.42c0-9.9,8.02-17.92,17.92-17.92h119.16c9.9,0,17.92,8.02,17.92,17.92v119.16c0,9.9-8.02,17.92-17.92,17.92H36.42c-9.9,0-17.92-8.02-17.92-17.92V36.42Z"/><path class="cls-1" d="M36.42,19.25h119.16c9.48,0,17.17,7.69,17.17,17.17v119.16c0,9.48-7.69,17.17-17.17,17.17H36.42c-9.49,0-17.17-7.69-17.17-17.17V36.42c0-9.49,7.69-17.17,17.17-17.17Z"/><path class="cls-2" d="M36.42,19.25h119.16c9.48,0,17.17,7.69,17.17,17.17v119.16c0,9.48-7.69,17.17-17.17,17.17H36.42c-9.49,0-17.17-7.69-17.17-17.17V36.42c0-9.49,7.69-17.17,17.17-17.17Z"/><path class="cls-4" d="M85.19,83.7c-.82,0-1.49,.67-1.49,1.49v20.76c0,.82,.67,1.49,1.49,1.49h20.76c.82,0,1.49-.67,1.49-1.49v-20.76c0-.82-.67-1.49-1.49-1.49h-20.76Zm-9.91-9.78c-.76,0-1.37,.61-1.37,1.37v40.57c0,.76,.61,1.37,1.37,1.37h40.57c.76,0,1.37-.61,1.37-1.37v-40.57c0-.76-.61-1.37-1.37-1.37h-40.57Z"/><path class="cls-3" d="M60.48,121.71v-25.39h10.45v20.91c0,.22,.02,.44,.07,.65l-8.93,8.93c-1.01-1.45-1.59-3.21-1.59-5.1Zm3.68,7.24c1.48,1.08,3.31,1.72,5.28,1.72h25.39v-10.45h-20.91c-.31,0-.61-.05-.89-.13l-8.87,8.87Zm33.65-8.73v10.45h23.9c4.95,0,8.96-4.01,8.96-8.96v-52.27c0-4.95-4.01-8.96-8.96-8.96h-25.39v10.45h20.91c1.65,0,2.99,1.34,2.99,2.99v43.31c0,1.65-1.34,2.99-2.99,2.99h-19.41Z"/></svg>