<?xml version="1.0" encoding="UTF-8"?><svg id="Capa_2" xmlns="http://www.w3.org/2000/svg" viewBox="0 0 192 192"><defs><style>.cls-1{fill:none;}.cls-2{fill:#3178c6;}.cls-3{fill:#fff;fill-rule:evenodd;}</style></defs><g id="outline"><rect class="cls-1" width="192" height="192"/><rect class="cls-1" width="192" height="192"/></g><g id="icons"><g><rect class="cls-2" x="20.06" y="20.06" width="151.87" height="151.87" rx="14.83" ry="14.83"/><rect class="cls-2" x="20.06" y="20.06" width="151.87" height="151.87" rx="14.83" ry="14.83"/><path class="cls-3" d="M114.08,140.92v14.85c2.41,1.24,5.27,2.17,8.57,2.78s6.77,.93,10.42,.93,6.94-.34,10.14-1.02c3.2-.68,6.01-1.8,8.43-3.36,2.41-1.56,4.33-3.6,5.73-6.13s2.11-5.64,2.11-9.35c0-2.69-.4-5.05-1.21-7.08s-1.97-3.83-3.48-5.41c-1.52-1.58-3.33-2.99-5.45-4.25s-4.51-2.44-7.17-3.55c-1.95-.8-3.7-1.59-5.25-2.34-1.55-.76-2.86-1.53-3.95-2.32-1.08-.79-1.92-1.62-2.51-2.51-.59-.88-.88-1.88-.88-2.99,0-1.02,.26-1.94,.79-2.76s1.27-1.52,2.23-2.11c.96-.59,2.14-1.04,3.53-1.37,1.39-.32,2.94-.49,4.64-.49,1.24,0,2.55,.09,3.92,.28,1.38,.19,2.76,.47,4.16,.86,1.39,.39,2.75,.87,4.06,1.46,1.32,.59,2.53,1.27,3.64,2.04v-13.88c-2.26-.87-4.73-1.51-7.4-1.93s-5.75-.63-9.22-.63-6.87,.38-10.03,1.14-5.93,1.94-8.33,3.55c-2.4,1.61-4.29,3.66-5.69,6.15-1.39,2.49-2.09,5.47-2.09,8.93,0,4.42,1.28,8.2,3.83,11.32,2.55,3.12,6.43,5.77,11.63,7.94,2.04,.84,3.95,1.65,5.71,2.46s3.29,1.64,4.57,2.51c1.28,.87,2.3,1.81,3.04,2.83,.74,1.02,1.11,2.18,1.11,3.48,0,.96-.23,1.85-.7,2.67s-1.17,1.53-2.11,2.13-2.12,1.07-3.53,1.42c-1.41,.34-3.06,.51-4.94,.51-3.22,0-6.41-.56-9.56-1.69-3.16-1.13-6.08-2.82-8.77-5.08h0Zm-24.96-36.59h19.05v-12.19H55.06v12.19h18.96v54.26h15.09v-54.26Z"/></g></g></svg>