<?xml version="1.0" encoding="UTF-8"?><svg id="icons" xmlns="http://www.w3.org/2000/svg" xmlns:xlink="http://www.w3.org/1999/xlink" viewBox="0 0 192 192"><defs><style>.cls-1{fill:none;}.cls-2{clip-path:url(#clippath);}.cls-3{fill:#4d4744;}.cls-4{clip-path:url(#clippath-1);}</style><clipPath id="clippath"><rect class="cls-1" y="0" width="192" height="192"/></clipPath><clipPath id="clippath-1"><rect class="cls-1" y="0" width="192" height="192"/></clipPath></defs><g class="cls-2"><g class="cls-4"><path class="cls-3" d="M96.46,24.46c-39.7,0-72,32.3-72,72s32.3,72,72,72,72-32.3,72-72S136.16,24.46,96.46,24.46M31.73,96.46c0-9.39,2.01-18.29,5.61-26.34l30.88,84.6c-21.6-10.49-36.48-32.64-36.48-58.26m64.73,64.74c-6.35,0-12.49-.93-18.29-2.64l19.42-56.44,19.9,54.51c.13,.32,.29,.61,.46,.89-6.73,2.37-13.96,3.67-21.5,3.67m8.92-95.09c3.9-.2,7.41-.61,7.41-.61,3.49-.41,3.08-5.54-.41-5.33,0,0-10.49,.82-17.25,.82-6.36,0-17.05-.82-17.05-.82-3.49-.2-3.9,5.13-.41,5.33,0,0,3.3,.41,6.79,.61l10.08,27.63-14.17,42.49-23.57-70.12c3.9-.2,7.41-.61,7.41-.61,3.49-.41,3.07-5.54-.41-5.33,0,0-10.48,.82-17.25,.82-1.21,0-2.65-.03-4.17-.08,11.57-17.57,31.47-29.18,54.09-29.18,16.85,0,32.2,6.44,43.71,17-.28-.02-.55-.05-.84-.05-6.36,0-10.87,5.54-10.87,11.49,0,5.33,3.08,9.85,6.36,15.18,2.46,4.31,5.34,9.85,5.34,17.85,0,5.54-2.13,11.97-4.93,20.93l-6.46,21.57-23.39-69.59Zm47.88-.7c5.05,9.22,7.93,19.8,7.93,31.06,0,23.88-12.94,44.73-32.19,55.95l19.77-57.17c3.69-9.24,4.92-16.62,4.92-23.19,0-2.38-.16-4.6-.44-6.66"/></g></g></svg>