<?xml version="1.0" encoding="UTF-8"?><svg id="icons" xmlns="http://www.w3.org/2000/svg" xmlns:xlink="http://www.w3.org/1999/xlink" viewBox="0 0 192 192"><defs><style>.cls-1{fill:none;}.cls-2{clip-path:url(#clippath);}.cls-3{mask:url(#mask);}.cls-4{clip-path:url(#clippath-1);}.cls-5{clip-path:url(#clippath-2);}.cls-6{opacity:.5;}.cls-7{fill:url(#Degradado_sin_nombre_2);}.cls-8{fill:url(#Degradado_sin_nombre_3);}.cls-9{fill:url(#Degradado_sin_nombre_8);}</style><linearGradient id="Degradado_sin_nombre_8" x1="-1585.25" y1="268.5" x2="-1585.94" y2="268.12" gradientTransform="translate(406017.4 51350.67) scale(256 -190.98)" gradientUnits="userSpaceOnUse"><stop offset="0" stop-color="#f90"/><stop offset="1" stop-color="#ffc300"/></linearGradient><clipPath id="clippath"><rect class="cls-1" x="-212" y="214.41" width="192" height="192"/></clipPath><clipPath id="clippath-1"><rect class="cls-1" x="-212" y="214.41" width="192" height="192"/></clipPath><clipPath id="clippath-2"><rect class="cls-1" x="-192" y="234.41" width="152" height="152" rx="12" ry="12"/></clipPath><radialGradient id="Degradado_sin_nombre_3" cx="-1585.33" cy="-495.88" fx="-1585.33" fy="-495.88" r="1" gradientTransform="translate(101352.63 324606.04) rotate(90) scale(204.62 -204.62)" gradientUnits="userSpaceOnUse"><stop offset="0" stop-color="#1a1a1a"/><stop offset="1" stop-color="#000"/></radialGradient><mask id="mask" x="-268" y="158.41" width="304" height="304" maskUnits="userSpaceOnUse"><rect class="cls-8" x="-223.48" y="202.93" width="214.96" height="214.96" transform="translate(-253.47 8.89) rotate(-45)"/></mask><radialGradient id="Degradado_sin_nombre_2" cx="-1585.33" cy="-495.88" fx="-1585.33" fy="-495.88" r="1" gradientTransform="translate(101352.63 324606.04) rotate(90) scale(204.62 -204.62)" gradientUnits="userSpaceOnUse"><stop offset="0" stop-color="#fff"/><stop offset="1" stop-color="#fff"/></radialGradient></defs><path class="cls-9" d="M46.44,138.94h49.43l12.66,22.16H8.25l35.21-60.68,14.76-25.41,12.67,21.83-24.45,42.09Zm18.44-75.41l12.16-20.96,68.84,118.53h-24.38L64.88,63.52Zm18.93-32.62h24.35l75.59,130.19h-24.38L83.81,30.9Z"/><g class="cls-6"><g class="cls-2"><g class="cls-4"><g class="cls-5"><g class="cls-3"><rect class="cls-7" x="-223.48" y="202.93" width="214.96" height="214.96" transform="translate(-253.47 8.89) rotate(-45)"/></g></g></g></g></g></svg>