<?xml version="1.0" encoding="UTF-8"?><svg id="icons" xmlns="http://www.w3.org/2000/svg" viewBox="0 0 192 192"><defs><style>.cls-1{fill:#fff;}.cls-2{fill:#c3002f;}.cls-3{fill:#dd0031;}</style></defs><polygon class="cls-3" points="96 20.5 96 20.5 96 20.5 25.71 45.57 36.43 138.51 96 171.5 96 171.5 96 171.5 155.57 138.51 166.29 45.57 96 20.5"/><polygon class="cls-2" points="96 20.5 96 37.26 96 37.19 96 113.67 96 113.67 96 171.5 96 171.5 155.57 138.51 166.29 45.57 96 20.5"/><path class="cls-1" d="M96,37.19l-43.94,98.53h16.38l8.83-22.05h37.3l8.83,22.05h16.38L96,37.19h0Zm12.84,62.89h-25.67l12.83-30.88,12.84,30.88Z"/></svg>