<?xml version="1.0" encoding="UTF-8"?><svg id="icons" xmlns="http://www.w3.org/2000/svg" viewBox="0 0 192 192"><defs><style>.cls-1{fill:#512da8;}</style></defs><path class="cls-1" d="M96,173.5c-42.73,0-77.5-34.77-77.5-77.5S53.27,18.5,96,18.5c19.89,0,38.8,7.53,53.25,21.18,1.55,1.47,1.62,3.93,.15,5.48-1.47,1.56-3.93,1.62-5.48,.15-13-12.3-30.02-19.07-47.92-19.07-38.46,0-69.75,31.29-69.75,69.75s31.29,69.75,69.75,69.75,69.75-31.29,69.75-69.75c0-5.28-.59-10.54-1.76-15.62-.48-2.09,.83-4.17,2.91-4.64,2.07-.49,4.16,.82,4.64,2.91,1.29,5.65,1.95,11.49,1.95,17.35,0,42.73-34.77,77.5-77.5,77.5Z"/><circle class="cls-1" cx="150.25" cy="45.62" r="11.62"/><polygon class="cls-1" points="99.88 57.25 84.37 57.25 61.13 127 76.62 127 99.88 57.25"/><polygon class="cls-1" points="92.12 57.25 107.63 57.25 130.88 127 115.38 127 92.12 57.25"/><polygon class="cls-1" points="103.75 115.38 76.62 115.38 76.62 99.88 99.88 99.88 103.75 115.38"/></svg>