<?xml version="1.0" encoding="UTF-8"?><svg id="icons" xmlns="http://www.w3.org/2000/svg" viewBox="0 0 192 192"><path id="_" d="M97.78,55.08c6.66,0,15-4.64,19.97-10.82,4.5-5.6,7.78-13.43,7.78-21.26,0-1.06-.09-2.13-.28-3-7.41,.29-16.31,5.12-21.66,11.6-4.22,4.93-8.06,12.66-8.06,20.58,0,1.16,.19,2.32,.28,2.71,.47,.1,1.22,.19,1.97,.19Zm-23.44,116.92c9.09,0,13.12-6.28,24.47-6.28s14.06,6.09,24.19,6.09,16.59-9.47,22.87-18.75c7.03-10.63,9.94-21.07,10.12-21.55-.66-.19-19.69-8.21-19.69-30.73,0-19.52,15-28.31,15.84-28.99-9.94-14.69-25.03-15.07-29.16-15.07-11.16,0-20.25,6.96-25.97,6.96-6.19,0-14.34-6.57-24-6.57-18.37,0-37.03,15.65-37.03,45.22,0,18.36,6.94,37.78,15.47,50.34,7.31,10.63,13.69,19.33,22.87,19.33Z"/></svg>