<?xml version="1.0" encoding="UTF-8"?><svg id="Capa_2" xmlns="http://www.w3.org/2000/svg" viewBox="0 0 192 192"><defs><style>.cls-1{fill:none;}.cls-2{fill:#252f3e;}.cls-3{fill:#f90;fill-rule:evenodd;}</style></defs><g id="outline"><rect class="cls-1" width="192" height="192"/><rect class="cls-1" width="192" height="192"/></g><g id="icons"><g><path class="cls-2" d="M57.6,81.6c0,2.17,.23,3.92,.64,5.21,.47,1.29,1.05,2.69,1.87,4.21,.29,.47,.41,.94,.41,1.35,0,.59-.35,1.17-1.11,1.76l-3.69,2.46c-.53,.35-1.05,.53-1.52,.53-.59,0-1.17-.29-1.76-.82-.82-.88-1.52-1.81-2.11-2.75-.59-1-1.17-2.11-1.81-3.45-4.57,5.39-10.3,8.08-17.21,8.08-4.92,0-8.84-1.4-11.71-4.21-2.87-2.81-4.33-6.56-4.33-11.24,0-4.98,1.76-9.01,5.33-12.06,3.57-3.04,8.31-4.57,14.34-4.57,1.99,0,4.04,.18,6.2,.47s4.39,.76,6.73,1.29v-4.27c0-4.45-.94-7.55-2.75-9.37-1.87-1.81-5.03-2.69-9.54-2.69-2.05,0-4.16,.23-6.32,.76s-4.27,1.17-6.32,1.99c-.94,.41-1.64,.64-2.05,.76-.41,.12-.7,.18-.94,.18-.82,0-1.23-.59-1.23-1.81v-2.87c0-.94,.12-1.64,.41-2.05s.82-.82,1.64-1.23c2.05-1.05,4.51-1.93,7.38-2.63,2.87-.76,5.91-1.11,9.13-1.11,6.97,0,12.06,1.58,15.34,4.74,3.22,3.16,4.86,7.96,4.86,14.4v18.97h.12Zm-23.77,8.9c1.93,0,3.92-.35,6.03-1.05,2.11-.7,3.98-1.99,5.56-3.75,.94-1.11,1.64-2.34,1.99-3.75s.59-3.1,.59-5.09v-2.46c-1.7-.41-3.51-.76-5.39-1s-3.69-.35-5.5-.35c-3.92,0-6.79,.76-8.72,2.34-1.93,1.58-2.87,3.8-2.87,6.73,0,2.75,.7,4.8,2.17,6.2,1.4,1.46,3.45,2.17,6.15,2.17Zm47,6.32c-1.05,0-1.76-.18-2.22-.59-.47-.35-.88-1.17-1.23-2.28l-13.76-45.25c-.35-1.17-.53-1.93-.53-2.34,0-.94,.47-1.46,1.4-1.46h5.74c1.11,0,1.87,.18,2.28,.59,.47,.35,.82,1.17,1.17,2.28l9.83,38.75,9.13-38.75c.29-1.17,.64-1.93,1.11-2.28,.47-.35,1.29-.59,2.34-.59h4.68c1.11,0,1.87,.18,2.34,.59,.47,.35,.88,1.17,1.11,2.28l9.25,39.22,10.13-39.22c.35-1.17,.76-1.93,1.17-2.28,.47-.35,1.23-.59,2.28-.59h5.44c.94,0,1.46,.47,1.46,1.46,0,.29-.06,.59-.12,.94-.06,.35-.18,.82-.41,1.46l-14.11,45.25c-.35,1.17-.76,1.93-1.23,2.28s-1.23,.59-2.22,.59h-5.03c-1.11,0-1.87-.18-2.34-.59s-.88-1.17-1.11-2.34l-9.07-37.76-9.01,37.7c-.29,1.17-.64,1.93-1.11,2.34-.47,.41-1.29,.59-2.34,.59h-5.03Zm75.22,1.58c-3.04,0-6.09-.35-9.01-1.05-2.93-.7-5.21-1.46-6.73-2.34-.94-.53-1.58-1.11-1.81-1.64-.23-.53-.35-1.11-.35-1.64v-2.99c0-1.23,.47-1.81,1.35-1.81,.35,0,.7,.06,1.05,.18,.35,.12,.88,.35,1.46,.59,1.99,.88,4.16,1.58,6.44,2.05,2.34,.47,4.62,.7,6.97,.7,3.69,0,6.56-.64,8.55-1.93,1.99-1.29,3.04-3.16,3.04-5.56,0-1.64-.53-2.99-1.58-4.1-1.05-1.11-3.04-2.11-5.91-3.04l-8.49-2.63c-4.27-1.35-7.43-3.34-9.37-5.97-1.93-2.58-2.93-5.44-2.93-8.49,0-2.46,.53-4.62,1.58-6.5,1.05-1.87,2.46-3.51,4.21-4.8,1.76-1.35,3.75-2.34,6.09-3.04,2.34-.7,4.8-1,7.38-1,1.29,0,2.63,.06,3.92,.23,1.35,.18,2.58,.41,3.8,.64,1.17,.29,2.28,.59,3.34,.94,1.05,.35,1.87,.7,2.46,1.05,.82,.47,1.4,.94,1.76,1.46,.35,.47,.53,1.11,.53,1.93v2.75c0,1.23-.47,1.87-1.35,1.87-.47,0-1.23-.23-2.22-.7-3.34-1.52-7.08-2.28-11.24-2.28-3.34,0-5.97,.53-7.79,1.64s-2.75,2.81-2.75,5.21c0,1.64,.59,3.04,1.76,4.16,1.17,1.11,3.34,2.22,6.44,3.22l8.31,2.63c4.21,1.35,7.26,3.22,9.07,5.62,1.81,2.4,2.69,5.15,2.69,8.2,0,2.52-.53,4.8-1.52,6.79-1.05,1.99-2.46,3.75-4.27,5.15-1.81,1.46-3.98,2.52-6.5,3.28-2.63,.82-5.39,1.23-8.37,1.23Z"/><g><path class="cls-3" d="M167.12,126.85c-19.26,14.22-47.24,21.78-71.3,21.78-33.72,0-64.1-12.47-87.04-33.19-1.81-1.64-.18-3.86,1.99-2.58,24.82,14.4,55.43,23.12,87.1,23.12,21.37,0,44.84-4.45,66.44-13.58,3.22-1.46,5.97,2.11,2.81,4.45Z"/><path class="cls-3" d="M175.14,117.72c-2.46-3.16-16.27-1.52-22.54-.76-1.87,.23-2.17-1.4-.47-2.63,11-7.73,29.09-5.5,31.2-2.93,2.11,2.63-.59,20.72-10.89,29.38-1.58,1.35-3.1,.64-2.4-1.11,2.34-5.8,7.55-18.85,5.09-21.95Z"/></g></g></g></svg>