<?xml version="1.0" encoding="UTF-8"?><svg id="icons" xmlns="http://www.w3.org/2000/svg" viewBox="0 0 192 192"><defs><style>.cls-1{fill:#f9ab41;}.cls-2{fill:#f4801f;}</style></defs><path class="cls-2" d="M128.52,135.12l.91-3.15c1.08-3.75,.68-7.2-1.14-9.75-1.7-2.34-4.47-3.72-7.86-3.88l-64.16-.82c-.69,0-1.24-.58-1.23-1.27,0-.15,.03-.29,.08-.43,.22-.64,.81-1.09,1.49-1.14l64.78-.85c7.64-.35,16-6.58,18.92-14.19l3.69-9.65c.1-.27,.16-.56,.15-.85,0-.15-.02-.31-.05-.46-5.1-22.74-27.66-37.04-50.4-31.94-14.34,3.21-25.98,13.66-30.72,27.58-8.42-6.25-20.31-4.5-26.56,3.91-3.4,4.58-4.57,10.45-3.17,15.98-14.88,.38-26.63,12.76-26.25,27.64,.03,1.1,.12,2.2,.29,3.3,.08,.62,.61,1.08,1.23,1.08H127.02c.69,0,1.3-.44,1.5-1.1Z"/><path class="cls-1" d="M149.9,90.72c-.57,0-1.16,.02-1.78,.05-.09,0-.19,.02-.27,.06-.32,.1-.56,.36-.65,.68l-2.55,8.72c-1.09,3.75-.69,7.2,1.14,9.75,1.87,2.44,4.77,3.88,7.85,3.88l13.68,.85c.39,.01,.75,.21,.97,.53,.23,.34,.29,.78,.14,1.16-.22,.64-.81,1.09-1.49,1.14l-14.21,.85c-7.72,.36-16.04,6.58-18.95,14.19l-1.03,2.68c-.15,.39,.05,.84,.44,.99,.07,.03,.15,.04,.23,.05h48.95c.61,.01,1.16-.4,1.31-.99,5.23-18.68-5.68-38.05-24.35-43.28-3.07-.86-6.24-1.3-9.42-1.3h-.02Z"/></svg>