<?xml version="1.0" encoding="UTF-8"?><svg id="icons" xmlns="http://www.w3.org/2000/svg" viewBox="0 0 192 192"><defs><style>.cls-1{fill:#fff;}.cls-2{fill:#a179dc;}.cls-3{fill:#390091;}.cls-4{fill:#280068;}</style></defs><path class="cls-2" d="M164.95,64.07c0-2.61-.56-4.91-1.69-6.89-1.11-1.94-2.77-3.57-4.99-4.86-18.36-10.59-36.74-21.14-55.09-31.74-4.95-2.86-9.75-2.75-14.66,.15-7.31,4.31-43.9,25.27-54.8,31.59-4.49,2.6-6.67,6.58-6.68,11.75,0,21.29,0,42.58,0,63.87,0,2.55,.53,4.81,1.61,6.75,1.11,2,2.79,3.68,5.06,4.99,10.9,6.31,47.5,27.27,54.8,31.59,4.91,2.9,9.71,3,14.66,.15,18.35-10.6,36.73-21.15,55.1-31.74,2.28-1.32,3.96-2.99,5.06-4.99,1.08-1.95,1.61-4.21,1.61-6.75,0,0,0-42.57,0-63.86"/><path class="cls-4" d="M96.21,95.79L28.66,134.69c1.11,2,2.79,3.68,5.06,4.99,10.9,6.31,47.5,27.27,54.8,31.59,4.91,2.9,9.71,3,14.66,.15,18.35-10.6,36.73-21.15,55.1-31.74,2.28-1.32,3.96-2.99,5.06-4.99l-67.13-38.89Z"/><path class="cls-3" d="M164.95,64.07c0-2.61-.56-4.91-1.69-6.89l-67.05,38.61,67.13,38.89c1.08-1.95,1.61-4.21,1.61-6.75,0,0,0-42.57,0-63.86"/><g><path class="cls-1" d="M135.98,81.25v7.27h7.27v-7.27h3.64v7.27h7.27v3.64h-7.27v7.27h7.27v3.64h-7.27v7.27h-3.64v-7.27h-7.27v7.27h-3.64v-7.27h-7.27v-3.64h7.27v-7.27h-7.27v-3.64h7.27v-7.27h3.64Zm7.27,10.91h-7.27v7.27h7.27v-7.27Z"/><path class="cls-1" d="M96.36,44.74c18.96,0,35.52,10.3,44.39,25.61l-.09-.15-22.31,12.85c-4.4-7.44-12.45-12.47-21.7-12.57h-.29c-14.1,0-25.53,11.43-25.53,25.52,0,4.44,1.16,8.81,3.37,12.66,4.4,7.68,12.67,12.86,22.16,12.86s17.87-5.25,22.24-13.01l-.11,.19,22.28,12.91c-8.77,15.18-25.1,25.45-43.84,25.65h-.57c-19.02,0-35.63-10.36-44.47-25.75-4.32-7.51-6.79-16.22-6.79-25.51,0-28.31,22.95-51.26,51.26-51.26h0Z"/></g></svg>