<?xml version="1.0" encoding="UTF-8"?><svg id="icons" xmlns="http://www.w3.org/2000/svg" xmlns:xlink="http://www.w3.org/1999/xlink" viewBox="0 0 192 192"><defs><style>.cls-1{fill:#69d3a7;}.cls-2{fill:#1b1e2e;}.cls-3{fill:url(#Degradado_sin_nombre_13);}.cls-4{fill:url(#Degradado_sin_nombre_12);}.cls-5{fill:url(#Degradado_sin_nombre_14);}</style><linearGradient id="Degradado_sin_nombre_14" x1="179.44" y1="-321.55" x2="110.25" y2="-366.35" gradientTransform="translate(0 -225.05) scale(1 -1)" gradientUnits="userSpaceOnUse"><stop offset=".08" stop-color="#69d3a7"/><stop offset="1" stop-color="#69d3a7" stop-opacity="0"/></linearGradient><linearGradient id="Degradado_sin_nombre_13" x1="70.2" y1="-244.66" x2="26.73" y2="-336.86" gradientTransform="translate(0 -225.05) scale(1 -1)" gradientUnits="userSpaceOnUse"><stop offset="0" stop-color="#69d3a7"/><stop offset=".82" stop-color="#2ab586"/><stop offset="1" stop-color="#1cae7f"/></linearGradient><linearGradient id="Degradado_sin_nombre_12" x1="18.39" y1="-356.48" x2="132.37" y2="-392.26" gradientTransform="translate(0 -225.05) scale(1 -1)" gradientUnits="userSpaceOnUse"><stop offset=".08" stop-color="#1cae7f"/><stop offset=".16" stop-color="#1ca379"/><stop offset=".32" stop-color="#1c8568"/><stop offset=".52" stop-color="#1b554d"/><stop offset=".72" stop-color="#1b1e2e"/></linearGradient></defs><path class="cls-2" d="M72.97,80.04c6.26,0,11.35,3.34,13.96,9.15l.2,.46,10.51-3.57-.21-.54c-4.06-9.92-13.44-16.07-24.45-16.07-7.75,0-14.05,2.48-19.25,7.59-5.17,5.07-7.78,11.45-7.78,18.96s2.63,13.8,7.78,18.86c5.2,5.11,11.5,7.59,19.25,7.59,11.01,0,20.38-6.17,24.45-16.07l.21-.54-10.52-3.57-.18,.47c-2.35,5.73-7.57,9.14-13.96,9.14-4.36,0-8.04-1.52-10.95-4.52-2.95-3.03-4.44-6.87-4.44-11.35s1.45-8.27,4.44-11.45c2.92-3,6.59-4.52,10.95-4.52Z"/><path class="cls-5" d="M118.59,170.03l-3.13-10.33c28.26-8.58,47.25-34.18,47.25-63.69,0-8.14-1.45-16.1-4.32-23.64l10.08-3.83c3.34,8.78,5.04,18.01,5.04,27.49-.02,34.28-22.07,64.02-54.91,74Z"/><path class="cls-1" d="M159.78,76.5c-8.63-28.16-34.26-47.07-63.79-47.07-4.01,0-8.03,.36-11.94,1.06l-1.91-10.62c4.54-.82,9.2-1.24,13.85-1.24,34.29,0,64.07,21.98,74.1,54.68l-10.31,3.18Z"/><path class="cls-3" d="M23.46,123.29c-3.3-8.71-4.96-17.9-4.96-27.28,0-39.97,30-73.07,69.79-76.99l1.06,10.73c-34.24,3.38-60.07,31.86-60.07,66.25,0,8.08,1.44,15.99,4.26,23.48l-10.08,3.8Z"/><polygon class="cls-2" points="138.77 70.44 123.81 108.36 108.73 70.44 96.4 70.44 117.54 122.19 102.14 159.55 112.93 161.7 150.42 70.44 138.77 70.44"/><path class="cls-4" d="M104.08,154.85l-2.27,5.5c-.52,1.26-1.71,2.12-3.05,2.17-.93,.03-1.84,.07-2.79,.07-29.61,0-55.97-19.82-64.11-48.21l-10.38,2.97c9.46,32.97,40.08,56.01,74.47,56.02h.02c1.08,0,2.15-.02,3.23-.07,5.53-.23,10.47-3.7,12.59-8.84l3.07-7.46-10.78-2.15Z"/></svg>