<?xml version="1.0" encoding="UTF-8"?><svg id="Capa_2" xmlns="http://www.w3.org/2000/svg" viewBox="0 0 192 192"><defs><style>.cls-1{fill:none;}.cls-2{fill:#1f5b98;}.cls-3{fill:#1a476f;}.cls-4{fill:#5294cf;}.cls-5{fill:#2d72b8;}</style></defs><g id="outline"><rect class="cls-1" width="192" height="192"/><rect class="cls-1" width="192" height="192"/></g><g id="icons"><g><path class="cls-4" d="M114.17,165.97h1.71l27.93-13.89,.46-.65V40.57l-.46-.66-27.93-13.88h-1.73l.02,139.93"/><path class="cls-2" d="M77.82,165.97h-1.74l-27.91-13.89-.57-.97-.29-109.98,.85-1.22,27.91-13.88h1.76l-.02,139.93"/><path class="cls-5" d="M76.14,26.03h39.72V165.97h-39.72V26.03Z"/><path class="cls-3" d="M158.44,92.86l-.94-.21-13.48-1.25-.2,.1-27.96-1.11h-39.72l-27.96,1.11v-21.2l-.03,.02,.03-.06,27.96-6.44h39.72l27.96,6.44,10.28,5.43v-3.49l4.34-.47-.45-.87-13.75-9.78-.42,.14-27.96-8.61h-39.72l-27.96,8.61v-21.29l-14.62,17.03v14.87l.11-.08,4.23,.46v3.56l-4.34,2.31v14.8h.11s4.23,.05,4.23,.05v6.21l-3.65,.05-.69-.07v14.81l4.34,2.32v3.61l-4.16,.46-.18-.14v14.87l14.62,17.03v-21.29l27.96,8.61h39.72l28.04-8.64,.37,.16,13.57-9.63,.59-.96-4.34-.48v-3.53l-.57-.23-9.29,4.98-.34,.7-28.04,6.4h0s-39.72,0-39.72,0h0s-27.96-6.44-27.96-6.44v-21.28l27.96,1.11v.03h39.72l27.96-1.13,.64,.29,13.06-1.12,.92-.45-4.34-.06v-6.21l4.34-.06"/><path class="cls-5" d="M143.82,130.78v21.29l14.62-17.03v-14.77l-14.54,10.49-.08,.03m0-8.99l.08-.02,14.54-7.77v-14.87l-14.62,1.34v21.32m.08-51.52l-.08-.02v21.24l14.62,1.36v-14.86l-14.54-7.72m0-8.98l14.54,10.43v-14.77l-14.62-17.03v21.29l.08,.03v.05"/></g></g></svg>