<?xml version="1.0" encoding="UTF-8"?><svg id="icons" xmlns="http://www.w3.org/2000/svg" viewBox="0 0 192 192"><defs><style>.cls-1{fill:#8080f2;}.cls-2{fill:#4b32c3;}</style></defs><path class="cls-1" d="M129.97,75.46l-32.65-18.85c-.82-.47-1.83-.47-2.64,0l-32.65,18.85c-.82,.47-1.32,1.34-1.32,2.29v37.7c0,.94,.51,1.81,1.32,2.29l32.65,18.85c.82,.47,1.82,.47,2.64,0l32.65-18.85c.82-.47,1.32-1.34,1.32-2.29v-37.7c0-.95-.5-1.81-1.32-2.29h0Z"/><path class="cls-2" d="M11.11,92.63L50.12,24.76c1.42-2.46,4.04-4.26,6.87-4.26h78.02c2.84,0,5.45,1.81,6.87,4.26l39.01,67.72c1.42,2.48,1.42,5.52,0,8l-39.01,67.31c-1.42,2.45-4.04,3.71-6.87,3.71H56.99c-2.83,0-5.45-1.22-6.87-3.67L11.12,100.41c-1.42-2.4-1.42-5.38,0-7.78h0Zm32.3,32.63c0,1,.6,1.92,1.47,2.42l49.69,28.67c.86,.5,1.95,.5,2.81,0l49.73-28.67c.86-.5,1.47-1.42,1.47-2.42v-57.34c0-1-.6-1.92-1.46-2.42l-49.69-28.66c-.87-.5-1.94-.5-2.81,0l-49.73,28.66c-.86,.5-1.47,1.42-1.47,2.42v57.34h0Z"/></svg>