<?xml version="1.0" encoding="UTF-8"?><svg id="Capa_2" xmlns="http://www.w3.org/2000/svg" viewBox="0 0 192 192"><defs><style>.cls-1{fill:none;}.cls-2{fill:#000020;}</style></defs><g id="outline"><rect class="cls-1" width="192" height="192"/><rect class="cls-1" width="192" height="192"/></g><g id="icons"><path class="cls-2" d="M91.94,77.46c1.27-1.88,2.66-2.11,3.79-2.11s3.01,.24,4.28,2.11c10.02,13.78,26.55,41.23,38.75,61.49,7.95,13.21,14.06,23.35,15.32,24.64,4.71,4.85,11.16,1.83,14.91-3.67,3.69-5.41,4.72-9.21,4.72-13.26,0-2.76-53.48-102.39-58.87-110.68-5.18-7.98-6.87-9.99-15.73-9.99h-6.63c-8.84,0-10.12,2.01-15.3,9.99-5.39,8.29-58.87,107.92-58.87,110.68,0,4.05,1.02,7.85,4.72,13.26,3.75,5.5,10.2,8.52,14.91,3.67,1.25-1.29,7.36-11.43,15.32-24.64,12.2-20.25,28.68-47.7,38.7-61.49Z"/></g></svg>