<?xml version="1.0" encoding="UTF-8"?><svg id="Capa_2" xmlns="http://www.w3.org/2000/svg" viewBox="0 0 192 192"><defs><style>.cls-1{fill:none;}</style></defs><g id="outline"><rect class="cls-1" width="192" height="192"/><path d="M183.05,44.99h-2.99c-3.7,0-7.18,1.72-9.43,4.66l-30.6,40.02-30.6-40.02c-2.24-2.93-5.73-4.66-9.42-4.66h-2.99l38.59,50.46-39.42,51.55h2.99c3.7,0,7.18-1.72,9.42-4.66l31.43-41.1,31.43,41.1c2.24,2.93,5.73,4.66,9.42,4.66h2.99l-39.42-51.55,38.59-50.46ZM83.01,126.75c-8.98,13.65-26.67,20.65-43.58,14.48-14.88-5.43-24.27-20.22-24.27-36.05v-3.9H96.06v-14.54c0-22.88-16.95-42.91-39.73-45.06-26.14-2.46-48.21,18.13-48.21,43.77v19.6c0,18.89,11.31,36.46,29.09,42.85,23.23,8.36,47.66-4.12,55.91-25.52h-2.24c-3.2,0-6.11,1.69-7.87,4.37ZM15.16,85.45c0-20.37,16.57-36.93,36.93-36.93s36.93,16.57,36.93,36.93v8.79H15.16v-8.79Z"/></g></svg>