<?xml version="1.0" encoding="UTF-8"?><svg id="icons" xmlns="http://www.w3.org/2000/svg" xmlns:xlink="http://www.w3.org/1999/xlink" viewBox="0 0 192 192"><defs><style>.cls-1{fill:none;}.cls-2{clip-path:url(#clippath);}.cls-3{fill:#f24e1e;}.cls-4{fill:#ff7262;}.cls-5{fill:#a259ff;}.cls-6{fill:#0acf83;}.cls-7{fill:#1abcfe;}</style><clipPath id="clippath"><rect class="cls-1" x="45" y="19.5" width="102" height="153"/></clipPath></defs><g class="cls-2"><g><path class="cls-7" d="M96,96c0-6.76,2.69-13.25,7.47-18.03,4.78-4.78,11.27-7.47,18.03-7.47s13.25,2.69,18.03,7.47c4.78,4.78,7.47,11.27,7.47,18.03s-2.69,13.25-7.47,18.03c-4.78,4.78-11.27,7.47-18.03,7.47s-13.25-2.69-18.03-7.47c-4.78-4.78-7.47-11.27-7.47-18.03Z"/><path class="cls-6" d="M45,147c0-6.76,2.69-13.25,7.47-18.03,4.78-4.78,11.27-7.47,18.03-7.47h25.5v25.5c0,6.76-2.69,13.25-7.47,18.03-4.78,4.78-11.27,7.47-18.03,7.47s-13.25-2.69-18.03-7.47c-4.78-4.78-7.47-11.27-7.47-18.03h0Z"/><path class="cls-4" d="M96,19.5v51h25.5c6.76,0,13.25-2.69,18.03-7.47,4.78-4.78,7.47-11.27,7.47-18.03s-2.69-13.25-7.47-18.03c-4.78-4.78-11.27-7.47-18.03-7.47h-25.5Z"/><path class="cls-3" d="M45,45c0,6.76,2.69,13.25,7.47,18.03,4.78,4.78,11.27,7.47,18.03,7.47h25.5V19.5h-25.5c-6.76,0-13.25,2.69-18.03,7.47-4.78,4.78-7.47,11.27-7.47,18.03h0Z"/><path class="cls-5" d="M45,96c0,6.76,2.69,13.25,7.47,18.03,4.78,4.78,11.27,7.47,18.03,7.47h25.5v-51h-25.5c-6.76,0-13.25,2.69-18.03,7.47-4.78,4.78-7.47,11.27-7.47,18.03h0Z"/></g></g></svg>