<?xml version="1.0" encoding="UTF-8"?><svg id="Capa_2" xmlns="http://www.w3.org/2000/svg" xmlns:xlink="http://www.w3.org/1999/xlink" viewBox="0 0 192 192"><defs><style>.cls-1{fill:none;}.cls-2{fill:#f57c00;}.cls-3{fill:#ffa000;}.cls-4{fill:#ffca28;}.cls-5{fill:rgba(255,255,255,.2);}.cls-6{fill:#a52714;isolation:isolate;opacity:.2;}.cls-7{fill:url(#Degradado_sin_nombre_4);}</style><linearGradient id="Degradado_sin_nombre_4" x1="-2624.22" y1="482.89" x2="-2622.91" y2="481.95" gradientTransform="translate(249333.16 63301.05) scale(95 -131)" gradientUnits="userSpaceOnUse"><stop offset="0" stop-color="#fff" stop-opacity=".1"/><stop offset=".14" stop-color="#fff" stop-opacity=".08"/><stop offset=".61" stop-color="#fff" stop-opacity=".02"/><stop offset="1" stop-color="#fff" stop-opacity="0"/></linearGradient></defs><g id="outline"><rect class="cls-1" width="192" height="192"/></g><g id="icons"><g><path class="cls-3" d="M36.48,146.24L56.64,17.28c.25-1.58,1.48-2.83,3.05-3.1s3.15,.5,3.91,1.91l20.84,38.87,8.31-15.82c.64-1.22,1.91-1.99,3.29-1.99s2.65,.77,3.29,1.99l56.25,107.09H36.48Z"/><path class="cls-2" d="M106.11,96.01l-21.68-41.05-47.95,91.29,69.63-50.24Z"/><path class="cls-4" d="M155.58,146.24l-15.44-95.52c-.23-1.37-1.21-2.5-2.54-2.92s-2.78-.07-3.76,.91L36.48,146.24l53.87,30.21c3.38,1.89,7.5,1.89,10.89,0l54.34-30.21h0Z"/><path class="cls-5" d="M140.15,50.72c-.23-1.37-1.21-2.5-2.54-2.92s-2.78-.07-3.76,.91l-19.32,19.37-15.2-28.93c-.64-1.22-1.91-1.99-3.29-1.99s-2.65,.77-3.29,1.99l-8.31,15.82L63.59,16.1c-.76-1.41-2.33-2.18-3.91-1.91s-2.81,1.52-3.05,3.1l-20.14,128.95h-.06l.06,.07,.53,.26L133.82,49.66c.98-.99,2.44-1.34,3.77-.92s2.31,1.55,2.54,2.93l15.31,94.66,.15-.09-15.44-95.52h0ZM36.66,146.07L56.64,18.2c.24-1.58,1.47-2.83,3.05-3.1s3.15,.5,3.91,1.91l20.84,38.87,8.31-15.82c.64-1.22,1.91-1.99,3.29-1.99s2.65,.77,3.29,1.99l14.89,28.31L36.66,146.07h0Z"/><path class="cls-6" d="M101.24,175.54c-3.38,1.89-7.5,1.89-10.89,0l-53.74-30.13-.13,.83,53.87,30.2c3.38,1.89,7.5,1.89,10.89,0l54.34-30.2-.14-.86-54.2,30.16h0Z"/><path id="b" class="cls-7" d="M139.99,50.74c-.23-1.37-1.21-2.5-2.53-2.92s-2.77-.07-3.75,.91l-19.26,19.36-15.14-28.92c-.64-1.22-1.91-1.99-3.28-1.99s-2.64,.77-3.28,1.99l-8.28,15.81L63.7,16.13c-.75-1.41-2.32-2.18-3.9-1.91s-2.8,1.52-3.04,3.1l-20.07,128.9,53.69,30.19c3.37,1.89,7.48,1.89,10.85,0l54.15-30.19-15.38-95.48h0Z"/></g></g></svg>