<?xml version="1.0" encoding="UTF-8"?><svg id="icons" xmlns="http://www.w3.org/2000/svg" xmlns:xlink="http://www.w3.org/1999/xlink" viewBox="0 0 192 192"><defs><style>.cls-1{fill:none;}.cls-2{clip-path:url(#clippath);}.cls-3{mask:url(#mask);}.cls-4{clip-path:url(#clippath-1);}.cls-5{clip-path:url(#clippath-2);}.cls-6{opacity:.5;}.cls-7{fill:url(#Degradado_sin_nombre_2);}.cls-8{fill:url(#Degradado_sin_nombre_3);}</style><clipPath id="clippath"><rect class="cls-1" x="212" width="192" height="192"/></clipPath><clipPath id="clippath-1"><rect class="cls-1" x="212" width="192" height="192"/></clipPath><clipPath id="clippath-2"><rect class="cls-1" x="232" y="20" width="152" height="152" rx="12" ry="12"/></clipPath><radialGradient id="Degradado_sin_nombre_3" cx="-1161.33" cy="-710.28" fx="-1161.33" fy="-710.28" r="1" gradientTransform="translate(145649.64 237630.67) rotate(90) scale(204.62 -204.62)" gradientUnits="userSpaceOnUse"><stop offset="0" stop-color="#1a1a1a"/><stop offset="1" stop-color="#000"/></radialGradient><mask id="mask" x="156" y="-56" width="304" height="304" maskUnits="userSpaceOnUse"><rect class="cls-8" x="200.52" y="-11.48" width="214.96" height="214.96" transform="translate(22.33 245.91) rotate(-45)"/></mask><radialGradient id="Degradado_sin_nombre_2" cx="-1161.33" cy="-710.28" fx="-1161.33" fy="-710.28" r="1" gradientTransform="translate(145649.64 237630.67) rotate(90) scale(204.62 -204.62)" gradientUnits="userSpaceOnUse"><stop offset="0" stop-color="#fff"/><stop offset="1" stop-color="#fff"/></radialGradient></defs><g class="cls-6"><g class="cls-2"><g class="cls-4"><g class="cls-5"><g class="cls-3"><rect class="cls-7" x="200.52" y="-11.48" width="214.96" height="214.96" transform="translate(22.33 245.91) rotate(-45)"/></g></g></g></g></g><path d="M145.75,78.04h-35.84l39.64,37.44c2.22,2.1,2.32,5.59,.22,7.81-1.04,1.11-2.5,1.73-4.02,1.73h-44.22v41.45c0,3.05-2.47,5.53-5.53,5.53-1.41,0-2.77-.54-3.8-1.51l-49.75-46.98c-1.11-1.04-1.73-2.5-1.73-4.02v-46.98c0-3.05,2.47-5.53,5.53-5.53h35.84L42.46,29.55c-2.22-2.1-2.32-5.59-.22-7.81,1.04-1.11,2.5-1.73,4.02-1.73h99.49c3.05,0,5.53,2.47,5.53,5.53v46.98c0,3.05-2.47,5.53-5.53,5.53Z"/></svg>