<?xml version="1.0" encoding="UTF-8"?><svg id="icons" xmlns="http://www.w3.org/2000/svg" viewBox="0 0 192 192"><defs><style>.cls-1{fill:#fbbc04;}.cls-2{fill:#ea4335;}.cls-3{fill:#4285f4;}.cls-4{fill:#34a853;}.cls-5{fill:#1a73e8;}</style></defs><path class="cls-5" d="M114.5,11.1c-5.84-1.84-12.05-2.85-18.5-2.85-18.82,0-35.65,8.51-46.88,21.87l28.93,24.34L114.5,11.1Z"/><path class="cls-2" d="M49.11,30.12c-8.94,10.64-14.34,24.38-14.34,39.36,0,11.52,2.3,20.85,6.06,29.21l37.21-44.23-28.93-24.34Z"/><path class="cls-3" d="M96.01,46.07c12.94,0,23.42,10.48,23.42,23.42,0,5.76-2.08,11.04-5.53,15.11,0,0,18.5-22,36.45-43.34-7.42-14.26-20.28-25.24-35.83-30.16l-36.48,43.35c4.3-5.14,10.75-8.39,17.97-8.39"/><path class="cls-1" d="M96.01,92.89c-12.94,0-23.42-10.48-23.42-23.42,0-5.72,2.06-10.96,5.45-15.03l-37.21,44.24c6.36,14.11,16.93,25.42,27.83,39.69l45.22-53.77c-4.29,5.07-10.71,8.29-17.87,8.29"/><path class="cls-4" d="M112.99,153.04c20.42-31.94,44.24-46.44,44.24-83.57,0-10.18-2.49-19.77-6.89-28.21l-81.67,97.1c3.46,4.54,6.95,9.37,10.36,14.69,12.42,19.19,8.97,30.69,16.98,30.69,7.99,0,4.55-11.52,16.97-30.71"/></svg>