<?xml version="1.0" encoding="UTF-8"?><svg id="icons" xmlns="http://www.w3.org/2000/svg" viewBox="0 0 192 192"><defs><style>.cls-1{fill:#fff;}.cls-2{fill:#feb571;}</style></defs><path class="cls-2" d="M173.5,95.8c0,42.83-34.76,77.41-77.41,77.41-42.83,.18-77.59-34.58-77.59-77.41S53.26,18.39,95.91,18.39s77.59,34.76,77.59,77.41"/><g><path class="cls-1" d="M33.37,89.35c.9,0,4.48-.18,16.66-.18,.18,0,.54,.18,.54,.36,3.4,9.14,12.36,16.66,24.37,20.79,.54,.18,.54,.9,0,1.08-1.08,.54-2.69,1.08-3.23,1.43-1.08,.54-2.69,1.79-3.58,3.23-.72,1.08-1.25,2.51-1.61,3.4-.18,.54-.18,1.43-.18,2.51,0,2.33,.36,5.55,1.25,7.71,.9,2.51,1.43,3.23,2.51,5.73,.54,1.08,.9,2.15,1.08,2.51v.54c-.36,.36-.9,1.25-1.97,1.79-1.79,1.08-5.73,1.43-7.71,1.43h0c-1.97,0-5.73-.36-7.71-1.43-1.08-.54-1.61-1.43-1.97-1.79-.18-.18-.18-.36,0-.54,.18-.54,.72-1.43,1.08-2.51,1.08-2.51,1.61-3.23,2.51-5.73,.9-2.15,1.25-5.38,1.25-7.71,0-1.08,0-1.97-.18-2.51-.18-.9-.9-2.33-1.43-3.4-.9-1.43-2.51-2.69-3.58-3.23-.72-.36-3.4-1.43-4.3-1.97-1.25-.72-2.87-1.79-4.12-2.69s-3.58-3.4-4.66-4.48c-1.79-2.33-3.58-4.84-4.3-7.71-1.08-3.58-.9-5.02-1.08-6.27,0-.18,.18-.36,.36-.36"/><path class="cls-1" d="M141.07,71.97c-1.97,0-10.57-.18-45.87-.18s-43.9,.18-45.87,.18c-.36,0-.54,.36-.54,.54,.18,1.79,.18,4.3,1.79,10.03,1.25,4.66,4.12,8.96,6.99,12.54,1.61,1.97,5.55,5.73,7.53,7.35,1.79,1.43,4.48,3.23,6.63,4.3,1.61,.9,5.73,2.51,6.99,3.05,1.79,.9,4.3,2.87,5.91,5.2,1.08,1.79,2.15,4.12,2.51,5.55,.18,.9,.36,2.33,.36,3.94,0,3.94-.72,8.96-1.97,12.54-1.43,3.94-2.33,5.38-4.12,9.32-.72,1.79-1.43,3.4-1.79,4.12-.18,.36-.18,.72,.18,.9,.54,.72,1.43,1.97,3.23,3.05,3.05,1.61,9.32,2.15,12.36,2.15h0c3.05,0,9.5-.54,12.36-2.15,1.79-.9,2.69-2.33,3.23-3.05,.18-.36,.18-.72,.18-.9-.36-.72-1.08-2.51-1.79-4.12-1.79-4.12-2.51-5.38-4.12-9.32-1.25-3.58-1.97-8.6-1.97-12.54,0-1.61,0-3.05,.36-3.94,.36-1.61,1.43-3.76,2.51-5.55,1.43-2.33,4.12-4.3,5.91-5.2,1.25-.72,5.38-2.15,6.99-3.05,1.97-1.08,4.66-2.87,6.63-4.3,1.97-1.61,5.91-5.38,7.53-7.35,2.87-3.58,5.73-7.88,6.99-12.54,1.61-5.73,1.61-8.24,1.79-10.03-.36-.18-.54-.54-.9-.54"/><path class="cls-1" d="M157.55,89.35c-.9,0-4.48-.18-16.66-.18-.18,0-.54,.18-.54,.36-3.58,9.32-12.54,16.84-24.37,20.97-.54,.18-.54,.9,0,1.08,1.08,.54,2.69,1.08,3.23,1.43,1.08,.54,2.69,1.79,3.58,3.23,.72,1.08,1.25,2.51,1.61,3.4,.18,.54,.18,1.43,.18,2.51,0,2.33-.36,5.55-1.25,7.71-.9,2.51-1.43,3.23-2.51,5.73-.54,1.08-.9,2.15-1.08,2.51v.54c.36,.36,.9,1.25,1.97,1.79,1.79,1.08,5.73,1.43,7.71,1.43h0c1.97,0,5.73-.36,7.71-1.43,1.08-.54,1.61-1.43,1.97-1.79,.18-.18,.18-.36,0-.54-.18-.54-.72-1.43-1.08-2.51-1.08-2.51-1.61-3.23-2.51-5.73-.9-2.15-1.25-5.38-1.25-7.71,0-1.08,0-1.97,.18-2.51,.18-.9,.9-2.33,1.43-3.4,.9-1.43,2.51-2.69,3.58-3.23,.72-.36,3.4-1.43,4.3-1.97,1.25-.72,2.87-1.79,4.12-2.69,1.25-.9,3.58-3.4,4.66-4.48,1.79-2.33,3.58-4.84,4.3-7.71,1.08-3.58,.9-5.02,1.08-6.27-.18-.36-.18-.54-.36-.54"/></g><path class="cls-1" d="M58.82,64.62c-1.43,0-2.69-.18-3.94-.72-1.25-.36-2.15-1.08-3.05-1.97s-1.61-1.79-1.97-3.05c-.54-1.08-.9-2.33-.9-3.76s.18-2.87,.72-3.94c.54-1.25,1.25-2.15,1.97-3.05,.9-.9,1.97-1.43,3.05-1.97,1.25-.36,2.51-.72,3.94-.72s2.87,.18,4.12,.54c1.25,.36,2.15,.9,3.23,1.79l-2.69,3.05c-.54-.54-1.08-.9-1.79-1.25s-1.61-.36-2.69-.36c-.9,0-1.61,.18-2.33,.36-.72,.36-1.25,.72-1.79,1.25-.54,.54-.9,1.25-1.25,1.97s-.36,1.61-.36,2.33c0,.9,.18,1.61,.36,2.33,.36,.72,.72,1.43,1.25,1.97s1.08,.9,1.79,1.25,1.43,.36,2.33,.36,1.61-.18,2.33-.36c.54-.18,1.08-.36,1.43-.54h0v-3.05h-3.23v-3.58h6.99v9.5c-1.25,.54-2.33,1.08-3.58,1.25-1.25,.18-2.51,.36-3.94,.36"/><path class="cls-1" d="M73.87,53.69h3.58c.36,0,.72-.18,1.08-.18,.36-.18,.72-.36,.9-.72,.18-.36,.36-.72,.36-1.25s-.18-.9-.36-1.25c-.18-.36-.54-.54-.72-.72-.36-.18-.72-.18-1.08-.36h-3.76s0,4.48,0,4.48Zm5.91,10.57l-3.76-7.35h-2.15v7.35h-3.76v-18.28h6.99c.9,0,1.79,0,2.69,.36,.9,.18,1.61,.54,2.15,.9,.54,.36,1.08,.9,1.43,1.61s.54,1.61,.54,2.69c0,1.25-.36,2.33-1.08,3.23-.72,.9-1.61,1.43-2.69,1.61h-.36l4.66,7.71h-4.66v.18Z"/><path class="cls-1" d="M92.86,57.1h4.84l-2.33-6.09-2.51,6.09Zm7.71,7.17l-1.61-3.94h-7.35l-1.43,3.94h-4.3l7.88-18.28h3.23l7.88,18.1h-4.3v.18Z"/><rect class="cls-1" x="107.2" y="45.99" width="3.76" height="18.1"/><polygon class="cls-1" points="115.62 64.26 115.62 45.99 119.56 45.99 119.56 60.68 126.91 60.68 126.91 64.26 115.62 64.26"/><path class="cls-1" d="M134.79,64.62c-1.25,0-2.33-.18-3.23-.54-.9-.36-1.97-.9-2.69-1.61l2.69-3.05c.36,.54,.9,.9,1.61,1.25,.72,.36,1.25,.54,1.97,.54,.36,0,.72,0,1.08-.18,.36,0,.72-.18,.9-.36,.36-.18,.54-.36,.72-.72,.18-.18,.18-.54,.18-.9,0-.54-.18-1.08-.72-1.43-.36-.36-.9-.54-1.61-.9-.72-.18-1.25-.54-2.15-.72-.72-.18-1.43-.54-1.97-.9s-1.08-.9-1.61-1.43c-.36-.54-.54-1.43-.54-2.33s.18-1.79,.54-2.51,.9-1.43,1.61-1.79c.72-.54,1.43-.9,2.15-1.08,.9-.18,1.79-.36,2.51-.36,1.08,0,1.97,.18,3.05,.36,.9,.36,1.79,.72,2.51,1.43l-2.69,2.87c-.36-.36-.72-.72-1.25-.9-.54-.18-1.08-.36-1.61-.36-.36,0-.54,0-.9,.18-.36,0-.54,.18-.9,.36s-.54,.36-.72,.54c-.18,.18-.36,.54-.36,.9,0,.54,.18,1.08,.72,1.43,.36,.36,.9,.54,1.61,.72s1.25,.36,1.97,.54c.72,.18,1.43,.54,1.97,.9,.54,.36,1.08,.9,1.61,1.43,.36,.54,.54,1.43,.54,2.51s-.18,1.97-.54,2.69c-.36,.72-.9,1.43-1.43,1.79-.72,.54-1.43,.9-2.15,1.08-1.08,.54-1.97,.54-2.87,.54"/><path class="cls-1" d="M144.29,48.32c0-.54,.18-1.08,.36-1.43s.54-.9,1.08-1.08c.54-.18,.9-.36,1.43-.36s1.08,.18,1.43,.36c.54,.18,.72,.54,1.08,1.08s.36,.9,.36,1.43-.18,1.08-.36,1.43c-.18,.54-.54,.9-1.08,1.08-.54,.18-.9,.36-1.43,.36s-1.08-.18-1.43-.36c-.54-.18-.72-.54-1.08-1.08-.18-.36-.36-.9-.36-1.43Zm5.38,0c0-.36-.18-.9-.36-1.25-.18-.36-.54-.72-.9-.9s-.72-.36-1.25-.36c-.36,0-.9,.18-1.25,.36-.36,.18-.72,.54-.9,.9-.18,.36-.36,.72-.36,1.25s.18,.9,.36,1.25,.54,.72,.9,.9,.72,.36,1.25,.36,.9-.18,1.25-.36,.72-.54,.9-.9,.36-.72,.36-1.25Zm-3.05,.36v1.25h-.54v-3.4h1.08c.36,0,.72,0,.9,.18s.36,.36,.36,.72-.18,.54-.54,.72c.18,0,.36,.18,.36,.36s.18,.36,.18,.54v.72h-.72v-.72c0-.18,0-.36-.18-.36s-.18-.18-.54-.18h-.36v.18Zm0-.54h.54c.18,0,.36,0,.54-.18,.18,0,.18-.18,.18-.36s0-.36-.18-.36-.36-.18-.54-.18h-.54v1.08Z"/></svg>