<?xml version="1.0" encoding="UTF-8"?><svg id="icons" xmlns="http://www.w3.org/2000/svg" viewBox="0 0 192 192"><defs><style>.cls-1{fill:#430098;}</style></defs><polygon class="cls-1" points="61.32 150.25 78.76 134.75 61.32 119.25 61.32 150.25"/><g><path class="cls-1" d="M151.61,18.5H40.39c-7.75,0-13.95,6.2-13.95,13.95v127.1c0,7.75,6.2,13.95,13.95,13.95h111.21c7.75,0,13.95-6.2,13.95-13.95V32.45c0-7.75-6.2-13.95-13.95-13.95Zm6.2,141.05c0,3.49-2.71,6.2-6.2,6.2H40.39c-3.49,0-6.2-2.71-6.2-6.2V32.45c0-3.49,2.71-6.2,6.2-6.2h111.21c3.49,0,6.2,2.71,6.2,6.2v127.1Z"/><path class="cls-1" d="M124.09,87.47c-3.1-3.1-8.91-6.98-18.6-6.98-10.46,0-21.31,2.71-29.06,5.42V41.75h-15.5V108.79l10.85-5.04s17.82-8.14,33.32-8.14c7.75,0,9.69,4.26,9.69,8.14v46.5h15.5v-46.5c.39-1.16,.39-9.69-6.2-16.27Z"/></g><path class="cls-1" d="M103.56,66.94h15.5c6.98-8.14,10.46-16.27,11.62-25.19h-15.5c-1.55,8.91-5.43,17.05-11.62,25.19Z"/></svg>