<?xml version="1.0" encoding="UTF-8"?><svg id="Capa_2" xmlns="http://www.w3.org/2000/svg" viewBox="0 0 192 192"><defs><style>.cls-1{fill:none;}</style></defs><g id="outline"><rect class="cls-1" width="192" height="192"/></g><g id="icons"><path d="M171.94,61.82c.34-7.29-.68-14.6-3-21.53-3.73-8.85-11.22-15.56-20.41-18.31-6-1.49-12.17-2.15-18.36-1.93H61.83c-6.17-.22-12.36,.44-18.36,1.93-9.19,2.75-16.68,9.46-20.41,18.31-2.31,6.93-3.34,14.22-3,21.53v68.33c-.32,7.31,.7,14.6,3,21.53,3.73,8.85,11.22,15.56,20.41,18.31,6,1.49,12.17,2.15,18.36,1.93h68.33c6.17,.22,12.36-.44,18.36-1.93,9.19-2.75,16.68-9.46,20.41-18.31,2.31-6.93,3.34-14.22,3-21.53V61.82ZM50.19,124.47h-5.64v-33.73h5.64v33.73Zm-2.83-39.43c-1.93-.02-3.49-1.59-3.48-3.54,.02-1.93,1.59-3.49,3.54-3.48,1.92,.02,3.48,1.58,3.48,3.51-.02,1.95-1.59,3.53-3.54,3.51h0Zm33.92,40.28c-14.9,0-24.29-10.65-24.29-27.58s9.37-27.61,24.29-27.61,24.33,10.68,24.33,27.61-9.37,27.58-24.33,27.58Zm49.19,0c-11.19,0-19.05-6.17-19.61-15.39h5.09c.56,6.42,6.59,10.78,14.99,10.78s13.76-4.37,13.76-10.37c0-5-3.46-7.97-11.39-9.97l-6.65-1.71c-9.9-2.53-14.31-6.71-14.31-13.76,0-8.65,7.78-14.8,18.31-14.8s18.04,6.17,18.36,14.65h-5.09c-.47-6.03-5.83-10.05-13.43-10.05s-12.9,4.12-12.9,10c0,4.59,3.32,7.31,11.19,9.31l5.8,1.49c10.75,2.71,15.27,6.83,15.27,14.27,.02,9.41-7.56,15.56-19.39,15.56h0Zm-49.19-50.5c-11.71,0-19.09,8.87-19.09,22.92s7.37,22.87,19.09,22.87,19.14-8.87,19.14-22.87-7.41-22.92-19.14-22.92h0Z"/></g></svg>