<?xml version="1.0" encoding="UTF-8"?><svg id="icons" xmlns="http://www.w3.org/2000/svg" viewBox="0 0 192 192"><defs><style>.cls-1{fill:#0c61a7;}</style></defs><path class="cls-1" d="M28.35,56.42c-13.73,19.72-12.03,45.37-1.53,66.33,.24,.51,.51,1,.76,1.49,.15,.32,.32,.64,.5,.96,.08,.17,.2,.37,.3,.53,.17,.34,.35,.66,.53,.98,.34,.57,.67,1.15,1.01,1.71,.19,.31,.37,.63,.59,.94,.36,.61,.78,1.21,1.15,1.82,.17,.26,.33,.51,.51,.76,.54,.82,1.08,1.63,1.68,2.43,0,.02,.02,.04,.05,.06,.09,.13,.19,.26,.28,.39,.51,.69,1.01,1.37,1.54,2.03,.18,.25,.38,.49,.56,.74,.48,.58,.96,1.17,1.43,1.75,.18,.21,.36,.43,.55,.64,.63,.76,1.29,1.51,1.97,2.25,0,.01,.02,.03,.03,.05,.02,.03,.05,.06,.09,.08,.65,.71,1.31,1.42,1.99,2.11,.21,.21,.43,.42,.66,.65,.52,.52,1.04,1.05,1.58,1.57,.23,.21,.45,.42,.66,.63,.72,.67,1.44,1.35,2.19,2,.01,.01,.02,.02,.03,.03,.12,.11,.26,.21,.37,.32,.66,.57,1.33,1.13,2,1.69,.27,.22,.54,.44,.81,.66,.56,.44,1.12,.87,1.69,1.3,.29,.22,.58,.45,.89,.67,.61,.46,1.24,.9,1.86,1.34,.22,.16,.45,.33,.68,.48,.06,.05,.12,.1,.18,.14,.62,.4,1.2,.8,1.81,1.2,.27,.17,.53,.34,.79,.52,.95,.6,1.89,1.18,2.82,1.74,.27,.14,.54,.29,.8,.45,.7,.4,1.4,.8,2.12,1.19,.39,.22,.79,.41,1.19,.61,.48,.26,.99,.53,1.51,.8,.12,.05,.25,.1,.36,.16,.21,.1,.41,.2,.62,.3,.79,.39,1.59,.75,2.43,1.12,.16,.07,.33,.14,.49,.23,.93,.4,1.87,.79,2.82,1.17,.22,.08,.45,.19,.69,.26,.86,.34,1.77,.67,2.65,.99,.11,.04,.21,.08,.33,.12,.99,.34,1.97,.66,2.97,.97,.24,.07,.47,.15,.72,.21,1.02,.31,2.01,.67,3.06,.86,66.36,12.1,85.64-39.88,85.64-39.88-16.2,21.09-44.95,26.66-72.18,20.46-1.01-.23-2.01-.55-3.04-.85-.24-.07-.51-.15-.74-.23-.99-.3-1.97-.62-2.92-.94-.13-.05-.28-.1-.41-.15-.87-.3-1.72-.62-2.57-.96-.24-.1-.48-.19-.72-.27-.94-.37-1.88-.77-2.79-1.17-.2-.07-.37-.16-.56-.24-.8-.37-1.56-.72-2.34-1.1-.24-.1-.45-.21-.69-.33-.61-.29-1.21-.61-1.81-.92-.41-.21-.82-.41-1.21-.63-.73-.39-1.46-.81-2.19-1.21-.23-.15-.47-.28-.73-.42-.94-.56-1.9-1.14-2.83-1.74-.27-.17-.52-.34-.77-.51-.68-.43-1.36-.89-2.02-1.34-.21-.15-.43-.31-.65-.47-.64-.45-1.27-.91-1.91-1.37-.27-.21-.55-.43-.84-.64-.57-.44-1.15-.88-1.72-1.34-.25-.21-.51-.41-.75-.61-.74-.6-1.44-1.19-2.15-1.81-.07-.07-.17-.13-.25-.2-.75-.67-1.51-1.37-2.25-2.05-.22-.21-.41-.41-.64-.61-.54-.53-1.08-1.05-1.61-1.58-.23-.22-.43-.43-.64-.65-.67-.68-1.34-1.38-1.99-2.1-.03-.03-.07-.06-.1-.1-.68-.75-1.35-1.52-2.01-2.29-.18-.21-.35-.42-.53-.63-.48-.6-.97-1.2-1.46-1.79-.16-.23-.34-.45-.52-.67-.57-.74-1.12-1.47-1.68-2.23-15.11-20.61-20.56-49.06-8.48-72.41"/><path class="cls-1" d="M70.96,39.79c-9.95,14.28-9.4,33.39-1.65,48.5,1.28,2.53,2.74,4.99,4.38,7.32,1.49,2.14,3.13,4.67,5.12,6.38,.7,.79,1.45,1.55,2.23,2.32,.19,.19,.38,.38,.58,.58,.74,.71,1.5,1.42,2.27,2.1,.02,.03,.07,.06,.09,.08,.01,0,.02,.02,.02,.02,.87,.77,1.74,1.49,2.65,2.2,.21,.15,.4,.32,.62,.47,.9,.7,1.82,1.38,2.75,2.04,.03,.01,.06,.03,.1,.05,.4,.29,.83,.56,1.27,.84,.19,.12,.39,.27,.59,.39,.69,.44,1.36,.86,2.06,1.27,.1,.05,.2,.11,.3,.16,.58,.35,1.2,.7,1.82,1.02,.21,.13,.43,.23,.64,.35,.43,.21,.85,.44,1.27,.66,.06,.03,.14,.06,.2,.09,.88,.43,1.77,.83,2.64,1.23,.21,.08,.39,.16,.6,.24,.72,.31,1.45,.61,2.17,.89,.33,.11,.63,.24,.93,.34,.66,.24,1.34,.47,2,.69,.33,.11,.62,.2,.91,.29,.94,.3,1.9,.68,2.9,.84,51.22,8.49,63.07-30.96,63.07-30.96-10.67,15.37-31.32,22.69-53.36,16.97-.99-.25-1.96-.53-2.9-.84-.3-.08-.57-.18-.87-.28-.68-.22-1.37-.45-2.04-.7-.3-.11-.62-.23-.92-.34-.73-.29-1.46-.57-2.17-.88-.21-.08-.42-.16-.58-.25-.91-.39-1.81-.81-2.69-1.24-.45-.23-.89-.46-1.34-.69-.27-.14-.53-.26-.76-.39-.6-.31-1.15-.64-1.71-.97-.14-.07-.27-.14-.4-.22-.68-.42-1.39-.83-2.05-1.26-.23-.13-.42-.28-.63-.41-.45-.29-.89-.57-1.35-.88-.93-.65-1.84-1.33-2.75-2.02-.21-.17-.41-.33-.62-.5-9.67-7.61-17.31-18.02-20.93-29.81-3.82-12.24-2.98-25.99,3.61-37.13"/><path class="cls-1" d="M106.77,27.38c-5.87,8.61-6.43,19.31-2.38,28.81,4.29,10.1,13.07,18.02,23.3,21.77,.42,.16,.83,.3,1.26,.45,.19,.06,.37,.12,.57,.18,.6,.19,1.19,.41,1.81,.53,28.3,5.46,35.96-14.52,38.02-17.46-6.74,9.68-18.03,12-31.9,8.63-1.09-.26-2.28-.66-3.34-1.04-1.35-.48-2.69-1.03-3.99-1.65-2.44-1.18-4.8-2.61-6.98-4.27-12.41-9.41-20.1-27.36-12.01-41.98"/></svg>