<?xml version="1.0" encoding="UTF-8"?><svg id="outline" xmlns="http://www.w3.org/2000/svg" viewBox="0 0 192 192"><defs><style>.cls-1{fill:#fd2;}.cls-2{fill:#222;}</style></defs><rect class="cls-1" x="18.5" y="18.5" width="155" height="155" rx="23.25" ry="23.25"/><path class="cls-2" d="M145.04,111.14l-1.82-5.15s7.57-11.5-11.2-15.44c0,0,1.21-14.23-5.45-20.89,14.53-14.23,11.2-35.72-21.8-21.8C87.83,15.47,22.44,91.46,49.68,103.57c-2.72,3.63-2.72,21.8,16.04,23.61,12.71,27.25,43.59,29.06,61.46,20.89s28.15-34.21,17.86-36.93Zm-79.62,12.11c-15.44-1.51-16.95-22.71-3.63-24.82s16.65,26.04,3.63,24.82Zm-4.54-28.76c-4.24,0-9.38,5.75-9.38,5.75-20.59-9.99,37.24-76.29,49.65-50.56,0,0-30.27,14.53-40.26,44.8Zm60.55,25.73c0-1.21-6.36,1.82-17.86-2.12,.91-6.36,14.53,5.45,37.24-9.99l1.82,6.36c8.48-1.51,0,27.25-27.25,26.94-22.1-.3-29.06-23.01-16.95-35.42,2.42-2.42-8.78-7.27-6.66-17.86,.91-4.54,4.84-11.2,14.83-9.38s12.11-7.27,18.77-3.94,2.72,16.04,3.63,17.86,10.6,2.12,12.41,7.27-12.41,16.35-34.51,13.32c-5.15-.61-8.17,6.05-4.84,10.29,6.66,9.69,33.91,3.33,38.45-6.05-11.5,8.78-35.12,12.11-36.93,2.72,6.66,3.03,17.86,1.21,17.86,0Zm-39.66-47.83c6.66-8.17,15.44-13.02,15.44-13.02l-1.82,4.54s6.36-4.84,13.32-4.84l-2.42,2.42c7.87,.3,11.2,3.33,11.2,3.33,0,0-18.47-5.45-35.72,7.57Zm40.87,11.81c3.94-.3,2.72,8.78,2.72,8.78h-2.42s-4.24-8.48-.3-8.78Zm-17.86,9.99c-2.72,.3-5.75,1.82-5.45,.61,1.21-4.84,12.41-3.63,12.11,.61s-2.72-1.82-6.66-1.21Zm6.36,3.63c.3,.61-2.12,0-3.94,.3s-3.63,1.21-3.63,.61,6.96-3.33,7.57-.91Zm6.05,.91c.91-1.82,4.54,0,3.63,1.82s-4.54,0-3.63-1.82Zm7.57,.61c-1.82,0-1.82-3.94,0-3.94s1.82,4.24,0,4.24v-.3Zm-54.49,16.04c.91,.91-1.82,2.72-3.94,1.21s2.42-8.78-3.03-10.6-3.94,5.15-5.45,4.24,2.12-10.6,8.48-6.66-1.82,9.99,1.82,11.81,1.51-.61,2.12,0Z"/></svg>