<?xml version="1.0" encoding="UTF-8"?><svg id="Capa_2" xmlns="http://www.w3.org/2000/svg" viewBox="0 0 192 192"><defs><style>.cls-1{fill:none;}.cls-2{fill:#fff;}.cls-3{fill:#1784b2;}.cls-4{fill:#356290;}.cls-5{fill:#50bfc3;}</style></defs><g id="outline"><rect class="cls-1" width="192" height="192"/><rect class="cls-1" width="192" height="192"/></g><g id="icons"><g id="Group_382"><path id="Path_1" class="cls-4" d="M163.15,128.96c0,3.6-1.92,6.92-5.03,8.72l-57.08,32.96c-3.12,1.8-6.96,1.8-10.07,0l-57.08-32.96c-3.11-1.8-5.03-5.12-5.03-8.72V63.04c0-3.6,1.92-6.92,5.03-8.72L90.97,21.36c3.12-1.8,6.96-1.8,10.07,0l57.07,32.96c3.11,1.8,5.03,5.12,5.03,8.72v65.93Z"/><path id="Path_252" class="cls-3" d="M153.36,121.3c0,4.84-2.58,9.32-6.78,11.74l-43.8,25.29c-4.2,2.42-9.36,2.42-13.56,0l-43.79-25.29c-4.19-2.42-6.78-6.9-6.78-11.74v-50.58c0-4.84,2.58-9.32,6.78-11.74l43.79-25.29c4.2-2.42,9.36-2.42,13.56,0l43.8,25.29c4.19,2.42,6.78,6.9,6.78,11.74v50.58Z"/><path id="Path_251" class="cls-5" d="M143.97,118.98c0,2.91-1.55,5.61-4.08,7.06l-39.81,22.98c-2.52,1.46-5.63,1.46-8.15,0l-39.81-22.98c-2.52-1.46-4.08-4.15-4.08-7.06v-45.96c0-2.91,1.55-5.61,4.08-7.06l39.82-22.98c2.52-1.46,5.63-1.46,8.15,0l39.81,22.98c2.52,1.46,4.08,4.15,4.08,7.06v45.96Z"/><path id="_" class="cls-2" d="M83.65,110.75v-8.35l-14.55-4.89,14.55-5.02v-8.35l-23.65,9.68v7.25l23.65,9.68Zm8.63,6.53l13.45-42.53h-6.56l-13.45,42.53h6.56Zm16.06-6.53l23.65-9.76v-7.22l-23.65-9.63v8.56l13.22,5.2-13.22,4.33v8.53Z"/></g></g></svg>