<?xml version="1.0" encoding="UTF-8"?><svg id="Capa_2" xmlns="http://www.w3.org/2000/svg" viewBox="0 0 192 192"><defs><style>.cls-1{fill:none;}.cls-2{fill:#5fa04e;}</style></defs><g id="outline"><rect class="cls-1" width="192" height="192"/><g><path class="cls-2" d="M96,172c-2.08,0-4.03-.56-5.83-1.54l-18.46-11.03c-2.78-1.54-1.39-2.09-.55-2.37,3.75-1.26,4.44-1.54,8.33-3.77,.42-.28,.97-.14,1.39,.14l14.16,8.52c.55,.28,1.25,.28,1.66,0l55.37-32.26c.55-.28,.83-.84,.83-1.54V63.78c0-.7-.28-1.26-.83-1.54L96.69,30.12c-.55-.28-1.25-.28-1.66,0L39.66,62.24c-.56,.28-.83,.98-.83,1.54v64.38c0,.56,.28,1.26,.83,1.54l15.13,8.8c8.19,4.19,13.32-.7,13.32-5.59v-63.54c0-.84,.69-1.68,1.67-1.68h7.08c.83,0,1.67,.7,1.67,1.68v63.54c0,11.03-5.97,17.46-16.38,17.46-3.19,0-5.69,0-12.77-3.49l-14.57-8.38c-3.61-2.09-5.83-6-5.83-10.19V63.92c0-4.19,2.22-8.1,5.83-10.19L90.17,21.47c3.47-1.95,8.19-1.95,11.66,0l55.37,32.26c3.61,2.09,5.82,6,5.82,10.19v64.37c0,4.19-2.22,8.1-5.82,10.19l-55.37,32.26c-1.67,.7-3.75,1.26-5.83,1.26Z"/><path class="cls-2" d="M113.21,127.73c-24.29,0-29.29-11.17-29.29-20.67,0-.84,.69-1.68,1.66-1.68h7.22c.83,0,1.53,.56,1.53,1.4,1.11,7.4,4.3,11.03,19.01,11.03,11.66,0,16.65-2.65,16.65-8.94,0-3.63-1.39-6.28-19.57-8.1-15.13-1.54-24.56-4.89-24.56-17.04,0-11.31,9.44-18.01,25.26-18.01,17.77,0,26.51,6.14,27.62,19.55,0,.42-.14,.84-.41,1.26-.28,.28-.7,.56-1.12,.56h-7.36c-.69,0-1.39-.56-1.52-1.26-1.67-7.68-5.97-10.19-17.35-10.19-12.77,0-14.29,4.47-14.29,7.82,0,4.05,1.8,5.31,19.01,7.54,17.07,2.23,25.12,5.45,25.12,17.46s-10.13,19.27-27.61,19.27Z"/></g></g></svg>