<?xml version="1.0" encoding="UTF-8"?><svg id="Capa_2" xmlns="http://www.w3.org/2000/svg" viewBox="0 0 192 192"><defs><style>.cls-1{fill:none;}.cls-2{fill:#fff;}.cls-3{fill:#6428b4;}</style></defs><g id="outline"><rect class="cls-1" width="192" height="192"/></g><g id="icons"><g id="Favicon_WonP"><g id="Favicon"><rect class="cls-3" x="20.01" y="20" width="152" height="152"/><path class="cls-2" d="M131.47,111.2c8.38,0,15.2-6.82,15.2-15.2s-6.82-15.2-15.2-15.2c-5.27,0-9.93,2.71-12.66,6.8l-5.58,8.4,5.53,8.34c2.72,4.13,7.4,6.86,12.7,6.86m0-40.53c13.99,0,25.33,11.34,25.33,25.33s-11.34,25.33-25.33,25.33c-8.82,0-16.58-4.5-21.12-11.34l-3.2-4.82-6.9,10.4c-6.35,9.58-17.23,15.89-29.58,15.89-19.59,0-35.47-15.88-35.47-35.47s15.88-35.47,35.47-35.47c12.3,0,23.14,6.26,29.5,15.77l.9,1.35-6.09,9.18-3.33-5.02c-4.56-6.72-12.27-11.15-20.98-11.15-13.97,0-25.33,11.36-25.33,25.33s11.36,25.33,25.33,25.33c8.81,0,16.57-4.51,21.12-11.35l18.55-27.95c4.54-6.85,12.31-11.37,21.14-11.37"/></g></g></g></svg>