<?xml version="1.0" encoding="UTF-8"?><svg id="icons" xmlns="http://www.w3.org/2000/svg" viewBox="0 0 192 192"><defs><style>.cls-1{fill:#5a0fc8;}.cls-2{fill:#3d3d3d;}</style></defs><path class="cls-2" d="M137.41,117.2l5.07-12.82h14.64l-6.95-19.45,8.69-21.97,24.89,66.08h-18.35l-4.25-11.83h-23.73Z"/><path class="cls-1" d="M121.76,129.04l26.64-66.08h-17.66s-18.22,42.7-18.22,42.7l-12.96-42.7h-13.58l-13.91,42.7-9.81-19.46-8.88,27.36,9.02,15.47h17.38l12.57-38.29,11.99,38.29h17.43Z"/><path class="cls-2" d="M25.02,106.36h10.88c3.3,0,6.23-.37,8.8-1.1l2.81-8.67,7.86-24.23c-.6-.95-1.28-1.85-2.05-2.69-4.04-4.47-9.94-6.7-17.72-6.7H8.25v66.08H25.02v-22.68Zm14.4-28.19c1.58,1.59,2.37,3.71,2.37,6.37s-.69,4.81-2.08,6.38c-1.52,1.75-4.32,2.62-8.4,2.62h-6.29v-17.75h6.33c3.8,0,6.49,.79,8.07,2.38Z"/></svg>