<?xml version="1.0" encoding="UTF-8"?><svg id="outline" xmlns="http://www.w3.org/2000/svg" viewBox="0 0 192 192"><defs><style>.cls-1{fill:#00435b;}.cls-2{fill:#002b3b;}.cls-3{fill:#ffd94c;}.cls-4{fill:#ff4154;}</style></defs><path class="cls-1" d="M114.15,112.86l-2.97,5.16c-.9,1.56-2.55,2.51-4.35,2.51h-22.78c-1.79,0-3.45-.96-4.35-2.51l-2.97-5.16h37.42Zm8.32-14.45l-5.24,9.1h-43.58l-5.24-9.1h54.07Zm-5.05-14.13l5.06,8.78h-54.08l5.06-8.78h43.97Zm-10.6-13.36c1.79,0,3.45,.96,4.35,2.51l3.17,5.5h-37.8l3.17-5.5c.9-1.56,2.55-2.51,4.35-2.51h22.78Z"/><path class="cls-2" d="M50.91,68.51c-2.52-12.23-3.06-21.62-1.43-28.43,.97-4.05,2.74-7.36,5.44-9.74,2.85-2.52,6.45-3.75,10.49-3.75,6.67,0,13.68,3.04,21.18,8.82,3.06,2.36,6.23,5.2,9.53,8.53,.26-.34,.56-.66,.89-.95,9.32-8.3,17.16-13.46,23.87-15.45,3.99-1.18,7.73-1.3,11.14-.15,3.6,1.21,6.47,3.72,8.49,7.22,3.34,5.79,4.22,13.4,2.98,22.79-.51,3.83-1.38,8-2.6,12.52,.46,.06,.93,.16,1.39,.31,11.82,3.92,20.19,8.13,25.26,12.94,3.01,2.86,4.98,6.05,5.7,9.58,.75,3.73,.02,7.46-2,10.97-3.33,5.78-9.46,10.34-18.2,13.95-3.51,1.45-7.47,2.76-11.91,3.94,.2,.46,.36,.94,.46,1.45,2.52,12.23,3.06,21.62,1.43,28.43-.97,4.05-2.74,7.36-5.44,9.74-2.85,2.52-6.45,3.75-10.49,3.75-6.67,0-13.68-3.04-21.18-8.82-3.09-2.38-6.3-5.26-9.63-8.63-.34,.54-.76,1.04-1.26,1.48-9.32,8.3-17.16,13.46-23.87,15.45-3.99,1.18-7.73,1.3-11.14,.15-3.6-1.21-6.47-3.72-8.49-7.22-3.34-5.79-4.22-13.4-2.98-22.79,.53-3.97,1.44-8.3,2.74-13.01-.51-.05-1.02-.16-1.52-.33-11.82-3.92-20.19-8.13-25.26-12.94-3.01-2.86-4.98-6.05-5.7-9.58-.75-3.73-.02-7.46,2-10.97,3.33-5.78,9.46-10.34,18.2-13.95,3.61-1.49,7.71-2.84,12.3-4.05-.16-.4-.29-.82-.38-1.26Z"/><path class="cls-4" d="M133.33,124.27c1.18-.21,2.3,.55,2.56,1.7v.07s.14,.65,.14,.65c4.06,21.36,1.2,32.04-8.59,32.04s-21.76-9.11-36.57-27.34c-.33-.4-.5-.91-.5-1.43,.01-1.21,.98-2.18,2.18-2.21h.07s.78,0,.78,0c6.23,.03,12.28-.18,18.17-.65,6.94-.55,14.19-1.5,21.75-2.84Zm-67.21-16.15l.04,.06,.39,.68c3.13,5.45,6.4,10.62,9.8,15.52,4,5.76,8.5,11.6,13.5,17.51,.77,.91,.68,2.27-.19,3.08l-.06,.05-.5,.43c-16.53,14.17-27.28,16.99-32.24,8.48-4.85-8.33-3.09-23.48,5.28-45.44,.18-.48,.53-.89,.98-1.14,1.05-.6,2.38-.25,3,.77Zm75.6-31.52l.07,.02,.62,.21c20.41,7.1,28.16,14.9,23.26,23.4-4.79,8.32-18.73,14.37-41.8,18.17-.51,.08-1.04-.01-1.49-.28-1.06-.62-1.42-1.99-.79-3.05,3.3-5.62,6.28-11.22,8.93-16.78,3-6.31,5.82-13.09,8.46-20.33,.4-1.1,1.57-1.69,2.68-1.39l.07,.02Zm-72.09-3.57c1.06,.62,1.42,1.99,.79,3.05-3.3,5.62-6.28,11.22-8.93,16.78-3,6.31-5.82,13.09-8.46,20.33-.41,1.12-1.62,1.72-2.75,1.37l-.07-.02-.62-.21c-20.41-7.1-28.16-14.9-23.26-23.4,4.79-8.32,18.73-14.37,41.8-18.17,.51-.08,1.04,.01,1.49,.28Zm65.52-34.96c4.85,8.33,3.09,23.48-5.28,45.44-.18,.48-.53,.89-.98,1.14-1.05,.6-2.38,.25-3-.77l-.04-.06-.39-.68c-3.13-5.45-6.4-10.62-9.8-15.52-4-5.76-8.5-11.6-13.5-17.51-.77-.91-.68-2.27,.19-3.08l.06-.05,.5-.43c16.53-14.17,27.28-16.99,32.24-8.48Zm-69.75-5.07c9.57,0,21.76,9.11,36.57,27.34,.33,.4,.5,.91,.5,1.43-.01,1.21-.98,2.18-2.18,2.21h-.07s-.78,0-.78,0c-6.23-.03-12.28,.18-18.17,.65-6.94,.55-14.19,1.5-21.75,2.84-1.18,.21-2.3-.55-2.56-1.7v-.07s-.14-.65-.14-.65c-4.06-21.36-1.2-32.04,8.59-32.04Z"/><path class="cls-3" d="M85.89,71.19h19.12c2.8,0,5.38,1.5,6.77,3.92l9.6,16.73c1.38,2.41,1.38,5.36,0,7.77l-9.6,16.73c-1.39,2.42-3.97,3.92-6.77,3.92h-19.12c-2.8,0-5.38-1.5-6.77-3.92l-9.6-16.73c-1.38-2.41-1.38-5.36,0-7.77l9.6-16.73c1.39-2.42,3.97-3.92,6.77-3.92Zm16.2,5.05c2.8,0,5.38,1.5,6.77,3.92l6.69,11.68c1.38,2.4,1.38,5.36,0,7.76l-6.69,11.68c-1.39,2.43-3.97,3.92-6.77,3.92h-13.29c-2.8,0-5.38-1.5-6.77-3.92l-6.69-11.68c-1.38-2.4-1.38-5.36,0-7.76l6.69-11.68c1.39-2.43,3.97-3.92,6.77-3.92h13.29Zm-3.14,5.52h-7.01c-2.79,0-5.38,1.49-6.77,3.92h0l-3.54,6.16c-1.38,2.41-1.38,5.37,0,7.78h0l3.54,6.16c1.39,2.42,3.97,3.92,6.77,3.92h7.01c2.79,0,5.38-1.49,6.77-3.92h0l3.54-6.16c1.38-2.41,1.38-5.37,0-7.78h0l-3.54-6.16c-1.39-2.42-3.97-3.92-6.77-3.92h0Zm-3.02,5.29c2.79,0,5.37,1.49,6.77,3.91l.5,.87c1.39,2.41,1.39,5.38,0,7.79l-.5,.87c-1.39,2.42-3.97,3.91-6.77,3.91h-.96c-2.79,0-5.37-1.49-6.77-3.91l-.5-.87c-1.39-2.41-1.39-5.38,0-7.79l.5-.87c1.39-2.42,3.97-3.91,6.77-3.91h.96Zm-.48,5.21c-1.24,0-2.39,.66-3.01,1.74-.62,1.07-.62,2.4,0,3.47,.62,1.07,1.77,1.74,3.01,1.74h0c1.24,0,2.39-.66,3.01-1.74,.62-1.07,.62-2.4,0-3.47-.62-1.07-1.77-1.74-3.01-1.74h0Z"/></svg>