<?xml version="1.0" encoding="UTF-8"?><svg id="outline" xmlns="http://www.w3.org/2000/svg" xmlns:xlink="http://www.w3.org/1999/xlink" viewBox="0 0 192 192"><defs><style>.cls-1{fill:none;}.cls-2{clip-path:url(#clippath);}.cls-3{fill:#fff;}.cls-4{fill:#a32422;}.cls-5{fill:#741113;}.cls-6{fill:#ac2724;}.cls-7{fill:#dc382c;}</style><clipPath id="clippath"><rect class="cls-1" x="18.5" y="29.58" width="155" height="132.83"/></clipPath></defs><g id="Layer_2"><g id="Layer_1-2"><g class="cls-2"><g><path class="cls-4" d="M167.4,131.99c-8.26,4.32-51.11,21.94-60.34,26.78-9.23,4.84-14.17,4.7-21.39,1.25-7.22-3.45-52.67-21.93-60.9-25.87-4.15-1.95-6.27-3.61-6.27-5.17v-15.68s59.37-12.88,68.95-16.36c9.58-3.47,12.89-3.56,21.03-.57,8.14,2.99,56.94,11.79,65,14.71v15.46c0,1.61-1.85,3.18-6.08,5.43h0Z"/><path class="cls-7" d="M167.4,116.39c-8.26,4.3-51.11,21.92-60.34,26.68-9.23,4.75-14.17,4.71-21.39,1.27-7.22-3.44-52.67-21.92-60.9-25.83-8.24-3.91-8.39-6.64-.32-9.79,8.08-3.15,53.42-20.91,63-24.4,9.58-3.49,12.89-3.57,21.03-.57,8.14,3,50.81,19.94,58.83,22.9,8.01,2.95,8.38,5.38,.1,9.67v.08Z"/><path class="cls-4" d="M167.4,106.46c-8.26,4.31-51.11,21.92-60.34,26.68-9.23,4.75-14.13,4.71-21.35,1.25-7.22-3.46-52.71-21.84-60.94-25.77-4.15-1.97-6.27-3.62-6.27-5.19v-15.62s59.37-12.93,68.95-16.4c9.58-3.47,12.89-3.57,21.03-.54,8.14,3.03,56.94,11.75,65,14.69v15.46c0,1.61-1.85,3.22-6.08,5.44Z"/><path class="cls-7" d="M167.4,90.78c-8.26,4.32-51.11,21.93-60.34,26.69-9.23,4.75-14.17,4.72-21.39,1.27-7.22-3.45-52.67-21.86-60.9-25.8-8.24-3.94-8.38-6.62-.32-9.77s53.42-20.95,63-24.35c9.58-3.4,12.89-3.61,21.03-.66,8.14,2.95,50.81,20.05,58.83,22.92,8.01,2.87,8.38,5.39,.1,9.67v.03Z"/><path class="cls-4" d="M167.4,79.96c-8.26,4.32-51.11,21.94-60.34,26.69-9.23,4.74-14.13,4.71-21.35,1.27-7.22-3.44-52.71-21.87-60.94-25.8-4.15-1.95-6.27-3.61-6.27-5.18v-15.68s59.37-12.88,68.95-16.34c9.58-3.46,12.89-3.57,21.03-.58,8.14,2.99,56.92,11.79,64.98,14.74v15.46c.02,1.63-1.83,3.22-6.06,5.43Z"/><path class="cls-7" d="M167.4,64.31c-8.26,4.23-51.11,21.97-60.34,26.68-9.23,4.71-14.17,4.7-21.39,1.27-7.22-3.43-52.67-21.88-60.9-25.8-8.24-3.92-8.39-6.64-.32-9.79,8.08-3.15,53.42-20.94,63-24.39,9.58-3.45,12.89-3.56,21.03-.57,8.14,2.99,50.81,19.95,58.83,22.9,8.01,2.94,8.38,5.39,.1,9.68v.03Z"/></g></g><polygon class="cls-3" points="98.42 42.04 108.65 38.69 105.88 45.31 116.28 49.21 102.87 50.61 99.85 57.85 95 49.77 79.5 48.37 91.08 44.2 87.59 37.79 98.42 42.04 98.42 42.04 98.42 42.04"/><polygon class="cls-3" points="99.07 84.31 74 73.91 109.91 68.39 99.07 84.31 99.07 84.31 99.07 84.31"/><path class="cls-3" d="M64.32,53.23c10.59,0,19.19,3.33,19.19,7.41s-8.63,7.41-19.19,7.41-19.2-3.33-19.2-7.41,8.61-7.41,19.2-7.41Z"/><polygon class="cls-5" points="132.17 51.19 153.42 59.58 132.19 67.98 132.17 51.19 132.17 51.19 132.17 51.19"/><polygon class="cls-6" points="132.17 51.19 132.19 67.98 129.89 68.88 108.65 60.48 132.17 51.19 132.17 51.19 132.17 51.19"/></g></g></svg>