<?xml version="1.0" encoding="UTF-8"?><svg id="Capa_2" xmlns="http://www.w3.org/2000/svg" xmlns:xlink="http://www.w3.org/1999/xlink" viewBox="0 0 192 192"><defs><style>.cls-1{fill:none;}.cls-2{mask:url(#mask);}.cls-3{fill:#fff;}.cls-4{fill:#ff4785;}</style><mask id="mask" x="33.8" y="18.5" width="124.41" height="155" maskUnits="userSpaceOnUse"/></defs><g id="icons"><g id="storybook-icon_default"><g id="path1_fill-path"><path id="Combined-Shape" class="cls-4" d="M158.19,25.81c.01,.16,.02,.32,.02,.49V165.71c0,4.3-3.49,7.79-7.79,7.79-.12,0-.23,0-.35,0l-104.02-4.67c-4.05-.18-7.29-3.44-7.44-7.49l-4.8-127.94c-.16-4.23,3.08-7.81,7.3-8.07l85.3-5.33-.74,17.57c0,.2,.04,.4,.13,.58l.11,.17c.39,.51,1.12,.61,1.63,.22h0l6.82-5.18,5.76,4.54c.22,.17,.49,.26,.76,.25,.64-.02,1.14-.56,1.12-1.2h0l-.64-17.89,8.58-.53c4.3-.27,8,3,8.26,7.29Z"/></g><g id="path2_fill-path-Clipped"><g class="cls-2"><path id="path2_fill-path" class="cls-3" d="M125.66,37.55l.74-17.57,14.94-.93,.64,17.89c.02,.64-.48,1.18-1.12,1.2-.27,0-.54-.08-.76-.25l-5.76-4.54-6.82,5.18c-.51,.39-1.24,.29-1.63-.22-.16-.22-.25-.48-.24-.75Z"/></g></g></g><rect class="cls-1" width="192" height="192"/><path class="cls-3" d="M106.55,76.92c0,3.03,20.42,1.58,23.16-.55,0-20.65-11.08-31.5-31.37-31.5s-31.65,11.02-31.65,27.55c0,28.79,38.85,29.34,38.85,45.04,0,4.41-2.16,7.02-6.91,7.02-6.19,0-8.63-3.16-8.34-13.9,0-2.33-23.6-3.06-24.32,0-1.83,26.03,14.39,33.54,32.95,33.54s32.08-9.59,32.08-26.94c0-30.85-39.42-30.02-39.42-45.31,0-6.2,4.6-7.02,7.34-7.02,2.88,0,8.06,.51,7.63,12.08Z"/></g></svg>