<?xml version="1.0" encoding="UTF-8"?><svg id="icons" xmlns="http://www.w3.org/2000/svg" viewBox="0 0 192 192"><defs><style>.cls-1{fill:#fff;}.cls-2{fill:#ff3e00;}</style></defs><path class="cls-2" d="M152.17,39c-14.31-20.62-42.81-26.66-63.3-13.66l-36.11,23.11c-9.85,6.17-16.68,16.28-18.65,27.71-1.71,9.59-.26,19.44,4.33,27.97-3.15,4.73-5.25,9.98-6.17,15.5-2.1,11.69,.66,23.77,7.49,33.36,14.45,20.62,42.81,26.66,63.3,13.66l36.11-22.98c9.85-6.17,16.68-16.28,18.65-27.71,1.71-9.59,.26-19.44-4.33-27.97,3.15-4.73,5.25-9.98,6.17-15.5,2.23-11.82-.53-23.9-7.49-33.49"/><path class="cls-1" d="M85.36,154.97c-11.69,3.02-23.9-1.58-30.73-11.43-4.2-5.78-5.78-13-4.6-20.09,.26-1.18,.53-2.23,.79-3.41l.66-2.1,1.84,1.31c4.33,3.15,9.06,5.52,14.18,7.09l1.31,.39-.13,1.31c-.13,1.84,.39,3.81,1.44,5.38,2.1,3.02,5.78,4.47,9.32,3.55,.79-.26,1.58-.53,2.23-.92l35.98-22.98c1.84-1.18,3.02-2.89,3.41-4.99,.39-2.1-.13-4.33-1.31-6.04-2.1-3.02-5.78-4.33-9.32-3.41-.79,.26-1.58,.53-2.23,.92l-13.79,8.8c-2.23,1.44-4.73,2.5-7.35,3.15-11.69,3.02-23.9-1.58-30.73-11.43-4.07-5.78-5.78-13-4.47-20.09,1.18-6.83,5.38-13,11.29-16.68l36.11-22.98c2.23-1.44,4.73-2.5,7.35-3.28,11.69-3.02,23.9,1.58,30.73,11.43,4.2,5.78,5.78,13,4.6,20.09-.26,1.18-.53,2.23-.92,3.41l-.66,2.1-1.84-1.31c-4.33-3.15-9.06-5.52-14.18-7.09l-1.31-.39,.13-1.31c.13-1.84-.39-3.81-1.44-5.38-2.1-3.02-5.78-4.33-9.32-3.41-.79,.26-1.58,.53-2.23,.92l-35.98,22.98c-1.84,1.18-3.02,2.89-3.41,4.99s.13,4.33,1.31,6.04c2.1,3.02,5.78,4.33,9.32,3.41,.79-.26,1.58-.53,2.23-.92l13.79-8.8c2.23-1.44,4.73-2.5,7.35-3.28,11.69-3.02,23.9,1.58,30.73,11.43,4.2,5.78,5.78,13,4.6,20.09-1.18,6.83-5.38,13-11.29,16.68l-36.11,22.98c-2.23,1.44-4.73,2.5-7.35,3.28"/></svg>