<?xml version="1.0" encoding="UTF-8"?><svg id="icons" xmlns="http://www.w3.org/2000/svg" xmlns:xlink="http://www.w3.org/1999/xlink" viewBox="0 0 192 192"><defs><style>.cls-1{fill:url(#Degradado_sin_nombre_39);fill-rule:evenodd;}</style><linearGradient id="Degradado_sin_nombre_39" x1="96" y1="-1694.31" x2="96" y2="-1539.31" gradientTransform="translate(0 -1520.81) scale(1 -1)" gradientUnits="userSpaceOnUse"><stop offset="0" stop-color="#0052cc"/><stop offset="1" stop-color="#2684ff"/></linearGradient></defs><g id="Logos"><path class="cls-1" d="M155.06,18.5H36.94c-10.18,.01-18.43,8.26-18.44,18.44v118.12c.01,10.18,8.26,18.43,18.44,18.44h118.12c10.18-.01,18.43-8.26,18.44-18.44V36.94c-.01-10.18-8.26-18.43-18.44-18.44Zm-69.79,111.63c0,3.39-2.74,6.13-6.13,6.13h-25.89c-3.39,0-6.13-2.74-6.13-6.13V53.24c0-3.39,2.74-6.13,6.13-6.13h25.89c3.39,0,6.13,2.74,6.13,6.13v76.89Zm59.62-35.3c.07,3.38-2.62,6.19-6,6.26-.04,0-.09,0-.13,0h-25.89c-3.39,0-6.13-2.74-6.13-6.13V53.24c0-3.39,2.74-6.13,6.13-6.13h25.89c3.39,0,6.13,2.74,6.13,6.13v41.59Z"/></g></svg>