<?xml version="1.0" encoding="UTF-8"?><svg id="Capa_2" xmlns="http://www.w3.org/2000/svg" viewBox="0 0 192 192"><defs><style>.cls-1{fill:none;}.cls-2{fill:#fff;}.cls-3{fill:#63bf6a;}.cls-4{fill:#78dc50;}.cls-5{fill:#74d74d;}</style></defs><g id="outline"><rect class="cls-1" width="192" height="192"/></g><g id="icons"><g><path class="cls-3" d="M33.97,38.8c1.42,2.17,13.57-8.73,24.18-6.3,11.19,2.56,21.79,20.21,26.31,74.36,6.81,6.12,13.23,12.67,19.22,19.59,1.92,2.22,3.75,4.43,5.5,6.62,.26-2.56,.68-5.09,1.24-7.6,1.97-8.59,5.63-16.71,10.75-23.88-1.72-17.82-8.02-34.89-18.28-49.57-5.59-7.84-24.97-35.16-46.39-31.71-13.81,2.21-24.02,16.27-22.54,18.49Z"/><path class="cls-5" d="M141.58,171.98c-1.74-13.93-2.43-25.84-2.71-35-.51-17.54,.54-24.65,4.89-31.24,1.05-1.6,6.99-10.72,14-10.11,7.96,.69,12.01,13.1,12.82,12.68,.95-.49-1.95-19.23-13.74-24.05-14.11-5.77-34.26,11.24-42.34,27.98-2.16,4.88-3.72,10-4.65,15.25-3.16,14.61-4.46,29.57-3.85,44.51h35.59Z"/><path class="cls-4" d="M21.29,84.78c.79-2.43,13.4-1.41,24.64,1.59,13.57,3.61,37.99,12.72,63.24,46.71,7.18,11.66,10.68,25.22,10.04,38.9h-53.7c.57-8.37,.25-16.77-.95-25.08-1.03-13.88-5.63-27.27-13.35-38.85-12.54-16.63-30.92-20.2-29.93-23.27Z"/><path class="cls-2" d="M103.05,124.88c0,5.25-4.26,9.51-9.52,9.51-5.25,0-9.51-4.26-9.51-9.52s4.26-9.51,9.52-9.51c2.52,0,4.94,1,6.73,2.79,1.79,1.78,2.79,4.21,2.78,6.73Z"/><path class="cls-2" d="M128.42,124.88c0,5.25-4.26,9.51-9.52,9.51s-9.51-4.26-9.51-9.52c0-5.25,4.26-9.51,9.52-9.51,2.52,0,4.94,1,6.73,2.79,1.79,1.78,2.79,4.21,2.78,6.73Z"/></g></g></svg>