<?xml version="1.0" encoding="UTF-8"?><svg id="icons" xmlns="http://www.w3.org/2000/svg" viewBox="0 0 192 192"><defs><style>.cls-1{fill:#fff;}.cls-2{fill:#8ed6fb;}.cls-3{fill:#1c78c0;}</style></defs><path class="cls-1" d="M96,8.25l77.56,43.87v87.76l-77.56,43.87L18.44,139.88V52.12L96,8.25Z"/><path class="cls-2" d="M159.71,136.85l-61.15,34.59v-26.94l38.1-20.96,23.05,13.31h0Zm4.19-3.79V60.74l-22.37,12.93v46.5l22.37,12.91h0Zm-131.85,3.79l61.15,34.59v-26.94l-38.12-20.96-23.03,13.31Zm-4.19-3.79V60.74l22.37,12.93v46.5l-22.37,12.91Zm2.63-77.02L93.19,20.58v26.03l-40.18,22.11-.32,.18s-22.21-12.85-22.21-12.85Zm130.79,0L98.57,20.58v26.03l40.18,22.09,.32,.18,22.21-12.83h0Z"/><path class="cls-3" d="M93.19,138.38l-37.6-20.68v-40.94l37.6,21.7v39.92Zm5.37,0l37.6-20.66v-40.96l-37.6,21.7v39.92ZM58.14,72.02l37.74-20.74,37.74,20.74-37.74,21.78-37.74-21.78h0Z"/></svg>