<?xml version="1.0" encoding="UTF-8"?><svg id="icons" xmlns="http://www.w3.org/2000/svg" viewBox="0 0 192 192"><defs><style>.cls-1{fill:#fff;}.cls-2{fill:#2c8ebb;}</style></defs><path class="cls-2" d="M96,18.5c42.79,0,77.5,34.71,77.5,77.5s-34.71,77.5-77.5,77.5S18.5,138.79,18.5,96,53.21,18.5,96,18.5Z"/><path class="cls-1" d="M148.72,119.49c-.54-4.25-4.13-7.18-8.74-7.12-6.88,.09-12.66,3.65-16.49,6.01-1.5,.93-2.78,1.62-3.89,2.12,.24-3.47,.03-8.02-1.77-13.02-2.18-5.98-5.12-9.67-7.21-11.79,2.42-3.53,5.75-8.68,7.3-16.64,1.35-6.79,.93-17.36-2.15-23.28-.63-1.2-1.68-2.06-2.99-2.42-.54-.15-1.56-.45-3.56,.12-3.02-6.25-4.07-6.91-4.88-7.45-1.68-1.08-3.65-1.32-5.51-.63-2.48,.9-4.61,3.29-6.61,7.54-.3,.63-.57,1.23-.81,1.83-3.8,.27-9.78,1.65-14.84,7.12-.63,.69-1.86,1.2-3.14,1.68h.03c-2.63,.93-3.83,3.08-5.3,6.97-2.03,5.45,.06,10.8,2.12,14.27-2.81,2.51-6.55,6.52-8.53,11.22-2.45,5.81-2.72,11.49-2.63,14.57-2.09,2.21-5.33,6.37-5.69,11.04-.48,6.52,1.89,10.95,2.93,12.57,.3,.48,.63,.87,.99,1.26-.12,.81-.15,1.68,.03,2.57,.39,2.09,1.71,3.8,3.71,4.88,3.95,2.09,9.46,2.99,13.7,.87,1.53,1.62,4.31,3.17,9.37,3.17h.3c1.29,0,17.62-.87,22.38-2.03,2.12-.51,3.59-1.41,4.55-2.21,3.05-.96,11.49-3.83,19.45-8.98,5.63-3.65,7.57-4.43,11.76-5.45,4.07-.99,6.61-4.7,6.1-8.8h0Zm-7.12,4.4c-4.79,1.14-7.21,2.18-13.14,6.04-9.25,5.98-19.36,8.77-19.36,8.77,0,0-.84,1.26-3.26,1.83-4.19,1.02-19.96,1.89-21.39,1.92-3.86,.03-6.22-.99-6.88-2.57-2-4.79,2.87-6.88,2.87-6.88,0,0-1.08-.66-1.71-1.26-.57-.57-1.17-1.71-1.35-1.29-.75,1.83-1.14,6.28-3.14,8.29-2.75,2.78-7.96,1.86-11.04,.24-3.38-1.8,.24-6.01,.24-6.01,0,0-1.83,1.08-3.29-1.14-1.32-2.03-2.54-5.51-2.21-9.78,.36-4.88,5.81-9.61,5.81-9.61,0,0-.96-7.21,2.18-14.6,2.84-6.73,10.5-12.15,10.5-12.15,0,0-6.43-7.12-4.04-13.53,1.56-4.19,2.18-4.16,2.69-4.34,1.8-.69,3.53-1.44,4.82-2.84,6.43-6.94,14.63-5.63,14.63-5.63,0,0,3.89-11.82,7.48-9.52,1.11,.72,5.09,9.58,5.09,9.58,0,0,4.25-2.48,4.73-1.56,2.57,5,2.87,14.54,1.74,20.35-1.92,9.58-6.7,14.72-8.62,17.95-.45,.75,5.15,3.11,8.68,12.9,3.26,8.95,.36,16.46,.87,17.3,.09,.15,.12,.21,.12,.21,0,0,3.74,.3,11.25-4.34,4.01-2.48,8.77-5.27,14.18-5.33,5.24-.09,5.51,6.04,1.56,7h0Z"/></svg>